<?xml version="1.0" encoding="utf-8"?>
<svg xmlns="http://www.w3.org/2000/svg" xmlns:xlink="http://www.w3.org/1999/xlink" width="1000" height="400" viewBox="0 0 4000 1600">
<defs>
  <clipPath id="clip410">
    <rect x="0" y="0" width="4000" height="1600"/>
  </clipPath>
</defs>
<path clip-path="url(#clip410)" d="M0 1600 L4000 1600 L4000 0 L0 0  Z" fill="#ffffff" fill-rule="evenodd" fill-opacity="1"/>
<defs>
  <clipPath id="clip411">
    <rect x="800" y="0" width="2801" height="1600"/>
  </clipPath>
</defs>
<path clip-path="url(#clip410)" d="M291.809 1332.19 L1876.18 1332.19 L1876.18 47.2441 L291.809 47.2441  Z" fill="#ffffff" fill-rule="evenodd" fill-opacity="1"/>
<defs>
  <clipPath id="clip412">
    <rect x="291" y="47" width="1585" height="1286"/>
  </clipPath>
</defs>
<polyline clip-path="url(#clip412)" style="stroke:#000000; stroke-linecap:round; stroke-linejoin:round; stroke-width:2; stroke-opacity:0.1; fill:none" points="483.796,1332.19 483.796,47.2441 "/>
<polyline clip-path="url(#clip412)" style="stroke:#000000; stroke-linecap:round; stroke-linejoin:round; stroke-width:2; stroke-opacity:0.1; fill:none" points="783.895,1332.19 783.895,47.2441 "/>
<polyline clip-path="url(#clip412)" style="stroke:#000000; stroke-linecap:round; stroke-linejoin:round; stroke-width:2; stroke-opacity:0.1; fill:none" points="1083.99,1332.19 1083.99,47.2441 "/>
<polyline clip-path="url(#clip412)" style="stroke:#000000; stroke-linecap:round; stroke-linejoin:round; stroke-width:2; stroke-opacity:0.1; fill:none" points="1384.09,1332.19 1384.09,47.2441 "/>
<polyline clip-path="url(#clip412)" style="stroke:#000000; stroke-linecap:round; stroke-linejoin:round; stroke-width:2; stroke-opacity:0.1; fill:none" points="1684.19,1332.19 1684.19,47.2441 "/>
<polyline clip-path="url(#clip410)" style="stroke:#000000; stroke-linecap:round; stroke-linejoin:round; stroke-width:4; stroke-opacity:1; fill:none" points="291.809,1332.19 1876.18,1332.19 "/>
<polyline clip-path="url(#clip410)" style="stroke:#000000; stroke-linecap:round; stroke-linejoin:round; stroke-width:4; stroke-opacity:1; fill:none" points="483.796,1332.19 483.796,1313.29 "/>
<polyline clip-path="url(#clip410)" style="stroke:#000000; stroke-linecap:round; stroke-linejoin:round; stroke-width:4; stroke-opacity:1; fill:none" points="783.895,1332.19 783.895,1313.29 "/>
<polyline clip-path="url(#clip410)" style="stroke:#000000; stroke-linecap:round; stroke-linejoin:round; stroke-width:4; stroke-opacity:1; fill:none" points="1083.99,1332.19 1083.99,1313.29 "/>
<polyline clip-path="url(#clip410)" style="stroke:#000000; stroke-linecap:round; stroke-linejoin:round; stroke-width:4; stroke-opacity:1; fill:none" points="1384.09,1332.19 1384.09,1313.29 "/>
<polyline clip-path="url(#clip410)" style="stroke:#000000; stroke-linecap:round; stroke-linejoin:round; stroke-width:4; stroke-opacity:1; fill:none" points="1684.19,1332.19 1684.19,1313.29 "/>
<path clip-path="url(#clip410)" d="M411.904 1423.09 L423.362 1423.09 L423.362 1383.54 L410.897 1386.04 L410.897 1379.65 L423.293 1377.15 L430.307 1377.15 L430.307 1423.09 L441.765 1423.09 L441.765 1428.99 L411.904 1428.99 L411.904 1423.09 Z" fill="#000000" fill-rule="nonzero" fill-opacity="1" /><path clip-path="url(#clip410)" d="M455.932 1420.17 L463.258 1420.17 L463.258 1428.99 L455.932 1428.99 L455.932 1420.17 Z" fill="#000000" fill-rule="nonzero" fill-opacity="1" /><path clip-path="url(#clip410)" d="M493.536 1381.77 Q488.119 1381.77 485.376 1387.12 Q482.668 1392.43 482.668 1403.12 Q482.668 1413.78 485.376 1419.13 Q488.119 1424.44 493.536 1424.44 Q498.987 1424.44 501.695 1419.13 Q504.438 1413.78 504.438 1403.12 Q504.438 1392.43 501.695 1387.12 Q498.987 1381.77 493.536 1381.77 M493.536 1376.21 Q502.251 1376.21 506.834 1383.12 Q511.452 1390 511.452 1403.12 Q511.452 1416.21 506.834 1423.12 Q502.251 1430 493.536 1430 Q484.82 1430 480.202 1423.12 Q475.619 1416.21 475.619 1403.12 Q475.619 1390 480.202 1383.12 Q484.82 1376.21 493.536 1376.21 Z" fill="#000000" fill-rule="nonzero" fill-opacity="1" /><path clip-path="url(#clip410)" d="M538.778 1381.77 Q533.362 1381.77 530.619 1387.12 Q527.91 1392.43 527.91 1403.12 Q527.91 1413.78 530.619 1419.13 Q533.362 1424.44 538.778 1424.44 Q544.23 1424.44 546.938 1419.13 Q549.681 1413.78 549.681 1403.12 Q549.681 1392.43 546.938 1387.12 Q544.23 1381.77 538.778 1381.77 M538.778 1376.21 Q547.494 1376.21 552.077 1383.12 Q556.695 1390 556.695 1403.12 Q556.695 1416.21 552.077 1423.12 Q547.494 1430 538.778 1430 Q530.063 1430 525.445 1423.12 Q520.862 1416.21 520.862 1403.12 Q520.862 1390 525.445 1383.12 Q530.063 1376.21 538.778 1376.21 Z" fill="#000000" fill-rule="nonzero" fill-opacity="1" /><path clip-path="url(#clip410)" d="M712.749 1423.09 L724.207 1423.09 L724.207 1383.54 L711.742 1386.04 L711.742 1379.65 L724.138 1377.15 L731.152 1377.15 L731.152 1423.09 L742.61 1423.09 L742.61 1428.99 L712.749 1428.99 L712.749 1423.09 Z" fill="#000000" fill-rule="nonzero" fill-opacity="1" /><path clip-path="url(#clip410)" d="M756.777 1420.17 L764.103 1420.17 L764.103 1428.99 L756.777 1428.99 L756.777 1420.17 Z" fill="#000000" fill-rule="nonzero" fill-opacity="1" /><path clip-path="url(#clip410)" d="M785.422 1423.09 L809.901 1423.09 L809.901 1428.99 L776.985 1428.99 L776.985 1423.09 Q780.978 1418.96 787.853 1412.01 Q794.763 1405.03 796.533 1403.02 Q799.901 1399.23 801.221 1396.63 Q802.575 1393.99 802.575 1391.46 Q802.575 1387.32 799.658 1384.72 Q796.776 1382.12 792.124 1382.12 Q788.825 1382.12 785.145 1383.26 Q781.499 1384.41 777.332 1386.73 L777.332 1379.65 Q781.568 1377.95 785.249 1377.08 Q788.929 1376.21 791.985 1376.21 Q800.04 1376.21 804.832 1380.24 Q809.624 1384.27 809.624 1391.01 Q809.624 1394.2 808.408 1397.08 Q807.228 1399.93 804.068 1403.82 Q803.2 1404.82 798.547 1409.65 Q793.895 1414.44 785.422 1423.09 Z" fill="#000000" fill-rule="nonzero" fill-opacity="1" /><path clip-path="url(#clip410)" d="M824.693 1377.15 L852.228 1377.15 L852.228 1383.05 L831.117 1383.05 L831.117 1395.76 Q832.644 1395.24 834.172 1395 Q835.7 1394.72 837.228 1394.72 Q845.908 1394.72 850.978 1399.48 Q856.047 1404.23 856.047 1412.36 Q856.047 1420.73 850.839 1425.38 Q845.63 1430 836.151 1430 Q832.887 1430 829.485 1429.44 Q826.117 1428.89 822.505 1427.78 L822.505 1420.73 Q825.63 1422.43 828.964 1423.26 Q832.297 1424.1 836.012 1424.1 Q842.019 1424.1 845.526 1420.94 Q849.033 1417.78 849.033 1412.36 Q849.033 1406.94 845.526 1403.78 Q842.019 1400.62 836.012 1400.62 Q833.2 1400.62 830.387 1401.25 Q827.61 1401.87 824.693 1403.19 L824.693 1377.15 Z" fill="#000000" fill-rule="nonzero" fill-opacity="1" /><path clip-path="url(#clip410)" d="M1012.1 1423.09 L1023.56 1423.09 L1023.56 1383.54 L1011.09 1386.04 L1011.09 1379.65 L1023.49 1377.15 L1030.5 1377.15 L1030.5 1423.09 L1041.96 1423.09 L1041.96 1428.99 L1012.1 1428.99 L1012.1 1423.09 Z" fill="#000000" fill-rule="nonzero" fill-opacity="1" /><path clip-path="url(#clip410)" d="M1056.13 1420.17 L1063.46 1420.17 L1063.46 1428.99 L1056.13 1428.99 L1056.13 1420.17 Z" fill="#000000" fill-rule="nonzero" fill-opacity="1" /><path clip-path="url(#clip410)" d="M1078.8 1377.15 L1106.34 1377.15 L1106.34 1383.05 L1085.23 1383.05 L1085.23 1395.76 Q1086.75 1395.24 1088.28 1395 Q1089.81 1394.72 1091.34 1394.72 Q1100.02 1394.72 1105.09 1399.48 Q1110.16 1404.23 1110.16 1412.36 Q1110.16 1420.73 1104.95 1425.38 Q1099.74 1430 1090.26 1430 Q1087 1430 1083.59 1429.44 Q1080.23 1428.89 1076.61 1427.78 L1076.61 1420.73 Q1079.74 1422.43 1083.07 1423.26 Q1086.41 1424.1 1090.12 1424.1 Q1096.13 1424.1 1099.64 1420.94 Q1103.14 1417.78 1103.14 1412.36 Q1103.14 1406.94 1099.64 1403.78 Q1096.13 1400.62 1090.12 1400.62 Q1087.31 1400.62 1084.5 1401.25 Q1081.72 1401.87 1078.8 1403.19 L1078.8 1377.15 Z" fill="#000000" fill-rule="nonzero" fill-opacity="1" /><path clip-path="url(#clip410)" d="M1138.98 1381.77 Q1133.56 1381.77 1130.82 1387.12 Q1128.11 1392.43 1128.11 1403.12 Q1128.11 1413.78 1130.82 1419.13 Q1133.56 1424.44 1138.98 1424.44 Q1144.43 1424.44 1147.14 1419.13 Q1149.88 1413.78 1149.88 1403.12 Q1149.88 1392.43 1147.14 1387.12 Q1144.43 1381.77 1138.98 1381.77 M1138.98 1376.21 Q1147.69 1376.21 1152.27 1383.12 Q1156.89 1390 1156.89 1403.12 Q1156.89 1416.21 1152.27 1423.12 Q1147.69 1430 1138.98 1430 Q1130.26 1430 1125.64 1423.12 Q1121.06 1416.21 1121.06 1403.12 Q1121.06 1390 1125.64 1383.12 Q1130.26 1376.21 1138.98 1376.21 Z" fill="#000000" fill-rule="nonzero" fill-opacity="1" /><path clip-path="url(#clip410)" d="M1312.95 1423.09 L1324.4 1423.09 L1324.4 1383.54 L1311.94 1386.04 L1311.94 1379.65 L1324.34 1377.15 L1331.35 1377.15 L1331.35 1423.09 L1342.81 1423.09 L1342.81 1428.99 L1312.95 1428.99 L1312.95 1423.09 Z" fill="#000000" fill-rule="nonzero" fill-opacity="1" /><path clip-path="url(#clip410)" d="M1356.97 1420.17 L1364.3 1420.17 L1364.3 1428.99 L1356.97 1428.99 L1356.97 1420.17 Z" fill="#000000" fill-rule="nonzero" fill-opacity="1" /><path clip-path="url(#clip410)" d="M1377.81 1377.15 L1411.14 1377.15 L1411.14 1380.14 L1392.32 1428.99 L1384.99 1428.99 L1402.7 1383.05 L1377.81 1383.05 L1377.81 1377.15 Z" fill="#000000" fill-rule="nonzero" fill-opacity="1" /><path clip-path="url(#clip410)" d="M1424.89 1377.15 L1452.42 1377.15 L1452.42 1383.05 L1431.31 1383.05 L1431.31 1395.76 Q1432.84 1395.24 1434.37 1395 Q1435.9 1394.72 1437.42 1394.72 Q1446.11 1394.72 1451.17 1399.48 Q1456.24 1404.23 1456.24 1412.36 Q1456.24 1420.73 1451.04 1425.38 Q1445.83 1430 1436.35 1430 Q1433.08 1430 1429.68 1429.44 Q1426.31 1428.89 1422.7 1427.78 L1422.7 1420.73 Q1425.83 1422.43 1429.16 1423.26 Q1432.49 1424.1 1436.21 1424.1 Q1442.22 1424.1 1445.72 1420.94 Q1449.23 1417.78 1449.23 1412.36 Q1449.23 1406.94 1445.72 1403.78 Q1442.22 1400.62 1436.21 1400.62 Q1433.4 1400.62 1430.58 1401.25 Q1427.81 1401.87 1424.89 1403.19 L1424.89 1377.15 Z" fill="#000000" fill-rule="nonzero" fill-opacity="1" /><path clip-path="url(#clip410)" d="M1618.43 1423.09 L1642.91 1423.09 L1642.91 1428.99 L1609.99 1428.99 L1609.99 1423.09 Q1613.98 1418.96 1620.86 1412.01 Q1627.77 1405.03 1629.54 1403.02 Q1632.91 1399.23 1634.23 1396.63 Q1635.58 1393.99 1635.58 1391.46 Q1635.58 1387.32 1632.66 1384.72 Q1629.78 1382.12 1625.13 1382.12 Q1621.83 1382.12 1618.15 1383.26 Q1614.5 1384.41 1610.34 1386.73 L1610.34 1379.65 Q1614.57 1377.95 1618.25 1377.08 Q1621.93 1376.21 1624.99 1376.21 Q1633.04 1376.21 1637.84 1380.24 Q1642.63 1384.27 1642.63 1391.01 Q1642.63 1394.2 1641.41 1397.08 Q1640.23 1399.93 1637.07 1403.82 Q1636.2 1404.82 1631.55 1409.65 Q1626.9 1414.44 1618.43 1423.09 Z" fill="#000000" fill-rule="nonzero" fill-opacity="1" /><path clip-path="url(#clip410)" d="M1657.63 1420.17 L1664.95 1420.17 L1664.95 1428.99 L1657.63 1428.99 L1657.63 1420.17 Z" fill="#000000" fill-rule="nonzero" fill-opacity="1" /><path clip-path="url(#clip410)" d="M1695.23 1381.77 Q1689.82 1381.77 1687.07 1387.12 Q1684.36 1392.43 1684.36 1403.12 Q1684.36 1413.78 1687.07 1419.13 Q1689.82 1424.44 1695.23 1424.44 Q1700.68 1424.44 1703.39 1419.13 Q1706.13 1413.78 1706.13 1403.12 Q1706.13 1392.43 1703.39 1387.12 Q1700.68 1381.77 1695.23 1381.77 M1695.23 1376.21 Q1703.95 1376.21 1708.53 1383.12 Q1713.15 1390 1713.15 1403.12 Q1713.15 1416.21 1708.53 1423.12 Q1703.95 1430 1695.23 1430 Q1686.52 1430 1681.9 1423.12 Q1677.32 1416.21 1677.32 1403.12 Q1677.32 1390 1681.9 1383.12 Q1686.52 1376.21 1695.23 1376.21 Z" fill="#000000" fill-rule="nonzero" fill-opacity="1" /><path clip-path="url(#clip410)" d="M1740.47 1381.77 Q1735.06 1381.77 1732.32 1387.12 Q1729.61 1392.43 1729.61 1403.12 Q1729.61 1413.78 1732.32 1419.13 Q1735.06 1424.44 1740.47 1424.44 Q1745.93 1424.44 1748.63 1419.13 Q1751.38 1413.78 1751.38 1403.12 Q1751.38 1392.43 1748.63 1387.12 Q1745.93 1381.77 1740.47 1381.77 M1740.47 1376.21 Q1749.19 1376.21 1753.77 1383.12 Q1758.39 1390 1758.39 1403.12 Q1758.39 1416.21 1753.77 1423.12 Q1749.19 1430 1740.47 1430 Q1731.76 1430 1727.14 1423.12 Q1722.56 1416.21 1722.56 1403.12 Q1722.56 1390 1727.14 1383.12 Q1731.76 1376.21 1740.47 1376.21 Z" fill="#000000" fill-rule="nonzero" fill-opacity="1" /><path clip-path="url(#clip410)" d="M1087.26 1484.1 Q1087.26 1487.05 1085.42 1488.73 Q1083.57 1490.37 1081.47 1490.37 Q1079.46 1490.37 1078.41 1489.21 Q1077.36 1488.05 1077.36 1486.57 Q1077.36 1484.57 1078.83 1482.83 Q1080.31 1481.09 1082.52 1480.72 Q1080.36 1479.35 1077.14 1479.35 Q1075.04 1479.35 1073.19 1480.46 Q1071.4 1481.57 1070.29 1482.99 Q1069.24 1484.41 1068.29 1486.47 Q1067.39 1488.47 1067.03 1489.68 Q1066.71 1490.84 1066.45 1492.11 L1062.76 1506.86 Q1060.97 1513.87 1060.97 1516.35 Q1060.97 1519.41 1062.44 1521.46 Q1063.92 1523.46 1066.87 1523.46 Q1068.03 1523.46 1069.34 1523.15 Q1070.66 1522.78 1072.35 1521.83 Q1074.09 1520.83 1075.62 1519.35 Q1077.2 1517.83 1078.73 1515.24 Q1080.25 1512.66 1081.25 1509.34 Q1081.57 1508.18 1082.63 1508.18 Q1083.94 1508.18 1083.94 1509.24 Q1083.94 1510.13 1083.2 1512.03 Q1082.52 1513.87 1080.99 1516.3 Q1079.52 1518.67 1077.57 1520.83 Q1075.62 1522.94 1072.72 1524.41 Q1069.82 1525.89 1066.66 1525.89 Q1062.12 1525.89 1059.12 1523.46 Q1056.12 1521.04 1055.01 1517.67 Q1054.75 1518.14 1054.38 1518.77 Q1054.01 1519.41 1052.9 1520.83 Q1051.85 1522.2 1050.64 1523.25 Q1049.42 1524.25 1047.53 1525.05 Q1045.68 1525.89 1043.68 1525.89 Q1041.15 1525.89 1038.88 1525.15 Q1036.67 1524.41 1035.09 1522.73 Q1033.51 1521.04 1033.51 1518.72 Q1033.51 1516.14 1035.25 1514.35 Q1037.04 1512.5 1039.46 1512.5 Q1040.99 1512.5 1042.2 1513.4 Q1043.47 1514.29 1043.47 1516.24 Q1043.47 1518.41 1041.99 1520.04 Q1040.52 1521.67 1038.41 1522.09 Q1040.57 1523.46 1043.78 1523.46 Q1047.26 1523.46 1050 1520.41 Q1052.74 1517.35 1054.06 1512.24 Q1057.33 1499.96 1058.59 1494.48 Q1059.86 1488.95 1059.86 1486.57 Q1059.86 1484.36 1059.28 1482.83 Q1058.7 1481.3 1057.7 1480.62 Q1056.75 1479.88 1055.85 1479.62 Q1055.01 1479.35 1054.06 1479.35 Q1052.48 1479.35 1050.69 1479.99 Q1048.95 1480.62 1046.84 1482.09 Q1044.79 1483.52 1042.84 1486.47 Q1040.89 1489.42 1039.57 1493.48 Q1039.31 1494.69 1038.15 1494.69 Q1036.88 1494.64 1036.88 1493.58 Q1036.88 1492.69 1037.57 1490.84 Q1038.3 1488.95 1039.78 1486.57 Q1041.31 1484.2 1043.26 1482.09 Q1045.26 1479.93 1048.16 1478.46 Q1051.11 1476.98 1054.27 1476.98 Q1055.7 1476.98 1057.07 1477.3 Q1058.49 1477.56 1060.17 1478.35 Q1061.91 1479.14 1063.44 1480.88 Q1064.97 1482.62 1065.92 1485.15 Q1066.55 1483.94 1067.39 1482.78 Q1068.29 1481.62 1069.66 1480.2 Q1071.08 1478.72 1073.03 1477.88 Q1075.04 1476.98 1077.25 1476.98 Q1079.41 1476.98 1081.52 1477.56 Q1083.63 1478.09 1085.42 1479.83 Q1087.26 1481.51 1087.26 1484.1 Z" fill="#000000" fill-rule="nonzero" fill-opacity="1" /><path clip-path="url(#clip410)" d="M1098.26 1512.65 L1098.26 1510.29 Q1107.33 1510.29 1112.02 1505.46 Q1113.31 1505.46 1113.53 1505.75 Q1113.75 1506.05 1113.75 1507.41 L1113.75 1549.8 Q1113.75 1552.05 1114.86 1552.75 Q1115.96 1553.45 1120.8 1553.45 L1123.2 1553.45 L1123.2 1555.78 Q1120.54 1555.56 1110.95 1555.56 Q1101.36 1555.56 1098.74 1555.78 L1098.74 1553.45 L1101.13 1553.45 Q1105.89 1553.45 1107.04 1552.79 Q1108.18 1552.09 1108.18 1549.8 L1108.18 1510.66 Q1104.23 1512.65 1098.26 1512.65 Z" fill="#000000" fill-rule="nonzero" fill-opacity="1" /><polyline clip-path="url(#clip412)" style="stroke:#000000; stroke-linecap:round; stroke-linejoin:round; stroke-width:2; stroke-opacity:0.1; fill:none" points="291.809,1308.01 1876.18,1308.01 "/>
<polyline clip-path="url(#clip412)" style="stroke:#000000; stroke-linecap:round; stroke-linejoin:round; stroke-width:2; stroke-opacity:0.1; fill:none" points="291.809,1007.91 1876.18,1007.91 "/>
<polyline clip-path="url(#clip412)" style="stroke:#000000; stroke-linecap:round; stroke-linejoin:round; stroke-width:2; stroke-opacity:0.1; fill:none" points="291.809,707.813 1876.18,707.813 "/>
<polyline clip-path="url(#clip412)" style="stroke:#000000; stroke-linecap:round; stroke-linejoin:round; stroke-width:2; stroke-opacity:0.1; fill:none" points="291.809,407.715 1876.18,407.715 "/>
<polyline clip-path="url(#clip412)" style="stroke:#000000; stroke-linecap:round; stroke-linejoin:round; stroke-width:2; stroke-opacity:0.1; fill:none" points="291.809,107.616 1876.18,107.616 "/>
<polyline clip-path="url(#clip410)" style="stroke:#000000; stroke-linecap:round; stroke-linejoin:round; stroke-width:4; stroke-opacity:1; fill:none" points="291.809,1332.19 291.809,47.2441 "/>
<polyline clip-path="url(#clip410)" style="stroke:#000000; stroke-linecap:round; stroke-linejoin:round; stroke-width:4; stroke-opacity:1; fill:none" points="291.809,1308.01 310.706,1308.01 "/>
<polyline clip-path="url(#clip410)" style="stroke:#000000; stroke-linecap:round; stroke-linejoin:round; stroke-width:4; stroke-opacity:1; fill:none" points="291.809,1007.91 310.706,1007.91 "/>
<polyline clip-path="url(#clip410)" style="stroke:#000000; stroke-linecap:round; stroke-linejoin:round; stroke-width:4; stroke-opacity:1; fill:none" points="291.809,707.813 310.706,707.813 "/>
<polyline clip-path="url(#clip410)" style="stroke:#000000; stroke-linecap:round; stroke-linejoin:round; stroke-width:4; stroke-opacity:1; fill:none" points="291.809,407.715 310.706,407.715 "/>
<polyline clip-path="url(#clip410)" style="stroke:#000000; stroke-linecap:round; stroke-linejoin:round; stroke-width:4; stroke-opacity:1; fill:none" points="291.809,107.616 310.706,107.616 "/>
<path clip-path="url(#clip410)" d="M87.0178 1328.03 L98.4761 1328.03 L98.4761 1288.48 L86.0109 1290.98 L86.0109 1284.59 L98.4066 1282.09 L105.42 1282.09 L105.42 1328.03 L116.879 1328.03 L116.879 1333.93 L87.0178 1333.93 L87.0178 1328.03 Z" fill="#000000" fill-rule="nonzero" fill-opacity="1" /><path clip-path="url(#clip410)" d="M131.045 1325.11 L138.372 1325.11 L138.372 1333.93 L131.045 1333.93 L131.045 1325.11 Z" fill="#000000" fill-rule="nonzero" fill-opacity="1" /><path clip-path="url(#clip410)" d="M168.649 1286.71 Q163.233 1286.71 160.49 1292.06 Q157.781 1297.37 157.781 1308.06 Q157.781 1318.72 160.49 1324.07 Q163.233 1329.38 168.649 1329.38 Q174.101 1329.38 176.809 1324.07 Q179.552 1318.72 179.552 1308.06 Q179.552 1297.37 176.809 1292.06 Q174.101 1286.71 168.649 1286.71 M168.649 1281.15 Q177.365 1281.15 181.948 1288.06 Q186.566 1294.94 186.566 1308.06 Q186.566 1321.15 181.948 1328.06 Q177.365 1334.94 168.649 1334.94 Q159.934 1334.94 155.316 1328.06 Q150.733 1321.15 150.733 1308.06 Q150.733 1294.94 155.316 1288.06 Q159.934 1281.15 168.649 1281.15 Z" fill="#000000" fill-rule="nonzero" fill-opacity="1" /><path clip-path="url(#clip410)" d="M213.892 1286.71 Q208.475 1286.71 205.732 1292.06 Q203.024 1297.37 203.024 1308.06 Q203.024 1318.72 205.732 1324.07 Q208.475 1329.38 213.892 1329.38 Q219.343 1329.38 222.052 1324.07 Q224.795 1318.72 224.795 1308.06 Q224.795 1297.37 222.052 1292.06 Q219.343 1286.71 213.892 1286.71 M213.892 1281.15 Q222.607 1281.15 227.191 1288.06 Q231.809 1294.94 231.809 1308.06 Q231.809 1321.15 227.191 1328.06 Q222.607 1334.94 213.892 1334.94 Q205.177 1334.94 200.559 1328.06 Q195.976 1321.15 195.976 1308.06 Q195.976 1294.94 200.559 1288.06 Q205.177 1281.15 213.892 1281.15 Z" fill="#000000" fill-rule="nonzero" fill-opacity="1" /><path clip-path="url(#clip410)" d="M88.5108 1027.93 L99.9691 1027.93 L99.9691 988.381 L87.5039 990.881 L87.5039 984.492 L99.8997 981.992 L106.914 981.992 L106.914 1027.93 L118.372 1027.93 L118.372 1033.83 L88.5108 1033.83 L88.5108 1027.93 Z" fill="#000000" fill-rule="nonzero" fill-opacity="1" /><path clip-path="url(#clip410)" d="M132.538 1025.01 L139.865 1025.01 L139.865 1033.83 L132.538 1033.83 L132.538 1025.01 Z" fill="#000000" fill-rule="nonzero" fill-opacity="1" /><path clip-path="url(#clip410)" d="M161.184 1027.93 L185.663 1027.93 L185.663 1033.83 L152.747 1033.83 L152.747 1027.93 Q156.74 1023.8 163.615 1016.85 Q170.524 1009.87 172.295 1007.86 Q175.663 1004.07 176.983 1001.47 Q178.337 998.832 178.337 996.297 Q178.337 992.165 175.42 989.561 Q172.538 986.957 167.885 986.957 Q164.587 986.957 160.906 988.103 Q157.26 989.249 153.094 991.575 L153.094 984.492 Q157.33 982.79 161.01 981.922 Q164.691 981.054 167.747 981.054 Q175.802 981.054 180.594 985.082 Q185.385 989.11 185.385 995.846 Q185.385 999.04 184.17 1001.92 Q182.99 1004.77 179.83 1008.66 Q178.962 1009.67 174.309 1014.49 Q169.656 1019.28 161.184 1027.93 Z" fill="#000000" fill-rule="nonzero" fill-opacity="1" /><path clip-path="url(#clip410)" d="M200.455 981.992 L227.989 981.992 L227.989 987.895 L206.878 987.895 L206.878 1000.6 Q208.406 1000.08 209.934 999.839 Q211.462 999.561 212.989 999.561 Q221.67 999.561 226.739 1004.32 Q231.809 1009.07 231.809 1017.2 Q231.809 1025.57 226.6 1030.22 Q221.392 1034.84 211.913 1034.84 Q208.649 1034.84 205.246 1034.28 Q201.878 1033.73 198.267 1032.62 L198.267 1025.57 Q201.392 1027.27 204.726 1028.1 Q208.059 1028.94 211.774 1028.94 Q217.781 1028.94 221.288 1025.78 Q224.795 1022.62 224.795 1017.2 Q224.795 1011.78 221.288 1008.62 Q217.781 1005.46 211.774 1005.46 Q208.962 1005.46 206.149 1006.09 Q203.371 1006.71 200.455 1008.03 L200.455 981.992 Z" fill="#000000" fill-rule="nonzero" fill-opacity="1" /><path clip-path="url(#clip410)" d="M87.0178 727.83 L98.4761 727.83 L98.4761 688.282 L86.0109 690.782 L86.0109 684.393 L98.4066 681.893 L105.42 681.893 L105.42 727.83 L116.879 727.83 L116.879 733.733 L87.0178 733.733 L87.0178 727.83 Z" fill="#000000" fill-rule="nonzero" fill-opacity="1" /><path clip-path="url(#clip410)" d="M131.045 724.914 L138.372 724.914 L138.372 733.733 L131.045 733.733 L131.045 724.914 Z" fill="#000000" fill-rule="nonzero" fill-opacity="1" /><path clip-path="url(#clip410)" d="M153.719 681.893 L181.253 681.893 L181.253 687.796 L160.142 687.796 L160.142 700.504 Q161.67 699.983 163.198 699.74 Q164.726 699.463 166.253 699.463 Q174.934 699.463 180.003 704.219 Q185.073 708.976 185.073 717.101 Q185.073 725.469 179.865 730.122 Q174.656 734.74 165.177 734.74 Q161.913 734.74 158.51 734.185 Q155.142 733.629 151.531 732.518 L151.531 725.469 Q154.656 727.171 157.99 728.004 Q161.323 728.837 165.038 728.837 Q171.045 728.837 174.552 725.678 Q178.059 722.518 178.059 717.101 Q178.059 711.685 174.552 708.525 Q171.045 705.365 165.038 705.365 Q162.226 705.365 159.413 705.99 Q156.635 706.615 153.719 707.935 L153.719 681.893 Z" fill="#000000" fill-rule="nonzero" fill-opacity="1" /><path clip-path="url(#clip410)" d="M213.892 686.511 Q208.475 686.511 205.732 691.858 Q203.024 697.171 203.024 707.865 Q203.024 718.525 205.732 723.872 Q208.475 729.185 213.892 729.185 Q219.343 729.185 222.052 723.872 Q224.795 718.525 224.795 707.865 Q224.795 697.171 222.052 691.858 Q219.343 686.511 213.892 686.511 M213.892 680.956 Q222.607 680.956 227.191 687.865 Q231.809 694.74 231.809 707.865 Q231.809 720.955 227.191 727.865 Q222.607 734.74 213.892 734.74 Q205.177 734.74 200.559 727.865 Q195.976 720.955 195.976 707.865 Q195.976 694.74 200.559 687.865 Q205.177 680.956 213.892 680.956 Z" fill="#000000" fill-rule="nonzero" fill-opacity="1" /><path clip-path="url(#clip410)" d="M88.5108 427.732 L99.9691 427.732 L99.9691 388.183 L87.5039 390.683 L87.5039 384.295 L99.8997 381.795 L106.914 381.795 L106.914 427.732 L118.372 427.732 L118.372 433.635 L88.5108 433.635 L88.5108 427.732 Z" fill="#000000" fill-rule="nonzero" fill-opacity="1" /><path clip-path="url(#clip410)" d="M132.538 424.815 L139.865 424.815 L139.865 433.635 L132.538 433.635 L132.538 424.815 Z" fill="#000000" fill-rule="nonzero" fill-opacity="1" /><path clip-path="url(#clip410)" d="M153.372 381.795 L186.705 381.795 L186.705 384.781 L167.885 433.635 L160.559 433.635 L178.267 387.697 L153.372 387.697 L153.372 381.795 Z" fill="#000000" fill-rule="nonzero" fill-opacity="1" /><path clip-path="url(#clip410)" d="M200.455 381.795 L227.989 381.795 L227.989 387.697 L206.878 387.697 L206.878 400.406 Q208.406 399.885 209.934 399.642 Q211.462 399.364 212.989 399.364 Q221.67 399.364 226.739 404.121 Q231.809 408.878 231.809 417.003 Q231.809 425.371 226.6 430.023 Q221.392 434.642 211.913 434.642 Q208.649 434.642 205.246 434.086 Q201.878 433.53 198.267 432.419 L198.267 425.371 Q201.392 427.072 204.726 427.905 Q208.059 428.739 211.774 428.739 Q217.781 428.739 221.288 425.579 Q224.795 422.419 224.795 417.003 Q224.795 411.586 221.288 408.426 Q217.781 405.267 211.774 405.267 Q208.962 405.267 206.149 405.892 Q203.371 406.517 200.455 407.836 L200.455 381.795 Z" fill="#000000" fill-rule="nonzero" fill-opacity="1" /><path clip-path="url(#clip410)" d="M91.8442 127.633 L116.323 127.633 L116.323 133.536 L83.4067 133.536 L83.4067 127.633 Q87.3997 123.501 94.2747 116.557 Q101.184 109.578 102.955 107.564 Q106.323 103.779 107.643 101.175 Q108.997 98.5362 108.997 96.0015 Q108.997 91.8695 106.08 89.2654 Q103.198 86.6612 98.5455 86.6612 Q95.2469 86.6612 91.5664 87.8071 Q87.9206 88.9529 83.7539 91.2793 L83.7539 84.196 Q87.99 82.4946 91.6706 81.6265 Q95.3511 80.7585 98.4066 80.7585 Q106.462 80.7585 111.254 84.7862 Q116.045 88.814 116.045 95.5501 Q116.045 98.7445 114.83 101.626 Q113.65 104.474 110.49 108.363 Q109.622 109.369 104.969 114.196 Q100.316 118.987 91.8442 127.633 Z" fill="#000000" fill-rule="nonzero" fill-opacity="1" /><path clip-path="url(#clip410)" d="M131.045 124.717 L138.372 124.717 L138.372 133.536 L131.045 133.536 L131.045 124.717 Z" fill="#000000" fill-rule="nonzero" fill-opacity="1" /><path clip-path="url(#clip410)" d="M168.649 86.314 Q163.233 86.314 160.49 91.6612 Q157.781 96.9737 157.781 107.668 Q157.781 118.328 160.49 123.675 Q163.233 128.987 168.649 128.987 Q174.101 128.987 176.809 123.675 Q179.552 118.328 179.552 107.668 Q179.552 96.9737 176.809 91.6612 Q174.101 86.314 168.649 86.314 M168.649 80.7585 Q177.365 80.7585 181.948 87.6682 Q186.566 94.5431 186.566 107.668 Q186.566 120.758 181.948 127.668 Q177.365 134.543 168.649 134.543 Q159.934 134.543 155.316 127.668 Q150.733 120.758 150.733 107.668 Q150.733 94.5431 155.316 87.6682 Q159.934 80.7585 168.649 80.7585 Z" fill="#000000" fill-rule="nonzero" fill-opacity="1" /><path clip-path="url(#clip410)" d="M213.892 86.314 Q208.475 86.314 205.732 91.6612 Q203.024 96.9737 203.024 107.668 Q203.024 118.328 205.732 123.675 Q208.475 128.987 213.892 128.987 Q219.343 128.987 222.052 123.675 Q224.795 118.328 224.795 107.668 Q224.795 96.9737 222.052 91.6612 Q219.343 86.314 213.892 86.314 M213.892 80.7585 Q222.607 80.7585 227.191 87.6682 Q231.809 94.5431 231.809 107.668 Q231.809 120.758 227.191 127.668 Q222.607 134.543 213.892 134.543 Q205.177 134.543 200.559 127.668 Q195.976 120.758 195.976 107.668 Q195.976 94.5431 200.559 87.6682 Q205.177 80.7585 213.892 80.7585 Z" fill="#000000" fill-rule="nonzero" fill-opacity="1" /><path clip-path="url(#clip410)" d="M-55.7594 689.037 Q-52.8082 689.037 -51.1218 690.881 Q-49.488 692.726 -49.488 694.834 Q-49.488 696.836 -50.6475 697.89 Q-51.8069 698.944 -53.2825 698.944 Q-55.2851 698.944 -57.0242 697.469 Q-58.7633 695.993 -59.1322 693.78 Q-60.5025 695.94 -60.5025 699.155 Q-60.5025 701.263 -59.3957 703.108 Q-58.289 704.899 -56.8661 706.006 Q-55.4432 707.06 -53.3879 708.009 Q-51.3853 708.905 -50.1732 709.274 Q-49.0137 709.59 -47.7489 709.853 L-32.9928 713.542 Q-25.9836 715.334 -23.5067 715.334 Q-20.4501 715.334 -18.3948 713.859 Q-16.3921 712.383 -16.3921 709.432 Q-16.3921 708.272 -16.7083 706.955 Q-17.0772 705.637 -18.0258 703.951 Q-19.0272 702.212 -20.5028 700.683 Q-22.0311 699.102 -24.6134 697.574 Q-27.1957 696.046 -30.5159 695.044 Q-31.6753 694.728 -31.6753 693.674 Q-31.6753 692.357 -30.6213 692.357 Q-29.7254 692.357 -27.8281 693.095 Q-25.9836 693.78 -23.5594 695.308 Q-21.1879 696.784 -19.0272 698.733 Q-16.9191 700.683 -15.4435 703.582 Q-13.9679 706.48 -13.9679 709.642 Q-13.9679 714.175 -16.3921 717.179 Q-18.8164 720.183 -22.1892 721.289 Q-21.7149 721.553 -21.0825 721.922 Q-20.4501 722.291 -19.0272 723.397 Q-17.6569 724.451 -16.6029 725.663 Q-15.6016 726.876 -14.8111 728.773 Q-13.9679 730.617 -13.9679 732.62 Q-13.9679 735.15 -14.7057 737.416 Q-15.4435 739.629 -17.1299 741.21 Q-18.8164 742.791 -21.1352 742.791 Q-23.7175 742.791 -25.5093 741.052 Q-27.3538 739.26 -27.3538 736.836 Q-27.3538 735.308 -26.4579 734.096 Q-25.562 732.831 -23.6121 732.831 Q-21.4514 732.831 -19.8177 734.306 Q-18.1839 735.782 -17.7623 737.89 Q-16.3921 735.729 -16.3921 732.514 Q-16.3921 729.036 -19.4488 726.296 Q-22.5054 723.555 -27.6173 722.238 Q-39.8966 718.97 -45.3774 717.706 Q-50.911 716.441 -53.2825 716.441 Q-55.4959 716.441 -57.0242 717.021 Q-58.5525 717.6 -59.2376 718.602 Q-59.9754 719.55 -60.2389 720.446 Q-60.5025 721.289 -60.5025 722.238 Q-60.5025 723.819 -59.87 725.611 Q-59.2376 727.35 -57.762 729.458 Q-56.3391 731.513 -53.3879 733.463 Q-50.4367 735.413 -46.3787 736.731 Q-45.1666 736.994 -45.1666 738.153 Q-45.2193 739.418 -46.2733 739.418 Q-47.1692 739.418 -49.0137 738.733 Q-50.911 737.995 -53.2825 736.52 Q-55.654 734.991 -57.762 733.041 Q-59.9227 731.039 -61.3984 728.14 Q-62.874 725.189 -62.874 722.027 Q-62.874 720.604 -62.5578 719.234 Q-62.2943 717.811 -61.5038 716.125 Q-60.7133 714.386 -58.9741 712.857 Q-57.235 711.329 -54.7054 710.38 Q-55.9175 709.748 -57.0769 708.905 Q-58.2363 708.009 -59.6592 706.639 Q-61.1349 705.216 -61.9781 703.266 Q-62.874 701.263 -62.874 699.05 Q-62.874 696.889 -62.2943 694.781 Q-61.7673 692.673 -60.0281 690.881 Q-58.3417 689.037 -55.7594 689.037 Z" fill="#000000" fill-rule="nonzero" fill-opacity="1" /><path clip-path="url(#clip410)" d="M15.921 678.042 Q14.5561 678.042 14.1503 677.931 Q13.7445 677.784 13.1174 677.193 L-3.04062 662.696 Q-11.9681 654.764 -19.7519 654.764 Q-24.8059 654.764 -28.4212 657.42 Q-32.0364 660.039 -32.0364 664.872 Q-32.0364 668.192 -30.0075 670.996 Q-27.9785 673.8 -24.3632 675.091 Q-24.437 674.869 -24.437 674.095 Q-24.437 672.213 -23.2565 671.18 Q-22.076 670.11 -20.4898 670.11 Q-18.4608 670.11 -17.4647 671.439 Q-16.5056 672.73 -16.5056 674.021 Q-16.5056 674.537 -16.6163 675.238 Q-16.7269 675.902 -17.7599 676.972 Q-18.8297 678.042 -20.7111 678.042 Q-25.9864 678.042 -30.1919 674.058 Q-34.3974 670.037 -34.3974 663.913 Q-34.3974 656.978 -30.2657 652.44 Q-26.1709 647.866 -19.7519 647.866 Q-17.5016 647.866 -15.4358 648.567 Q-13.4068 649.231 -11.8205 650.153 Q-10.2342 651.038 -7.6888 653.473 Q-5.14337 655.908 -3.33574 657.863 Q-1.52811 659.818 2.30848 664.208 L10.0923 672.213 L10.0923 658.601 Q10.0923 651.96 9.5021 651.444 Q8.43228 650.706 2.78806 649.784 L2.78806 647.866 L15.921 650.005 L15.921 678.042 Z" fill="#000000" fill-rule="nonzero" fill-opacity="1" /><polyline clip-path="url(#clip412)" style="stroke:#009af9; stroke-linecap:round; stroke-linejoin:round; stroke-width:4; stroke-opacity:1; fill:none" points="1684.19,83.6105 483.796,1295.82 "/>
<path clip-path="url(#clip410)" d="M2226.65 1332.19 L3811.02 1332.19 L3811.02 47.2441 L2226.65 47.2441  Z" fill="#ffffff" fill-rule="evenodd" fill-opacity="1"/>
<defs>
  <clipPath id="clip413">
    <rect x="2226" y="47" width="1585" height="1286"/>
  </clipPath>
</defs>
<polyline clip-path="url(#clip413)" style="stroke:#000000; stroke-linecap:round; stroke-linejoin:round; stroke-width:2; stroke-opacity:0.1; fill:none" points="2226.65,1332.19 2226.65,47.2441 "/>
<polyline clip-path="url(#clip413)" style="stroke:#000000; stroke-linecap:round; stroke-linejoin:round; stroke-width:2; stroke-opacity:0.1; fill:none" points="2543.53,1332.19 2543.53,47.2441 "/>
<polyline clip-path="url(#clip413)" style="stroke:#000000; stroke-linecap:round; stroke-linejoin:round; stroke-width:2; stroke-opacity:0.1; fill:none" points="2860.4,1332.19 2860.4,47.2441 "/>
<polyline clip-path="url(#clip413)" style="stroke:#000000; stroke-linecap:round; stroke-linejoin:round; stroke-width:2; stroke-opacity:0.1; fill:none" points="3177.28,1332.19 3177.28,47.2441 "/>
<polyline clip-path="url(#clip413)" style="stroke:#000000; stroke-linecap:round; stroke-linejoin:round; stroke-width:2; stroke-opacity:0.1; fill:none" points="3494.15,1332.19 3494.15,47.2441 "/>
<polyline clip-path="url(#clip413)" style="stroke:#000000; stroke-linecap:round; stroke-linejoin:round; stroke-width:2; stroke-opacity:0.1; fill:none" points="3811.02,1332.19 3811.02,47.2441 "/>
<polyline clip-path="url(#clip410)" style="stroke:#000000; stroke-linecap:round; stroke-linejoin:round; stroke-width:4; stroke-opacity:1; fill:none" points="2226.65,1332.19 3811.02,1332.19 "/>
<polyline clip-path="url(#clip410)" style="stroke:#000000; stroke-linecap:round; stroke-linejoin:round; stroke-width:4; stroke-opacity:1; fill:none" points="2226.65,1332.19 2226.65,1313.29 "/>
<polyline clip-path="url(#clip410)" style="stroke:#000000; stroke-linecap:round; stroke-linejoin:round; stroke-width:4; stroke-opacity:1; fill:none" points="2543.53,1332.19 2543.53,1313.29 "/>
<polyline clip-path="url(#clip410)" style="stroke:#000000; stroke-linecap:round; stroke-linejoin:round; stroke-width:4; stroke-opacity:1; fill:none" points="2860.4,1332.19 2860.4,1313.29 "/>
<polyline clip-path="url(#clip410)" style="stroke:#000000; stroke-linecap:round; stroke-linejoin:round; stroke-width:4; stroke-opacity:1; fill:none" points="3177.28,1332.19 3177.28,1313.29 "/>
<polyline clip-path="url(#clip410)" style="stroke:#000000; stroke-linecap:round; stroke-linejoin:round; stroke-width:4; stroke-opacity:1; fill:none" points="3494.15,1332.19 3494.15,1313.29 "/>
<polyline clip-path="url(#clip410)" style="stroke:#000000; stroke-linecap:round; stroke-linejoin:round; stroke-width:4; stroke-opacity:1; fill:none" points="3811.02,1332.19 3811.02,1313.29 "/>
<path clip-path="url(#clip410)" d="M2226.65 1381.77 Q2221.24 1381.77 2218.49 1387.12 Q2215.79 1392.43 2215.79 1403.12 Q2215.79 1413.78 2218.49 1419.13 Q2221.24 1424.44 2226.65 1424.44 Q2232.11 1424.44 2234.81 1419.13 Q2237.56 1413.78 2237.56 1403.12 Q2237.56 1392.43 2234.81 1387.12 Q2232.11 1381.77 2226.65 1381.77 M2226.65 1376.21 Q2235.37 1376.21 2239.95 1383.12 Q2244.57 1390 2244.57 1403.12 Q2244.57 1416.21 2239.95 1423.12 Q2235.37 1430 2226.65 1430 Q2217.94 1430 2213.32 1423.12 Q2208.74 1416.21 2208.74 1403.12 Q2208.74 1390 2213.32 1383.12 Q2217.94 1376.21 2226.65 1376.21 Z" fill="#000000" fill-rule="nonzero" fill-opacity="1" /><path clip-path="url(#clip410)" d="M2535.51 1423.09 L2559.99 1423.09 L2559.99 1428.99 L2527.07 1428.99 L2527.07 1423.09 Q2531.06 1418.96 2537.94 1412.01 Q2544.85 1405.03 2546.62 1403.02 Q2549.99 1399.23 2551.31 1396.63 Q2552.66 1393.99 2552.66 1391.46 Q2552.66 1387.32 2549.74 1384.72 Q2546.86 1382.12 2542.21 1382.12 Q2538.91 1382.12 2535.23 1383.26 Q2531.58 1384.41 2527.42 1386.73 L2527.42 1379.65 Q2531.65 1377.95 2535.33 1377.08 Q2539.01 1376.21 2542.07 1376.21 Q2550.13 1376.21 2554.92 1380.24 Q2559.71 1384.27 2559.71 1391.01 Q2559.71 1394.2 2558.49 1397.08 Q2557.31 1399.93 2554.15 1403.82 Q2553.29 1404.82 2548.63 1409.65 Q2543.98 1414.44 2535.51 1423.09 Z" fill="#000000" fill-rule="nonzero" fill-opacity="1" /><path clip-path="url(#clip410)" d="M2864.92 1383.26 L2847.21 1410.94 L2864.92 1410.94 L2864.92 1383.26 M2863.08 1377.15 L2871.9 1377.15 L2871.9 1410.94 L2879.29 1410.94 L2879.29 1416.77 L2871.9 1416.77 L2871.9 1428.99 L2864.92 1428.99 L2864.92 1416.77 L2841.51 1416.77 L2841.51 1410 L2863.08 1377.15 Z" fill="#000000" fill-rule="nonzero" fill-opacity="1" /><path clip-path="url(#clip410)" d="M3177.88 1400.28 Q3173.16 1400.28 3170.38 1403.51 Q3167.64 1406.73 3167.64 1412.36 Q3167.64 1417.95 3170.38 1421.21 Q3173.16 1424.44 3177.88 1424.44 Q3182.61 1424.44 3185.35 1421.21 Q3188.13 1417.95 3188.13 1412.36 Q3188.13 1406.73 3185.35 1403.51 Q3182.61 1400.28 3177.88 1400.28 M3191.81 1378.3 L3191.81 1384.69 Q3189.17 1383.44 3186.46 1382.78 Q3183.79 1382.12 3181.15 1382.12 Q3174.2 1382.12 3170.52 1386.8 Q3166.88 1391.49 3166.36 1400.97 Q3168.4 1397.95 3171.49 1396.35 Q3174.59 1394.72 3178.3 1394.72 Q3186.11 1394.72 3190.63 1399.48 Q3195.18 1404.2 3195.18 1412.36 Q3195.18 1420.35 3190.45 1425.17 Q3185.73 1430 3177.88 1430 Q3168.89 1430 3164.13 1423.12 Q3159.38 1416.21 3159.38 1403.12 Q3159.38 1390.83 3165.21 1383.54 Q3171.04 1376.21 3180.87 1376.21 Q3183.51 1376.21 3186.18 1376.73 Q3188.89 1377.26 3191.81 1378.3 Z" fill="#000000" fill-rule="nonzero" fill-opacity="1" /><path clip-path="url(#clip410)" d="M3494.15 1404.37 Q3489.15 1404.37 3486.27 1407.05 Q3483.42 1409.72 3483.42 1414.41 Q3483.42 1419.1 3486.27 1421.77 Q3489.15 1424.44 3494.15 1424.44 Q3499.15 1424.44 3502.03 1421.77 Q3504.91 1419.06 3504.91 1414.41 Q3504.91 1409.72 3502.03 1407.05 Q3499.18 1404.37 3494.15 1404.37 M3487.14 1401.39 Q3482.62 1400.28 3480.09 1397.19 Q3477.59 1394.1 3477.59 1389.65 Q3477.59 1383.44 3482 1379.82 Q3486.44 1376.21 3494.15 1376.21 Q3501.89 1376.21 3506.3 1379.82 Q3510.71 1383.44 3510.71 1389.65 Q3510.71 1394.1 3508.18 1397.19 Q3505.68 1400.28 3501.2 1401.39 Q3506.27 1402.57 3509.08 1406.01 Q3511.93 1409.44 3511.93 1414.41 Q3511.93 1421.94 3507.31 1425.97 Q3502.73 1430 3494.15 1430 Q3485.57 1430 3480.96 1425.97 Q3476.37 1421.94 3476.37 1414.41 Q3476.37 1409.44 3479.22 1406.01 Q3482.07 1402.57 3487.14 1401.39 M3484.57 1390.31 Q3484.57 1394.34 3487.07 1396.6 Q3489.6 1398.85 3494.15 1398.85 Q3498.66 1398.85 3501.2 1396.6 Q3503.77 1394.34 3503.77 1390.31 Q3503.77 1386.28 3501.2 1384.03 Q3498.66 1381.77 3494.15 1381.77 Q3489.6 1381.77 3487.07 1384.03 Q3484.57 1386.28 3484.57 1390.31 Z" fill="#000000" fill-rule="nonzero" fill-opacity="1" /><path clip-path="url(#clip410)" d="M3773.06 1423.09 L3784.51 1423.09 L3784.51 1383.54 L3772.05 1386.04 L3772.05 1379.65 L3784.44 1377.15 L3791.46 1377.15 L3791.46 1423.09 L3802.92 1423.09 L3802.92 1428.99 L3773.06 1428.99 L3773.06 1423.09 Z" fill="#000000" fill-rule="nonzero" fill-opacity="1" /><path clip-path="url(#clip410)" d="M3832.08 1381.77 Q3826.67 1381.77 3823.92 1387.12 Q3821.21 1392.43 3821.21 1403.12 Q3821.21 1413.78 3823.92 1419.13 Q3826.67 1424.44 3832.08 1424.44 Q3837.53 1424.44 3840.24 1419.13 Q3842.99 1413.78 3842.99 1403.12 Q3842.99 1392.43 3840.24 1387.12 Q3837.53 1381.77 3832.08 1381.77 M3832.08 1376.21 Q3840.8 1376.21 3845.38 1383.12 Q3850 1390 3850 1403.12 Q3850 1416.21 3845.38 1423.12 Q3840.8 1430 3832.08 1430 Q3823.37 1430 3818.75 1423.12 Q3814.17 1416.21 3814.17 1403.12 Q3814.17 1390 3818.75 1383.12 Q3823.37 1376.21 3832.08 1376.21 Z" fill="#000000" fill-rule="nonzero" fill-opacity="1" /><path clip-path="url(#clip410)" d="M3032.7 1504.15 Q3032.7 1505.63 3032.02 1505.99 Q3031.33 1506.31 3029.43 1506.31 L3019.31 1506.31 L3011.3 1538.14 Q3010.67 1540.93 3010.67 1543.31 Q3010.67 1545.94 3011.46 1547.1 Q3012.31 1548.26 3014.04 1548.26 Q3017.47 1548.26 3021.16 1545.15 Q3024.9 1542.04 3028.06 1534.45 Q3028.48 1533.45 3028.7 1533.24 Q3028.96 1532.98 3029.64 1532.98 Q3030.96 1532.98 3030.96 1534.03 Q3030.96 1534.4 3030.22 1536.09 Q3029.54 1537.77 3028.01 1540.25 Q3026.53 1542.73 3024.58 1545.05 Q3022.69 1547.36 3019.79 1549.05 Q3016.89 1550.68 3013.78 1550.68 Q3009.41 1550.68 3006.61 1547.89 Q3003.87 1545.1 3003.87 1540.72 Q3003.87 1539.3 3004.98 1534.77 Q3006.09 1530.18 3012.09 1506.31 L3002.56 1506.31 Q3001.24 1506.31 3000.71 1506.26 Q3000.24 1506.2 2999.87 1505.94 Q2999.55 1505.63 2999.55 1504.99 Q2999.55 1503.99 2999.97 1503.57 Q3000.4 1503.1 3000.92 1503.04 Q3001.5 1502.94 3002.82 1502.94 L3012.94 1502.94 L3017.15 1485.81 Q3017.58 1484.12 3018.63 1483.17 Q3019.74 1482.17 3020.37 1482.07 Q3021 1481.91 3021.48 1481.91 Q3022.9 1481.91 3023.74 1482.7 Q3024.58 1483.44 3024.58 1484.81 Q3024.58 1485.55 3020.16 1502.94 L3029.64 1502.94 Q3030.86 1502.94 3031.33 1502.99 Q3031.86 1503.04 3032.28 1503.31 Q3032.7 1503.57 3032.7 1504.15 Z" fill="#000000" fill-rule="nonzero" fill-opacity="1" /><polyline clip-path="url(#clip413)" style="stroke:#000000; stroke-linecap:round; stroke-linejoin:round; stroke-width:2; stroke-opacity:0.1; fill:none" points="2226.65,1330.94 3811.02,1330.94 "/>
<polyline clip-path="url(#clip413)" style="stroke:#000000; stroke-linecap:round; stroke-linejoin:round; stroke-width:2; stroke-opacity:0.1; fill:none" points="2226.65,1113.02 3811.02,1113.02 "/>
<polyline clip-path="url(#clip413)" style="stroke:#000000; stroke-linecap:round; stroke-linejoin:round; stroke-width:2; stroke-opacity:0.1; fill:none" points="2226.65,895.094 3811.02,895.094 "/>
<polyline clip-path="url(#clip413)" style="stroke:#000000; stroke-linecap:round; stroke-linejoin:round; stroke-width:2; stroke-opacity:0.1; fill:none" points="2226.65,677.172 3811.02,677.172 "/>
<polyline clip-path="url(#clip413)" style="stroke:#000000; stroke-linecap:round; stroke-linejoin:round; stroke-width:2; stroke-opacity:0.1; fill:none" points="2226.65,459.249 3811.02,459.249 "/>
<polyline clip-path="url(#clip413)" style="stroke:#000000; stroke-linecap:round; stroke-linejoin:round; stroke-width:2; stroke-opacity:0.1; fill:none" points="2226.65,241.327 3811.02,241.327 "/>
<polyline clip-path="url(#clip410)" style="stroke:#000000; stroke-linecap:round; stroke-linejoin:round; stroke-width:4; stroke-opacity:1; fill:none" points="2226.65,1332.19 2226.65,47.2441 "/>
<polyline clip-path="url(#clip410)" style="stroke:#000000; stroke-linecap:round; stroke-linejoin:round; stroke-width:4; stroke-opacity:1; fill:none" points="2226.65,1330.94 2245.55,1330.94 "/>
<polyline clip-path="url(#clip410)" style="stroke:#000000; stroke-linecap:round; stroke-linejoin:round; stroke-width:4; stroke-opacity:1; fill:none" points="2226.65,1113.02 2245.55,1113.02 "/>
<polyline clip-path="url(#clip410)" style="stroke:#000000; stroke-linecap:round; stroke-linejoin:round; stroke-width:4; stroke-opacity:1; fill:none" points="2226.65,895.094 2245.55,895.094 "/>
<polyline clip-path="url(#clip410)" style="stroke:#000000; stroke-linecap:round; stroke-linejoin:round; stroke-width:4; stroke-opacity:1; fill:none" points="2226.65,677.172 2245.55,677.172 "/>
<polyline clip-path="url(#clip410)" style="stroke:#000000; stroke-linecap:round; stroke-linejoin:round; stroke-width:4; stroke-opacity:1; fill:none" points="2226.65,459.249 2245.55,459.249 "/>
<polyline clip-path="url(#clip410)" style="stroke:#000000; stroke-linecap:round; stroke-linejoin:round; stroke-width:4; stroke-opacity:1; fill:none" points="2226.65,241.327 2245.55,241.327 "/>
<path clip-path="url(#clip410)" d="M1736.93 1341.29 L1781.44 1341.29 L1781.44 1347.19 L1736.93 1347.19 L1736.93 1341.29 Z" fill="#000000" fill-rule="nonzero" fill-opacity="1" /><path clip-path="url(#clip410)" d="M1802.62 1360.63 L1827.1 1360.63 L1827.1 1366.53 L1794.18 1366.53 L1794.18 1360.63 Q1798.18 1356.5 1805.05 1349.55 Q1811.96 1342.57 1813.73 1340.56 Q1817.1 1336.77 1818.42 1334.17 Q1819.77 1331.53 1819.77 1329 Q1819.77 1324.86 1816.86 1322.26 Q1813.98 1319.66 1809.32 1319.66 Q1806.03 1319.66 1802.34 1320.8 Q1798.7 1321.95 1794.53 1324.27 L1794.53 1317.19 Q1798.77 1315.49 1802.45 1314.62 Q1806.13 1313.75 1809.18 1313.75 Q1817.24 1313.75 1822.03 1317.78 Q1826.82 1321.81 1826.82 1328.54 Q1826.82 1331.74 1825.61 1334.62 Q1824.43 1337.47 1821.27 1341.36 Q1820.4 1342.36 1815.75 1347.19 Q1811.09 1351.98 1802.62 1360.63 Z" fill="#000000" fill-rule="nonzero" fill-opacity="1" /><path clip-path="url(#clip410)" d="M1841.82 1357.71 L1849.15 1357.71 L1849.15 1366.53 L1841.82 1366.53 L1841.82 1357.71 Z" fill="#000000" fill-rule="nonzero" fill-opacity="1" /><path clip-path="url(#clip410)" d="M1879.43 1319.31 Q1874.01 1319.31 1871.27 1324.66 Q1868.56 1329.97 1868.56 1340.66 Q1868.56 1351.32 1871.27 1356.67 Q1874.01 1361.98 1879.43 1361.98 Q1884.88 1361.98 1887.59 1356.67 Q1890.33 1351.32 1890.33 1340.66 Q1890.33 1329.97 1887.59 1324.66 Q1884.88 1319.31 1879.43 1319.31 M1879.43 1313.75 Q1888.14 1313.75 1892.73 1320.66 Q1897.34 1327.54 1897.34 1340.66 Q1897.34 1353.75 1892.73 1360.66 Q1888.14 1367.54 1879.43 1367.54 Q1870.71 1367.54 1866.09 1360.66 Q1861.51 1353.75 1861.51 1340.66 Q1861.51 1327.54 1866.09 1320.66 Q1870.71 1313.75 1879.43 1313.75 Z" fill="#000000" fill-rule="nonzero" fill-opacity="1" /><path clip-path="url(#clip410)" d="M1924.67 1319.31 Q1919.25 1319.31 1916.51 1324.66 Q1913.8 1329.97 1913.8 1340.66 Q1913.8 1351.32 1916.51 1356.67 Q1919.25 1361.98 1924.67 1361.98 Q1930.12 1361.98 1932.83 1356.67 Q1935.57 1351.32 1935.57 1340.66 Q1935.57 1329.97 1932.83 1324.66 Q1930.12 1319.31 1924.67 1319.31 M1924.67 1313.75 Q1933.39 1313.75 1937.97 1320.66 Q1942.59 1327.54 1942.59 1340.66 Q1942.59 1353.75 1937.97 1360.66 Q1933.39 1367.54 1924.67 1367.54 Q1915.96 1367.54 1911.34 1360.66 Q1906.75 1353.75 1906.75 1340.66 Q1906.75 1327.54 1911.34 1320.66 Q1915.96 1313.75 1924.67 1313.75 Z" fill="#000000" fill-rule="nonzero" fill-opacity="1" /><path clip-path="url(#clip410)" d="M1997.17 1328.34 L1981.3 1344.27 L1997.17 1360.14 L1993.04 1364.34 L1977.1 1348.41 L1961.16 1364.34 L1957.07 1360.14 L1972.9 1344.27 L1957.07 1328.34 L1961.16 1324.13 L1977.1 1340.07 L1993.04 1324.13 L1997.17 1328.34 Z" fill="#000000" fill-rule="nonzero" fill-opacity="1" /><path clip-path="url(#clip410)" d="M2015.71 1360.63 L2027.17 1360.63 L2027.17 1321.08 L2014.7 1323.58 L2014.7 1317.19 L2027.1 1314.69 L2034.11 1314.69 L2034.11 1360.63 L2045.57 1360.63 L2045.57 1366.53 L2015.71 1366.53 L2015.71 1360.63 Z" fill="#000000" fill-rule="nonzero" fill-opacity="1" /><path clip-path="url(#clip410)" d="M2074.74 1319.31 Q2069.32 1319.31 2066.58 1324.66 Q2063.87 1329.97 2063.87 1340.66 Q2063.87 1351.32 2066.58 1356.67 Q2069.32 1361.98 2074.74 1361.98 Q2080.19 1361.98 2082.9 1356.67 Q2085.64 1351.32 2085.64 1340.66 Q2085.64 1329.97 2082.9 1324.66 Q2080.19 1319.31 2074.74 1319.31 M2074.74 1313.75 Q2083.45 1313.75 2088.04 1320.66 Q2092.66 1327.54 2092.66 1340.66 Q2092.66 1353.75 2088.04 1360.66 Q2083.45 1367.54 2074.74 1367.54 Q2066.02 1367.54 2061.41 1360.66 Q2056.82 1353.75 2056.82 1340.66 Q2056.82 1327.54 2061.41 1320.66 Q2066.02 1313.75 2074.74 1313.75 Z" fill="#000000" fill-rule="nonzero" fill-opacity="1" /><path clip-path="url(#clip410)" d="M2092.66 1304.91 L2128.82 1304.91 L2128.82 1309.7 L2092.66 1309.7 L2092.66 1304.91 Z" fill="#000000" fill-rule="nonzero" fill-opacity="1" /><path clip-path="url(#clip410)" d="M2141.18 1283.29 L2163.55 1283.29 L2163.55 1288.09 L2146.4 1288.09 L2146.4 1298.42 Q2147.64 1297.99 2148.88 1297.8 Q2150.12 1297.57 2151.36 1297.57 Q2158.42 1297.57 2162.54 1301.44 Q2166.65 1305.3 2166.65 1311.9 Q2166.65 1318.7 2162.42 1322.48 Q2158.19 1326.23 2150.49 1326.23 Q2147.84 1326.23 2145.07 1325.78 Q2142.34 1325.33 2139.4 1324.43 L2139.4 1318.7 Q2141.94 1320.08 2144.65 1320.76 Q2147.36 1321.44 2150.38 1321.44 Q2155.26 1321.44 2158.11 1318.87 Q2160.96 1316.3 2160.96 1311.9 Q2160.96 1307.5 2158.11 1304.93 Q2155.26 1302.37 2150.38 1302.37 Q2148.09 1302.37 2145.81 1302.87 Q2143.55 1303.38 2141.18 1304.45 L2141.18 1283.29 Z" fill="#000000" fill-rule="nonzero" fill-opacity="1" /><path clip-path="url(#clip410)" d="M1736.93 1123.37 L1781.44 1123.37 L1781.44 1129.27 L1736.93 1129.27 L1736.93 1123.37 Z" fill="#000000" fill-rule="nonzero" fill-opacity="1" /><path clip-path="url(#clip410)" d="M1797.8 1142.71 L1809.25 1142.71 L1809.25 1103.16 L1796.79 1105.66 L1796.79 1099.27 L1809.18 1096.77 L1816.2 1096.77 L1816.2 1142.71 L1827.66 1142.71 L1827.66 1148.61 L1797.8 1148.61 L1797.8 1142.71 Z" fill="#000000" fill-rule="nonzero" fill-opacity="1" /><path clip-path="url(#clip410)" d="M1841.82 1139.79 L1849.15 1139.79 L1849.15 1148.61 L1841.82 1148.61 L1841.82 1139.79 Z" fill="#000000" fill-rule="nonzero" fill-opacity="1" /><path clip-path="url(#clip410)" d="M1864.5 1096.77 L1892.03 1096.77 L1892.03 1102.67 L1870.92 1102.67 L1870.92 1115.38 Q1872.45 1114.86 1873.98 1114.62 Q1875.5 1114.34 1877.03 1114.34 Q1885.71 1114.34 1890.78 1119.09 Q1895.85 1123.85 1895.85 1131.98 Q1895.85 1140.34 1890.64 1145 Q1885.43 1149.62 1875.96 1149.62 Q1872.69 1149.62 1869.29 1149.06 Q1865.92 1148.5 1862.31 1147.39 L1862.31 1140.34 Q1865.43 1142.05 1868.77 1142.88 Q1872.1 1143.71 1875.82 1143.71 Q1881.82 1143.71 1885.33 1140.55 Q1888.84 1137.39 1888.84 1131.98 Q1888.84 1126.56 1885.33 1123.4 Q1881.82 1120.24 1875.82 1120.24 Q1873 1120.24 1870.19 1120.87 Q1867.41 1121.49 1864.5 1122.81 L1864.5 1096.77 Z" fill="#000000" fill-rule="nonzero" fill-opacity="1" /><path clip-path="url(#clip410)" d="M1924.67 1101.39 Q1919.25 1101.39 1916.51 1106.73 Q1913.8 1112.05 1913.8 1122.74 Q1913.8 1133.4 1916.51 1138.75 Q1919.25 1144.06 1924.67 1144.06 Q1930.12 1144.06 1932.83 1138.75 Q1935.57 1133.4 1935.57 1122.74 Q1935.57 1112.05 1932.83 1106.73 Q1930.12 1101.39 1924.67 1101.39 M1924.67 1095.83 Q1933.39 1095.83 1937.97 1102.74 Q1942.59 1109.62 1942.59 1122.74 Q1942.59 1135.83 1937.97 1142.74 Q1933.39 1149.62 1924.67 1149.62 Q1915.96 1149.62 1911.34 1142.74 Q1906.75 1135.83 1906.75 1122.74 Q1906.75 1109.62 1911.34 1102.74 Q1915.96 1095.83 1924.67 1095.83 Z" fill="#000000" fill-rule="nonzero" fill-opacity="1" /><path clip-path="url(#clip410)" d="M1997.17 1110.41 L1981.3 1126.35 L1997.17 1142.22 L1993.04 1146.42 L1977.1 1130.48 L1961.16 1146.42 L1957.07 1142.22 L1972.9 1126.35 L1957.07 1110.41 L1961.16 1106.21 L1977.1 1122.15 L1993.04 1106.21 L1997.17 1110.41 Z" fill="#000000" fill-rule="nonzero" fill-opacity="1" /><path clip-path="url(#clip410)" d="M2015.71 1142.71 L2027.17 1142.71 L2027.17 1103.16 L2014.7 1105.66 L2014.7 1099.27 L2027.1 1096.77 L2034.11 1096.77 L2034.11 1142.71 L2045.57 1142.71 L2045.57 1148.61 L2015.71 1148.61 L2015.71 1142.71 Z" fill="#000000" fill-rule="nonzero" fill-opacity="1" /><path clip-path="url(#clip410)" d="M2074.74 1101.39 Q2069.32 1101.39 2066.58 1106.73 Q2063.87 1112.05 2063.87 1122.74 Q2063.87 1133.4 2066.58 1138.75 Q2069.32 1144.06 2074.74 1144.06 Q2080.19 1144.06 2082.9 1138.75 Q2085.64 1133.4 2085.64 1122.74 Q2085.64 1112.05 2082.9 1106.73 Q2080.19 1101.39 2074.74 1101.39 M2074.74 1095.83 Q2083.45 1095.83 2088.04 1102.74 Q2092.66 1109.62 2092.66 1122.74 Q2092.66 1135.83 2088.04 1142.74 Q2083.45 1149.62 2074.74 1149.62 Q2066.02 1149.62 2061.41 1142.74 Q2056.82 1135.83 2056.82 1122.74 Q2056.82 1109.62 2061.41 1102.74 Q2066.02 1095.83 2074.74 1095.83 Z" fill="#000000" fill-rule="nonzero" fill-opacity="1" /><path clip-path="url(#clip410)" d="M2092.66 1086.98 L2128.82 1086.98 L2128.82 1091.78 L2092.66 1091.78 L2092.66 1086.98 Z" fill="#000000" fill-rule="nonzero" fill-opacity="1" /><path clip-path="url(#clip410)" d="M2141.18 1065.37 L2163.55 1065.37 L2163.55 1070.17 L2146.4 1070.17 L2146.4 1080.49 Q2147.64 1080.07 2148.88 1079.87 Q2150.12 1079.65 2151.36 1079.65 Q2158.42 1079.65 2162.54 1083.51 Q2166.65 1087.38 2166.65 1093.98 Q2166.65 1100.78 2162.42 1104.56 Q2158.19 1108.31 2150.49 1108.31 Q2147.84 1108.31 2145.07 1107.86 Q2142.34 1107.41 2139.4 1106.51 L2139.4 1100.78 Q2141.94 1102.16 2144.65 1102.84 Q2147.36 1103.51 2150.38 1103.51 Q2155.26 1103.51 2158.11 1100.95 Q2160.96 1098.38 2160.96 1093.98 Q2160.96 1089.58 2158.11 1087.01 Q2155.26 1084.44 2150.38 1084.44 Q2148.09 1084.44 2145.81 1084.95 Q2143.55 1085.46 2141.18 1086.53 L2141.18 1065.37 Z" fill="#000000" fill-rule="nonzero" fill-opacity="1" /><path clip-path="url(#clip410)" d="M1736.93 905.443 L1781.44 905.443 L1781.44 911.345 L1736.93 911.345 L1736.93 905.443 Z" fill="#000000" fill-rule="nonzero" fill-opacity="1" /><path clip-path="url(#clip410)" d="M1797.8 924.783 L1809.25 924.783 L1809.25 885.235 L1796.79 887.735 L1796.79 881.346 L1809.18 878.846 L1816.2 878.846 L1816.2 924.783 L1827.66 924.783 L1827.66 930.686 L1797.8 930.686 L1797.8 924.783 Z" fill="#000000" fill-rule="nonzero" fill-opacity="1" /><path clip-path="url(#clip410)" d="M1841.82 921.866 L1849.15 921.866 L1849.15 930.686 L1841.82 930.686 L1841.82 921.866 Z" fill="#000000" fill-rule="nonzero" fill-opacity="1" /><path clip-path="url(#clip410)" d="M1879.43 883.464 Q1874.01 883.464 1871.27 888.811 Q1868.56 894.123 1868.56 904.818 Q1868.56 915.477 1871.27 920.825 Q1874.01 926.137 1879.43 926.137 Q1884.88 926.137 1887.59 920.825 Q1890.33 915.477 1890.33 904.818 Q1890.33 894.123 1887.59 888.811 Q1884.88 883.464 1879.43 883.464 M1879.43 877.908 Q1888.14 877.908 1892.73 884.818 Q1897.34 891.693 1897.34 904.818 Q1897.34 917.908 1892.73 924.818 Q1888.14 931.693 1879.43 931.693 Q1870.71 931.693 1866.09 924.818 Q1861.51 917.908 1861.51 904.818 Q1861.51 891.693 1866.09 884.818 Q1870.71 877.908 1879.43 877.908 Z" fill="#000000" fill-rule="nonzero" fill-opacity="1" /><path clip-path="url(#clip410)" d="M1924.67 883.464 Q1919.25 883.464 1916.51 888.811 Q1913.8 894.123 1913.8 904.818 Q1913.8 915.477 1916.51 920.825 Q1919.25 926.137 1924.67 926.137 Q1930.12 926.137 1932.83 920.825 Q1935.57 915.477 1935.57 904.818 Q1935.57 894.123 1932.83 888.811 Q1930.12 883.464 1924.67 883.464 M1924.67 877.908 Q1933.39 877.908 1937.97 884.818 Q1942.59 891.693 1942.59 904.818 Q1942.59 917.908 1937.97 924.818 Q1933.39 931.693 1924.67 931.693 Q1915.96 931.693 1911.34 924.818 Q1906.75 917.908 1906.75 904.818 Q1906.75 891.693 1911.34 884.818 Q1915.96 877.908 1924.67 877.908 Z" fill="#000000" fill-rule="nonzero" fill-opacity="1" /><path clip-path="url(#clip410)" d="M1997.17 892.491 L1981.3 908.429 L1997.17 924.297 L1993.04 928.498 L1977.1 912.561 L1961.16 928.498 L1957.07 924.297 L1972.9 908.429 L1957.07 892.491 L1961.16 888.29 L1977.1 904.227 L1993.04 888.29 L1997.17 892.491 Z" fill="#000000" fill-rule="nonzero" fill-opacity="1" /><path clip-path="url(#clip410)" d="M2015.71 924.783 L2027.17 924.783 L2027.17 885.235 L2014.7 887.735 L2014.7 881.346 L2027.1 878.846 L2034.11 878.846 L2034.11 924.783 L2045.57 924.783 L2045.57 930.686 L2015.71 930.686 L2015.71 924.783 Z" fill="#000000" fill-rule="nonzero" fill-opacity="1" /><path clip-path="url(#clip410)" d="M2074.74 883.464 Q2069.32 883.464 2066.58 888.811 Q2063.87 894.123 2063.87 904.818 Q2063.87 915.477 2066.58 920.825 Q2069.32 926.137 2074.74 926.137 Q2080.19 926.137 2082.9 920.825 Q2085.64 915.477 2085.64 904.818 Q2085.64 894.123 2082.9 888.811 Q2080.19 883.464 2074.74 883.464 M2074.74 877.908 Q2083.45 877.908 2088.04 884.818 Q2092.66 891.693 2092.66 904.818 Q2092.66 917.908 2088.04 924.818 Q2083.45 931.693 2074.74 931.693 Q2066.02 931.693 2061.41 924.818 Q2056.82 917.908 2056.82 904.818 Q2056.82 891.693 2061.41 884.818 Q2066.02 877.908 2074.74 877.908 Z" fill="#000000" fill-rule="nonzero" fill-opacity="1" /><path clip-path="url(#clip410)" d="M2092.66 869.06 L2128.82 869.06 L2128.82 873.856 L2092.66 873.856 L2092.66 869.06 Z" fill="#000000" fill-rule="nonzero" fill-opacity="1" /><path clip-path="url(#clip410)" d="M2141.18 847.45 L2163.55 847.45 L2163.55 852.246 L2146.4 852.246 L2146.4 862.572 Q2147.64 862.148 2148.88 861.951 Q2150.12 861.725 2151.36 861.725 Q2158.42 861.725 2162.54 865.59 Q2166.65 869.455 2166.65 876.057 Q2166.65 882.856 2162.42 886.636 Q2158.19 890.388 2150.49 890.388 Q2147.84 890.388 2145.07 889.937 Q2142.34 889.485 2139.4 888.583 L2139.4 882.856 Q2141.94 884.238 2144.65 884.915 Q2147.36 885.592 2150.38 885.592 Q2155.26 885.592 2158.11 883.025 Q2160.96 880.458 2160.96 876.057 Q2160.96 871.656 2158.11 869.088 Q2155.26 866.521 2150.38 866.521 Q2148.09 866.521 2145.81 867.029 Q2143.55 867.537 2141.18 868.609 L2141.18 847.45 Z" fill="#000000" fill-rule="nonzero" fill-opacity="1" /><path clip-path="url(#clip410)" d="M1735.52 687.52 L1780.03 687.52 L1780.03 693.423 L1735.52 693.423 L1735.52 687.52 Z" fill="#000000" fill-rule="nonzero" fill-opacity="1" /><path clip-path="url(#clip410)" d="M1795.24 660.923 L1822.77 660.923 L1822.77 666.826 L1801.66 666.826 L1801.66 679.534 Q1803.19 679.013 1804.72 678.77 Q1806.25 678.493 1807.77 678.493 Q1816.45 678.493 1821.52 683.25 Q1826.59 688.006 1826.59 696.131 Q1826.59 704.499 1821.39 709.152 Q1816.18 713.77 1806.7 713.77 Q1803.43 713.77 1800.03 713.215 Q1796.66 712.659 1793.05 711.548 L1793.05 704.499 Q1796.18 706.201 1799.51 707.034 Q1802.84 707.867 1806.56 707.867 Q1812.57 707.867 1816.07 704.708 Q1819.58 701.548 1819.58 696.131 Q1819.58 690.715 1816.07 687.555 Q1812.57 684.395 1806.56 684.395 Q1803.75 684.395 1800.93 685.02 Q1798.16 685.645 1795.24 686.965 L1795.24 660.923 Z" fill="#000000" fill-rule="nonzero" fill-opacity="1" /><path clip-path="url(#clip410)" d="M1840.41 703.944 L1847.74 703.944 L1847.74 712.763 L1840.41 712.763 L1840.41 703.944 Z" fill="#000000" fill-rule="nonzero" fill-opacity="1" /><path clip-path="url(#clip410)" d="M1878.02 665.541 Q1872.6 665.541 1869.86 670.888 Q1867.15 676.201 1867.15 686.895 Q1867.15 697.555 1869.86 702.902 Q1872.6 708.215 1878.02 708.215 Q1883.47 708.215 1886.18 702.902 Q1888.92 697.555 1888.92 686.895 Q1888.92 676.201 1886.18 670.888 Q1883.47 665.541 1878.02 665.541 M1878.02 659.986 Q1886.73 659.986 1891.32 666.895 Q1895.93 673.77 1895.93 686.895 Q1895.93 699.986 1891.32 706.895 Q1886.73 713.77 1878.02 713.77 Q1869.3 713.77 1864.68 706.895 Q1860.1 699.986 1860.1 686.895 Q1860.1 673.77 1864.68 666.895 Q1869.3 659.986 1878.02 659.986 Z" fill="#000000" fill-rule="nonzero" fill-opacity="1" /><path clip-path="url(#clip410)" d="M1923.26 665.541 Q1917.84 665.541 1915.1 670.888 Q1912.39 676.201 1912.39 686.895 Q1912.39 697.555 1915.1 702.902 Q1917.84 708.215 1923.26 708.215 Q1928.71 708.215 1931.42 702.902 Q1934.16 697.555 1934.16 686.895 Q1934.16 676.201 1931.42 670.888 Q1928.71 665.541 1923.26 665.541 M1923.26 659.986 Q1931.97 659.986 1936.56 666.895 Q1941.18 673.77 1941.18 686.895 Q1941.18 699.986 1936.56 706.895 Q1931.97 713.77 1923.26 713.77 Q1914.54 713.77 1909.93 706.895 Q1905.34 699.986 1905.34 686.895 Q1905.34 673.77 1909.93 666.895 Q1914.54 659.986 1923.26 659.986 Z" fill="#000000" fill-rule="nonzero" fill-opacity="1" /><path clip-path="url(#clip410)" d="M1995.76 674.569 L1979.89 690.506 L1995.76 706.374 L1991.63 710.576 L1975.69 694.638 L1959.75 710.576 L1955.66 706.374 L1971.49 690.506 L1955.66 674.569 L1959.75 670.368 L1975.69 686.305 L1991.63 670.368 L1995.76 674.569 Z" fill="#000000" fill-rule="nonzero" fill-opacity="1" /><path clip-path="url(#clip410)" d="M2014.3 706.86 L2025.76 706.86 L2025.76 667.312 L2013.29 669.812 L2013.29 663.423 L2025.69 660.923 L2032.7 660.923 L2032.7 706.86 L2044.16 706.86 L2044.16 712.763 L2014.3 712.763 L2014.3 706.86 Z" fill="#000000" fill-rule="nonzero" fill-opacity="1" /><path clip-path="url(#clip410)" d="M2073.33 665.541 Q2067.91 665.541 2065.17 670.888 Q2062.46 676.201 2062.46 686.895 Q2062.46 697.555 2065.17 702.902 Q2067.91 708.215 2073.33 708.215 Q2078.78 708.215 2081.49 702.902 Q2084.23 697.555 2084.23 686.895 Q2084.23 676.201 2081.49 670.888 Q2078.78 665.541 2073.33 665.541 M2073.33 659.986 Q2082.04 659.986 2086.63 666.895 Q2091.24 673.77 2091.24 686.895 Q2091.24 699.986 2086.63 706.895 Q2082.04 713.77 2073.33 713.77 Q2064.61 713.77 2060 706.895 Q2055.41 699.986 2055.41 686.895 Q2055.41 673.77 2060 666.895 Q2064.61 659.986 2073.33 659.986 Z" fill="#000000" fill-rule="nonzero" fill-opacity="1" /><path clip-path="url(#clip410)" d="M2091.24 651.138 L2127.41 651.138 L2127.41 655.934 L2091.24 655.934 L2091.24 651.138 Z" fill="#000000" fill-rule="nonzero" fill-opacity="1" /><path clip-path="url(#clip410)" d="M2152.61 648.317 Q2148.77 648.317 2146.51 650.94 Q2144.28 653.564 2144.28 658.134 Q2144.28 662.676 2146.51 665.328 Q2148.77 667.952 2152.61 667.952 Q2156.44 667.952 2158.67 665.328 Q2160.93 662.676 2160.93 658.134 Q2160.93 653.564 2158.67 650.94 Q2156.44 648.317 2152.61 648.317 M2163.92 630.459 L2163.92 635.65 Q2161.77 634.634 2159.57 634.098 Q2157.4 633.562 2155.26 633.562 Q2149.61 633.562 2146.62 637.37 Q2143.66 641.179 2143.24 648.881 Q2144.9 646.426 2147.41 645.129 Q2149.93 643.803 2152.94 643.803 Q2159.29 643.803 2162.96 647.668 Q2166.65 651.505 2166.65 658.134 Q2166.65 664.623 2162.82 668.544 Q2158.98 672.466 2152.61 672.466 Q2145.3 672.466 2141.43 666.88 Q2137.57 661.266 2137.57 650.63 Q2137.57 640.643 2142.31 634.719 Q2147.05 628.766 2155.03 628.766 Q2157.18 628.766 2159.35 629.189 Q2161.55 629.612 2163.92 630.459 Z" fill="#000000" fill-rule="nonzero" fill-opacity="1" /><path clip-path="url(#clip410)" d="M2148.74 437.947 Q2143.32 437.947 2140.58 443.295 Q2137.87 448.607 2137.87 459.301 Q2137.87 469.961 2140.58 475.308 Q2143.32 480.621 2148.74 480.621 Q2154.19 480.621 2156.9 475.308 Q2159.64 469.961 2159.64 459.301 Q2159.64 448.607 2156.9 443.295 Q2154.19 437.947 2148.74 437.947 M2148.74 432.392 Q2157.45 432.392 2162.04 439.302 Q2166.65 446.177 2166.65 459.301 Q2166.65 472.392 2162.04 479.301 Q2157.45 486.176 2148.74 486.176 Q2140.02 486.176 2135.4 479.301 Q2130.82 472.392 2130.82 459.301 Q2130.82 446.177 2135.4 439.302 Q2140.02 432.392 2148.74 432.392 Z" fill="#000000" fill-rule="nonzero" fill-opacity="1" /><path clip-path="url(#clip410)" d="M1795.24 225.078 L1822.77 225.078 L1822.77 230.981 L1801.66 230.981 L1801.66 243.689 Q1803.19 243.169 1804.72 242.925 Q1806.25 242.648 1807.77 242.648 Q1816.45 242.648 1821.52 247.405 Q1826.59 252.162 1826.59 260.287 Q1826.59 268.655 1821.39 273.307 Q1816.18 277.925 1806.7 277.925 Q1803.43 277.925 1800.03 277.37 Q1796.66 276.814 1793.05 275.703 L1793.05 268.655 Q1796.18 270.356 1799.51 271.189 Q1802.84 272.023 1806.56 272.023 Q1812.57 272.023 1816.07 268.863 Q1819.58 265.703 1819.58 260.287 Q1819.58 254.87 1816.07 251.71 Q1812.57 248.55 1806.56 248.55 Q1803.75 248.55 1800.93 249.175 Q1798.16 249.8 1795.24 251.12 L1795.24 225.078 Z" fill="#000000" fill-rule="nonzero" fill-opacity="1" /><path clip-path="url(#clip410)" d="M1840.41 268.099 L1847.74 268.099 L1847.74 276.918 L1840.41 276.918 L1840.41 268.099 Z" fill="#000000" fill-rule="nonzero" fill-opacity="1" /><path clip-path="url(#clip410)" d="M1878.02 229.696 Q1872.6 229.696 1869.86 235.044 Q1867.15 240.356 1867.15 251.05 Q1867.15 261.71 1869.86 267.057 Q1872.6 272.37 1878.02 272.37 Q1883.47 272.37 1886.18 267.057 Q1888.92 261.71 1888.92 251.05 Q1888.92 240.356 1886.18 235.044 Q1883.47 229.696 1878.02 229.696 M1878.02 224.141 Q1886.73 224.141 1891.32 231.051 Q1895.93 237.926 1895.93 251.05 Q1895.93 264.141 1891.32 271.05 Q1886.73 277.925 1878.02 277.925 Q1869.3 277.925 1864.68 271.05 Q1860.1 264.141 1860.1 251.05 Q1860.1 237.926 1864.68 231.051 Q1869.3 224.141 1878.02 224.141 Z" fill="#000000" fill-rule="nonzero" fill-opacity="1" /><path clip-path="url(#clip410)" d="M1923.26 229.696 Q1917.84 229.696 1915.1 235.044 Q1912.39 240.356 1912.39 251.05 Q1912.39 261.71 1915.1 267.057 Q1917.84 272.37 1923.26 272.37 Q1928.71 272.37 1931.42 267.057 Q1934.16 261.71 1934.16 251.05 Q1934.16 240.356 1931.42 235.044 Q1928.71 229.696 1923.26 229.696 M1923.26 224.141 Q1931.97 224.141 1936.56 231.051 Q1941.18 237.926 1941.18 251.05 Q1941.18 264.141 1936.56 271.05 Q1931.97 277.925 1923.26 277.925 Q1914.54 277.925 1909.93 271.05 Q1905.34 264.141 1905.34 251.05 Q1905.34 237.926 1909.93 231.051 Q1914.54 224.141 1923.26 224.141 Z" fill="#000000" fill-rule="nonzero" fill-opacity="1" /><path clip-path="url(#clip410)" d="M1995.76 238.724 L1979.89 254.662 L1995.76 270.53 L1991.63 274.731 L1975.69 258.793 L1959.75 274.731 L1955.66 270.53 L1971.49 254.662 L1955.66 238.724 L1959.75 234.523 L1975.69 250.46 L1991.63 234.523 L1995.76 238.724 Z" fill="#000000" fill-rule="nonzero" fill-opacity="1" /><path clip-path="url(#clip410)" d="M2014.3 271.016 L2025.76 271.016 L2025.76 231.467 L2013.29 233.967 L2013.29 227.578 L2025.69 225.078 L2032.7 225.078 L2032.7 271.016 L2044.16 271.016 L2044.16 276.918 L2014.3 276.918 L2014.3 271.016 Z" fill="#000000" fill-rule="nonzero" fill-opacity="1" /><path clip-path="url(#clip410)" d="M2073.33 229.696 Q2067.91 229.696 2065.17 235.044 Q2062.46 240.356 2062.46 251.05 Q2062.46 261.71 2065.17 267.057 Q2067.91 272.37 2073.33 272.37 Q2078.78 272.37 2081.49 267.057 Q2084.23 261.71 2084.23 251.05 Q2084.23 240.356 2081.49 235.044 Q2078.78 229.696 2073.33 229.696 M2073.33 224.141 Q2082.04 224.141 2086.63 231.051 Q2091.24 237.926 2091.24 251.05 Q2091.24 264.141 2086.63 271.05 Q2082.04 277.925 2073.33 277.925 Q2064.61 277.925 2060 271.05 Q2055.41 264.141 2055.41 251.05 Q2055.41 237.926 2060 231.051 Q2064.61 224.141 2073.33 224.141 Z" fill="#000000" fill-rule="nonzero" fill-opacity="1" /><path clip-path="url(#clip410)" d="M2091.24 215.293 L2127.41 215.293 L2127.41 220.089 L2091.24 220.089 L2091.24 215.293 Z" fill="#000000" fill-rule="nonzero" fill-opacity="1" /><path clip-path="url(#clip410)" d="M2152.61 212.472 Q2148.77 212.472 2146.51 215.095 Q2144.28 217.719 2144.28 222.289 Q2144.28 226.831 2146.51 229.483 Q2148.77 232.107 2152.61 232.107 Q2156.44 232.107 2158.67 229.483 Q2160.93 226.831 2160.93 222.289 Q2160.93 217.719 2158.67 215.095 Q2156.44 212.472 2152.61 212.472 M2163.92 194.614 L2163.92 199.805 Q2161.77 198.789 2159.57 198.253 Q2157.4 197.717 2155.26 197.717 Q2149.61 197.717 2146.62 201.526 Q2143.66 205.334 2143.24 213.036 Q2144.9 210.582 2147.41 209.284 Q2149.93 207.958 2152.94 207.958 Q2159.29 207.958 2162.96 211.823 Q2166.65 215.66 2166.65 222.289 Q2166.65 228.778 2162.82 232.699 Q2158.98 236.621 2152.61 236.621 Q2145.3 236.621 2141.43 231.035 Q2137.57 225.421 2137.57 214.785 Q2137.57 204.798 2142.31 198.874 Q2147.05 192.921 2155.03 192.921 Q2157.18 192.921 2159.35 193.344 Q2161.55 193.767 2163.92 194.614 Z" fill="#000000" fill-rule="nonzero" fill-opacity="1" /><path clip-path="url(#clip410)" d="M1682.58 1154.4 L1574.65 1154.4 L1574.65 1138.12 L1577.12 1138.12 L1577.12 1147.18 L1680.1 1147.18 L1680.1 1138.12 L1682.58 1138.12 L1682.58 1154.4 Z" fill="#000000" fill-rule="nonzero" fill-opacity="1" /><path clip-path="url(#clip410)" d="M1583.08 1043.35 Q1584.61 1043.35 1584.92 1044.03 Q1585.24 1044.67 1585.24 1046.98 Q1585.24 1050.94 1585.77 1052.73 Q1586.24 1054.47 1587.08 1054.99 Q1587.87 1055.47 1590.19 1056.05 L1648.48 1070.65 Q1648.53 1070.65 1649.27 1070.8 Q1649.95 1070.96 1650.32 1070.96 Q1651.01 1070.96 1651.43 1070.54 Q1651.85 1070.07 1652.06 1068.91 Q1652.22 1067.75 1652.27 1066.85 Q1652.27 1065.9 1652.27 1063.95 Q1652.27 1061.53 1652.69 1061.16 Q1652.96 1060.95 1653.43 1060.95 Q1654.43 1060.95 1654.96 1061.37 Q1655.44 1061.74 1655.54 1062.11 Q1655.59 1062.43 1655.59 1063.06 Q1655.59 1064.16 1655.49 1066.54 Q1655.38 1068.91 1655.38 1070.12 L1655.28 1077.02 L1655.59 1090.73 Q1655.59 1092.2 1654.38 1092.2 Q1653.33 1092.2 1652.85 1091.83 Q1652.38 1091.46 1652.33 1091.09 Q1652.27 1090.67 1652.27 1089.62 Q1652.27 1084.19 1651.75 1082.4 Q1651.17 1080.55 1648.69 1079.82 L1618.91 1072.39 L1618.91 1105.27 L1648.48 1112.65 Q1648.53 1112.65 1649.27 1112.81 Q1649.95 1112.97 1650.32 1112.97 Q1651.01 1112.97 1651.43 1112.54 Q1651.85 1112.07 1652.06 1110.91 Q1652.22 1109.75 1652.27 1108.85 Q1652.27 1107.91 1652.27 1105.96 Q1652.27 1103.53 1652.69 1103.11 Q1652.96 1102.9 1653.43 1102.9 Q1654.17 1102.9 1654.7 1103.11 Q1655.17 1103.27 1655.33 1103.69 Q1655.49 1104.06 1655.54 1104.32 Q1655.59 1104.59 1655.59 1105.06 Q1655.59 1106.17 1655.49 1108.54 Q1655.38 1110.86 1655.38 1112.07 L1655.28 1118.97 L1655.59 1132.68 Q1655.59 1134.2 1654.38 1134.2 Q1653.33 1134.2 1652.91 1133.83 Q1652.43 1133.47 1652.38 1132.99 Q1652.27 1132.52 1652.27 1131.31 Q1652.27 1128.67 1652.12 1127.09 Q1651.96 1125.51 1651.75 1124.51 Q1651.48 1123.45 1650.74 1122.93 Q1650.01 1122.35 1649.37 1122.08 Q1648.69 1121.82 1647.16 1121.45 L1589.19 1107.01 Q1587.45 1106.59 1587.19 1106.59 Q1586.19 1106.59 1585.92 1107.22 Q1585.61 1107.8 1585.45 1109.49 L1585.24 1113.6 Q1585.24 1114.86 1585.19 1115.39 Q1585.13 1115.86 1584.87 1116.23 Q1584.61 1116.6 1584.03 1116.6 Q1583.29 1116.6 1582.81 1116.44 Q1582.29 1116.23 1582.13 1115.86 Q1581.97 1115.49 1581.92 1115.23 Q1581.87 1114.97 1581.87 1114.55 L1582.18 1100.63 L1581.87 1086.83 Q1581.87 1085.3 1583.08 1085.3 Q1584.61 1085.3 1584.92 1085.98 Q1585.24 1086.67 1585.24 1088.99 Q1585.24 1092.83 1585.77 1094.63 Q1586.24 1096.42 1587.08 1097 Q1587.93 1097.52 1590.19 1098.05 L1615.54 1104.43 L1615.54 1071.49 L1589.19 1065.01 Q1587.29 1064.59 1587.19 1064.59 Q1586.19 1064.59 1585.92 1065.22 Q1585.61 1065.8 1585.45 1067.48 L1585.24 1071.6 Q1585.24 1072.86 1585.19 1073.39 Q1585.13 1073.86 1584.87 1074.28 Q1584.61 1074.65 1584.03 1074.65 Q1583.29 1074.65 1582.81 1074.49 Q1582.29 1074.28 1582.13 1073.91 Q1581.97 1073.55 1581.92 1073.28 Q1581.87 1073.02 1581.87 1072.6 L1582.18 1058.68 L1581.87 1044.82 Q1581.87 1043.35 1583.08 1043.35 Z" fill="#000000" fill-rule="nonzero" fill-opacity="1" /><path clip-path="url(#clip410)" d="M1628.61 1032.46 Q1610.38 1032.46 1595.67 1025.66 Q1589.51 1022.76 1584.34 1018.7 Q1579.18 1014.64 1576.91 1011.95 Q1574.65 1009.27 1574.65 1008.53 Q1574.65 1007.48 1575.7 1007.42 Q1576.23 1007.42 1577.54 1008.85 Q1595.25 1026.24 1628.61 1026.18 Q1662.08 1026.18 1679.1 1009.27 Q1680.94 1007.42 1681.52 1007.42 Q1682.58 1007.42 1682.58 1008.53 Q1682.58 1009.27 1680.42 1011.85 Q1678.25 1014.43 1673.3 1018.44 Q1668.35 1022.44 1662.29 1025.34 Q1647.58 1032.46 1628.61 1032.46 Z" fill="#000000" fill-rule="nonzero" fill-opacity="1" /><path clip-path="url(#clip410)" d="M1610.27 966.07 Q1611.75 966.07 1612.12 966.755 Q1612.43 967.44 1612.43 969.337 L1612.43 979.456 L1644.26 987.466 Q1647.06 988.098 1649.43 988.098 Q1652.06 988.098 1653.22 987.308 Q1654.38 986.465 1654.38 984.726 Q1654.38 981.3 1651.27 977.611 Q1648.16 973.869 1640.57 970.707 Q1639.57 970.286 1639.36 970.075 Q1639.1 969.811 1639.1 969.126 Q1639.1 967.809 1640.15 967.809 Q1640.52 967.809 1642.21 968.547 Q1643.89 969.232 1646.37 970.76 Q1648.85 972.236 1651.17 974.185 Q1653.49 976.083 1655.17 978.981 Q1656.81 981.88 1656.81 984.989 Q1656.81 989.363 1654.01 992.156 Q1651.22 994.897 1646.85 994.897 Q1645.42 994.897 1640.89 993.79 Q1636.31 992.683 1612.43 986.676 L1612.43 996.214 Q1612.43 997.532 1612.38 998.059 Q1612.33 998.533 1612.06 998.902 Q1611.75 999.218 1611.11 999.218 Q1610.11 999.218 1609.69 998.797 Q1609.22 998.375 1609.16 997.848 Q1609.06 997.268 1609.06 995.951 L1609.06 985.832 L1591.93 981.616 Q1590.24 981.195 1589.3 980.141 Q1588.29 979.034 1588.19 978.402 Q1588.03 977.769 1588.03 977.295 Q1588.03 975.872 1588.82 975.029 Q1589.56 974.185 1590.93 974.185 Q1591.67 974.185 1609.06 978.612 L1609.06 969.126 Q1609.06 967.914 1609.11 967.44 Q1609.16 966.913 1609.43 966.491 Q1609.69 966.07 1610.27 966.07 Z" fill="#000000" fill-rule="nonzero" fill-opacity="1" /><path clip-path="url(#clip410)" d="M1681.52 957.62 Q1681 957.62 1679.68 956.25 Q1661.97 938.859 1628.61 938.859 Q1595.15 938.859 1578.23 955.565 Q1576.28 957.62 1575.7 957.62 Q1574.65 957.62 1574.65 956.566 Q1574.65 955.828 1576.81 953.246 Q1578.97 950.611 1583.92 946.658 Q1588.87 942.653 1594.94 939.702 Q1609.64 932.587 1628.61 932.587 Q1646.85 932.587 1661.55 939.386 Q1667.71 942.284 1672.88 946.342 Q1678.04 950.4 1680.31 953.088 Q1682.58 955.776 1682.58 956.566 Q1682.58 957.62 1681.52 957.62 Z" fill="#000000" fill-rule="nonzero" fill-opacity="1" /><path clip-path="url(#clip410)" d="M1627.08 814.978 Q1627.71 814.346 1628.61 814.346 Q1629.51 814.346 1630.14 814.978 Q1630.77 815.61 1630.77 816.506 L1630.77 884.068 Q1630.77 884.964 1630.14 885.597 Q1629.51 886.229 1628.61 886.229 Q1627.71 886.229 1627.08 885.597 Q1626.45 884.964 1626.45 884.068 L1626.45 816.506 Q1626.45 815.61 1627.08 814.978 Z" fill="#000000" fill-rule="nonzero" fill-opacity="1" /><path clip-path="url(#clip410)" d="M1583.08 682.277 Q1584.61 682.277 1584.92 682.962 Q1585.24 683.594 1585.24 685.913 Q1585.24 689.865 1585.77 691.657 Q1586.24 693.396 1587.08 693.923 Q1587.87 694.398 1590.19 694.977 L1648.48 709.575 Q1648.53 709.575 1649.27 709.734 Q1649.95 709.892 1650.32 709.892 Q1651.01 709.892 1651.43 709.47 Q1651.85 708.996 1652.06 707.836 Q1652.22 706.677 1652.27 705.781 Q1652.27 704.832 1652.27 702.882 Q1652.27 700.458 1652.69 700.089 Q1652.96 699.879 1653.43 699.879 Q1654.43 699.879 1654.96 700.3 Q1655.44 700.669 1655.54 701.038 Q1655.59 701.354 1655.59 701.987 Q1655.59 703.093 1655.49 705.465 Q1655.38 707.836 1655.38 709.048 L1655.28 715.952 L1655.59 729.654 Q1655.59 731.13 1654.38 731.13 Q1653.33 731.13 1652.85 730.761 Q1652.38 730.392 1652.33 730.023 Q1652.27 729.602 1652.27 728.548 Q1652.27 723.119 1651.75 721.328 Q1651.17 719.483 1648.69 718.745 L1618.91 711.315 L1618.91 744.2 L1648.48 751.578 Q1648.53 751.578 1649.27 751.736 Q1649.95 751.894 1650.32 751.894 Q1651.01 751.894 1651.43 751.472 Q1651.85 750.998 1652.06 749.839 Q1652.22 748.679 1652.27 747.783 Q1652.27 746.835 1652.27 744.885 Q1652.27 742.461 1652.69 742.039 Q1652.96 741.828 1653.43 741.828 Q1654.17 741.828 1654.7 742.039 Q1655.17 742.197 1655.33 742.619 Q1655.49 742.988 1655.54 743.251 Q1655.59 743.515 1655.59 743.989 Q1655.59 745.096 1655.49 747.467 Q1655.38 749.786 1655.38 750.998 L1655.28 757.902 L1655.59 771.604 Q1655.59 773.132 1654.38 773.132 Q1653.33 773.132 1652.91 772.763 Q1652.43 772.394 1652.38 771.92 Q1652.27 771.446 1652.27 770.234 Q1652.27 767.599 1652.12 766.018 Q1651.96 764.437 1651.75 763.435 Q1651.48 762.381 1650.74 761.854 Q1650.01 761.275 1649.37 761.011 Q1648.69 760.748 1647.16 760.379 L1589.19 745.939 Q1587.45 745.517 1587.19 745.517 Q1586.19 745.517 1585.92 746.15 Q1585.61 746.729 1585.45 748.416 L1585.24 752.526 Q1585.24 753.791 1585.19 754.318 Q1585.13 754.792 1584.87 755.161 Q1584.61 755.53 1584.03 755.53 Q1583.29 755.53 1582.81 755.372 Q1582.29 755.161 1582.13 754.792 Q1581.97 754.424 1581.92 754.16 Q1581.87 753.897 1581.87 753.475 L1582.18 739.562 L1581.87 725.754 Q1581.87 724.226 1583.08 724.226 Q1584.61 724.226 1584.92 724.911 Q1585.24 725.596 1585.24 727.915 Q1585.24 731.762 1585.77 733.554 Q1586.24 735.346 1587.08 735.926 Q1587.93 736.453 1590.19 736.98 L1615.54 743.356 L1615.54 710.419 L1589.19 703.936 Q1587.29 703.515 1587.19 703.515 Q1586.19 703.515 1585.92 704.147 Q1585.61 704.727 1585.45 706.413 L1585.24 710.524 Q1585.24 711.789 1585.19 712.316 Q1585.13 712.79 1584.87 713.212 Q1584.61 713.581 1584.03 713.581 Q1583.29 713.581 1582.81 713.423 Q1582.29 713.212 1582.13 712.843 Q1581.97 712.474 1581.92 712.21 Q1581.87 711.947 1581.87 711.525 L1582.18 697.612 L1581.87 683.752 Q1581.87 682.277 1583.08 682.277 Z" fill="#000000" fill-rule="nonzero" fill-opacity="1" /><path clip-path="url(#clip410)" d="M1628.61 671.384 Q1610.38 671.384 1595.67 664.585 Q1589.51 661.687 1584.34 657.629 Q1579.18 653.571 1576.91 650.883 Q1574.65 648.196 1574.65 647.458 Q1574.65 646.404 1575.7 646.351 Q1576.23 646.351 1577.54 647.774 Q1595.25 665.165 1628.61 665.112 Q1662.08 665.112 1679.1 648.196 Q1680.94 646.351 1681.52 646.351 Q1682.58 646.351 1682.58 647.458 Q1682.58 648.196 1680.42 650.778 Q1678.25 653.36 1673.3 657.365 Q1668.35 661.371 1662.29 664.269 Q1647.58 671.384 1628.61 671.384 Z" fill="#000000" fill-rule="nonzero" fill-opacity="1" /><path clip-path="url(#clip410)" d="M1621.07 635.987 Q1605.21 635.987 1596.57 631.982 Q1583.71 626.395 1583.71 613.22 Q1583.71 610.427 1584.5 607.529 Q1585.24 604.577 1588.14 600.888 Q1591.04 597.147 1595.78 594.88 Q1604.95 590.559 1621.07 590.559 Q1636.83 590.559 1645.42 594.564 Q1657.96 600.414 1657.96 613.326 Q1657.96 618.174 1655.49 623.128 Q1653.01 628.029 1647.06 631.138 Q1638.15 635.987 1621.07 635.987 M1619.76 627.028 Q1636.04 627.028 1642.52 625.868 Q1649.53 624.551 1652.59 620.967 Q1655.59 617.331 1655.59 613.326 Q1655.59 609.004 1652.38 605.421 Q1649.11 601.784 1642.1 600.677 Q1635.2 599.465 1619.76 599.518 Q1604.74 599.518 1598.73 600.572 Q1591.72 601.995 1588.93 605.789 Q1586.08 609.531 1586.08 613.326 Q1586.08 614.748 1586.5 616.277 Q1586.92 617.752 1588.14 619.913 Q1589.35 622.074 1592.35 623.76 Q1595.36 625.394 1599.89 626.185 Q1605.74 627.028 1619.76 627.028 Z" fill="#000000" fill-rule="nonzero" fill-opacity="1" /><path clip-path="url(#clip410)" d="M1681.52 579.944 Q1681 579.944 1679.68 578.574 Q1661.97 561.183 1628.61 561.183 Q1595.15 561.183 1578.23 577.889 Q1576.28 579.944 1575.7 579.944 Q1574.65 579.944 1574.65 578.89 Q1574.65 578.152 1576.81 575.57 Q1578.97 572.935 1583.92 568.983 Q1588.87 564.977 1594.94 562.026 Q1609.64 554.912 1628.61 554.912 Q1646.85 554.912 1661.55 561.71 Q1667.71 564.608 1672.88 568.666 Q1678.04 572.724 1680.31 575.412 Q1682.58 578.1 1682.58 578.89 Q1682.58 579.944 1681.52 579.944 Z" fill="#000000" fill-rule="nonzero" fill-opacity="1" /><path clip-path="url(#clip410)" d="M1680.1 542.819 L1680.1 533.755 L1577.12 533.755 L1577.12 542.819 L1574.65 542.819 L1574.65 526.535 L1682.58 526.535 L1682.58 542.819 L1680.1 542.819 Z" fill="#000000" fill-rule="nonzero" fill-opacity="1" /><path clip-path="url(#clip410)" d="M1681.05 513.119 Q1680.52 513.119 1679.36 512.697 L1577.54 474.595 Q1577.44 474.595 1576.86 474.331 Q1576.28 474.068 1575.91 473.91 Q1575.49 473.751 1575.17 473.435 Q1574.86 473.066 1574.86 472.645 Q1574.86 471.591 1576.17 471.591 Q1576.28 471.591 1577.54 471.907 L1679.47 510.115 Q1681.31 510.747 1681.84 511.169 Q1682.37 511.538 1682.37 512.17 Q1682.37 513.119 1681.05 513.119 Z" fill="#000000" fill-rule="nonzero" fill-opacity="1" /><path clip-path="url(#clip410)" d="M1583.08 368.813 Q1584.61 368.813 1584.92 369.498 Q1585.24 370.13 1585.24 372.449 Q1585.24 376.401 1585.77 378.193 Q1586.24 379.932 1587.08 380.459 Q1587.87 380.934 1590.19 381.513 L1648.48 396.111 Q1648.53 396.111 1649.27 396.27 Q1649.95 396.428 1650.32 396.428 Q1651.01 396.428 1651.43 396.006 Q1651.85 395.532 1652.06 394.372 Q1652.22 393.213 1652.27 392.317 Q1652.27 391.368 1652.27 389.418 Q1652.27 386.994 1652.69 386.625 Q1652.96 386.415 1653.43 386.415 Q1654.43 386.415 1654.96 386.836 Q1655.44 387.205 1655.54 387.574 Q1655.59 387.89 1655.59 388.523 Q1655.59 389.629 1655.49 392.001 Q1655.38 394.372 1655.38 395.584 L1655.28 402.488 L1655.59 416.19 Q1655.59 417.666 1654.38 417.666 Q1653.33 417.666 1652.85 417.297 Q1652.38 416.928 1652.33 416.559 Q1652.27 416.138 1652.27 415.084 Q1652.27 409.655 1651.75 407.864 Q1651.17 406.019 1648.69 405.281 L1618.91 397.851 L1618.91 430.736 L1648.48 438.114 Q1648.53 438.114 1649.27 438.272 Q1649.95 438.43 1650.32 438.43 Q1651.01 438.43 1651.43 438.008 Q1651.85 437.534 1652.06 436.375 Q1652.22 435.215 1652.27 434.319 Q1652.27 433.371 1652.27 431.421 Q1652.27 428.997 1652.69 428.575 Q1652.96 428.364 1653.43 428.364 Q1654.17 428.364 1654.7 428.575 Q1655.17 428.733 1655.33 429.155 Q1655.49 429.524 1655.54 429.787 Q1655.59 430.051 1655.59 430.525 Q1655.59 431.632 1655.49 434.003 Q1655.38 436.322 1655.38 437.534 L1655.28 444.438 L1655.59 458.14 Q1655.59 459.668 1654.38 459.668 Q1653.33 459.668 1652.91 459.299 Q1652.43 458.93 1652.38 458.456 Q1652.27 457.982 1652.27 456.77 Q1652.27 454.135 1652.12 452.554 Q1651.96 450.973 1651.75 449.971 Q1651.48 448.917 1650.74 448.39 Q1650.01 447.811 1649.37 447.547 Q1648.69 447.284 1647.16 446.915 L1589.19 432.475 Q1587.45 432.053 1587.19 432.053 Q1586.19 432.053 1585.92 432.686 Q1585.61 433.265 1585.45 434.952 L1585.24 439.062 Q1585.24 440.327 1585.19 440.854 Q1585.13 441.328 1584.87 441.697 Q1584.61 442.066 1584.03 442.066 Q1583.29 442.066 1582.81 441.908 Q1582.29 441.697 1582.13 441.328 Q1581.97 440.96 1581.92 440.696 Q1581.87 440.433 1581.87 440.011 L1582.18 426.098 L1581.87 412.29 Q1581.87 410.762 1583.08 410.762 Q1584.61 410.762 1584.92 411.447 Q1585.24 412.132 1585.24 414.451 Q1585.24 418.298 1585.77 420.09 Q1586.24 421.882 1587.08 422.462 Q1587.93 422.989 1590.19 423.516 L1615.54 429.892 L1615.54 396.955 L1589.19 390.472 Q1587.29 390.051 1587.19 390.051 Q1586.19 390.051 1585.92 390.683 Q1585.61 391.263 1585.45 392.949 L1585.24 397.06 Q1585.24 398.325 1585.19 398.852 Q1585.13 399.326 1584.87 399.748 Q1584.61 400.117 1584.03 400.117 Q1583.29 400.117 1582.81 399.959 Q1582.29 399.748 1582.13 399.379 Q1581.97 399.01 1581.92 398.746 Q1581.87 398.483 1581.87 398.061 L1582.18 384.148 L1581.87 370.288 Q1581.87 368.813 1583.08 368.813 Z" fill="#000000" fill-rule="nonzero" fill-opacity="1" /><path clip-path="url(#clip410)" d="M1628.61 357.92 Q1610.38 357.92 1595.67 351.121 Q1589.51 348.223 1584.34 344.165 Q1579.18 340.107 1576.91 337.419 Q1574.65 334.732 1574.65 333.994 Q1574.65 332.94 1575.7 332.887 Q1576.23 332.887 1577.54 334.31 Q1595.25 351.701 1628.61 351.648 Q1662.08 351.648 1679.1 334.732 Q1680.94 332.887 1681.52 332.887 Q1682.58 332.887 1682.58 333.994 Q1682.58 334.732 1680.42 337.314 Q1678.25 339.896 1673.3 343.901 Q1668.35 347.907 1662.29 350.805 Q1647.58 357.92 1628.61 357.92 Z" fill="#000000" fill-rule="nonzero" fill-opacity="1" /><path clip-path="url(#clip410)" d="M1621.07 322.523 Q1605.21 322.523 1596.57 318.518 Q1583.71 312.931 1583.71 299.756 Q1583.71 296.963 1584.5 294.064 Q1585.24 291.113 1588.14 287.424 Q1591.04 283.682 1595.78 281.416 Q1604.95 277.095 1621.07 277.095 Q1636.83 277.095 1645.42 281.1 Q1657.96 286.95 1657.96 299.862 Q1657.96 304.71 1655.49 309.664 Q1653.01 314.565 1647.06 317.674 Q1638.15 322.523 1621.07 322.523 M1619.76 313.564 Q1636.04 313.564 1642.52 312.404 Q1649.53 311.087 1652.59 307.503 Q1655.59 303.867 1655.59 299.862 Q1655.59 295.54 1652.38 291.956 Q1649.11 288.32 1642.1 287.213 Q1635.2 286.001 1619.76 286.054 Q1604.74 286.054 1598.73 287.108 Q1591.72 288.531 1588.93 292.325 Q1586.08 296.067 1586.08 299.862 Q1586.08 301.284 1586.5 302.813 Q1586.92 304.288 1588.14 306.449 Q1589.35 308.61 1592.35 310.296 Q1595.36 311.93 1599.89 312.72 Q1605.74 313.564 1619.76 313.564 Z" fill="#000000" fill-rule="nonzero" fill-opacity="1" /><path clip-path="url(#clip410)" d="M1681.52 266.48 Q1681 266.48 1679.68 265.11 Q1661.97 247.719 1628.61 247.719 Q1595.15 247.719 1578.23 264.425 Q1576.28 266.48 1575.7 266.48 Q1574.65 266.48 1574.65 265.426 Q1574.65 264.688 1576.81 262.106 Q1578.97 259.471 1583.92 255.519 Q1588.87 251.513 1594.94 248.562 Q1609.64 241.448 1628.61 241.448 Q1646.85 241.448 1661.55 248.246 Q1667.71 251.144 1672.88 255.202 Q1678.04 259.26 1680.31 261.948 Q1682.58 264.636 1682.58 265.426 Q1682.58 266.48 1681.52 266.48 Z" fill="#000000" fill-rule="nonzero" fill-opacity="1" /><polyline clip-path="url(#clip413)" style="stroke:#009af9; stroke-linecap:round; stroke-linejoin:round; stroke-width:4; stroke-opacity:1; fill:none" points="2226.65,459.249 2228.24,464.044 2229.82,468.988 2231.41,474.088 2232.99,479.351 2234.58,484.785 2236.16,490.397 2237.75,496.194 2239.33,502.183 2240.91,508.373 2242.5,514.77 2244.08,521.38 2245.67,528.212 2247.25,535.271 2248.84,542.565 2250.42,550.099 2252,557.879 2253.59,565.911 2255.17,574.201 2256.76,582.753 2258.34,591.571 2259.93,600.659 2261.51,610.022 2263.1,619.66 2264.68,629.577 2266.26,639.773 2267.85,650.25 2269.43,661.007 2271.02,672.044 2272.6,683.358 2274.19,694.946 2275.77,706.805 2277.35,718.931 2278.94,731.317 2280.52,743.957 2282.11,756.843 2283.69,769.966 2285.28,783.316 2286.86,796.881 2288.45,810.65 2290.03,824.609 2291.61,838.744 2293.2,853.038 2294.78,867.475 2296.37,882.038 2297.95,896.706 2299.54,911.459 2301.12,926.278 2302.7,941.14 2304.29,956.022 2305.87,970.901 2307.46,985.751 2309.04,1000.55 2310.63,1015.27 2312.21,1029.88 2313.79,1044.37 2315.38,1058.69 2316.96,1072.83 2318.55,1086.76 2320.13,1100.45 2321.72,1113.87 2323.3,1126.99 2324.89,1139.8 2326.47,1152.26 2328.05,1164.34 2329.64,1176.03 2331.22,1187.3 2332.81,1198.11 2334.39,1208.46 2335.98,1218.32 2337.56,1227.67 2339.14,1236.48 2340.73,1244.74 2342.31,1252.43 2343.9,1259.54 2345.48,1266.04 2347.07,1271.94 2348.65,1277.2 2350.24,1281.83 2351.82,1285.81 2353.4,1289.14 2354.99,1291.8 2356.57,1293.8 2358.16,1295.12 2359.74,1295.78 2361.33,1295.75 2362.91,1295.06 2364.49,1293.69 2366.08,1291.65 2367.66,1288.94 2369.25,1285.58 2370.83,1281.57 2372.42,1276.91 2374,1271.62 2375.59,1265.7 2377.17,1259.18 2378.75,1252.05 2380.34,1244.35 2381.92,1236.07 2383.51,1227.24 2385.09,1217.88 2386.68,1208 2388.26,1197.62 2389.84,1186.76 2391.43,1175.44 2393.01,1163.69 2394.6,1151.52 2396.18,1138.95 2397.77,1126.01 2399.35,1112.72 2400.94,1099.1 2402.52,1085.18 2404.1,1070.98 2405.69,1056.53 2407.27,1041.84 2408.86,1026.94 2410.44,1011.85 2412.03,996.599 2413.61,981.208 2415.19,965.699 2416.78,950.094 2418.36,934.415 2419.95,918.684 2421.53,902.92 2423.12,887.146 2424.7,871.379 2426.29,855.64 2427.87,839.946 2429.45,824.316 2431.04,808.767 2432.62,793.314 2434.21,777.973 2435.79,762.76 2437.38,747.687 2438.96,732.769 2440.54,718.017 2442.13,703.444 2443.71,689.059 2445.3,674.874 2446.88,660.897 2448.47,647.137 2450.05,633.601 2451.64,620.297 2453.22,607.23 2454.8,594.407 2456.39,581.832 2457.97,569.509 2459.56,557.442 2461.14,545.634 2462.73,534.087 2464.31,522.803 2465.89,511.782 2467.48,501.027 2469.06,490.536 2470.65,480.309 2472.23,470.346 2473.82,460.645 2475.4,451.205 2476.98,442.023 2478.57,433.098 2480.15,424.426 2481.74,416.004 2483.32,407.83 2484.91,399.9 2486.49,392.209 2488.08,384.754 2489.66,377.531 2491.24,370.535 2492.83,363.761 2494.41,357.205 2496,350.862 2497.58,344.728 2499.17,338.796 2500.75,333.062 2502.33,327.521 2503.92,322.168 2505.5,316.996 2507.09,312.002 2508.67,307.179 2510.26,302.523 2511.84,298.028 2513.43,293.689 2515.01,289.5 2516.59,285.457 2518.18,281.554 2519.76,277.787 2521.35,274.149 2522.93,270.637 2524.52,267.245 2526.1,263.969 2527.68,260.804 2529.27,257.744 2530.85,254.787 2532.44,251.926 2534.02,249.159 2535.61,246.48 2537.19,243.885 2538.78,241.371 2540.36,238.933 2541.94,236.568 2543.53,234.271 2545.11,232.04 2546.7,229.871 2548.28,227.76 2549.87,225.704 2551.45,223.7 2553.03,221.744 2554.62,219.835 2556.2,217.968 2557.79,216.142 2559.37,214.353 2560.96,212.6 2562.54,210.879 2564.13,209.188 2565.71,207.526 2567.29,205.889 2568.88,204.276 2570.46,202.686 2572.05,201.115 2573.63,199.563 2575.22,198.028 2576.8,196.507 2578.38,195.001 2579.97,193.507 2581.55,192.024 2583.14,190.551 2584.72,189.086 2586.31,187.63 2587.89,186.179 2589.48,184.735 2591.06,183.295 2592.64,181.86 2594.23,180.428 2595.81,178.999 2597.4,177.571 2598.98,176.146 2600.57,174.722 2602.15,173.298 2603.73,171.875 2605.32,170.452 2606.9,169.03 2608.49,167.606 2610.07,166.183 2611.66,164.759 2613.24,163.334 2614.83,161.909 2616.41,160.483 2617.99,159.057 2619.58,157.631 2621.16,156.204 2622.75,154.778 2624.33,153.351 2625.92,151.925 2627.5,150.5 2629.08,149.076 2630.67,147.653 2632.25,146.232 2633.84,144.813 2635.42,143.396 2637.01,141.983 2638.59,140.572 2640.17,139.166 2641.76,137.764 2643.34,136.366 2644.93,134.974 2646.51,133.588 2648.1,132.208 2649.68,130.835 2651.27,129.47 2652.85,128.112 2654.43,126.764 2656.02,125.424 2657.6,124.095 2659.19,122.775 2660.77,121.467 2662.36,120.171 2663.94,118.887 2665.52,117.616 2667.11,116.358 2668.69,115.115 2670.28,113.887 2671.86,112.674 2673.45,111.477 2675.03,110.297 2676.62,109.134 2678.2,107.99 2679.78,106.864 2681.37,105.757 2682.95,104.67 2684.54,103.604 2686.12,102.559 2687.71,101.536 2689.29,100.535 2690.87,99.5574 2692.46,98.6032 2694.04,97.6732 2695.63,96.768 2697.21,95.8882 2698.8,95.0344 2700.38,94.2071 2701.97,93.4069 2703.55,92.6343 2705.13,91.8899 2706.72,91.1743 2708.3,90.4879 2709.89,89.8313 2711.47,89.205 2713.06,88.6095 2714.64,88.0452 2716.22,87.5128 2717.81,87.0126 2719.39,86.5451 2720.98,86.1108 2722.56,85.7101 2724.15,85.3434 2725.73,85.0112 2727.32,84.7138 2728.9,84.4518 2730.48,84.2254 2732.07,84.035 2733.65,83.8811 2735.24,83.7639 2736.82,83.6838 2738.41,83.6412 2739.99,83.6363 2741.57,83.6695 2743.16,83.7411 2744.74,83.8512 2746.33,84.0003 2747.91,84.1886 2749.5,84.4163 2751.08,84.6836 2752.67,84.9908 2754.25,85.3381 2755.83,85.7256 2757.42,86.1536 2759,86.6222 2760.59,87.1315 2762.17,87.6818 2763.76,88.2731 2765.34,88.9056 2766.92,89.5793 2768.51,90.2944 2770.09,91.0509 2771.68,91.8488 2773.26,92.6883 2774.85,93.5693 2776.43,94.4919 2778.02,95.456 2779.6,96.4617 2781.18,97.509 2782.77,98.5977 2784.35,99.7279 2785.94,100.899 2787.52,102.112 2789.11,103.366 2790.69,104.661 2792.27,105.997 2793.86,107.374 2795.44,108.791 2797.03,110.249 2798.61,111.747 2800.2,113.285 2801.78,114.863 2803.36,116.481 2804.95,118.138 2806.53,119.834 2808.12,121.569 2809.7,123.342 2811.29,125.153 2812.87,127.003 2814.46,128.889 2816.04,130.813 2817.62,132.774 2819.21,134.771 2820.79,136.804 2822.38,138.872 2823.96,140.975 2825.55,143.113 2827.13,145.285 2828.71,147.491 2830.3,149.73 2831.88,152.001 2833.47,154.305 2835.05,156.639 2836.64,159.005 2838.22,161.401 2839.81,163.827 2841.39,166.282 2842.97,168.765 2844.56,171.276 2846.14,173.814 2847.73,176.378 2849.31,178.969 2850.9,181.584 2852.48,184.223 2854.06,186.886 2855.65,189.572 2857.23,192.28 2858.82,195.01 2860.4,197.759 2861.99,200.529 2863.57,203.317 2865.16,206.123 2866.74,208.947 2868.32,211.787 2869.91,214.643 2871.49,217.513 2873.08,220.398 2874.66,223.295 2876.25,226.204 2877.83,229.125 2879.41,232.057 2881,234.998 2882.58,237.948 2884.17,240.906 2885.75,243.87 2887.34,246.842 2888.92,249.818 2890.51,252.799 2892.09,255.785 2893.67,258.773 2895.26,261.763 2896.84,264.755 2898.43,267.748 2900.01,270.741 2901.6,273.733 2903.18,276.724 2904.76,279.713 2906.35,282.7 2907.93,285.684 2909.52,288.665 2911.1,291.642 2912.69,294.614 2914.27,297.582 2915.86,300.545 2917.44,303.502 2919.02,306.455 2920.61,309.402 2922.19,312.343 2923.78,315.279 2925.36,318.21 2926.95,321.135 2928.53,324.056 2930.11,326.973 2931.7,329.885 2933.28,332.795 2934.87,335.701 2936.45,338.606 2938.04,341.51 2939.62,344.414 2941.21,347.32 2942.79,350.228 2944.37,353.141 2945.96,356.059 2947.54,358.985 2949.13,361.92 2950.71,364.867 2952.3,367.828 2953.88,370.805 2955.46,373.8 2957.05,376.817 2958.63,379.859 2960.22,382.928 2961.8,386.028 2963.39,389.162 2964.97,392.335 2966.55,395.549 2968.14,398.81 2969.72,402.121 2971.31,405.487 2972.89,408.912 2974.48,412.402 2976.06,415.962 2977.65,419.597 2979.23,423.312 2980.81,427.113 2982.4,431.006 2983.98,434.997 2985.57,439.093 2987.15,443.299 2988.74,447.622 2990.32,452.07 2991.9,456.648 2993.49,461.364 2995.07,466.225 2996.66,471.238 2998.24,476.411 2999.83,481.75 3001.41,487.263 3003,492.957 3004.58,498.84 3006.16,504.918 3007.75,511.2 3009.33,517.692 3010.92,524.401 3012.5,531.334 3014.09,538.498 3015.67,545.899 3017.25,553.543 3018.84,561.436 3020.42,569.584 3022.01,577.991 3023.59,586.662 3025.18,595.601 3026.76,604.812 3028.35,614.299 3029.93,624.062 3031.51,634.104 3033.1,644.427 3034.68,655.03 3036.27,665.913 3037.85,677.074 3039.44,688.512 3041.02,700.223 3042.6,712.203 3044.19,724.446 3045.77,736.947 3047.36,749.699 3048.94,762.693 3050.53,775.919 3052.11,789.367 3053.7,803.026 3055.28,816.882 3056.86,830.922 3058.45,845.131 3060.03,859.491 3061.62,873.987 3063.2,888.599 3064.79,903.308 3066.37,918.094 3067.95,932.935 3069.54,947.809 3071.12,962.692 3072.71,977.561 3074.29,992.391 3075.88,1007.16 3077.46,1021.83 3079.05,1036.39 3080.63,1050.81 3082.21,1065.05 3083.8,1079.1 3085.38,1092.92 3086.97,1106.49 3088.55,1119.78 3090.14,1132.77 3091.72,1145.42 3093.3,1157.72 3094.89,1169.63 3096.47,1181.13 3098.06,1192.19 3099.64,1202.8 3101.23,1212.94 3102.81,1222.56 3104.4,1231.67 3105.98,1240.24 3107.56,1248.25 3109.15,1255.68 3110.73,1262.52 3112.32,1268.75 3113.9,1274.36 3115.49,1279.34 3117.07,1283.68 3118.65,1287.37 3120.24,1290.39 3121.82,1292.76 3123.41,1294.45 3124.99,1295.48 3126.58,1295.82 3128.16,1295.5 3129.74,1294.5 3131.33,1292.83 3132.91,1290.49 3134.5,1287.49 3136.08,1283.83 3137.67,1279.53 3139.25,1274.58 3140.84,1269.01 3142.42,1262.82 3144,1256.02 3145.59,1248.64 3147.17,1240.67 3148.76,1232.15 3150.34,1223.07 3151.93,1213.48 3153.51,1203.37 3155.09,1192.77 3156.68,1181.7 3158.26,1170.19 3159.85,1158.24 3161.43,1145.89 3163.02,1133.15 3164.6,1120.05 3166.19,1106.61 3167.77,1092.86 3169.35,1078.81 3170.94,1064.49 3172.52,1049.92 3174.11,1035.14 3175.69,1020.15 3177.28,1004.99 3178.86,989.669 3180.44,974.222 3182.03,958.667 3183.61,943.026 3185.2,927.321 3186.78,911.573 3188.37,895.802 3189.95,880.028 3191.54,864.272 3193.12,848.551 3194.7,832.884 3196.29,817.288 3197.87,801.78 3199.46,786.375 3201.04,771.09 3202.63,755.938 3204.21,740.934 3205.79,726.089 3207.38,711.416 3208.96,696.926 3210.55,682.63 3212.13,668.537 3213.72,654.657 3215.3,640.997 3216.89,627.564 3218.47,614.366 3220.05,601.408 3221.64,588.696 3223.22,576.234 3224.81,564.026 3226.39,552.075 3227.98,540.384 3229.56,528.955 3231.14,517.79 3232.73,506.888 3234.31,496.252 3235.9,485.879 3237.48,475.771 3239.07,465.926 3240.65,456.343 3242.24,447.019 3243.82,437.953 3245.4,429.142 3246.99,420.583 3248.57,412.274 3250.16,404.21 3251.74,396.387 3253.33,388.803 3254.91,381.453 3256.49,374.332 3258.08,367.437 3259.66,360.762 3261.25,354.302 3262.83,348.054 3264.42,342.011 3266,336.169 3267.59,330.523 3269.17,325.067 3270.75,319.796 3272.34,314.705 3273.92,309.788 3275.51,305.041 3277.09,300.458 3278.68,296.034 3280.26,291.763 3281.84,287.64 3283.43,283.661 3285.01,279.82 3286.6,276.111 3288.18,272.531 3289.77,269.073 3291.35,265.734 3292.93,262.508 3294.52,259.391 3296.1,256.378 3297.69,253.465 3299.27,250.646 3300.86,247.919 3302.44,245.279 3304.03,242.721 3305.61,240.241 3307.19,237.837 3308.78,235.503 3310.36,233.236 3311.95,231.033 3313.53,228.891 3315.12,226.805 3316.7,224.772 3318.28,222.791 3319.87,220.856 3321.45,218.966 3323.04,217.118 3324.62,215.309 3326.21,213.537 3327.79,211.798 3329.38,210.091 3330.96,208.413 3332.54,206.763 3334.13,205.137 3335.71,203.534 3337.3,201.953 3338.88,200.391 3340.47,198.847 3342.05,197.318 3343.63,195.804 3345.22,194.304 3346.8,192.815 3348.39,191.337 3349.97,189.867 3351.56,188.407 3353.14,186.953 3354.73,185.505 3356.31,184.063 3357.89,182.626 3359.48,181.192 3361.06,179.761 3362.65,178.333 3364.23,176.906 3365.82,175.481 3367.4,174.058 3368.98,172.634 3370.57,171.212 3372.15,169.789 3373.74,168.366 3375.32,166.942 3376.91,165.519 3378.49,164.094 3380.08,162.67 3381.66,161.244 3383.24,159.818 3384.83,158.392 3386.41,156.966 3388,155.539 3389.58,154.112 3391.17,152.686 3392.75,151.26 3394.33,149.836 3395.92,148.412 3397.5,146.99 3399.09,145.569 3400.67,144.151 3402.26,142.736 3403.84,141.324 3405.43,139.915 3407.01,138.511 3408.59,137.111 3410.18,135.716 3411.76,134.326 3413.35,132.943 3414.93,131.566 3416.52,130.196 3418.1,128.834 3419.68,127.481 3421.27,126.136 3422.85,124.801 3424.44,123.476 3426.02,122.162 3427.61,120.859 3429.19,119.568 3430.78,118.29 3432.36,117.025 3433.94,115.774 3435.53,114.537 3437.11,113.315 3438.7,112.11 3440.28,110.92 3441.87,109.748 3443.45,108.593 3445.03,107.457 3446.62,106.34 3448.2,105.242 3449.79,104.164 3451.37,103.108 3452.96,102.072 3454.54,101.059 3456.12,100.069 3457.71,99.1014 3459.29,98.1581 3460.88,97.2392 3462.46,96.3453 3464.05,95.4772 3465.63,94.6352 3467.22,93.82 3468.8,93.0321 3470.38,92.2722 3471.97,91.5407 3473.55,90.8381 3475.14,90.1651 3476.72,89.522 3478.31,88.9095 3479.89,88.328 3481.47,87.778 3483.06,87.26 3484.64,86.7744 3486.23,86.3218 3487.81,85.9026 3489.4,85.5171 3490.98,85.1659 3492.57,84.8493 3494.15,84.5678 3495.73,84.3217 3497.32,84.1115 3498.9,83.9375 3500.49,83.8 3502.07,83.6995 3503.66,83.6362 3505.24,83.6105 3506.82,83.6227 3508.41,83.6731 3509.99,83.762 3511.58,83.8897 3513.16,84.0563 3514.75,84.2623 3516.33,84.5078 3517.92,84.793 3519.5,85.1182 3521.08,85.4836 3522.67,85.8893 3524.25,86.3355 3525.84,86.8224 3527.42,87.3502 3529.01,87.9189 3530.59,88.5287 3532.17,89.1797 3533.76,89.872 3535.34,90.6057 3536.93,91.3808 3538.51,92.1975 3540.1,93.0556 3541.68,93.9553 3543.27,94.8966 3544.85,95.8794 3546.43,96.9038 3548.02,97.9697 3549.6,99.0771 3551.19,100.226 3552.77,101.416 3554.36,102.647 3555.94,103.92 3557.52,105.233 3559.11,106.588 3560.69,107.983 3562.28,109.418 3563.86,110.894 3565.45,112.41 3567.03,113.966 3568.62,115.562 3570.2,117.198 3571.78,118.872 3573.37,120.586 3574.95,122.338 3576.54,124.128 3578.12,125.957 3579.71,127.823 3581.29,129.726 3582.87,131.667 3584.46,133.644 3586.04,135.657 3587.63,137.706 3589.21,139.79 3590.8,141.909 3592.38,144.062 3593.97,146.25 3595.55,148.47 3597.13,150.724 3598.72,153.01 3600.3,155.327 3601.89,157.676 3603.47,160.055 3605.06,162.465 3606.64,164.904 3608.22,167.371 3609.81,169.867 3611.39,172.39 3612.98,174.94 3614.56,177.516 3616.15,180.118 3617.73,182.744 3619.31,185.395 3620.9,188.068 3622.48,190.764 3624.07,193.482 3625.65,196.22 3627.24,198.979 3628.82,201.757 3630.41,204.553 3631.99,207.368 3633.57,210.199 3635.16,213.046 3636.74,215.908 3638.33,218.785 3639.91,221.675 3641.5,224.578 3643.08,227.493 3644.66,230.419 3646.25,233.355 3647.83,236.3 3649.42,239.253 3651,242.214 3652.59,245.182 3654.17,248.156 3655.76,251.135 3657.34,254.118 3658.92,257.104 3660.51,260.094 3662.09,263.085 3663.68,266.077 3665.26,269.07 3666.85,272.063 3668.43,275.055 3670.01,278.045 3671.6,281.033 3673.18,284.019 3674.77,287.002 3676.35,289.98 3677.94,292.955 3679.52,295.926 3681.11,298.891 3682.69,301.852 3684.27,304.807 3685.86,307.757 3687.44,310.701 3689.03,313.64 3690.61,316.574 3692.2,319.502 3693.78,322.426 3695.36,325.345 3696.95,328.259 3698.53,331.17 3700.12,334.078 3701.7,336.984 3703.29,339.888 3704.87,342.792 3706.46,345.697 3708.04,348.604 3709.62,351.514 3711.21,354.429 3712.79,357.35 3714.38,360.28 3715.96,363.22 3717.55,366.173 3719.13,369.141 3720.71,372.126 3722.3,375.131 3723.88,378.158 3725.47,381.212 3727.05,384.294 3728.64,387.409 3730.22,390.561 3731.81,393.751 3733.39,396.986 3734.97,400.269 3736.56,403.604 3738.14,406.996 3739.73,410.45 3741.31,413.971 3742.9,417.563 3744.48,421.233 3746.06,424.986 3747.65,428.828 3749.23,432.765 3750.82,436.802 3752.4,440.947 3753.99,445.205 3755.57,449.583 3757.16,454.089 3758.74,458.728 3760.32,463.509 3761.91,468.437 3763.49,473.521 3765.08,478.767 3766.66,484.184 3768.25,489.777 3769.83,495.555 3771.41,501.525 3773,507.694 3774.58,514.07 3776.17,520.659 3777.75,527.468 3779.34,534.504 3780.92,541.774 3782.5,549.283 3784.09,557.038 3785.67,565.045 3787.26,573.309 3788.84,581.834 3790.43,590.625 3792.01,599.687 3793.6,609.021 3795.18,618.632 3796.76,628.52 3798.35,638.689 3799.93,649.138 3801.52,659.867 3803.1,670.875 3804.69,682.161 3806.27,693.722 3807.85,705.554 3809.44,717.653 3811.02,730.014 "/>
</svg>
