<?xml version="1.0" encoding="utf-8"?>
<svg xmlns="http://www.w3.org/2000/svg" xmlns:xlink="http://www.w3.org/1999/xlink" width="1000" height="400" viewBox="0 0 4000 1600">
<defs>
  <clipPath id="clip530">
    <rect x="0" y="0" width="4000" height="1600"/>
  </clipPath>
</defs>
<path clip-path="url(#clip530)" d="M0 1600 L4000 1600 L4000 0 L0 0  Z" fill="#ffffff" fill-rule="evenodd" fill-opacity="1"/>
<defs>
  <clipPath id="clip531">
    <rect x="800" y="0" width="2801" height="1600"/>
  </clipPath>
</defs>
<path clip-path="url(#clip530)" d="M455.53 1285.77 L1740.52 1285.77 L1740.52 47.2441 L455.53 47.2441  Z" fill="#ffffff" fill-rule="evenodd" fill-opacity="1"/>
<defs>
  <clipPath id="clip532">
    <rect x="455" y="47" width="1286" height="1240"/>
  </clipPath>
</defs>
<polyline clip-path="url(#clip532)" style="stroke:#000000; stroke-linecap:round; stroke-linejoin:round; stroke-width:2; stroke-opacity:0.1; fill:none" points="519.514,1285.77 519.514,47.2441 "/>
<polyline clip-path="url(#clip532)" style="stroke:#000000; stroke-linecap:round; stroke-linejoin:round; stroke-width:2; stroke-opacity:0.1; fill:none" points="750.919,1285.77 750.919,47.2441 "/>
<polyline clip-path="url(#clip532)" style="stroke:#000000; stroke-linecap:round; stroke-linejoin:round; stroke-width:2; stroke-opacity:0.1; fill:none" points="982.324,1285.77 982.324,47.2441 "/>
<polyline clip-path="url(#clip532)" style="stroke:#000000; stroke-linecap:round; stroke-linejoin:round; stroke-width:2; stroke-opacity:0.1; fill:none" points="1213.73,1285.77 1213.73,47.2441 "/>
<polyline clip-path="url(#clip532)" style="stroke:#000000; stroke-linecap:round; stroke-linejoin:round; stroke-width:2; stroke-opacity:0.1; fill:none" points="1445.13,1285.77 1445.13,47.2441 "/>
<polyline clip-path="url(#clip532)" style="stroke:#000000; stroke-linecap:round; stroke-linejoin:round; stroke-width:2; stroke-opacity:0.1; fill:none" points="1676.54,1285.77 1676.54,47.2441 "/>
<polyline clip-path="url(#clip530)" style="stroke:#000000; stroke-linecap:round; stroke-linejoin:round; stroke-width:4; stroke-opacity:1; fill:none" points="455.53,1285.77 1740.52,1285.77 "/>
<polyline clip-path="url(#clip530)" style="stroke:#000000; stroke-linecap:round; stroke-linejoin:round; stroke-width:4; stroke-opacity:1; fill:none" points="519.514,1285.77 519.514,1266.87 "/>
<polyline clip-path="url(#clip530)" style="stroke:#000000; stroke-linecap:round; stroke-linejoin:round; stroke-width:4; stroke-opacity:1; fill:none" points="750.919,1285.77 750.919,1266.87 "/>
<polyline clip-path="url(#clip530)" style="stroke:#000000; stroke-linecap:round; stroke-linejoin:round; stroke-width:4; stroke-opacity:1; fill:none" points="982.324,1285.77 982.324,1266.87 "/>
<polyline clip-path="url(#clip530)" style="stroke:#000000; stroke-linecap:round; stroke-linejoin:round; stroke-width:4; stroke-opacity:1; fill:none" points="1213.73,1285.77 1213.73,1266.87 "/>
<polyline clip-path="url(#clip530)" style="stroke:#000000; stroke-linecap:round; stroke-linejoin:round; stroke-width:4; stroke-opacity:1; fill:none" points="1445.13,1285.77 1445.13,1266.87 "/>
<polyline clip-path="url(#clip530)" style="stroke:#000000; stroke-linecap:round; stroke-linejoin:round; stroke-width:4; stroke-opacity:1; fill:none" points="1676.54,1285.77 1676.54,1266.87 "/>
<path clip-path="url(#clip530)" d="M470.243 1376.66 L481.701 1376.66 L481.701 1337.12 L469.236 1339.62 L469.236 1333.23 L481.632 1330.73 L488.646 1330.73 L488.646 1376.66 L500.104 1376.66 L500.104 1382.57 L470.243 1382.57 L470.243 1376.66 Z" fill="#000000" fill-rule="nonzero" fill-opacity="1" /><path clip-path="url(#clip530)" d="M514.271 1373.75 L521.597 1373.75 L521.597 1382.57 L514.271 1382.57 L514.271 1373.75 Z" fill="#000000" fill-rule="nonzero" fill-opacity="1" /><path clip-path="url(#clip530)" d="M551.875 1335.35 Q546.458 1335.35 543.715 1340.69 Q541.007 1346.01 541.007 1356.7 Q541.007 1367.36 543.715 1372.71 Q546.458 1378.02 551.875 1378.02 Q557.326 1378.02 560.034 1372.71 Q562.777 1367.36 562.777 1356.7 Q562.777 1346.01 560.034 1340.69 Q557.326 1335.35 551.875 1335.35 M551.875 1329.79 Q560.59 1329.79 565.173 1336.7 Q569.791 1343.57 569.791 1356.7 Q569.791 1369.79 565.173 1376.7 Q560.59 1383.57 551.875 1383.57 Q543.159 1383.57 538.541 1376.7 Q533.958 1369.79 533.958 1356.7 Q533.958 1343.57 538.541 1336.7 Q543.159 1329.79 551.875 1329.79 Z" fill="#000000" fill-rule="nonzero" fill-opacity="1" /><path clip-path="url(#clip530)" d="M702.846 1376.66 L714.304 1376.66 L714.304 1337.12 L701.839 1339.62 L701.839 1333.23 L714.235 1330.73 L721.249 1330.73 L721.249 1376.66 L732.707 1376.66 L732.707 1382.57 L702.846 1382.57 L702.846 1376.66 Z" fill="#000000" fill-rule="nonzero" fill-opacity="1" /><path clip-path="url(#clip530)" d="M746.874 1373.75 L754.2 1373.75 L754.2 1382.57 L746.874 1382.57 L746.874 1373.75 Z" fill="#000000" fill-rule="nonzero" fill-opacity="1" /><path clip-path="url(#clip530)" d="M775.519 1376.66 L799.998 1376.66 L799.998 1382.57 L767.082 1382.57 L767.082 1376.66 Q771.075 1372.53 777.95 1365.59 Q784.859 1358.61 786.63 1356.6 Q789.998 1352.81 791.318 1350.21 Q792.672 1347.57 792.672 1345.03 Q792.672 1340.9 789.755 1338.3 Q786.873 1335.69 782.221 1335.69 Q778.922 1335.69 775.241 1336.84 Q771.596 1337.98 767.429 1340.31 L767.429 1333.23 Q771.665 1331.53 775.346 1330.66 Q779.026 1329.79 782.082 1329.79 Q790.137 1329.79 794.929 1333.82 Q799.721 1337.85 799.721 1344.58 Q799.721 1347.78 798.505 1350.66 Q797.325 1353.51 794.165 1357.39 Q793.297 1358.4 788.644 1363.23 Q783.991 1368.02 775.519 1376.66 Z" fill="#000000" fill-rule="nonzero" fill-opacity="1" /><path clip-path="url(#clip530)" d="M932.689 1376.66 L944.147 1376.66 L944.147 1337.12 L931.682 1339.62 L931.682 1333.23 L944.077 1330.73 L951.091 1330.73 L951.091 1376.66 L962.55 1376.66 L962.55 1382.57 L932.689 1382.57 L932.689 1376.66 Z" fill="#000000" fill-rule="nonzero" fill-opacity="1" /><path clip-path="url(#clip530)" d="M976.716 1373.75 L984.043 1373.75 L984.043 1382.57 L976.716 1382.57 L976.716 1373.75 Z" fill="#000000" fill-rule="nonzero" fill-opacity="1" /><path clip-path="url(#clip530)" d="M1018.59 1336.84 L1000.88 1364.51 L1018.59 1364.51 L1018.59 1336.84 M1016.75 1330.73 L1025.57 1330.73 L1025.57 1364.51 L1032.97 1364.51 L1032.97 1370.35 L1025.57 1370.35 L1025.57 1382.57 L1018.59 1382.57 L1018.59 1370.35 L995.188 1370.35 L995.188 1363.57 L1016.75 1330.73 Z" fill="#000000" fill-rule="nonzero" fill-opacity="1" /><path clip-path="url(#clip530)" d="M1164.34 1376.66 L1175.8 1376.66 L1175.8 1337.12 L1163.33 1339.62 L1163.33 1333.23 L1175.73 1330.73 L1182.74 1330.73 L1182.74 1376.66 L1194.2 1376.66 L1194.2 1382.57 L1164.34 1382.57 L1164.34 1376.66 Z" fill="#000000" fill-rule="nonzero" fill-opacity="1" /><path clip-path="url(#clip530)" d="M1208.36 1373.75 L1215.69 1373.75 L1215.69 1382.57 L1208.36 1382.57 L1208.36 1373.75 Z" fill="#000000" fill-rule="nonzero" fill-opacity="1" /><path clip-path="url(#clip530)" d="M1246.84 1353.85 Q1242.11 1353.85 1239.34 1357.08 Q1236.59 1360.31 1236.59 1365.94 Q1236.59 1371.53 1239.34 1374.79 Q1242.11 1378.02 1246.84 1378.02 Q1251.56 1378.02 1254.3 1374.79 Q1257.08 1371.53 1257.08 1365.94 Q1257.08 1360.31 1254.3 1357.08 Q1251.56 1353.85 1246.84 1353.85 M1260.76 1331.87 L1260.76 1338.26 Q1258.12 1337.01 1255.41 1336.35 Q1252.74 1335.69 1250.1 1335.69 Q1243.16 1335.69 1239.48 1340.38 Q1235.83 1345.07 1235.31 1354.55 Q1237.36 1351.53 1240.45 1349.93 Q1243.54 1348.3 1247.25 1348.3 Q1255.07 1348.3 1259.58 1353.05 Q1264.13 1357.78 1264.13 1365.94 Q1264.13 1373.92 1259.41 1378.75 Q1254.68 1383.57 1246.84 1383.57 Q1237.84 1383.57 1233.09 1376.7 Q1228.33 1369.79 1228.33 1356.7 Q1228.33 1344.41 1234.16 1337.12 Q1240 1329.79 1249.82 1329.79 Q1252.46 1329.79 1255.13 1330.31 Q1257.84 1330.83 1260.76 1331.87 Z" fill="#000000" fill-rule="nonzero" fill-opacity="1" /><path clip-path="url(#clip530)" d="M1395.93 1376.66 L1407.39 1376.66 L1407.39 1337.12 L1394.93 1339.62 L1394.93 1333.23 L1407.32 1330.73 L1414.34 1330.73 L1414.34 1376.66 L1425.79 1376.66 L1425.79 1382.57 L1395.93 1382.57 L1395.93 1376.66 Z" fill="#000000" fill-rule="nonzero" fill-opacity="1" /><path clip-path="url(#clip530)" d="M1439.96 1373.75 L1447.29 1373.75 L1447.29 1382.57 L1439.96 1382.57 L1439.96 1373.75 Z" fill="#000000" fill-rule="nonzero" fill-opacity="1" /><path clip-path="url(#clip530)" d="M1477.56 1357.95 Q1472.56 1357.95 1469.68 1360.62 Q1466.84 1363.3 1466.84 1367.98 Q1466.84 1372.67 1469.68 1375.35 Q1472.56 1378.02 1477.56 1378.02 Q1482.56 1378.02 1485.45 1375.35 Q1488.33 1372.64 1488.33 1367.98 Q1488.33 1363.3 1485.45 1360.62 Q1482.6 1357.95 1477.56 1357.95 M1470.55 1354.96 Q1466.04 1353.85 1463.5 1350.76 Q1461 1347.67 1461 1343.23 Q1461 1337.01 1465.41 1333.4 Q1469.86 1329.79 1477.56 1329.79 Q1485.31 1329.79 1489.72 1333.4 Q1494.13 1337.01 1494.13 1343.23 Q1494.13 1347.67 1491.59 1350.76 Q1489.09 1353.85 1484.61 1354.96 Q1489.68 1356.14 1492.49 1359.58 Q1495.34 1363.02 1495.34 1367.98 Q1495.34 1375.52 1490.72 1379.55 Q1486.14 1383.57 1477.56 1383.57 Q1468.99 1383.57 1464.37 1379.55 Q1459.79 1375.52 1459.79 1367.98 Q1459.79 1363.02 1462.63 1359.58 Q1465.48 1356.14 1470.55 1354.96 M1467.98 1343.89 Q1467.98 1347.91 1470.48 1350.17 Q1473.02 1352.43 1477.56 1352.43 Q1482.08 1352.43 1484.61 1350.17 Q1487.18 1347.91 1487.18 1343.89 Q1487.18 1339.86 1484.61 1337.6 Q1482.08 1335.35 1477.56 1335.35 Q1473.02 1335.35 1470.48 1337.6 Q1467.98 1339.86 1467.98 1343.89 Z" fill="#000000" fill-rule="nonzero" fill-opacity="1" /><path clip-path="url(#clip530)" d="M1633.4 1376.66 L1657.88 1376.66 L1657.88 1382.57 L1624.96 1382.57 L1624.96 1376.66 Q1628.95 1372.53 1635.83 1365.59 Q1642.74 1358.61 1644.51 1356.6 Q1647.88 1352.81 1649.2 1350.21 Q1650.55 1347.57 1650.55 1345.03 Q1650.55 1340.9 1647.63 1338.3 Q1644.75 1335.69 1640.1 1335.69 Q1636.8 1335.69 1633.12 1336.84 Q1629.47 1337.98 1625.31 1340.31 L1625.31 1333.23 Q1629.54 1331.53 1633.22 1330.66 Q1636.9 1329.79 1639.96 1329.79 Q1648.01 1329.79 1652.81 1333.82 Q1657.6 1337.85 1657.6 1344.58 Q1657.6 1347.78 1656.38 1350.66 Q1655.2 1353.51 1652.04 1357.39 Q1651.17 1358.4 1646.52 1363.23 Q1641.87 1368.02 1633.4 1376.66 Z" fill="#000000" fill-rule="nonzero" fill-opacity="1" /><path clip-path="url(#clip530)" d="M1672.6 1373.75 L1679.92 1373.75 L1679.92 1382.57 L1672.6 1382.57 L1672.6 1373.75 Z" fill="#000000" fill-rule="nonzero" fill-opacity="1" /><path clip-path="url(#clip530)" d="M1710.2 1335.35 Q1704.79 1335.35 1702.04 1340.69 Q1699.33 1346.01 1699.33 1356.7 Q1699.33 1367.36 1702.04 1372.71 Q1704.79 1378.02 1710.2 1378.02 Q1715.65 1378.02 1718.36 1372.71 Q1721.1 1367.36 1721.1 1356.7 Q1721.1 1346.01 1718.36 1340.69 Q1715.65 1335.35 1710.2 1335.35 M1710.2 1329.79 Q1718.92 1329.79 1723.5 1336.7 Q1728.12 1343.57 1728.12 1356.7 Q1728.12 1369.79 1723.5 1376.7 Q1718.92 1383.57 1710.2 1383.57 Q1701.49 1383.57 1696.87 1376.7 Q1692.29 1369.79 1692.29 1356.7 Q1692.29 1343.57 1696.87 1336.7 Q1701.49 1329.79 1710.2 1329.79 Z" fill="#000000" fill-rule="nonzero" fill-opacity="1" /><path clip-path="url(#clip530)" d="M1101.3 1437.67 Q1101.3 1440.62 1099.45 1442.31 Q1097.61 1443.94 1095.5 1443.94 Q1093.5 1443.94 1092.44 1442.79 Q1091.39 1441.63 1091.39 1440.15 Q1091.39 1438.15 1092.86 1436.41 Q1094.34 1434.67 1096.55 1434.3 Q1094.39 1432.93 1091.18 1432.93 Q1089.07 1432.93 1087.22 1434.04 Q1085.43 1435.14 1084.33 1436.57 Q1083.27 1437.99 1082.32 1440.04 Q1081.43 1442.05 1081.06 1443.26 Q1080.74 1444.42 1080.48 1445.68 L1076.79 1460.44 Q1075 1467.45 1075 1469.93 Q1075 1472.98 1076.47 1475.04 Q1077.95 1477.04 1080.9 1477.04 Q1082.06 1477.04 1083.38 1476.72 Q1084.7 1476.36 1086.38 1475.41 Q1088.12 1474.41 1089.65 1472.93 Q1091.23 1471.4 1092.76 1468.82 Q1094.29 1466.24 1095.29 1462.92 Q1095.6 1461.76 1096.66 1461.76 Q1097.98 1461.76 1097.98 1462.81 Q1097.98 1463.71 1097.24 1465.6 Q1096.55 1467.45 1095.02 1469.87 Q1093.55 1472.24 1091.6 1474.41 Q1089.65 1476.51 1086.75 1477.99 Q1083.85 1479.46 1080.69 1479.46 Q1076.16 1479.46 1073.15 1477.04 Q1070.15 1474.62 1069.04 1471.24 Q1068.78 1471.72 1068.41 1472.35 Q1068.04 1472.98 1066.94 1474.41 Q1065.88 1475.78 1064.67 1476.83 Q1063.46 1477.83 1061.56 1478.62 Q1059.72 1479.46 1057.71 1479.46 Q1055.18 1479.46 1052.92 1478.73 Q1050.7 1477.99 1049.12 1476.3 Q1047.54 1474.62 1047.54 1472.3 Q1047.54 1469.72 1049.28 1467.92 Q1051.07 1466.08 1053.5 1466.08 Q1055.02 1466.08 1056.24 1466.97 Q1057.5 1467.87 1057.5 1469.82 Q1057.5 1471.98 1056.03 1473.62 Q1054.55 1475.25 1052.44 1475.67 Q1054.6 1477.04 1057.82 1477.04 Q1061.3 1477.04 1064.04 1473.98 Q1066.78 1470.93 1068.09 1465.82 Q1071.36 1453.54 1072.63 1448.06 Q1073.89 1442.52 1073.89 1440.15 Q1073.89 1437.94 1073.31 1436.41 Q1072.73 1434.88 1071.73 1434.2 Q1070.78 1433.46 1069.89 1433.19 Q1069.04 1432.93 1068.09 1432.93 Q1066.51 1432.93 1064.72 1433.56 Q1062.98 1434.2 1060.87 1435.67 Q1058.82 1437.09 1056.87 1440.04 Q1054.92 1443 1053.6 1447.05 Q1053.34 1448.27 1052.18 1448.27 Q1050.91 1448.21 1050.91 1447.16 Q1050.91 1446.26 1051.6 1444.42 Q1052.34 1442.52 1053.81 1440.15 Q1055.34 1437.78 1057.29 1435.67 Q1059.29 1433.51 1062.19 1432.03 Q1065.14 1430.56 1068.31 1430.56 Q1069.73 1430.56 1071.1 1430.88 Q1072.52 1431.14 1074.21 1431.93 Q1075.95 1432.72 1077.48 1434.46 Q1079 1436.2 1079.95 1438.73 Q1080.58 1437.52 1081.43 1436.36 Q1082.32 1435.2 1083.69 1433.77 Q1085.12 1432.3 1087.07 1431.45 Q1089.07 1430.56 1091.28 1430.56 Q1093.44 1430.56 1095.55 1431.14 Q1097.66 1431.67 1099.45 1433.4 Q1101.3 1435.09 1101.3 1437.67 Z" fill="#000000" fill-rule="nonzero" fill-opacity="1" /><path clip-path="url(#clip530)" d="M1112.29 1466.23 L1112.29 1463.87 Q1121.37 1463.87 1126.05 1459.04 Q1127.34 1459.04 1127.56 1459.33 Q1127.78 1459.63 1127.78 1460.99 L1127.78 1503.38 Q1127.78 1505.63 1128.89 1506.33 Q1130 1507.03 1134.83 1507.03 L1137.23 1507.03 L1137.23 1509.35 Q1134.57 1509.13 1124.98 1509.13 Q1115.39 1509.13 1112.77 1509.35 L1112.77 1507.03 L1115.17 1507.03 Q1119.93 1507.03 1121.07 1506.37 Q1122.21 1505.66 1122.21 1503.38 L1122.21 1464.24 Q1118.27 1466.23 1112.29 1466.23 Z" fill="#000000" fill-rule="nonzero" fill-opacity="1" /><polyline clip-path="url(#clip532)" style="stroke:#000000; stroke-linecap:round; stroke-linejoin:round; stroke-width:2; stroke-opacity:0.1; fill:none" points="455.53,1262.46 1740.52,1262.46 "/>
<polyline clip-path="url(#clip532)" style="stroke:#000000; stroke-linecap:round; stroke-linejoin:round; stroke-width:2; stroke-opacity:0.1; fill:none" points="455.53,973.204 1740.52,973.204 "/>
<polyline clip-path="url(#clip532)" style="stroke:#000000; stroke-linecap:round; stroke-linejoin:round; stroke-width:2; stroke-opacity:0.1; fill:none" points="455.53,683.948 1740.52,683.948 "/>
<polyline clip-path="url(#clip532)" style="stroke:#000000; stroke-linecap:round; stroke-linejoin:round; stroke-width:2; stroke-opacity:0.1; fill:none" points="455.53,394.691 1740.52,394.691 "/>
<polyline clip-path="url(#clip532)" style="stroke:#000000; stroke-linecap:round; stroke-linejoin:round; stroke-width:2; stroke-opacity:0.1; fill:none" points="455.53,105.435 1740.52,105.435 "/>
<polyline clip-path="url(#clip530)" style="stroke:#000000; stroke-linecap:round; stroke-linejoin:round; stroke-width:4; stroke-opacity:1; fill:none" points="455.53,1285.77 455.53,47.2441 "/>
<polyline clip-path="url(#clip530)" style="stroke:#000000; stroke-linecap:round; stroke-linejoin:round; stroke-width:4; stroke-opacity:1; fill:none" points="455.53,1262.46 474.428,1262.46 "/>
<polyline clip-path="url(#clip530)" style="stroke:#000000; stroke-linecap:round; stroke-linejoin:round; stroke-width:4; stroke-opacity:1; fill:none" points="455.53,973.204 474.428,973.204 "/>
<polyline clip-path="url(#clip530)" style="stroke:#000000; stroke-linecap:round; stroke-linejoin:round; stroke-width:4; stroke-opacity:1; fill:none" points="455.53,683.948 474.428,683.948 "/>
<polyline clip-path="url(#clip530)" style="stroke:#000000; stroke-linecap:round; stroke-linejoin:round; stroke-width:4; stroke-opacity:1; fill:none" points="455.53,394.691 474.428,394.691 "/>
<polyline clip-path="url(#clip530)" style="stroke:#000000; stroke-linecap:round; stroke-linejoin:round; stroke-width:4; stroke-opacity:1; fill:none" points="455.53,105.435 474.428,105.435 "/>
<path clip-path="url(#clip530)" d="M250.74 1282.48 L262.198 1282.48 L262.198 1242.93 L249.733 1245.43 L249.733 1239.04 L262.128 1236.54 L269.142 1236.54 L269.142 1282.48 L280.6 1282.48 L280.6 1288.38 L250.74 1288.38 L250.74 1282.48 Z" fill="#000000" fill-rule="nonzero" fill-opacity="1" /><path clip-path="url(#clip530)" d="M294.767 1279.56 L302.093 1279.56 L302.093 1288.38 L294.767 1288.38 L294.767 1279.56 Z" fill="#000000" fill-rule="nonzero" fill-opacity="1" /><path clip-path="url(#clip530)" d="M332.371 1241.16 Q326.954 1241.16 324.211 1246.51 Q321.503 1251.82 321.503 1262.51 Q321.503 1273.17 324.211 1278.52 Q326.954 1283.83 332.371 1283.83 Q337.822 1283.83 340.531 1278.52 Q343.274 1273.17 343.274 1262.51 Q343.274 1251.82 340.531 1246.51 Q337.822 1241.16 332.371 1241.16 M332.371 1235.6 Q341.086 1235.6 345.67 1242.51 Q350.288 1249.39 350.288 1262.51 Q350.288 1275.6 345.67 1282.51 Q341.086 1289.39 332.371 1289.39 Q323.656 1289.39 319.038 1282.51 Q314.454 1275.6 314.454 1262.51 Q314.454 1249.39 319.038 1242.51 Q323.656 1235.6 332.371 1235.6 Z" fill="#000000" fill-rule="nonzero" fill-opacity="1" /><path clip-path="url(#clip530)" d="M377.614 1241.16 Q372.197 1241.16 369.454 1246.51 Q366.746 1251.82 366.746 1262.51 Q366.746 1273.17 369.454 1278.52 Q372.197 1283.83 377.614 1283.83 Q383.065 1283.83 385.774 1278.52 Q388.517 1273.17 388.517 1262.51 Q388.517 1251.82 385.774 1246.51 Q383.065 1241.16 377.614 1241.16 M377.614 1235.6 Q386.329 1235.6 390.912 1242.51 Q395.53 1249.39 395.53 1262.51 Q395.53 1275.6 390.912 1282.51 Q386.329 1289.39 377.614 1289.39 Q368.899 1289.39 364.281 1282.51 Q359.697 1275.6 359.697 1262.51 Q359.697 1249.39 364.281 1242.51 Q368.899 1235.6 377.614 1235.6 Z" fill="#000000" fill-rule="nonzero" fill-opacity="1" /><path clip-path="url(#clip530)" d="M252.233 993.221 L263.691 993.221 L263.691 953.673 L251.226 956.173 L251.226 949.784 L263.621 947.284 L270.635 947.284 L270.635 993.221 L282.094 993.221 L282.094 999.124 L252.233 999.124 L252.233 993.221 Z" fill="#000000" fill-rule="nonzero" fill-opacity="1" /><path clip-path="url(#clip530)" d="M296.26 990.305 L303.586 990.305 L303.586 999.124 L296.26 999.124 L296.26 990.305 Z" fill="#000000" fill-rule="nonzero" fill-opacity="1" /><path clip-path="url(#clip530)" d="M324.906 993.221 L349.385 993.221 L349.385 999.124 L316.468 999.124 L316.468 993.221 Q320.461 989.089 327.336 982.145 Q334.246 975.166 336.017 973.152 Q339.385 969.367 340.704 966.763 Q342.058 964.124 342.058 961.589 Q342.058 957.457 339.142 954.853 Q336.26 952.249 331.607 952.249 Q328.309 952.249 324.628 953.395 Q320.982 954.541 316.816 956.867 L316.816 949.784 Q321.052 948.083 324.732 947.214 Q328.413 946.346 331.468 946.346 Q339.524 946.346 344.315 950.374 Q349.107 954.402 349.107 961.138 Q349.107 964.332 347.892 967.214 Q346.711 970.062 343.552 973.95 Q342.683 974.957 338.031 979.784 Q333.378 984.575 324.906 993.221 Z" fill="#000000" fill-rule="nonzero" fill-opacity="1" /><path clip-path="url(#clip530)" d="M364.176 947.284 L391.711 947.284 L391.711 953.187 L370.6 953.187 L370.6 965.895 Q372.128 965.374 373.656 965.131 Q375.183 964.853 376.711 964.853 Q385.392 964.853 390.461 969.61 Q395.53 974.367 395.53 982.492 Q395.53 990.86 390.322 995.513 Q385.114 1000.13 375.635 1000.13 Q372.371 1000.13 368.968 999.575 Q365.6 999.02 361.989 997.909 L361.989 990.86 Q365.114 992.561 368.447 993.395 Q371.781 994.228 375.496 994.228 Q381.503 994.228 385.01 991.068 Q388.517 987.909 388.517 982.492 Q388.517 977.075 385.01 973.916 Q381.503 970.756 375.496 970.756 Q372.683 970.756 369.871 971.381 Q367.093 972.006 364.176 973.325 L364.176 947.284 Z" fill="#000000" fill-rule="nonzero" fill-opacity="1" /><path clip-path="url(#clip530)" d="M250.74 703.965 L262.198 703.965 L262.198 664.416 L249.733 666.916 L249.733 660.528 L262.128 658.028 L269.142 658.028 L269.142 703.965 L280.6 703.965 L280.6 709.868 L250.74 709.868 L250.74 703.965 Z" fill="#000000" fill-rule="nonzero" fill-opacity="1" /><path clip-path="url(#clip530)" d="M294.767 701.048 L302.093 701.048 L302.093 709.868 L294.767 709.868 L294.767 701.048 Z" fill="#000000" fill-rule="nonzero" fill-opacity="1" /><path clip-path="url(#clip530)" d="M317.441 658.028 L344.975 658.028 L344.975 663.93 L323.864 663.93 L323.864 676.639 Q325.392 676.118 326.92 675.875 Q328.447 675.597 329.975 675.597 Q338.656 675.597 343.725 680.354 Q348.795 685.111 348.795 693.236 Q348.795 701.604 343.586 706.256 Q338.378 710.874 328.899 710.874 Q325.635 710.874 322.232 710.319 Q318.864 709.763 315.253 708.652 L315.253 701.604 Q318.378 703.305 321.711 704.138 Q325.045 704.972 328.76 704.972 Q334.767 704.972 338.274 701.812 Q341.781 698.652 341.781 693.236 Q341.781 687.819 338.274 684.659 Q334.767 681.5 328.76 681.5 Q325.947 681.5 323.135 682.125 Q320.357 682.75 317.441 684.069 L317.441 658.028 Z" fill="#000000" fill-rule="nonzero" fill-opacity="1" /><path clip-path="url(#clip530)" d="M377.614 662.646 Q372.197 662.646 369.454 667.993 Q366.746 673.305 366.746 684 Q366.746 694.659 369.454 700.006 Q372.197 705.319 377.614 705.319 Q383.065 705.319 385.774 700.006 Q388.517 694.659 388.517 684 Q388.517 673.305 385.774 667.993 Q383.065 662.646 377.614 662.646 M377.614 657.09 Q386.329 657.09 390.912 664 Q395.53 670.875 395.53 684 Q395.53 697.09 390.912 704 Q386.329 710.874 377.614 710.874 Q368.899 710.874 364.281 704 Q359.697 697.09 359.697 684 Q359.697 670.875 364.281 664 Q368.899 657.09 377.614 657.09 Z" fill="#000000" fill-rule="nonzero" fill-opacity="1" /><path clip-path="url(#clip530)" d="M252.233 414.708 L263.691 414.708 L263.691 375.16 L251.226 377.66 L251.226 371.271 L263.621 368.771 L270.635 368.771 L270.635 414.708 L282.094 414.708 L282.094 420.611 L252.233 420.611 L252.233 414.708 Z" fill="#000000" fill-rule="nonzero" fill-opacity="1" /><path clip-path="url(#clip530)" d="M296.26 411.792 L303.586 411.792 L303.586 420.611 L296.26 420.611 L296.26 411.792 Z" fill="#000000" fill-rule="nonzero" fill-opacity="1" /><path clip-path="url(#clip530)" d="M317.093 368.771 L350.426 368.771 L350.426 371.757 L331.607 420.611 L324.281 420.611 L341.989 374.674 L317.093 374.674 L317.093 368.771 Z" fill="#000000" fill-rule="nonzero" fill-opacity="1" /><path clip-path="url(#clip530)" d="M364.176 368.771 L391.711 368.771 L391.711 374.674 L370.6 374.674 L370.6 387.382 Q372.128 386.861 373.656 386.618 Q375.183 386.341 376.711 386.341 Q385.392 386.341 390.461 391.097 Q395.53 395.854 395.53 403.979 Q395.53 412.347 390.322 417 Q385.114 421.618 375.635 421.618 Q372.371 421.618 368.968 421.063 Q365.6 420.507 361.989 419.396 L361.989 412.347 Q365.114 414.049 368.447 414.882 Q371.781 415.715 375.496 415.715 Q381.503 415.715 385.01 412.556 Q388.517 409.396 388.517 403.979 Q388.517 398.563 385.01 395.403 Q381.503 392.243 375.496 392.243 Q372.683 392.243 369.871 392.868 Q367.093 393.493 364.176 394.813 L364.176 368.771 Z" fill="#000000" fill-rule="nonzero" fill-opacity="1" /><path clip-path="url(#clip530)" d="M255.566 125.452 L280.045 125.452 L280.045 131.355 L247.128 131.355 L247.128 125.452 Q251.121 121.32 257.996 114.376 Q264.906 107.397 266.677 105.383 Q270.045 101.598 271.364 98.9939 Q272.719 96.355 272.719 93.8203 Q272.719 89.6884 269.802 87.0842 Q266.92 84.4801 262.267 84.4801 Q258.969 84.4801 255.288 85.6259 Q251.642 86.7717 247.476 89.0981 L247.476 82.0148 Q251.712 80.3134 255.392 79.4454 Q259.073 78.5773 262.128 78.5773 Q270.184 78.5773 274.976 82.6051 Q279.767 86.6328 279.767 93.3689 Q279.767 96.5633 278.552 99.4453 Q277.371 102.292 274.212 106.181 Q273.344 107.188 268.691 112.015 Q264.038 116.806 255.566 125.452 Z" fill="#000000" fill-rule="nonzero" fill-opacity="1" /><path clip-path="url(#clip530)" d="M294.767 122.535 L302.093 122.535 L302.093 131.355 L294.767 131.355 L294.767 122.535 Z" fill="#000000" fill-rule="nonzero" fill-opacity="1" /><path clip-path="url(#clip530)" d="M332.371 84.1328 Q326.954 84.1328 324.211 89.48 Q321.503 94.7925 321.503 105.487 Q321.503 116.147 324.211 121.494 Q326.954 126.806 332.371 126.806 Q337.822 126.806 340.531 121.494 Q343.274 116.147 343.274 105.487 Q343.274 94.7925 340.531 89.48 Q337.822 84.1328 332.371 84.1328 M332.371 78.5773 Q341.086 78.5773 345.67 85.487 Q350.288 92.362 350.288 105.487 Q350.288 118.577 345.67 125.487 Q341.086 132.362 332.371 132.362 Q323.656 132.362 319.038 125.487 Q314.454 118.577 314.454 105.487 Q314.454 92.362 319.038 85.487 Q323.656 78.5773 332.371 78.5773 Z" fill="#000000" fill-rule="nonzero" fill-opacity="1" /><path clip-path="url(#clip530)" d="M377.614 84.1328 Q372.197 84.1328 369.454 89.48 Q366.746 94.7925 366.746 105.487 Q366.746 116.147 369.454 121.494 Q372.197 126.806 377.614 126.806 Q383.065 126.806 385.774 121.494 Q388.517 116.147 388.517 105.487 Q388.517 94.7925 385.774 89.48 Q383.065 84.1328 377.614 84.1328 M377.614 78.5773 Q386.329 78.5773 390.912 85.487 Q395.53 92.362 395.53 105.487 Q395.53 118.577 390.912 125.487 Q386.329 132.362 377.614 132.362 Q368.899 132.362 364.281 125.487 Q359.697 118.577 359.697 105.487 Q359.697 92.362 364.281 85.487 Q368.899 78.5773 377.614 78.5773 Z" fill="#000000" fill-rule="nonzero" fill-opacity="1" /><path clip-path="url(#clip530)" d="M107.962 665.825 Q110.914 665.825 112.6 667.669 Q114.234 669.514 114.234 671.622 Q114.234 673.624 113.074 674.678 Q111.915 675.732 110.439 675.732 Q108.437 675.732 106.698 674.257 Q104.958 672.781 104.589 670.568 Q103.219 672.728 103.219 675.943 Q103.219 678.051 104.326 679.896 Q105.433 681.688 106.856 682.794 Q108.279 683.848 110.334 684.797 Q112.336 685.693 113.549 686.062 Q114.708 686.378 115.973 686.641 L130.729 690.33 Q137.738 692.122 140.215 692.122 Q143.272 692.122 145.327 690.647 Q147.33 689.171 147.33 686.22 Q147.33 685.06 147.013 683.743 Q146.644 682.425 145.696 680.739 Q144.695 679 143.219 677.472 Q141.691 675.89 139.108 674.362 Q136.526 672.834 133.206 671.833 Q132.046 671.516 132.046 670.462 Q132.046 669.145 133.1 669.145 Q133.996 669.145 135.894 669.883 Q137.738 670.568 140.162 672.096 Q142.534 673.572 144.695 675.522 Q146.803 677.472 148.278 680.37 Q149.754 683.269 149.754 686.431 Q149.754 690.963 147.33 693.967 Q144.905 696.971 141.533 698.077 Q142.007 698.341 142.639 698.71 Q143.272 699.079 144.695 700.185 Q146.065 701.239 147.119 702.452 Q148.12 703.664 148.911 705.561 Q149.754 707.405 149.754 709.408 Q149.754 711.938 149.016 714.204 Q148.278 716.417 146.592 717.998 Q144.905 719.579 142.587 719.579 Q140.004 719.579 138.212 717.84 Q136.368 716.048 136.368 713.624 Q136.368 712.096 137.264 710.884 Q138.16 709.619 140.11 709.619 Q142.27 709.619 143.904 711.094 Q145.538 712.57 145.959 714.678 Q147.33 712.517 147.33 709.303 Q147.33 705.824 144.273 703.084 Q141.216 700.344 136.104 699.026 Q123.825 695.759 118.344 694.494 Q112.811 693.229 110.439 693.229 Q108.226 693.229 106.698 693.809 Q105.169 694.388 104.484 695.39 Q103.746 696.338 103.483 697.234 Q103.219 698.077 103.219 699.026 Q103.219 700.607 103.852 702.399 Q104.484 704.138 105.96 706.246 Q107.383 708.301 110.334 710.251 Q113.285 712.201 117.343 713.519 Q118.555 713.782 118.555 714.942 Q118.502 716.206 117.448 716.206 Q116.553 716.206 114.708 715.521 Q112.811 714.783 110.439 713.308 Q108.068 711.78 105.96 709.83 Q103.799 707.827 102.323 704.928 Q100.848 701.977 100.848 698.815 Q100.848 697.392 101.164 696.022 Q101.427 694.599 102.218 692.913 Q103.008 691.174 104.748 689.645 Q106.487 688.117 109.016 687.168 Q107.804 686.536 106.645 685.693 Q105.485 684.797 104.062 683.427 Q102.587 682.004 101.744 680.054 Q100.848 678.051 100.848 675.838 Q100.848 673.677 101.427 671.569 Q101.954 669.461 103.694 667.669 Q105.38 665.825 107.962 665.825 Z" fill="#000000" fill-rule="nonzero" fill-opacity="1" /><path clip-path="url(#clip530)" d="M179.643 654.83 Q178.278 654.83 177.872 654.719 Q177.466 654.572 176.839 653.982 L160.681 639.484 Q151.754 631.552 143.97 631.552 Q138.916 631.552 135.301 634.208 Q131.685 636.828 131.685 641.66 Q131.685 644.98 133.714 647.784 Q135.743 650.588 139.358 651.879 Q139.285 651.657 139.285 650.883 Q139.285 649.001 140.465 647.968 Q141.646 646.899 143.232 646.899 Q145.261 646.899 146.257 648.227 Q147.216 649.518 147.216 650.809 Q147.216 651.325 147.105 652.026 Q146.995 652.69 145.962 653.76 Q144.892 654.83 143.011 654.83 Q137.735 654.83 133.53 650.846 Q129.324 646.825 129.324 640.701 Q129.324 633.766 133.456 629.228 Q137.551 624.654 143.97 624.654 Q146.22 624.654 148.286 625.355 Q150.315 626.019 151.901 626.941 Q153.487 627.826 156.033 630.261 Q158.578 632.696 160.386 634.651 Q162.194 636.606 166.03 640.996 L173.814 649.001 L173.814 635.389 Q173.814 628.749 173.224 628.232 Q172.154 627.494 166.51 626.572 L166.51 624.654 L179.643 626.793 L179.643 654.83 Z" fill="#000000" fill-rule="nonzero" fill-opacity="1" /><polyline clip-path="url(#clip532)" style="stroke:#009af9; stroke-linecap:round; stroke-linejoin:round; stroke-width:4; stroke-opacity:1; fill:none" points="1676.54,82.2966 519.514,1250.72 "/>
<path clip-path="url(#clip530)" d="M2526.03 1285.77 L3811.02 1285.77 L3811.02 47.2441 L2526.03 47.2441  Z" fill="#ffffff" fill-rule="evenodd" fill-opacity="1"/>
<defs>
  <clipPath id="clip533">
    <rect x="2526" y="47" width="1286" height="1240"/>
  </clipPath>
</defs>
<polyline clip-path="url(#clip533)" style="stroke:#000000; stroke-linecap:round; stroke-linejoin:round; stroke-width:2; stroke-opacity:0.1; fill:none" points="2526.03,1285.77 2526.03,47.2441 "/>
<polyline clip-path="url(#clip533)" style="stroke:#000000; stroke-linecap:round; stroke-linejoin:round; stroke-width:2; stroke-opacity:0.1; fill:none" points="2783.03,1285.77 2783.03,47.2441 "/>
<polyline clip-path="url(#clip533)" style="stroke:#000000; stroke-linecap:round; stroke-linejoin:round; stroke-width:2; stroke-opacity:0.1; fill:none" points="3040.03,1285.77 3040.03,47.2441 "/>
<polyline clip-path="url(#clip533)" style="stroke:#000000; stroke-linecap:round; stroke-linejoin:round; stroke-width:2; stroke-opacity:0.1; fill:none" points="3297.03,1285.77 3297.03,47.2441 "/>
<polyline clip-path="url(#clip533)" style="stroke:#000000; stroke-linecap:round; stroke-linejoin:round; stroke-width:2; stroke-opacity:0.1; fill:none" points="3554.03,1285.77 3554.03,47.2441 "/>
<polyline clip-path="url(#clip533)" style="stroke:#000000; stroke-linecap:round; stroke-linejoin:round; stroke-width:2; stroke-opacity:0.1; fill:none" points="3811.02,1285.77 3811.02,47.2441 "/>
<polyline clip-path="url(#clip530)" style="stroke:#000000; stroke-linecap:round; stroke-linejoin:round; stroke-width:4; stroke-opacity:1; fill:none" points="2526.03,1285.77 3811.02,1285.77 "/>
<polyline clip-path="url(#clip530)" style="stroke:#000000; stroke-linecap:round; stroke-linejoin:round; stroke-width:4; stroke-opacity:1; fill:none" points="2526.03,1285.77 2526.03,1266.87 "/>
<polyline clip-path="url(#clip530)" style="stroke:#000000; stroke-linecap:round; stroke-linejoin:round; stroke-width:4; stroke-opacity:1; fill:none" points="2783.03,1285.77 2783.03,1266.87 "/>
<polyline clip-path="url(#clip530)" style="stroke:#000000; stroke-linecap:round; stroke-linejoin:round; stroke-width:4; stroke-opacity:1; fill:none" points="3040.03,1285.77 3040.03,1266.87 "/>
<polyline clip-path="url(#clip530)" style="stroke:#000000; stroke-linecap:round; stroke-linejoin:round; stroke-width:4; stroke-opacity:1; fill:none" points="3297.03,1285.77 3297.03,1266.87 "/>
<polyline clip-path="url(#clip530)" style="stroke:#000000; stroke-linecap:round; stroke-linejoin:round; stroke-width:4; stroke-opacity:1; fill:none" points="3554.03,1285.77 3554.03,1266.87 "/>
<polyline clip-path="url(#clip530)" style="stroke:#000000; stroke-linecap:round; stroke-linejoin:round; stroke-width:4; stroke-opacity:1; fill:none" points="3811.02,1285.77 3811.02,1266.87 "/>
<path clip-path="url(#clip530)" d="M2526.03 1335.35 Q2520.62 1335.35 2517.87 1340.69 Q2515.16 1346.01 2515.16 1356.7 Q2515.16 1367.36 2517.87 1372.71 Q2520.62 1378.02 2526.03 1378.02 Q2531.48 1378.02 2534.19 1372.71 Q2536.93 1367.36 2536.93 1356.7 Q2536.93 1346.01 2534.19 1340.69 Q2531.48 1335.35 2526.03 1335.35 M2526.03 1329.79 Q2534.75 1329.79 2539.33 1336.7 Q2543.95 1343.57 2543.95 1356.7 Q2543.95 1369.79 2539.33 1376.7 Q2534.75 1383.57 2526.03 1383.57 Q2517.32 1383.57 2512.7 1376.7 Q2508.12 1369.79 2508.12 1356.7 Q2508.12 1343.57 2512.7 1336.7 Q2517.32 1329.79 2526.03 1329.79 Z" fill="#000000" fill-rule="nonzero" fill-opacity="1" /><path clip-path="url(#clip530)" d="M2775.01 1376.66 L2799.49 1376.66 L2799.49 1382.57 L2766.57 1382.57 L2766.57 1376.66 Q2770.56 1372.53 2777.44 1365.59 Q2784.35 1358.61 2786.12 1356.6 Q2789.49 1352.81 2790.81 1350.21 Q2792.16 1347.57 2792.16 1345.03 Q2792.16 1340.9 2789.25 1338.3 Q2786.36 1335.69 2781.71 1335.69 Q2778.41 1335.69 2774.73 1336.84 Q2771.09 1337.98 2766.92 1340.31 L2766.92 1333.23 Q2771.16 1331.53 2774.84 1330.66 Q2778.52 1329.79 2781.57 1329.79 Q2789.63 1329.79 2794.42 1333.82 Q2799.21 1337.85 2799.21 1344.58 Q2799.21 1347.78 2798 1350.66 Q2796.81 1353.51 2793.66 1357.39 Q2792.79 1358.4 2788.13 1363.23 Q2783.48 1368.02 2775.01 1376.66 Z" fill="#000000" fill-rule="nonzero" fill-opacity="1" /><path clip-path="url(#clip530)" d="M3044.54 1336.84 L3026.83 1364.51 L3044.54 1364.51 L3044.54 1336.84 M3042.7 1330.73 L3051.52 1330.73 L3051.52 1364.51 L3058.92 1364.51 L3058.92 1370.35 L3051.52 1370.35 L3051.52 1382.57 L3044.54 1382.57 L3044.54 1370.35 L3021.14 1370.35 L3021.14 1363.57 L3042.7 1330.73 Z" fill="#000000" fill-rule="nonzero" fill-opacity="1" /><path clip-path="url(#clip530)" d="M3297.63 1353.85 Q3292.91 1353.85 3290.13 1357.08 Q3287.39 1360.31 3287.39 1365.94 Q3287.39 1371.53 3290.13 1374.79 Q3292.91 1378.02 3297.63 1378.02 Q3302.36 1378.02 3305.1 1374.79 Q3307.88 1371.53 3307.88 1365.94 Q3307.88 1360.31 3305.1 1357.08 Q3302.36 1353.85 3297.63 1353.85 M3311.56 1331.87 L3311.56 1338.26 Q3308.92 1337.01 3306.21 1336.35 Q3303.54 1335.69 3300.9 1335.69 Q3293.95 1335.69 3290.27 1340.38 Q3286.63 1345.07 3286.11 1354.55 Q3288.16 1351.53 3291.25 1349.93 Q3294.34 1348.3 3298.05 1348.3 Q3305.86 1348.3 3310.38 1353.05 Q3314.93 1357.78 3314.93 1365.94 Q3314.93 1373.92 3310.2 1378.75 Q3305.48 1383.57 3297.63 1383.57 Q3288.64 1383.57 3283.88 1376.7 Q3279.13 1369.79 3279.13 1356.7 Q3279.13 1344.41 3284.96 1337.12 Q3290.79 1329.79 3300.62 1329.79 Q3303.26 1329.79 3305.93 1330.31 Q3308.64 1330.83 3311.56 1331.87 Z" fill="#000000" fill-rule="nonzero" fill-opacity="1" /><path clip-path="url(#clip530)" d="M3554.03 1357.95 Q3549.03 1357.95 3546.14 1360.62 Q3543.3 1363.3 3543.3 1367.98 Q3543.3 1372.67 3546.14 1375.35 Q3549.03 1378.02 3554.03 1378.02 Q3559.03 1378.02 3561.91 1375.35 Q3564.79 1372.64 3564.79 1367.98 Q3564.79 1363.3 3561.91 1360.62 Q3559.06 1357.95 3554.03 1357.95 M3547.01 1354.96 Q3542.5 1353.85 3539.96 1350.76 Q3537.46 1347.67 3537.46 1343.23 Q3537.46 1337.01 3541.87 1333.4 Q3546.32 1329.79 3554.03 1329.79 Q3561.77 1329.79 3566.18 1333.4 Q3570.59 1337.01 3570.59 1343.23 Q3570.59 1347.67 3568.05 1350.76 Q3565.55 1353.85 3561.07 1354.96 Q3566.14 1356.14 3568.96 1359.58 Q3571.8 1363.02 3571.8 1367.98 Q3571.8 1375.52 3567.18 1379.55 Q3562.6 1383.57 3554.03 1383.57 Q3545.45 1383.57 3540.83 1379.55 Q3536.25 1375.52 3536.25 1367.98 Q3536.25 1363.02 3539.09 1359.58 Q3541.94 1356.14 3547.01 1354.96 M3544.44 1343.89 Q3544.44 1347.91 3546.94 1350.17 Q3549.48 1352.43 3554.03 1352.43 Q3558.54 1352.43 3561.07 1350.17 Q3563.64 1347.91 3563.64 1343.89 Q3563.64 1339.86 3561.07 1337.6 Q3558.54 1335.35 3554.03 1335.35 Q3549.48 1335.35 3546.94 1337.6 Q3544.44 1339.86 3544.44 1343.89 Z" fill="#000000" fill-rule="nonzero" fill-opacity="1" /><path clip-path="url(#clip530)" d="M3773.06 1376.66 L3784.51 1376.66 L3784.51 1337.12 L3772.05 1339.62 L3772.05 1333.23 L3784.44 1330.73 L3791.46 1330.73 L3791.46 1376.66 L3802.92 1376.66 L3802.92 1382.57 L3773.06 1382.57 L3773.06 1376.66 Z" fill="#000000" fill-rule="nonzero" fill-opacity="1" /><path clip-path="url(#clip530)" d="M3832.08 1335.35 Q3826.67 1335.35 3823.92 1340.69 Q3821.21 1346.01 3821.21 1356.7 Q3821.21 1367.36 3823.92 1372.71 Q3826.67 1378.02 3832.08 1378.02 Q3837.53 1378.02 3840.24 1372.71 Q3842.99 1367.36 3842.99 1356.7 Q3842.99 1346.01 3840.24 1340.69 Q3837.53 1335.35 3832.08 1335.35 M3832.08 1329.79 Q3840.8 1329.79 3845.38 1336.7 Q3850 1343.57 3850 1356.7 Q3850 1369.79 3845.38 1376.7 Q3840.8 1383.57 3832.08 1383.57 Q3823.37 1383.57 3818.75 1376.7 Q3814.17 1369.79 3814.17 1356.7 Q3814.17 1343.57 3818.75 1336.7 Q3823.37 1329.79 3832.08 1329.79 Z" fill="#000000" fill-rule="nonzero" fill-opacity="1" /><path clip-path="url(#clip530)" d="M3182.39 1457.73 Q3182.39 1459.2 3181.7 1459.57 Q3181.02 1459.89 3179.12 1459.89 L3169 1459.89 L3160.99 1491.72 Q3160.36 1494.51 3160.36 1496.88 Q3160.36 1499.52 3161.15 1500.68 Q3161.99 1501.84 3163.73 1501.84 Q3167.16 1501.84 3170.85 1498.73 Q3174.59 1495.62 3177.75 1488.03 Q3178.17 1487.03 3178.38 1486.82 Q3178.65 1486.55 3179.33 1486.55 Q3180.65 1486.55 3180.65 1487.61 Q3180.65 1487.98 3179.91 1489.66 Q3179.23 1491.35 3177.7 1493.83 Q3176.22 1496.3 3174.27 1498.62 Q3172.38 1500.94 3169.48 1502.63 Q3166.58 1504.26 3163.47 1504.26 Q3159.1 1504.26 3156.3 1501.47 Q3153.56 1498.67 3153.56 1494.3 Q3153.56 1492.88 3154.67 1488.34 Q3155.78 1483.76 3161.78 1459.89 L3152.24 1459.89 Q3150.93 1459.89 3150.4 1459.83 Q3149.93 1459.78 3149.56 1459.52 Q3149.24 1459.2 3149.24 1458.57 Q3149.24 1457.57 3149.66 1457.15 Q3150.08 1456.67 3150.61 1456.62 Q3151.19 1456.51 3152.51 1456.51 L3162.63 1456.51 L3166.84 1439.39 Q3167.26 1437.7 3168.32 1436.75 Q3169.42 1435.75 3170.06 1435.64 Q3170.69 1435.49 3171.16 1435.49 Q3172.59 1435.49 3173.43 1436.28 Q3174.27 1437.01 3174.27 1438.38 Q3174.27 1439.12 3169.85 1456.51 L3179.33 1456.51 Q3180.54 1456.51 3181.02 1456.57 Q3181.55 1456.62 3181.97 1456.88 Q3182.39 1457.15 3182.39 1457.73 Z" fill="#000000" fill-rule="nonzero" fill-opacity="1" /><polyline clip-path="url(#clip533)" style="stroke:#000000; stroke-linecap:round; stroke-linejoin:round; stroke-width:2; stroke-opacity:0.1; fill:none" points="2526.03,1284.56 3811.02,1284.56 "/>
<polyline clip-path="url(#clip533)" style="stroke:#000000; stroke-linecap:round; stroke-linejoin:round; stroke-width:2; stroke-opacity:0.1; fill:none" points="2526.03,1074.51 3811.02,1074.51 "/>
<polyline clip-path="url(#clip533)" style="stroke:#000000; stroke-linecap:round; stroke-linejoin:round; stroke-width:2; stroke-opacity:0.1; fill:none" points="2526.03,864.462 3811.02,864.462 "/>
<polyline clip-path="url(#clip533)" style="stroke:#000000; stroke-linecap:round; stroke-linejoin:round; stroke-width:2; stroke-opacity:0.1; fill:none" points="2526.03,654.413 3811.02,654.413 "/>
<polyline clip-path="url(#clip533)" style="stroke:#000000; stroke-linecap:round; stroke-linejoin:round; stroke-width:2; stroke-opacity:0.1; fill:none" points="2526.03,444.364 3811.02,444.364 "/>
<polyline clip-path="url(#clip533)" style="stroke:#000000; stroke-linecap:round; stroke-linejoin:round; stroke-width:2; stroke-opacity:0.1; fill:none" points="2526.03,234.315 3811.02,234.315 "/>
<polyline clip-path="url(#clip530)" style="stroke:#000000; stroke-linecap:round; stroke-linejoin:round; stroke-width:4; stroke-opacity:1; fill:none" points="2526.03,1285.77 2526.03,47.2441 "/>
<polyline clip-path="url(#clip530)" style="stroke:#000000; stroke-linecap:round; stroke-linejoin:round; stroke-width:4; stroke-opacity:1; fill:none" points="2526.03,1284.56 2544.93,1284.56 "/>
<polyline clip-path="url(#clip530)" style="stroke:#000000; stroke-linecap:round; stroke-linejoin:round; stroke-width:4; stroke-opacity:1; fill:none" points="2526.03,1074.51 2544.93,1074.51 "/>
<polyline clip-path="url(#clip530)" style="stroke:#000000; stroke-linecap:round; stroke-linejoin:round; stroke-width:4; stroke-opacity:1; fill:none" points="2526.03,864.462 2544.93,864.462 "/>
<polyline clip-path="url(#clip530)" style="stroke:#000000; stroke-linecap:round; stroke-linejoin:round; stroke-width:4; stroke-opacity:1; fill:none" points="2526.03,654.413 2544.93,654.413 "/>
<polyline clip-path="url(#clip530)" style="stroke:#000000; stroke-linecap:round; stroke-linejoin:round; stroke-width:4; stroke-opacity:1; fill:none" points="2526.03,444.364 2544.93,444.364 "/>
<polyline clip-path="url(#clip530)" style="stroke:#000000; stroke-linecap:round; stroke-linejoin:round; stroke-width:4; stroke-opacity:1; fill:none" points="2526.03,234.315 2544.93,234.315 "/>
<path clip-path="url(#clip530)" d="M2036.31 1294.91 L2080.82 1294.91 L2080.82 1300.81 L2036.31 1300.81 L2036.31 1294.91 Z" fill="#000000" fill-rule="nonzero" fill-opacity="1" /><path clip-path="url(#clip530)" d="M2102 1314.25 L2126.48 1314.25 L2126.48 1320.15 L2093.56 1320.15 L2093.56 1314.25 Q2097.56 1310.12 2104.43 1303.17 Q2111.34 1296.19 2113.11 1294.18 Q2116.48 1290.4 2117.8 1287.79 Q2119.15 1285.15 2119.15 1282.62 Q2119.15 1278.49 2116.24 1275.88 Q2113.35 1273.28 2108.7 1273.28 Q2105.4 1273.28 2101.72 1274.42 Q2098.08 1275.57 2093.91 1277.9 L2093.91 1270.81 Q2098.15 1269.11 2101.83 1268.24 Q2105.51 1267.37 2108.56 1267.37 Q2116.62 1267.37 2121.41 1271.4 Q2126.2 1275.43 2126.2 1282.17 Q2126.2 1285.36 2124.99 1288.24 Q2123.8 1291.09 2120.65 1294.98 Q2119.78 1295.99 2115.12 1300.81 Q2110.47 1305.6 2102 1314.25 Z" fill="#000000" fill-rule="nonzero" fill-opacity="1" /><path clip-path="url(#clip530)" d="M2141.2 1311.33 L2148.53 1311.33 L2148.53 1320.15 L2141.2 1320.15 L2141.2 1311.33 Z" fill="#000000" fill-rule="nonzero" fill-opacity="1" /><path clip-path="url(#clip530)" d="M2178.8 1272.93 Q2173.39 1272.93 2170.64 1278.28 Q2167.94 1283.59 2167.94 1294.28 Q2167.94 1304.94 2170.64 1310.29 Q2173.39 1315.6 2178.8 1315.6 Q2184.26 1315.6 2186.96 1310.29 Q2189.71 1304.94 2189.71 1294.28 Q2189.71 1283.59 2186.96 1278.28 Q2184.26 1272.93 2178.8 1272.93 M2178.8 1267.37 Q2187.52 1267.37 2192.1 1274.28 Q2196.72 1281.16 2196.72 1294.28 Q2196.72 1307.37 2192.1 1314.28 Q2187.52 1321.16 2178.8 1321.16 Q2170.09 1321.16 2165.47 1314.28 Q2160.89 1307.37 2160.89 1294.28 Q2160.89 1281.16 2165.47 1274.28 Q2170.09 1267.37 2178.8 1267.37 Z" fill="#000000" fill-rule="nonzero" fill-opacity="1" /><path clip-path="url(#clip530)" d="M2224.05 1272.93 Q2218.63 1272.93 2215.89 1278.28 Q2213.18 1283.59 2213.18 1294.28 Q2213.18 1304.94 2215.89 1310.29 Q2218.63 1315.6 2224.05 1315.6 Q2229.5 1315.6 2232.21 1310.29 Q2234.95 1304.94 2234.95 1294.28 Q2234.95 1283.59 2232.21 1278.28 Q2229.5 1272.93 2224.05 1272.93 M2224.05 1267.37 Q2232.76 1267.37 2237.35 1274.28 Q2241.96 1281.16 2241.96 1294.28 Q2241.96 1307.37 2237.35 1314.28 Q2232.76 1321.16 2224.05 1321.16 Q2215.33 1321.16 2210.71 1314.28 Q2206.13 1307.37 2206.13 1294.28 Q2206.13 1281.16 2210.71 1274.28 Q2215.33 1267.37 2224.05 1267.37 Z" fill="#000000" fill-rule="nonzero" fill-opacity="1" /><path clip-path="url(#clip530)" d="M2296.55 1281.96 L2280.68 1297.9 L2296.55 1313.76 L2292.42 1317.96 L2276.48 1302.03 L2260.54 1317.96 L2256.44 1313.76 L2272.28 1297.9 L2256.44 1281.96 L2260.54 1277.76 L2276.48 1293.69 L2292.42 1277.76 L2296.55 1281.96 Z" fill="#000000" fill-rule="nonzero" fill-opacity="1" /><path clip-path="url(#clip530)" d="M2315.09 1314.25 L2326.55 1314.25 L2326.55 1274.7 L2314.08 1277.2 L2314.08 1270.81 L2326.48 1268.31 L2333.49 1268.31 L2333.49 1314.25 L2344.95 1314.25 L2344.95 1320.15 L2315.09 1320.15 L2315.09 1314.25 Z" fill="#000000" fill-rule="nonzero" fill-opacity="1" /><path clip-path="url(#clip530)" d="M2374.12 1272.93 Q2368.7 1272.93 2365.96 1278.28 Q2363.25 1283.59 2363.25 1294.28 Q2363.25 1304.94 2365.96 1310.29 Q2368.7 1315.6 2374.12 1315.6 Q2379.57 1315.6 2382.28 1310.29 Q2385.02 1304.94 2385.02 1294.28 Q2385.02 1283.59 2382.28 1278.28 Q2379.57 1272.93 2374.12 1272.93 M2374.12 1267.37 Q2382.83 1267.37 2387.41 1274.28 Q2392.03 1281.16 2392.03 1294.28 Q2392.03 1307.37 2387.41 1314.28 Q2382.83 1321.16 2374.12 1321.16 Q2365.4 1321.16 2360.78 1314.28 Q2356.2 1307.37 2356.2 1294.28 Q2356.2 1281.16 2360.78 1274.28 Q2365.4 1267.37 2374.12 1267.37 Z" fill="#000000" fill-rule="nonzero" fill-opacity="1" /><path clip-path="url(#clip530)" d="M2392.03 1258.53 L2428.2 1258.53 L2428.2 1263.32 L2392.03 1263.32 L2392.03 1258.53 Z" fill="#000000" fill-rule="nonzero" fill-opacity="1" /><path clip-path="url(#clip530)" d="M2440.56 1236.92 L2462.93 1236.92 L2462.93 1241.71 L2445.78 1241.71 L2445.78 1252.04 Q2447.02 1251.61 2448.26 1251.42 Q2449.5 1251.19 2450.74 1251.19 Q2457.79 1251.19 2461.91 1255.06 Q2466.03 1258.92 2466.03 1265.52 Q2466.03 1272.32 2461.8 1276.1 Q2457.57 1279.85 2449.87 1279.85 Q2447.21 1279.85 2444.45 1279.4 Q2441.71 1278.95 2438.78 1278.05 L2438.78 1272.32 Q2441.32 1273.7 2444.03 1274.38 Q2446.74 1275.06 2449.75 1275.06 Q2454.63 1275.06 2457.48 1272.49 Q2460.33 1269.92 2460.33 1265.52 Q2460.33 1261.12 2457.48 1258.55 Q2454.63 1255.99 2449.75 1255.99 Q2447.47 1255.99 2445.18 1256.5 Q2442.93 1257 2440.56 1258.08 L2440.56 1236.92 Z" fill="#000000" fill-rule="nonzero" fill-opacity="1" /><path clip-path="url(#clip530)" d="M2036.31 1084.86 L2080.82 1084.86 L2080.82 1090.76 L2036.31 1090.76 L2036.31 1084.86 Z" fill="#000000" fill-rule="nonzero" fill-opacity="1" /><path clip-path="url(#clip530)" d="M2097.17 1104.2 L2108.63 1104.2 L2108.63 1064.65 L2096.17 1067.15 L2096.17 1060.76 L2108.56 1058.26 L2115.58 1058.26 L2115.58 1104.2 L2127.03 1104.2 L2127.03 1110.1 L2097.17 1110.1 L2097.17 1104.2 Z" fill="#000000" fill-rule="nonzero" fill-opacity="1" /><path clip-path="url(#clip530)" d="M2141.2 1101.28 L2148.53 1101.28 L2148.53 1110.1 L2141.2 1110.1 L2141.2 1101.28 Z" fill="#000000" fill-rule="nonzero" fill-opacity="1" /><path clip-path="url(#clip530)" d="M2163.87 1058.26 L2191.41 1058.26 L2191.41 1064.17 L2170.3 1064.17 L2170.3 1076.87 Q2171.83 1076.35 2173.35 1076.11 Q2174.88 1075.83 2176.41 1075.83 Q2185.09 1075.83 2190.16 1080.59 Q2195.23 1085.35 2195.23 1093.47 Q2195.23 1101.84 2190.02 1106.49 Q2184.81 1111.11 2175.33 1111.11 Q2172.07 1111.11 2168.67 1110.55 Q2165.3 1110 2161.69 1108.89 L2161.69 1101.84 Q2164.81 1103.54 2168.14 1104.37 Q2171.48 1105.21 2175.19 1105.21 Q2181.2 1105.21 2184.71 1102.05 Q2188.21 1098.89 2188.21 1093.47 Q2188.21 1088.05 2184.71 1084.89 Q2181.2 1081.73 2175.19 1081.73 Q2172.38 1081.73 2169.57 1082.36 Q2166.79 1082.98 2163.87 1084.3 L2163.87 1058.26 Z" fill="#000000" fill-rule="nonzero" fill-opacity="1" /><path clip-path="url(#clip530)" d="M2224.05 1062.88 Q2218.63 1062.88 2215.89 1068.23 Q2213.18 1073.54 2213.18 1084.23 Q2213.18 1094.89 2215.89 1100.24 Q2218.63 1105.55 2224.05 1105.55 Q2229.5 1105.55 2232.21 1100.24 Q2234.95 1094.89 2234.95 1084.23 Q2234.95 1073.54 2232.21 1068.23 Q2229.5 1062.88 2224.05 1062.88 M2224.05 1057.33 Q2232.76 1057.33 2237.35 1064.24 Q2241.96 1071.11 2241.96 1084.23 Q2241.96 1097.33 2237.35 1104.23 Q2232.76 1111.11 2224.05 1111.11 Q2215.33 1111.11 2210.71 1104.23 Q2206.13 1097.33 2206.13 1084.23 Q2206.13 1071.11 2210.71 1064.24 Q2215.33 1057.33 2224.05 1057.33 Z" fill="#000000" fill-rule="nonzero" fill-opacity="1" /><path clip-path="url(#clip530)" d="M2296.55 1071.91 L2280.68 1087.85 L2296.55 1103.71 L2292.42 1107.92 L2276.48 1091.98 L2260.54 1107.92 L2256.44 1103.71 L2272.28 1087.85 L2256.44 1071.91 L2260.54 1067.71 L2276.48 1083.64 L2292.42 1067.71 L2296.55 1071.91 Z" fill="#000000" fill-rule="nonzero" fill-opacity="1" /><path clip-path="url(#clip530)" d="M2315.09 1104.2 L2326.55 1104.2 L2326.55 1064.65 L2314.08 1067.15 L2314.08 1060.76 L2326.48 1058.26 L2333.49 1058.26 L2333.49 1104.2 L2344.95 1104.2 L2344.95 1110.1 L2315.09 1110.1 L2315.09 1104.2 Z" fill="#000000" fill-rule="nonzero" fill-opacity="1" /><path clip-path="url(#clip530)" d="M2374.12 1062.88 Q2368.7 1062.88 2365.96 1068.23 Q2363.25 1073.54 2363.25 1084.23 Q2363.25 1094.89 2365.96 1100.24 Q2368.7 1105.55 2374.12 1105.55 Q2379.57 1105.55 2382.28 1100.24 Q2385.02 1094.89 2385.02 1084.23 Q2385.02 1073.54 2382.28 1068.23 Q2379.57 1062.88 2374.12 1062.88 M2374.12 1057.33 Q2382.83 1057.33 2387.41 1064.24 Q2392.03 1071.11 2392.03 1084.23 Q2392.03 1097.33 2387.41 1104.23 Q2382.83 1111.11 2374.12 1111.11 Q2365.4 1111.11 2360.78 1104.23 Q2356.2 1097.33 2356.2 1084.23 Q2356.2 1071.11 2360.78 1064.24 Q2365.4 1057.33 2374.12 1057.33 Z" fill="#000000" fill-rule="nonzero" fill-opacity="1" /><path clip-path="url(#clip530)" d="M2392.03 1048.48 L2428.2 1048.48 L2428.2 1053.27 L2392.03 1053.27 L2392.03 1048.48 Z" fill="#000000" fill-rule="nonzero" fill-opacity="1" /><path clip-path="url(#clip530)" d="M2440.56 1026.87 L2462.93 1026.87 L2462.93 1031.66 L2445.78 1031.66 L2445.78 1041.99 Q2447.02 1041.57 2448.26 1041.37 Q2449.5 1041.14 2450.74 1041.14 Q2457.79 1041.14 2461.91 1045.01 Q2466.03 1048.87 2466.03 1055.47 Q2466.03 1062.27 2461.8 1066.05 Q2457.57 1069.81 2449.87 1069.81 Q2447.21 1069.81 2444.45 1069.35 Q2441.71 1068.9 2438.78 1068 L2438.78 1062.27 Q2441.32 1063.66 2444.03 1064.33 Q2446.74 1065.01 2449.75 1065.01 Q2454.63 1065.01 2457.48 1062.44 Q2460.33 1059.87 2460.33 1055.47 Q2460.33 1051.07 2457.48 1048.51 Q2454.63 1045.94 2449.75 1045.94 Q2447.47 1045.94 2445.18 1046.45 Q2442.93 1046.95 2440.56 1048.03 L2440.56 1026.87 Z" fill="#000000" fill-rule="nonzero" fill-opacity="1" /><path clip-path="url(#clip530)" d="M2036.31 874.811 L2080.82 874.811 L2080.82 880.714 L2036.31 880.714 L2036.31 874.811 Z" fill="#000000" fill-rule="nonzero" fill-opacity="1" /><path clip-path="url(#clip530)" d="M2097.17 894.151 L2108.63 894.151 L2108.63 854.603 L2096.17 857.103 L2096.17 850.714 L2108.56 848.214 L2115.58 848.214 L2115.58 894.151 L2127.03 894.151 L2127.03 900.054 L2097.17 900.054 L2097.17 894.151 Z" fill="#000000" fill-rule="nonzero" fill-opacity="1" /><path clip-path="url(#clip530)" d="M2141.2 891.234 L2148.53 891.234 L2148.53 900.054 L2141.2 900.054 L2141.2 891.234 Z" fill="#000000" fill-rule="nonzero" fill-opacity="1" /><path clip-path="url(#clip530)" d="M2178.8 852.832 Q2173.39 852.832 2170.64 858.179 Q2167.94 863.491 2167.94 874.186 Q2167.94 884.846 2170.64 890.193 Q2173.39 895.505 2178.8 895.505 Q2184.26 895.505 2186.96 890.193 Q2189.71 884.846 2189.71 874.186 Q2189.71 863.491 2186.96 858.179 Q2184.26 852.832 2178.8 852.832 M2178.8 847.276 Q2187.52 847.276 2192.1 854.186 Q2196.72 861.061 2196.72 874.186 Q2196.72 887.276 2192.1 894.186 Q2187.52 901.061 2178.8 901.061 Q2170.09 901.061 2165.47 894.186 Q2160.89 887.276 2160.89 874.186 Q2160.89 861.061 2165.47 854.186 Q2170.09 847.276 2178.8 847.276 Z" fill="#000000" fill-rule="nonzero" fill-opacity="1" /><path clip-path="url(#clip530)" d="M2224.05 852.832 Q2218.63 852.832 2215.89 858.179 Q2213.18 863.491 2213.18 874.186 Q2213.18 884.846 2215.89 890.193 Q2218.63 895.505 2224.05 895.505 Q2229.5 895.505 2232.21 890.193 Q2234.95 884.846 2234.95 874.186 Q2234.95 863.491 2232.21 858.179 Q2229.5 852.832 2224.05 852.832 M2224.05 847.276 Q2232.76 847.276 2237.35 854.186 Q2241.96 861.061 2241.96 874.186 Q2241.96 887.276 2237.35 894.186 Q2232.76 901.061 2224.05 901.061 Q2215.33 901.061 2210.71 894.186 Q2206.13 887.276 2206.13 874.186 Q2206.13 861.061 2210.71 854.186 Q2215.33 847.276 2224.05 847.276 Z" fill="#000000" fill-rule="nonzero" fill-opacity="1" /><path clip-path="url(#clip530)" d="M2296.55 861.86 L2280.68 877.797 L2296.55 893.665 L2292.42 897.866 L2276.48 881.929 L2260.54 897.866 L2256.44 893.665 L2272.28 877.797 L2256.44 861.86 L2260.54 857.658 L2276.48 873.596 L2292.42 857.658 L2296.55 861.86 Z" fill="#000000" fill-rule="nonzero" fill-opacity="1" /><path clip-path="url(#clip530)" d="M2315.09 894.151 L2326.55 894.151 L2326.55 854.603 L2314.08 857.103 L2314.08 850.714 L2326.48 848.214 L2333.49 848.214 L2333.49 894.151 L2344.95 894.151 L2344.95 900.054 L2315.09 900.054 L2315.09 894.151 Z" fill="#000000" fill-rule="nonzero" fill-opacity="1" /><path clip-path="url(#clip530)" d="M2374.12 852.832 Q2368.7 852.832 2365.96 858.179 Q2363.25 863.491 2363.25 874.186 Q2363.25 884.846 2365.96 890.193 Q2368.7 895.505 2374.12 895.505 Q2379.57 895.505 2382.28 890.193 Q2385.02 884.846 2385.02 874.186 Q2385.02 863.491 2382.28 858.179 Q2379.57 852.832 2374.12 852.832 M2374.12 847.276 Q2382.83 847.276 2387.41 854.186 Q2392.03 861.061 2392.03 874.186 Q2392.03 887.276 2387.41 894.186 Q2382.83 901.061 2374.12 901.061 Q2365.4 901.061 2360.78 894.186 Q2356.2 887.276 2356.2 874.186 Q2356.2 861.061 2360.78 854.186 Q2365.4 847.276 2374.12 847.276 Z" fill="#000000" fill-rule="nonzero" fill-opacity="1" /><path clip-path="url(#clip530)" d="M2392.03 838.428 L2428.2 838.428 L2428.2 843.224 L2392.03 843.224 L2392.03 838.428 Z" fill="#000000" fill-rule="nonzero" fill-opacity="1" /><path clip-path="url(#clip530)" d="M2440.56 816.818 L2462.93 816.818 L2462.93 821.614 L2445.78 821.614 L2445.78 831.94 Q2447.02 831.516 2448.26 831.319 Q2449.5 831.093 2450.74 831.093 Q2457.79 831.093 2461.91 834.958 Q2466.03 838.823 2466.03 845.425 Q2466.03 852.224 2461.8 856.004 Q2457.57 859.756 2449.87 859.756 Q2447.21 859.756 2444.45 859.305 Q2441.71 858.854 2438.78 857.951 L2438.78 852.224 Q2441.32 853.606 2444.03 854.283 Q2446.74 854.96 2449.75 854.96 Q2454.63 854.96 2457.48 852.393 Q2460.33 849.826 2460.33 845.425 Q2460.33 841.024 2457.48 838.456 Q2454.63 835.889 2449.75 835.889 Q2447.47 835.889 2445.18 836.397 Q2442.93 836.905 2440.56 837.977 L2440.56 816.818 Z" fill="#000000" fill-rule="nonzero" fill-opacity="1" /><path clip-path="url(#clip530)" d="M2034.89 664.762 L2079.41 664.762 L2079.41 670.664 L2034.89 670.664 L2034.89 664.762 Z" fill="#000000" fill-rule="nonzero" fill-opacity="1" /><path clip-path="url(#clip530)" d="M2094.62 638.165 L2122.15 638.165 L2122.15 644.067 L2101.04 644.067 L2101.04 656.776 Q2102.57 656.255 2104.1 656.012 Q2105.62 655.734 2107.15 655.734 Q2115.83 655.734 2120.9 660.491 Q2125.97 665.248 2125.97 673.373 Q2125.97 681.741 2120.76 686.394 Q2115.55 691.012 2106.07 691.012 Q2102.81 691.012 2099.41 690.456 Q2096.04 689.9 2092.43 688.789 L2092.43 681.741 Q2095.55 683.442 2098.89 684.275 Q2102.22 685.109 2105.94 685.109 Q2111.94 685.109 2115.45 681.949 Q2118.96 678.789 2118.96 673.373 Q2118.96 667.956 2115.45 664.796 Q2111.94 661.637 2105.94 661.637 Q2103.12 661.637 2100.31 662.262 Q2097.53 662.887 2094.62 664.206 L2094.62 638.165 Z" fill="#000000" fill-rule="nonzero" fill-opacity="1" /><path clip-path="url(#clip530)" d="M2139.79 681.185 L2147.12 681.185 L2147.12 690.005 L2139.79 690.005 L2139.79 681.185 Z" fill="#000000" fill-rule="nonzero" fill-opacity="1" /><path clip-path="url(#clip530)" d="M2177.39 642.783 Q2171.98 642.783 2169.23 648.13 Q2166.53 653.442 2166.53 664.137 Q2166.53 674.796 2169.23 680.144 Q2171.98 685.456 2177.39 685.456 Q2182.85 685.456 2185.55 680.144 Q2188.3 674.796 2188.3 664.137 Q2188.3 653.442 2185.55 648.13 Q2182.85 642.783 2177.39 642.783 M2177.39 637.227 Q2186.11 637.227 2190.69 644.137 Q2195.31 651.012 2195.31 664.137 Q2195.31 677.227 2190.69 684.137 Q2186.11 691.012 2177.39 691.012 Q2168.68 691.012 2164.06 684.137 Q2159.48 677.227 2159.48 664.137 Q2159.48 651.012 2164.06 644.137 Q2168.68 637.227 2177.39 637.227 Z" fill="#000000" fill-rule="nonzero" fill-opacity="1" /><path clip-path="url(#clip530)" d="M2222.64 642.783 Q2217.22 642.783 2214.48 648.13 Q2211.77 653.442 2211.77 664.137 Q2211.77 674.796 2214.48 680.144 Q2217.22 685.456 2222.64 685.456 Q2228.09 685.456 2230.8 680.144 Q2233.54 674.796 2233.54 664.137 Q2233.54 653.442 2230.8 648.13 Q2228.09 642.783 2222.64 642.783 M2222.64 637.227 Q2231.35 637.227 2235.94 644.137 Q2240.55 651.012 2240.55 664.137 Q2240.55 677.227 2235.94 684.137 Q2231.35 691.012 2222.64 691.012 Q2213.92 691.012 2209.3 684.137 Q2204.72 677.227 2204.72 664.137 Q2204.72 651.012 2209.3 644.137 Q2213.92 637.227 2222.64 637.227 Z" fill="#000000" fill-rule="nonzero" fill-opacity="1" /><path clip-path="url(#clip530)" d="M2295.14 651.81 L2279.27 667.748 L2295.14 683.616 L2291 687.817 L2275.07 671.88 L2259.13 687.817 L2255.03 683.616 L2270.87 667.748 L2255.03 651.81 L2259.13 647.609 L2275.07 663.546 L2291 647.609 L2295.14 651.81 Z" fill="#000000" fill-rule="nonzero" fill-opacity="1" /><path clip-path="url(#clip530)" d="M2313.68 684.102 L2325.14 684.102 L2325.14 644.553 L2312.67 647.053 L2312.67 640.665 L2325.07 638.165 L2332.08 638.165 L2332.08 684.102 L2343.54 684.102 L2343.54 690.005 L2313.68 690.005 L2313.68 684.102 Z" fill="#000000" fill-rule="nonzero" fill-opacity="1" /><path clip-path="url(#clip530)" d="M2372.71 642.783 Q2367.29 642.783 2364.55 648.13 Q2361.84 653.442 2361.84 664.137 Q2361.84 674.796 2364.55 680.144 Q2367.29 685.456 2372.71 685.456 Q2378.16 685.456 2380.87 680.144 Q2383.61 674.796 2383.61 664.137 Q2383.61 653.442 2380.87 648.13 Q2378.16 642.783 2372.71 642.783 M2372.71 637.227 Q2381.42 637.227 2386 644.137 Q2390.62 651.012 2390.62 664.137 Q2390.62 677.227 2386 684.137 Q2381.42 691.012 2372.71 691.012 Q2363.99 691.012 2359.37 684.137 Q2354.79 677.227 2354.79 664.137 Q2354.79 651.012 2359.37 644.137 Q2363.99 637.227 2372.71 637.227 Z" fill="#000000" fill-rule="nonzero" fill-opacity="1" /><path clip-path="url(#clip530)" d="M2390.62 628.379 L2426.79 628.379 L2426.79 633.175 L2390.62 633.175 L2390.62 628.379 Z" fill="#000000" fill-rule="nonzero" fill-opacity="1" /><path clip-path="url(#clip530)" d="M2451.98 625.558 Q2448.15 625.558 2445.89 628.182 Q2443.66 630.805 2443.66 635.376 Q2443.66 639.918 2445.89 642.57 Q2448.15 645.193 2451.98 645.193 Q2455.82 645.193 2458.05 642.57 Q2460.3 639.918 2460.3 635.376 Q2460.3 630.805 2458.05 628.182 Q2455.82 625.558 2451.98 625.558 M2463.3 607.7 L2463.3 612.891 Q2461.15 611.875 2458.95 611.339 Q2456.78 610.803 2454.63 610.803 Q2448.99 610.803 2446 614.612 Q2443.04 618.42 2442.62 626.122 Q2444.28 623.668 2446.79 622.37 Q2449.3 621.044 2452.32 621.044 Q2458.67 621.044 2462.34 624.909 Q2466.03 628.746 2466.03 635.376 Q2466.03 641.864 2462.2 645.786 Q2458.36 649.707 2451.98 649.707 Q2444.68 649.707 2440.81 644.121 Q2436.95 638.507 2436.95 627.871 Q2436.95 617.884 2441.69 611.96 Q2446.42 606.007 2454.41 606.007 Q2456.55 606.007 2458.72 606.43 Q2460.93 606.854 2463.3 607.7 Z" fill="#000000" fill-rule="nonzero" fill-opacity="1" /><path clip-path="url(#clip530)" d="M2448.12 423.062 Q2442.7 423.062 2439.96 428.409 Q2437.25 433.722 2437.25 444.416 Q2437.25 455.076 2439.96 460.423 Q2442.7 465.736 2448.12 465.736 Q2453.57 465.736 2456.27 460.423 Q2459.02 455.076 2459.02 444.416 Q2459.02 433.722 2456.27 428.409 Q2453.57 423.062 2448.12 423.062 M2448.12 417.507 Q2456.83 417.507 2461.41 424.416 Q2466.03 431.291 2466.03 444.416 Q2466.03 457.506 2461.41 464.416 Q2456.83 471.291 2448.12 471.291 Q2439.4 471.291 2434.78 464.416 Q2430.2 457.506 2430.2 444.416 Q2430.2 431.291 2434.78 424.416 Q2439.4 417.507 2448.12 417.507 Z" fill="#000000" fill-rule="nonzero" fill-opacity="1" /><path clip-path="url(#clip530)" d="M2094.62 218.066 L2122.15 218.066 L2122.15 223.969 L2101.04 223.969 L2101.04 236.677 Q2102.57 236.157 2104.1 235.913 Q2105.62 235.636 2107.15 235.636 Q2115.83 235.636 2120.9 240.393 Q2125.97 245.15 2125.97 253.275 Q2125.97 261.643 2120.76 266.295 Q2115.55 270.913 2106.07 270.913 Q2102.81 270.913 2099.41 270.358 Q2096.04 269.802 2092.43 268.691 L2092.43 261.643 Q2095.55 263.344 2098.89 264.177 Q2102.22 265.011 2105.94 265.011 Q2111.94 265.011 2115.45 261.851 Q2118.96 258.691 2118.96 253.275 Q2118.96 247.858 2115.45 244.698 Q2111.94 241.538 2105.94 241.538 Q2103.12 241.538 2100.31 242.163 Q2097.53 242.788 2094.62 244.108 L2094.62 218.066 Z" fill="#000000" fill-rule="nonzero" fill-opacity="1" /><path clip-path="url(#clip530)" d="M2139.79 261.087 L2147.12 261.087 L2147.12 269.906 L2139.79 269.906 L2139.79 261.087 Z" fill="#000000" fill-rule="nonzero" fill-opacity="1" /><path clip-path="url(#clip530)" d="M2177.39 222.684 Q2171.98 222.684 2169.23 228.032 Q2166.53 233.344 2166.53 244.038 Q2166.53 254.698 2169.23 260.045 Q2171.98 265.358 2177.39 265.358 Q2182.85 265.358 2185.55 260.045 Q2188.3 254.698 2188.3 244.038 Q2188.3 233.344 2185.55 228.032 Q2182.85 222.684 2177.39 222.684 M2177.39 217.129 Q2186.11 217.129 2190.69 224.039 Q2195.31 230.914 2195.31 244.038 Q2195.31 257.129 2190.69 264.038 Q2186.11 270.913 2177.39 270.913 Q2168.68 270.913 2164.06 264.038 Q2159.48 257.129 2159.48 244.038 Q2159.48 230.914 2164.06 224.039 Q2168.68 217.129 2177.39 217.129 Z" fill="#000000" fill-rule="nonzero" fill-opacity="1" /><path clip-path="url(#clip530)" d="M2222.64 222.684 Q2217.22 222.684 2214.48 228.032 Q2211.77 233.344 2211.77 244.038 Q2211.77 254.698 2214.48 260.045 Q2217.22 265.358 2222.64 265.358 Q2228.09 265.358 2230.8 260.045 Q2233.54 254.698 2233.54 244.038 Q2233.54 233.344 2230.8 228.032 Q2228.09 222.684 2222.64 222.684 M2222.64 217.129 Q2231.35 217.129 2235.94 224.039 Q2240.55 230.914 2240.55 244.038 Q2240.55 257.129 2235.94 264.038 Q2231.35 270.913 2222.64 270.913 Q2213.92 270.913 2209.3 264.038 Q2204.72 257.129 2204.72 244.038 Q2204.72 230.914 2209.3 224.039 Q2213.92 217.129 2222.64 217.129 Z" fill="#000000" fill-rule="nonzero" fill-opacity="1" /><path clip-path="url(#clip530)" d="M2295.14 231.712 L2279.27 247.65 L2295.14 263.518 L2291 267.719 L2275.07 251.781 L2259.13 267.719 L2255.03 263.518 L2270.87 247.65 L2255.03 231.712 L2259.13 227.511 L2275.07 243.448 L2291 227.511 L2295.14 231.712 Z" fill="#000000" fill-rule="nonzero" fill-opacity="1" /><path clip-path="url(#clip530)" d="M2313.68 264.004 L2325.14 264.004 L2325.14 224.455 L2312.67 226.955 L2312.67 220.566 L2325.07 218.066 L2332.08 218.066 L2332.08 264.004 L2343.54 264.004 L2343.54 269.906 L2313.68 269.906 L2313.68 264.004 Z" fill="#000000" fill-rule="nonzero" fill-opacity="1" /><path clip-path="url(#clip530)" d="M2372.71 222.684 Q2367.29 222.684 2364.55 228.032 Q2361.84 233.344 2361.84 244.038 Q2361.84 254.698 2364.55 260.045 Q2367.29 265.358 2372.71 265.358 Q2378.16 265.358 2380.87 260.045 Q2383.61 254.698 2383.61 244.038 Q2383.61 233.344 2380.87 228.032 Q2378.16 222.684 2372.71 222.684 M2372.71 217.129 Q2381.42 217.129 2386 224.039 Q2390.62 230.914 2390.62 244.038 Q2390.62 257.129 2386 264.038 Q2381.42 270.913 2372.71 270.913 Q2363.99 270.913 2359.37 264.038 Q2354.79 257.129 2354.79 244.038 Q2354.79 230.914 2359.37 224.039 Q2363.99 217.129 2372.71 217.129 Z" fill="#000000" fill-rule="nonzero" fill-opacity="1" /><path clip-path="url(#clip530)" d="M2390.62 208.281 L2426.79 208.281 L2426.79 213.077 L2390.62 213.077 L2390.62 208.281 Z" fill="#000000" fill-rule="nonzero" fill-opacity="1" /><path clip-path="url(#clip530)" d="M2451.98 205.46 Q2448.15 205.46 2445.89 208.083 Q2443.66 210.707 2443.66 215.277 Q2443.66 219.819 2445.89 222.471 Q2448.15 225.095 2451.98 225.095 Q2455.82 225.095 2458.05 222.471 Q2460.3 219.819 2460.3 215.277 Q2460.3 210.707 2458.05 208.083 Q2455.82 205.46 2451.98 205.46 M2463.3 187.602 L2463.3 192.793 Q2461.15 191.777 2458.95 191.241 Q2456.78 190.705 2454.63 190.705 Q2448.99 190.705 2446 194.514 Q2443.04 198.322 2442.62 206.024 Q2444.28 203.57 2446.79 202.272 Q2449.3 200.946 2452.32 200.946 Q2458.67 200.946 2462.34 204.811 Q2466.03 208.648 2466.03 215.277 Q2466.03 221.766 2462.2 225.687 Q2458.36 229.609 2451.98 229.609 Q2444.68 229.609 2440.81 224.023 Q2436.95 218.409 2436.95 207.773 Q2436.95 197.786 2441.69 191.862 Q2446.42 185.909 2454.41 185.909 Q2456.55 185.909 2458.72 186.332 Q2460.93 186.755 2463.3 187.602 Z" fill="#000000" fill-rule="nonzero" fill-opacity="1" /><path clip-path="url(#clip530)" d="M1981.95 1131.19 L1874.02 1131.19 L1874.02 1114.9 L1876.5 1114.9 L1876.5 1123.97 L1979.48 1123.97 L1979.48 1114.9 L1981.95 1114.9 L1981.95 1131.19 Z" fill="#000000" fill-rule="nonzero" fill-opacity="1" /><path clip-path="url(#clip530)" d="M1882.45 1020.14 Q1883.98 1020.14 1884.3 1020.82 Q1884.62 1021.45 1884.62 1023.77 Q1884.62 1027.73 1885.14 1029.52 Q1885.62 1031.26 1886.46 1031.78 Q1887.25 1032.26 1889.57 1032.84 L1947.86 1047.43 Q1947.91 1047.43 1948.65 1047.59 Q1949.33 1047.75 1949.7 1047.75 Q1950.39 1047.75 1950.81 1047.33 Q1951.23 1046.86 1951.44 1045.7 Q1951.6 1044.54 1951.65 1043.64 Q1951.65 1042.69 1951.65 1040.74 Q1951.65 1038.32 1952.07 1037.95 Q1952.34 1037.74 1952.81 1037.74 Q1953.81 1037.74 1954.34 1038.16 Q1954.81 1038.53 1954.92 1038.9 Q1954.97 1039.21 1954.97 1039.85 Q1954.97 1040.95 1954.87 1043.32 Q1954.76 1045.7 1954.76 1046.91 L1954.65 1053.81 L1954.97 1067.51 Q1954.97 1068.99 1953.76 1068.99 Q1952.7 1068.99 1952.23 1068.62 Q1951.76 1068.25 1951.7 1067.88 Q1951.65 1067.46 1951.65 1066.41 Q1951.65 1060.98 1951.12 1059.19 Q1950.54 1057.34 1948.07 1056.6 L1918.29 1049.17 L1918.29 1082.06 L1947.86 1089.44 Q1947.91 1089.44 1948.65 1089.6 Q1949.33 1089.75 1949.7 1089.75 Q1950.39 1089.75 1950.81 1089.33 Q1951.23 1088.86 1951.44 1087.7 Q1951.6 1086.54 1951.65 1085.64 Q1951.65 1084.69 1951.65 1082.74 Q1951.65 1080.32 1952.07 1079.9 Q1952.34 1079.69 1952.81 1079.69 Q1953.55 1079.69 1954.07 1079.9 Q1954.55 1080.06 1954.71 1080.48 Q1954.87 1080.85 1954.92 1081.11 Q1954.97 1081.37 1954.97 1081.85 Q1954.97 1082.96 1954.87 1085.33 Q1954.76 1087.65 1954.76 1088.86 L1954.65 1095.76 L1954.97 1109.46 Q1954.97 1110.99 1953.76 1110.99 Q1952.7 1110.99 1952.28 1110.62 Q1951.81 1110.25 1951.76 1109.78 Q1951.65 1109.31 1951.65 1108.09 Q1951.65 1105.46 1951.49 1103.88 Q1951.33 1102.3 1951.12 1101.29 Q1950.86 1100.24 1950.12 1099.71 Q1949.38 1099.13 1948.75 1098.87 Q1948.07 1098.61 1946.54 1098.24 L1888.57 1083.8 Q1886.83 1083.38 1886.57 1083.38 Q1885.56 1083.38 1885.3 1084.01 Q1884.98 1084.59 1884.83 1086.28 L1884.62 1090.39 Q1884.62 1091.65 1884.56 1092.18 Q1884.51 1092.65 1884.25 1093.02 Q1883.98 1093.39 1883.4 1093.39 Q1882.67 1093.39 1882.19 1093.23 Q1881.66 1093.02 1881.51 1092.65 Q1881.35 1092.28 1881.3 1092.02 Q1881.24 1091.76 1881.24 1091.33 L1881.56 1077.42 L1881.24 1063.61 Q1881.24 1062.09 1882.45 1062.09 Q1883.98 1062.09 1884.3 1062.77 Q1884.62 1063.46 1884.62 1065.77 Q1884.62 1069.62 1885.14 1071.41 Q1885.62 1073.21 1886.46 1073.79 Q1887.3 1074.31 1889.57 1074.84 L1914.92 1081.22 L1914.92 1048.28 L1888.57 1041.8 Q1886.67 1041.37 1886.57 1041.37 Q1885.56 1041.37 1885.3 1042.01 Q1884.98 1042.59 1884.83 1044.27 L1884.62 1048.38 Q1884.62 1049.65 1884.56 1050.18 Q1884.51 1050.65 1884.25 1051.07 Q1883.98 1051.44 1883.4 1051.44 Q1882.67 1051.44 1882.19 1051.28 Q1881.66 1051.07 1881.51 1050.7 Q1881.35 1050.33 1881.3 1050.07 Q1881.24 1049.81 1881.24 1049.38 L1881.56 1035.47 L1881.24 1021.61 Q1881.24 1020.14 1882.45 1020.14 Z" fill="#000000" fill-rule="nonzero" fill-opacity="1" /><path clip-path="url(#clip530)" d="M1927.99 1009.24 Q1909.75 1009.24 1895.05 1002.45 Q1888.88 999.546 1883.72 995.489 Q1878.55 991.431 1876.29 988.743 Q1874.02 986.055 1874.02 985.317 Q1874.02 984.263 1875.08 984.211 Q1875.6 984.211 1876.92 985.634 Q1894.63 1003.02 1927.99 1002.97 Q1961.45 1002.97 1978.47 986.055 Q1980.32 984.211 1980.9 984.211 Q1981.95 984.211 1981.95 985.317 Q1981.95 986.055 1979.79 988.637 Q1977.63 991.22 1972.68 995.225 Q1967.72 999.23 1961.66 1002.13 Q1946.96 1009.24 1927.99 1009.24 Z" fill="#000000" fill-rule="nonzero" fill-opacity="1" /><path clip-path="url(#clip530)" d="M1909.65 942.858 Q1911.12 942.858 1911.49 943.543 Q1911.81 944.228 1911.81 946.125 L1911.81 956.244 L1943.64 964.254 Q1946.43 964.887 1948.8 964.887 Q1951.44 964.887 1952.6 964.096 Q1953.76 963.253 1953.76 961.514 Q1953.76 958.088 1950.65 954.399 Q1947.54 950.657 1939.95 947.495 Q1938.95 947.074 1938.74 946.863 Q1938.48 946.599 1938.48 945.914 Q1938.48 944.597 1939.53 944.597 Q1939.9 944.597 1941.58 945.335 Q1943.27 946.02 1945.75 947.548 Q1948.22 949.024 1950.54 950.974 Q1952.86 952.871 1954.55 955.769 Q1956.18 958.668 1956.18 961.777 Q1956.18 966.151 1953.39 968.944 Q1950.6 971.685 1946.22 971.685 Q1944.8 971.685 1940.27 970.578 Q1935.68 969.471 1911.81 963.464 L1911.81 973.002 Q1911.81 974.32 1911.76 974.847 Q1911.7 975.321 1911.44 975.69 Q1911.12 976.006 1910.49 976.006 Q1909.49 976.006 1909.07 975.585 Q1908.59 975.163 1908.54 974.636 Q1908.44 974.056 1908.44 972.739 L1908.44 962.62 L1891.31 958.404 Q1889.62 957.983 1888.67 956.929 Q1887.67 955.822 1887.57 955.19 Q1887.41 954.557 1887.41 954.083 Q1887.41 952.66 1888.2 951.817 Q1888.94 950.974 1890.31 950.974 Q1891.04 950.974 1908.44 955.4 L1908.44 945.914 Q1908.44 944.702 1908.49 944.228 Q1908.54 943.701 1908.8 943.279 Q1909.07 942.858 1909.65 942.858 Z" fill="#000000" fill-rule="nonzero" fill-opacity="1" /><path clip-path="url(#clip530)" d="M1980.9 934.408 Q1980.37 934.408 1979.05 933.038 Q1961.35 915.647 1927.99 915.647 Q1894.52 915.647 1877.61 932.353 Q1875.66 934.408 1875.08 934.408 Q1874.02 934.408 1874.02 933.354 Q1874.02 932.616 1876.18 930.034 Q1878.34 927.399 1883.3 923.447 Q1888.25 919.441 1894.31 916.49 Q1909.02 909.375 1927.99 909.375 Q1946.22 909.375 1960.93 916.174 Q1967.09 919.072 1972.26 923.13 Q1977.42 927.188 1979.69 929.876 Q1981.95 932.564 1981.95 933.354 Q1981.95 934.408 1980.9 934.408 Z" fill="#000000" fill-rule="nonzero" fill-opacity="1" /><path clip-path="url(#clip530)" d="M1926.46 791.766 Q1927.09 791.134 1927.99 791.134 Q1928.88 791.134 1929.52 791.766 Q1930.15 792.399 1930.15 793.295 L1930.15 860.857 Q1930.15 861.752 1929.52 862.385 Q1928.88 863.017 1927.99 863.017 Q1927.09 863.017 1926.46 862.385 Q1925.83 861.752 1925.83 860.857 L1925.83 793.295 Q1925.83 792.399 1926.46 791.766 Z" fill="#000000" fill-rule="nonzero" fill-opacity="1" /><path clip-path="url(#clip530)" d="M1882.45 659.065 Q1883.98 659.065 1884.3 659.75 Q1884.62 660.382 1884.62 662.701 Q1884.62 666.654 1885.14 668.445 Q1885.62 670.185 1886.46 670.712 Q1887.25 671.186 1889.57 671.766 L1947.86 686.364 Q1947.91 686.364 1948.65 686.522 Q1949.33 686.68 1949.7 686.68 Q1950.39 686.68 1950.81 686.258 Q1951.23 685.784 1951.44 684.624 Q1951.6 683.465 1951.65 682.569 Q1951.65 681.621 1951.65 679.671 Q1951.65 677.246 1952.07 676.877 Q1952.34 676.667 1952.81 676.667 Q1953.81 676.667 1954.34 677.088 Q1954.81 677.457 1954.92 677.826 Q1954.97 678.142 1954.97 678.775 Q1954.97 679.881 1954.87 682.253 Q1954.76 684.624 1954.76 685.837 L1954.65 692.74 L1954.97 706.442 Q1954.97 707.918 1953.76 707.918 Q1952.7 707.918 1952.23 707.549 Q1951.76 707.18 1951.7 706.811 Q1951.65 706.39 1951.65 705.336 Q1951.65 699.908 1951.12 698.116 Q1950.54 696.271 1948.07 695.533 L1918.29 688.103 L1918.29 720.988 L1947.86 728.366 Q1947.91 728.366 1948.65 728.524 Q1949.33 728.682 1949.7 728.682 Q1950.39 728.682 1950.81 728.26 Q1951.23 727.786 1951.44 726.627 Q1951.6 725.467 1951.65 724.571 Q1951.65 723.623 1951.65 721.673 Q1951.65 719.249 1952.07 718.827 Q1952.34 718.616 1952.81 718.616 Q1953.55 718.616 1954.07 718.827 Q1954.55 718.985 1954.71 719.407 Q1954.87 719.776 1954.92 720.039 Q1954.97 720.303 1954.97 720.777 Q1954.97 721.884 1954.87 724.255 Q1954.76 726.574 1954.76 727.786 L1954.65 734.69 L1954.97 748.392 Q1954.97 749.92 1953.76 749.92 Q1952.7 749.92 1952.28 749.551 Q1951.81 749.183 1951.76 748.708 Q1951.65 748.234 1951.65 747.022 Q1951.65 744.387 1951.49 742.806 Q1951.33 741.225 1951.12 740.223 Q1950.86 739.169 1950.12 738.642 Q1949.38 738.063 1948.75 737.799 Q1948.07 737.536 1946.54 737.167 L1888.57 722.727 Q1886.83 722.305 1886.57 722.305 Q1885.56 722.305 1885.3 722.938 Q1884.98 723.517 1884.83 725.204 L1884.62 729.314 Q1884.62 730.579 1884.56 731.106 Q1884.51 731.581 1884.25 731.949 Q1883.98 732.318 1883.4 732.318 Q1882.67 732.318 1882.19 732.16 Q1881.66 731.949 1881.51 731.581 Q1881.35 731.212 1881.3 730.948 Q1881.24 730.685 1881.24 730.263 L1881.56 716.35 L1881.24 702.543 Q1881.24 701.014 1882.45 701.014 Q1883.98 701.014 1884.3 701.699 Q1884.62 702.385 1884.62 704.703 Q1884.62 708.55 1885.14 710.342 Q1885.62 712.134 1886.46 712.714 Q1887.3 713.241 1889.57 713.768 L1914.92 720.145 L1914.92 687.207 L1888.57 680.725 Q1886.67 680.303 1886.57 680.303 Q1885.56 680.303 1885.3 680.935 Q1884.98 681.515 1884.83 683.202 L1884.62 687.312 Q1884.62 688.577 1884.56 689.104 Q1884.51 689.578 1884.25 690 Q1883.98 690.369 1883.4 690.369 Q1882.67 690.369 1882.19 690.211 Q1881.66 690 1881.51 689.631 Q1881.35 689.262 1881.3 688.999 Q1881.24 688.735 1881.24 688.313 L1881.56 674.401 L1881.24 660.54 Q1881.24 659.065 1882.45 659.065 Z" fill="#000000" fill-rule="nonzero" fill-opacity="1" /><path clip-path="url(#clip530)" d="M1927.99 648.172 Q1909.75 648.172 1895.05 641.374 Q1888.88 638.475 1883.72 634.417 Q1878.55 630.359 1876.29 627.671 Q1874.02 624.984 1874.02 624.246 Q1874.02 623.192 1875.08 623.139 Q1875.6 623.139 1876.92 624.562 Q1894.63 641.953 1927.99 641.901 Q1961.45 641.901 1978.47 624.984 Q1980.32 623.139 1980.9 623.139 Q1981.95 623.139 1981.95 624.246 Q1981.95 624.984 1979.79 627.566 Q1977.63 630.148 1972.68 634.154 Q1967.72 638.159 1961.66 641.057 Q1946.96 648.172 1927.99 648.172 Z" fill="#000000" fill-rule="nonzero" fill-opacity="1" /><path clip-path="url(#clip530)" d="M1920.45 612.775 Q1904.59 612.775 1895.95 608.77 Q1883.09 603.183 1883.09 590.008 Q1883.09 587.215 1883.88 584.317 Q1884.62 581.365 1887.51 577.676 Q1890.41 573.935 1895.16 571.669 Q1904.33 567.347 1920.45 567.347 Q1936.21 567.347 1944.8 571.352 Q1957.34 577.202 1957.34 590.114 Q1957.34 594.962 1954.87 599.916 Q1952.39 604.817 1946.43 607.926 Q1937.53 612.775 1920.45 612.775 M1919.13 603.816 Q1935.42 603.816 1941.9 602.656 Q1948.91 601.339 1951.97 597.755 Q1954.97 594.119 1954.97 590.114 Q1954.97 585.792 1951.76 582.209 Q1948.49 578.572 1941.48 577.466 Q1934.58 576.253 1919.13 576.306 Q1904.11 576.306 1898.11 577.36 Q1891.1 578.783 1888.3 582.578 Q1885.46 586.319 1885.46 590.114 Q1885.46 591.537 1885.88 593.065 Q1886.3 594.541 1887.51 596.701 Q1888.73 598.862 1891.73 600.548 Q1894.73 602.182 1899.27 602.973 Q1905.12 603.816 1919.13 603.816 Z" fill="#000000" fill-rule="nonzero" fill-opacity="1" /><path clip-path="url(#clip530)" d="M1980.9 556.732 Q1980.37 556.732 1979.05 555.362 Q1961.35 537.971 1927.99 537.971 Q1894.52 537.971 1877.61 554.677 Q1875.66 556.732 1875.08 556.732 Q1874.02 556.732 1874.02 555.678 Q1874.02 554.941 1876.18 552.358 Q1878.34 549.723 1883.3 545.771 Q1888.25 541.765 1894.31 538.814 Q1909.02 531.7 1927.99 531.7 Q1946.22 531.7 1960.93 538.498 Q1967.09 541.397 1972.26 545.454 Q1977.42 549.512 1979.69 552.2 Q1981.95 554.888 1981.95 555.678 Q1981.95 556.732 1980.9 556.732 Z" fill="#000000" fill-rule="nonzero" fill-opacity="1" /><path clip-path="url(#clip530)" d="M1979.48 519.607 L1979.48 510.543 L1876.5 510.543 L1876.5 519.607 L1874.02 519.607 L1874.02 503.323 L1981.95 503.323 L1981.95 519.607 L1979.48 519.607 Z" fill="#000000" fill-rule="nonzero" fill-opacity="1" /><path clip-path="url(#clip530)" d="M1980.42 489.907 Q1979.9 489.907 1978.74 489.485 L1876.92 451.383 Q1876.82 451.383 1876.24 451.119 Q1875.66 450.856 1875.29 450.698 Q1874.87 450.54 1874.55 450.223 Q1874.23 449.854 1874.23 449.433 Q1874.23 448.379 1875.55 448.379 Q1875.66 448.379 1876.92 448.695 L1978.84 486.903 Q1980.69 487.535 1981.22 487.957 Q1981.74 488.326 1981.74 488.958 Q1981.74 489.907 1980.42 489.907 Z" fill="#000000" fill-rule="nonzero" fill-opacity="1" /><path clip-path="url(#clip530)" d="M1882.45 345.601 Q1883.98 345.601 1884.3 346.286 Q1884.62 346.918 1884.62 349.237 Q1884.62 353.19 1885.14 354.981 Q1885.62 356.72 1886.46 357.247 Q1887.25 357.722 1889.57 358.301 L1947.86 372.9 Q1947.91 372.9 1948.65 373.058 Q1949.33 373.216 1949.7 373.216 Q1950.39 373.216 1950.81 372.794 Q1951.23 372.32 1951.44 371.16 Q1951.6 370.001 1951.65 369.105 Q1951.65 368.156 1951.65 366.207 Q1951.65 363.782 1952.07 363.413 Q1952.34 363.203 1952.81 363.203 Q1953.81 363.203 1954.34 363.624 Q1954.81 363.993 1954.92 364.362 Q1954.97 364.678 1954.97 365.311 Q1954.97 366.417 1954.87 368.789 Q1954.76 371.16 1954.76 372.373 L1954.65 379.276 L1954.97 392.978 Q1954.97 394.454 1953.76 394.454 Q1952.7 394.454 1952.23 394.085 Q1951.76 393.716 1951.7 393.347 Q1951.65 392.926 1951.65 391.872 Q1951.65 386.444 1951.12 384.652 Q1950.54 382.807 1948.07 382.069 L1918.29 374.639 L1918.29 407.524 L1947.86 414.902 Q1947.91 414.902 1948.65 415.06 Q1949.33 415.218 1949.7 415.218 Q1950.39 415.218 1950.81 414.796 Q1951.23 414.322 1951.44 413.163 Q1951.6 412.003 1951.65 411.107 Q1951.65 410.159 1951.65 408.209 Q1951.65 405.785 1952.07 405.363 Q1952.34 405.152 1952.81 405.152 Q1953.55 405.152 1954.07 405.363 Q1954.55 405.521 1954.71 405.943 Q1954.87 406.312 1954.92 406.575 Q1954.97 406.839 1954.97 407.313 Q1954.97 408.42 1954.87 410.791 Q1954.76 413.11 1954.76 414.322 L1954.65 421.226 L1954.97 434.928 Q1954.97 436.456 1953.76 436.456 Q1952.7 436.456 1952.28 436.087 Q1951.81 435.719 1951.76 435.244 Q1951.65 434.77 1951.65 433.558 Q1951.65 430.923 1951.49 429.342 Q1951.33 427.761 1951.12 426.759 Q1950.86 425.705 1950.12 425.178 Q1949.38 424.599 1948.75 424.335 Q1948.07 424.072 1946.54 423.703 L1888.57 409.263 Q1886.83 408.841 1886.57 408.841 Q1885.56 408.841 1885.3 409.474 Q1884.98 410.053 1884.83 411.74 L1884.62 415.85 Q1884.62 417.115 1884.56 417.642 Q1884.51 418.117 1884.25 418.485 Q1883.98 418.854 1883.4 418.854 Q1882.67 418.854 1882.19 418.696 Q1881.66 418.485 1881.51 418.117 Q1881.35 417.748 1881.3 417.484 Q1881.24 417.221 1881.24 416.799 L1881.56 402.886 L1881.24 389.079 Q1881.24 387.55 1882.45 387.55 Q1883.98 387.55 1884.3 388.235 Q1884.62 388.92 1884.62 391.239 Q1884.62 395.086 1885.14 396.878 Q1885.62 398.67 1886.46 399.25 Q1887.3 399.777 1889.57 400.304 L1914.92 406.681 L1914.92 373.743 L1888.57 367.261 Q1886.67 366.839 1886.57 366.839 Q1885.56 366.839 1885.3 367.471 Q1884.98 368.051 1884.83 369.737 L1884.62 373.848 Q1884.62 375.113 1884.56 375.64 Q1884.51 376.114 1884.25 376.536 Q1883.98 376.905 1883.4 376.905 Q1882.67 376.905 1882.19 376.747 Q1881.66 376.536 1881.51 376.167 Q1881.35 375.798 1881.3 375.535 Q1881.24 375.271 1881.24 374.849 L1881.56 360.937 L1881.24 347.076 Q1881.24 345.601 1882.45 345.601 Z" fill="#000000" fill-rule="nonzero" fill-opacity="1" /><path clip-path="url(#clip530)" d="M1927.99 334.708 Q1909.75 334.708 1895.05 327.91 Q1888.88 325.011 1883.72 320.953 Q1878.55 316.895 1876.29 314.207 Q1874.02 311.52 1874.02 310.782 Q1874.02 309.728 1875.08 309.675 Q1875.6 309.675 1876.92 311.098 Q1894.63 328.489 1927.99 328.437 Q1961.45 328.437 1978.47 311.52 Q1980.32 309.675 1980.9 309.675 Q1981.95 309.675 1981.95 310.782 Q1981.95 311.52 1979.79 314.102 Q1977.63 316.684 1972.68 320.69 Q1967.72 324.695 1961.66 327.593 Q1946.96 334.708 1927.99 334.708 Z" fill="#000000" fill-rule="nonzero" fill-opacity="1" /><path clip-path="url(#clip530)" d="M1920.45 299.311 Q1904.59 299.311 1895.95 295.306 Q1883.09 289.719 1883.09 276.544 Q1883.09 273.751 1883.88 270.853 Q1884.62 267.901 1887.51 264.212 Q1890.41 260.471 1895.16 258.205 Q1904.33 253.883 1920.45 253.883 Q1936.21 253.883 1944.8 257.888 Q1957.34 263.738 1957.34 276.65 Q1957.34 281.498 1954.87 286.452 Q1952.39 291.353 1946.43 294.462 Q1937.53 299.311 1920.45 299.311 M1919.13 290.352 Q1935.42 290.352 1941.9 289.192 Q1948.91 287.875 1951.97 284.291 Q1954.97 280.655 1954.97 276.65 Q1954.97 272.328 1951.76 268.745 Q1948.49 265.108 1941.48 264.002 Q1934.58 262.789 1919.13 262.842 Q1904.11 262.842 1898.11 263.896 Q1891.1 265.319 1888.3 269.114 Q1885.46 272.855 1885.46 276.65 Q1885.46 278.073 1885.88 279.601 Q1886.3 281.077 1887.51 283.237 Q1888.73 285.398 1891.73 287.084 Q1894.73 288.718 1899.27 289.509 Q1905.12 290.352 1919.13 290.352 Z" fill="#000000" fill-rule="nonzero" fill-opacity="1" /><path clip-path="url(#clip530)" d="M1980.9 243.268 Q1980.37 243.268 1979.05 241.898 Q1961.35 224.507 1927.99 224.507 Q1894.52 224.507 1877.61 241.213 Q1875.66 243.268 1875.08 243.268 Q1874.02 243.268 1874.02 242.214 Q1874.02 241.477 1876.18 238.894 Q1878.34 236.259 1883.3 232.307 Q1888.25 228.301 1894.31 225.35 Q1909.02 218.236 1927.99 218.236 Q1946.22 218.236 1960.93 225.034 Q1967.09 227.933 1972.26 231.99 Q1977.42 236.048 1979.69 238.736 Q1981.95 241.424 1981.95 242.214 Q1981.95 243.268 1980.9 243.268 Z" fill="#000000" fill-rule="nonzero" fill-opacity="1" /><polyline clip-path="url(#clip533)" style="stroke:#009af9; stroke-linecap:round; stroke-linejoin:round; stroke-width:4; stroke-opacity:1; fill:none" points="2526.03,444.364 2527.32,448.986 2528.6,453.751 2529.89,458.667 2531.17,463.74 2532.46,468.977 2533.74,474.386 2535.03,479.974 2536.31,485.747 2537.6,491.713 2538.88,497.878 2540.17,504.25 2541.45,510.835 2542.74,517.639 2544.02,524.669 2545.31,531.931 2546.59,539.43 2547.88,547.172 2549.16,555.163 2550.45,563.405 2551.73,571.905 2553.02,580.665 2554.3,589.689 2555.59,598.979 2556.87,608.538 2558.16,618.366 2559.44,628.464 2560.73,638.833 2562.01,649.47 2563.3,660.375 2564.58,671.545 2565.87,682.976 2567.15,694.664 2568.44,706.602 2569.72,718.785 2571.01,731.206 2572.29,743.855 2573.58,756.722 2574.86,769.798 2576.15,783.069 2577.43,796.524 2578.72,810.148 2580,823.926 2581.29,837.841 2582.57,851.877 2583.86,866.015 2585.14,880.236 2586.43,894.52 2587.71,908.845 2589,923.189 2590.28,937.53 2591.57,951.844 2592.85,966.107 2594.14,980.295 2595.42,994.381 2596.71,1008.34 2597.99,1022.15 2599.28,1035.78 2600.56,1049.2 2601.85,1062.39 2603.13,1075.33 2604.42,1087.98 2605.7,1100.33 2606.99,1112.33 2608.27,1123.98 2609.56,1135.25 2610.84,1146.11 2612.13,1156.53 2613.41,1166.51 2614.7,1176.01 2615.98,1185.02 2617.27,1193.51 2618.55,1201.47 2619.84,1208.89 2621.12,1215.74 2622.41,1222.01 2623.69,1227.69 2624.98,1232.77 2626.26,1237.23 2627.55,1241.06 2628.83,1244.27 2630.12,1246.84 2631.4,1248.76 2632.69,1250.04 2633.97,1250.67 2635.26,1250.65 2636.54,1249.97 2637.83,1248.65 2639.11,1246.69 2640.4,1244.08 2641.68,1240.84 2642.97,1236.97 2644.25,1232.48 2645.54,1227.38 2646.82,1221.68 2648.11,1215.39 2649.39,1208.53 2650.68,1201.1 2651.96,1193.12 2653.25,1184.61 2654.53,1175.59 2655.82,1166.06 2657.1,1156.06 2658.39,1145.59 2659.67,1134.68 2660.96,1123.35 2662.24,1111.62 2663.53,1099.51 2664.81,1087.03 2666.1,1074.23 2667.38,1061.1 2668.67,1047.68 2669.95,1034 2671.24,1020.06 2672.52,1005.9 2673.81,991.541 2675.09,976.999 2676.38,962.3 2677.66,947.465 2678.95,932.516 2680.23,917.475 2681.52,902.363 2682.8,887.2 2684.09,872.006 2685.37,856.801 2686.66,841.604 2687.94,826.433 2689.23,811.307 2690.51,796.241 2691.8,781.254 2693.08,766.359 2694.37,751.573 2695.65,736.909 2696.94,722.381 2698.22,708.002 2699.51,693.783 2700.79,679.736 2702.08,665.871 2703.36,652.198 2704.65,638.726 2705.93,625.463 2707.22,612.416 2708.5,599.593 2709.79,586.998 2711.07,574.639 2712.36,562.518 2713.64,550.64 2714.93,539.009 2716.21,527.628 2717.5,516.498 2718.78,505.621 2720.07,494.999 2721.35,484.632 2722.64,474.52 2723.92,464.663 2725.21,455.06 2726.49,445.709 2727.78,436.61 2729.06,427.76 2730.35,419.157 2731.63,410.799 2732.92,402.681 2734.2,394.803 2735.49,387.159 2736.77,379.746 2738.06,372.56 2739.34,365.598 2740.63,358.854 2741.91,352.326 2743.2,346.007 2744.48,339.893 2745.77,333.98 2747.05,328.263 2748.34,322.736 2749.62,317.395 2750.91,312.235 2752.19,307.25 2753.48,302.437 2754.76,297.788 2756.05,293.3 2757.33,288.968 2758.62,284.785 2759.9,280.748 2761.19,276.851 2762.47,273.089 2763.76,269.457 2765.04,265.951 2766.33,262.566 2767.61,259.297 2768.9,256.139 2770.18,253.088 2771.47,250.139 2772.75,247.288 2774.04,244.531 2775.32,241.864 2776.61,239.282 2777.89,236.781 2779.18,234.357 2780.46,232.008 2781.75,229.728 2783.03,227.514 2784.32,225.364 2785.6,223.273 2786.89,221.238 2788.17,219.256 2789.46,217.325 2790.74,215.44 2792.03,213.599 2793.31,211.8 2794.6,210.04 2795.88,208.316 2797.17,206.626 2798.45,204.967 2799.74,203.337 2801.02,201.735 2802.31,200.157 2803.59,198.603 2804.88,197.07 2806.16,195.556 2807.45,194.06 2808.73,192.58 2810.01,191.115 2811.3,189.663 2812.58,188.223 2813.87,186.793 2815.15,185.373 2816.44,183.962 2817.72,182.558 2819.01,181.16 2820.29,179.768 2821.58,178.38 2822.86,176.996 2824.15,175.616 2825.43,174.238 2826.72,172.863 2828,171.489 2829.29,170.116 2830.57,168.744 2831.86,167.372 2833.14,166.001 2834.43,164.63 2835.71,163.258 2837,161.886 2838.28,160.513 2839.57,159.14 2840.85,157.766 2842.14,156.392 2843.42,155.018 2844.71,153.643 2845.99,152.268 2847.28,150.893 2848.56,149.518 2849.85,148.143 2851.13,146.77 2852.42,145.397 2853.7,144.025 2854.99,142.656 2856.27,141.288 2857.56,139.922 2858.84,138.56 2860.13,137.2 2861.41,135.845 2862.7,134.493 2863.98,133.146 2865.27,131.804 2866.55,130.468 2867.84,129.138 2869.12,127.815 2870.41,126.499 2871.69,125.191 2872.98,123.891 2874.26,122.6 2875.55,121.318 2876.83,120.047 2878.12,118.786 2879.4,117.536 2880.69,116.299 2881.97,115.073 2883.26,113.861 2884.54,112.663 2885.83,111.479 2887.11,110.31 2888.4,109.156 2889.68,108.019 2890.97,106.898 2892.25,105.795 2893.54,104.71 2894.82,103.643 2896.11,102.596 2897.39,101.568 2898.68,100.561 2899.96,99.5745 2901.25,98.6098 2902.53,97.6673 2903.82,96.7476 2905.1,95.8513 2906.39,94.9788 2907.67,94.1308 2908.96,93.3078 2910.24,92.5104 2911.53,91.7391 2912.81,90.9944 2914.1,90.2769 2915.38,89.5871 2916.67,88.9255 2917.95,88.2927 2919.24,87.689 2920.52,87.115 2921.81,86.5711 2923.09,86.0579 2924.38,85.5758 2925.66,85.1252 2926.95,84.7066 2928.23,84.3203 2929.52,83.9669 2930.8,83.6467 2932.09,83.3601 2933.37,83.1075 2934.66,82.8893 2935.94,82.7058 2937.23,82.5574 2938.51,82.4445 2939.8,82.3673 2941.08,82.3262 2942.37,82.3215 2943.65,82.3535 2944.94,82.4225 2946.22,82.5287 2947.51,82.6724 2948.79,82.8538 2950.08,83.0733 2951.36,83.3309 2952.65,83.627 2953.93,83.9618 2955.22,84.3353 2956.5,84.7478 2957.79,85.1995 2959.07,85.6904 2960.36,86.2208 2961.64,86.7908 2962.93,87.4004 2964.21,88.0498 2965.5,88.739 2966.78,89.4682 2968.07,90.2373 2969.35,91.0464 2970.64,91.8956 2971.92,92.7849 2973.21,93.7142 2974.49,94.6836 2975.78,95.693 2977.06,96.7424 2978.35,97.8317 2979.63,98.9609 2980.92,100.13 2982.2,101.339 2983.49,102.587 2984.77,103.874 2986.06,105.202 2987.34,106.568 2988.63,107.973 2989.91,109.417 2991.2,110.899 2992.48,112.42 2993.77,113.98 2995.05,115.577 2996.34,117.211 2997.62,118.883 2998.91,120.593 3000.19,122.339 3001.48,124.121 3002.76,125.94 3004.05,127.794 3005.33,129.684 3006.62,131.609 3007.9,133.568 3009.19,135.562 3010.47,137.589 3011.76,139.65 3013.04,141.743 3014.33,143.869 3015.61,146.027 3016.9,148.217 3018.18,150.437 3019.47,152.687 3020.75,154.967 3022.04,157.277 3023.32,159.615 3024.61,161.981 3025.89,164.374 3027.18,166.795 3028.46,169.241 3029.75,171.713 3031.03,174.21 3032.32,176.73 3033.6,179.274 3034.89,181.841 3036.17,184.43 3037.46,187.04 3038.74,189.671 3040.03,192.321 3041.31,194.991 3042.6,197.678 3043.88,200.383 3045.17,203.105 3046.45,205.842 3047.74,208.595 3049.02,211.362 3050.31,214.142 3051.59,216.934 3052.88,219.739 3054.16,222.554 3055.45,225.38 3056.73,228.215 3058.02,231.058 3059.3,233.909 3060.59,236.767 3061.87,239.63 3063.16,242.499 3064.44,245.373 3065.73,248.25 3067.01,251.13 3068.3,254.013 3069.58,256.897 3070.87,259.781 3072.15,262.666 3073.44,265.55 3074.72,268.433 3076.01,271.315 3077.29,274.194 3078.58,277.07 3079.86,279.943 3081.15,282.812 3082.43,285.677 3083.72,288.537 3085,291.393 3086.29,294.244 3087.57,297.09 3088.86,299.93 3090.14,302.765 3091.43,305.595 3092.71,308.42 3094,311.24 3095.28,314.055 3096.57,316.866 3097.85,319.674 3099.14,322.478 3100.42,325.28 3101.71,328.079 3102.99,330.879 3104.28,333.678 3105.56,336.478 3106.85,339.282 3108.13,342.089 3109.42,344.902 3110.7,347.722 3111.99,350.551 3113.27,353.392 3114.56,356.245 3115.84,359.115 3117.13,362.002 3118.41,364.91 3119.7,367.842 3120.98,370.8 3122.27,373.788 3123.55,376.809 3124.84,379.867 3126.12,382.965 3127.41,386.108 3128.69,389.3 3129.98,392.544 3131.26,395.846 3132.55,399.21 3133.83,402.641 3135.12,406.144 3136.4,409.725 3137.69,413.388 3138.97,417.141 3140.26,420.988 3141.54,424.936 3142.83,428.99 3144.11,433.157 3145.4,437.444 3146.68,441.857 3147.97,446.403 3149.25,451.088 3150.54,455.92 3151.82,460.906 3153.11,466.052 3154.39,471.365 3155.68,476.854 3156.96,482.524 3158.25,488.383 3159.53,494.438 3160.82,500.695 3162.1,507.162 3163.39,513.845 3164.67,520.75 3165.96,527.883 3167.24,535.251 3168.53,542.859 3169.81,550.712 3171.1,558.815 3172.38,567.173 3173.67,575.79 3174.95,584.668 3176.24,593.811 3177.52,603.222 3178.81,612.902 3180.09,622.852 3181.38,633.071 3182.66,643.561 3183.95,654.319 3185.23,665.344 3186.52,676.632 3187.8,688.178 3189.09,699.98 3190.37,712.029 3191.66,724.32 3192.94,736.844 3194.23,749.593 3195.51,762.555 3196.8,775.72 3198.08,789.076 3199.37,802.609 3200.65,816.304 3201.94,830.146 3203.22,844.118 3204.51,858.202 3205.79,872.38 3207.08,886.631 3208.36,900.936 3209.65,915.272 3210.93,929.618 3212.22,943.95 3213.5,958.244 3214.79,972.476 3216.07,986.621 3217.36,1000.65 3218.64,1014.55 3219.93,1028.28 3221.21,1041.82 3222.5,1055.14 3223.78,1068.22 3225.07,1081.03 3226.35,1093.55 3227.64,1105.75 3228.92,1117.6 3230.21,1129.08 3231.49,1140.16 3232.78,1150.83 3234.06,1161.06 3235.35,1170.82 3236.63,1180.1 3237.92,1188.88 3239.2,1197.14 3240.49,1204.86 3241.77,1212.02 3243.06,1218.61 3244.34,1224.62 3245.63,1230.03 3246.91,1234.83 3248.2,1239.01 3249.48,1242.56 3250.77,1245.48 3252.05,1247.76 3253.34,1249.39 3254.62,1250.38 3255.91,1250.72 3257.19,1250.4 3258.48,1249.44 3259.76,1247.83 3261.05,1245.57 3262.33,1242.68 3263.62,1239.16 3264.9,1235.01 3266.19,1230.24 3267.47,1224.87 3268.76,1218.9 3270.04,1212.35 3271.33,1205.23 3272.61,1197.55 3273.9,1189.34 3275.18,1180.59 3276.47,1171.34 3277.75,1161.6 3279.04,1151.38 3280.32,1140.72 3281.61,1129.61 3282.89,1118.1 3284.18,1106.19 3285.46,1093.92 3286.75,1081.29 3288.03,1068.34 3289.32,1055.08 3290.6,1041.54 3291.89,1027.74 3293.17,1013.7 3294.46,999.444 3295.74,984.998 3297.03,970.383 3298.31,955.62 3299.6,940.731 3300.88,925.738 3302.17,910.663 3303.45,895.525 3304.74,880.345 3306.02,865.144 3307.31,849.941 3308.59,834.753 3309.88,819.6 3311.16,804.499 3312.45,789.467 3313.73,774.519 3315.02,759.671 3316.3,744.938 3317.59,730.334 3318.87,715.871 3320.16,701.563 3321.44,687.42 3322.73,673.454 3324.01,659.674 3325.3,646.091 3326.58,632.712 3327.87,619.545 3329.15,606.598 3330.44,593.877 3331.72,581.387 3333.01,569.134 3334.29,557.122 3335.58,545.355 3336.86,533.836 3338.15,522.568 3339.43,511.552 3340.72,500.789 3342,490.282 3343.29,480.029 3344.57,470.032 3345.86,460.289 3347.14,450.8 3348.43,441.563 3349.71,432.576 3351,423.837 3352.28,415.345 3353.57,407.095 3354.85,399.086 3356.14,391.313 3357.42,383.773 3358.71,376.463 3359.99,369.378 3361.28,362.515 3362.56,355.869 3363.85,349.435 3365.13,343.209 3366.42,337.186 3367.7,331.361 3368.99,325.731 3370.27,320.288 3371.56,315.029 3372.84,309.949 3374.13,305.042 3375.41,300.303 3376.7,295.727 3377.98,291.31 3379.27,287.045 3380.55,282.929 3381.84,278.955 3383.12,275.119 3384.41,271.417 3385.69,267.842 3386.98,264.391 3388.26,261.059 3389.55,257.84 3390.83,254.731 3392.12,251.726 3393.4,248.822 3394.69,246.014 3395.97,243.298 3397.26,240.669 3398.54,238.124 3399.83,235.658 3401.11,233.269 3402.4,230.951 3403.68,228.701 3404.97,226.517 3406.25,224.393 3407.54,222.328 3408.82,220.317 3410.11,218.359 3411.39,216.448 3412.68,214.584 3413.96,212.762 3415.25,210.981 3416.53,209.237 3417.82,207.529 3419.1,205.853 3420.39,204.208 3421.67,202.59 3422.96,200.999 3424.24,199.432 3425.53,197.888 3426.81,196.363 3428.1,194.858 3429.38,193.369 3430.67,191.896 3431.95,190.437 3433.24,188.991 3434.52,187.556 3435.81,186.131 3437.09,184.715 3438.38,183.306 3439.66,181.905 3440.95,180.51 3442.23,179.12 3443.52,177.734 3444.8,176.352 3446.09,174.973 3447.37,173.597 3448.66,172.222 3449.94,170.848 3451.23,169.476 3452.51,168.104 3453.8,166.733 3455.08,165.361 3456.37,163.99 3457.65,162.618 3458.94,161.245 3460.22,159.873 3461.51,158.499 3462.79,157.125 3464.08,155.751 3465.36,154.376 3466.65,153.001 3467.93,151.626 3469.22,150.251 3470.5,148.877 3471.79,147.502 3473.07,146.129 3474.36,144.757 3475.64,143.386 3476.93,142.017 3478.21,140.65 3479.5,139.286 3480.78,137.925 3482.07,136.567 3483.35,135.213 3484.64,133.864 3485.92,132.519 3487.21,131.18 3488.49,129.846 3489.78,128.519 3491.06,127.199 3492.35,125.887 3493.63,124.582 3494.92,123.286 3496.2,121.999 3497.49,120.722 3498.77,119.455 3500.06,118.199 3501.34,116.955 3502.63,115.723 3503.91,114.504 3505.2,113.298 3506.48,112.106 3507.77,110.928 3509.05,109.766 3510.34,108.62 3511.62,107.49 3512.91,106.377 3514.19,105.282 3515.48,104.205 3516.76,103.147 3518.05,102.108 3519.33,101.089 3520.62,100.092 3521.9,99.1149 3523.19,98.1602 3524.47,97.2279 3525.76,96.3186 3527.04,95.4329 3528.33,94.5714 3529.61,93.7345 3530.9,92.923 3532.18,92.1373 3533.47,91.3779 3534.75,90.6454 3536.04,89.9403 3537.32,89.2631 3538.61,88.6144 3539.89,87.9946 3541.18,87.4042 3542.46,86.8437 3543.75,86.3135 3545.03,85.8143 3546.32,85.3463 3547.6,84.91 3548.89,84.5059 3550.17,84.1343 3551.46,83.7958 3552.74,83.4907 3554.03,83.2193 3555.31,82.9822 3556.6,82.7795 3557.88,82.6118 3559.17,82.4793 3560.45,82.3824 3561.74,82.3214 3563.02,82.2966 3564.31,82.3084 3565.59,82.357 3566.88,82.4427 3568.16,82.5657 3569.45,82.7264 3570.73,82.9249 3572.02,83.1615 3573.3,83.4364 3574.59,83.7499 3575.87,84.102 3577.16,84.4931 3578.44,84.9232 3579.73,85.3925 3581.01,85.9012 3582.3,86.4494 3583.58,87.0371 3584.87,87.6646 3586.15,88.3319 3587.44,89.0391 3588.72,89.7862 3590.01,90.5733 3591.29,91.4005 3592.58,92.2677 3593.86,93.175 3595.14,94.1223 3596.43,95.1097 3597.71,96.1371 3599,97.2044 3600.28,98.3117 3601.57,99.4588 3602.85,100.646 3604.14,101.872 3605.42,103.138 3606.71,104.444 3607.99,105.788 3609.28,107.172 3610.56,108.595 3611.85,110.056 3613.13,111.556 3614.42,113.094 3615.7,114.67 3616.99,116.284 3618.27,117.936 3619.56,119.625 3620.84,121.35 3622.13,123.113 3623.41,124.912 3624.7,126.746 3625.98,128.617 3627.27,130.522 3628.55,132.463 3629.84,134.437 3631.12,136.446 3632.41,138.489 3633.69,140.564 3634.98,142.673 3636.26,144.813 3637.55,146.985 3638.83,149.188 3640.12,151.422 3641.4,153.686 3642.69,155.98 3643.97,158.302 3645.26,160.653 3646.54,163.031 3647.83,165.437 3649.11,167.869 3650.4,170.327 3651.68,172.81 3652.97,175.317 3654.25,177.849 3655.54,180.403 3656.82,182.98 3658.11,185.579 3659.39,188.198 3660.68,190.838 3661.96,193.497 3663.25,196.174 3664.53,198.87 3665.82,201.582 3667.1,204.311 3668.39,207.056 3669.67,209.815 3670.96,212.587 3672.24,215.373 3673.53,218.171 3674.81,220.981 3676.1,223.801 3677.38,226.631 3678.67,229.469 3679.95,232.316 3681.24,235.17 3682.52,238.031 3683.81,240.897 3685.09,243.768 3686.38,246.644 3687.66,249.522 3688.95,252.404 3690.23,255.287 3691.52,258.171 3692.8,261.056 3694.09,263.94 3695.37,266.824 3696.66,269.707 3697.94,272.587 3699.23,275.465 3700.51,278.339 3701.8,281.211 3703.08,284.078 3704.37,286.941 3705.65,289.799 3706.94,292.653 3708.22,295.502 3709.51,298.345 3710.79,301.183 3712.08,304.016 3713.36,306.843 3714.65,309.666 3715.93,312.484 3717.22,315.297 3718.5,318.107 3719.79,320.912 3721.07,323.715 3722.36,326.516 3723.64,329.315 3724.93,332.115 3726.21,334.914 3727.5,337.716 3728.78,340.521 3730.07,343.33 3731.35,346.146 3732.64,348.97 3733.92,351.804 3735.21,354.651 3736.49,357.511 3737.78,360.388 3739.06,363.284 3740.35,366.203 3741.63,369.146 3742.92,372.117 3744.2,375.12 3745.49,378.157 3746.77,381.233 3748.06,384.35 3749.34,387.514 3750.63,390.729 3751.91,393.999 3753.2,397.328 3754.48,400.721 3755.77,404.184 3757.05,407.722 3758.34,411.339 3759.62,415.042 3760.91,418.836 3762.19,422.728 3763.48,426.722 3764.76,430.827 3766.05,435.047 3767.33,439.39 3768.62,443.862 3769.9,448.469 3771.19,453.22 3772.47,458.12 3773.76,463.177 3775.04,468.398 3776.33,473.789 3777.61,479.358 3778.9,485.113 3780.18,491.059 3781.47,497.204 3782.75,503.555 3784.04,510.118 3785.32,516.9 3786.61,523.907 3787.89,531.145 3789.18,538.62 3790.46,546.338 3791.75,554.303 3793.03,562.52 3794.32,570.994 3795.6,579.727 3796.89,588.725 3798.17,597.988 3799.46,607.52 3800.74,617.321 3802.03,627.392 3803.31,637.733 3804.6,648.344 3805.88,659.222 3807.17,670.365 3808.45,681.77 3809.74,693.432 3811.02,705.346 "/>
</svg>
