<?xml version="1.0" encoding="UTF-8"?>
<svg xmlns="http://www.w3.org/2000/svg" xmlns:xlink="http://www.w3.org/1999/xlink" width="500" height="500" viewBox="0 0 500 500">
<defs>
<g>
<g id="glyph-0-0-505e00e5">
<path d="M 6.9375 3.046875 C 6.9375 3.046875 5.765625 3.046875 5.765625 3.046875 C 5.765625 3.046875 5.765625 -0.953125 5.765625 -0.953125 C 5.21875 -0.15625 4.515625 0.203125 3.5 0.203125 C 1.5625 0.203125 0.359375 -1.203125 0.359375 -3.578125 C 0.359375 -6.015625 1.625 -7.546875 3.5625 -7.546875 C 4.515625 -7.546875 5.34375 -7.125 5.890625 -6.359375 C 5.890625 -6.359375 5.890625 -7.34375 5.890625 -7.34375 C 5.890625 -7.34375 6.9375 -7.34375 6.9375 -7.34375 C 6.9375 -7.34375 6.9375 3.046875 6.9375 3.046875 Z M 5.765625 -3.625 C 5.765625 -5.328125 4.96875 -6.453125 3.71875 -6.453125 C 2.4375 -6.453125 1.578125 -5.359375 1.578125 -3.671875 C 1.578125 -1.953125 2.4375 -0.875 3.71875 -0.875 C 4.953125 -0.875 5.765625 -1.953125 5.765625 -3.625 Z M 5.765625 -3.625 "/>
</g>
<g id="glyph-0-1-505e00e5">
<path d="M 7.21875 -3.03125 C 7.21875 -3.03125 0.953125 -3.03125 0.953125 -3.03125 C 0.953125 -3.03125 0.953125 -3.96875 0.953125 -3.96875 C 0.953125 -3.96875 7.21875 -3.96875 7.21875 -3.96875 C 7.21875 -3.96875 7.21875 -3.03125 7.21875 -3.03125 Z M 7.21875 -3.03125 "/>
</g>
<g id="glyph-0-2-505e00e5">
<path d="M 7.09375 -4.78125 C 7.09375 -1.515625 5.953125 0.203125 3.84375 0.203125 C 1.71875 0.203125 0.609375 -1.515625 0.609375 -4.859375 C 0.609375 -8.1875 1.703125 -9.921875 3.84375 -9.921875 C 6 -9.921875 7.09375 -8.21875 7.09375 -4.78125 Z M 5.84375 -4.890625 C 5.84375 -7.546875 5.1875 -8.828125 3.84375 -8.828125 C 2.515625 -8.828125 1.859375 -7.5625 1.859375 -4.84375 C 1.859375 -2.125 2.515625 -0.8125 3.828125 -0.8125 C 5.1875 -0.8125 5.84375 -2.078125 5.84375 -4.890625 Z M 5.84375 -4.890625 "/>
</g>
<g id="glyph-0-3-505e00e5">
<path d="M 2.671875 0 C 2.671875 0 1.21875 0 1.21875 0 C 1.21875 0 1.21875 -1.453125 1.21875 -1.453125 C 1.21875 -1.453125 2.671875 -1.453125 2.671875 -1.453125 C 2.671875 -1.453125 2.671875 0 2.671875 0 Z M 2.671875 0 "/>
</g>
<g id="glyph-0-4-505e00e5">
<path d="M 7.078125 -2.890625 C 7.078125 -1.015625 5.765625 0.203125 3.71875 0.203125 C 1.6875 0.203125 0.609375 -0.78125 0.453125 -3 C 0.453125 -3 1.6875 -3 1.6875 -3 C 1.765625 -1.546875 2.421875 -0.875 3.765625 -0.875 C 5.046875 -0.875 5.828125 -1.625 5.828125 -2.875 C 5.828125 -3.96875 5.125 -4.625 3.765625 -4.625 C 3.765625 -4.625 3.09375 -4.625 3.09375 -4.625 C 3.09375 -4.625 3.09375 -5.65625 3.09375 -5.65625 C 5.0625 -5.65625 5.53125 -6.09375 5.53125 -7.15625 C 5.53125 -8.203125 4.875 -8.84375 3.78125 -8.84375 C 2.515625 -8.84375 1.921875 -8.1875 1.890625 -6.71875 C 1.890625 -6.71875 0.65625 -6.71875 0.65625 -6.71875 C 0.703125 -8.828125 1.765625 -9.921875 3.765625 -9.921875 C 5.65625 -9.921875 6.796875 -8.90625 6.796875 -7.203125 C 6.796875 -6.203125 6.328125 -5.5625 5.40625 -5.1875 C 6.59375 -4.78125 7.078125 -4.09375 7.078125 -2.890625 Z M 7.078125 -2.890625 "/>
</g>
<g id="glyph-0-5-505e00e5">
<path d="M 7.15625 -7.015625 C 7.15625 -5.796875 6.4375 -4.765625 5.046875 -4.015625 C 5.046875 -4.015625 3.65625 -3.265625 3.65625 -3.265625 C 2.4375 -2.546875 1.984375 -2.03125 1.859375 -1.21875 C 1.859375 -1.21875 7.078125 -1.21875 7.078125 -1.21875 C 7.078125 -1.21875 7.078125 0 7.078125 0 C 7.078125 0 0.46875 0 0.46875 0 C 0.59375 -2.1875 1.1875 -3.125 3.265625 -4.296875 C 3.265625 -4.296875 4.546875 -5.03125 4.546875 -5.03125 C 5.4375 -5.53125 5.890625 -6.203125 5.890625 -6.984375 C 5.890625 -8.046875 5.046875 -8.84375 3.9375 -8.84375 C 2.71875 -8.84375 2.03125 -8.140625 1.9375 -6.484375 C 1.9375 -6.484375 0.703125 -6.484375 0.703125 -6.484375 C 0.765625 -8.890625 1.953125 -9.921875 3.96875 -9.921875 C 5.859375 -9.921875 7.15625 -8.6875 7.15625 -7.015625 Z M 7.15625 -7.015625 "/>
</g>
<g id="glyph-1-0-505e00e5">
<path d="M -3.59375 -7.328125 C -1.265625 -7.328125 0.203125 -6.078125 0.203125 -4.1875 C 0.203125 -3.234375 -0.125 -2.546875 -0.875 -1.9375 C -0.875 -1.9375 3.046875 -1.9375 3.046875 -1.9375 C 3.046875 -1.9375 3.046875 -0.765625 3.046875 -0.765625 C 3.046875 -0.765625 -7.34375 -0.765625 -7.34375 -0.765625 C -7.34375 -0.765625 -7.34375 -1.828125 -7.34375 -1.828125 C -7.34375 -1.828125 -6.234375 -1.828125 -6.234375 -1.828125 C -7.09375 -2.375 -7.546875 -3.171875 -7.546875 -4.171875 C -7.546875 -6.125 -6.0625 -7.328125 -3.59375 -7.328125 Z M -3.625 -6.109375 C -5.375 -6.109375 -6.453125 -5.265625 -6.453125 -3.96875 C -6.453125 -2.75 -5.328125 -1.9375 -3.609375 -1.9375 C -1.890625 -1.9375 -0.875 -2.75 -0.875 -3.96875 C -0.875 -5.25 -1.953125 -6.109375 -3.625 -6.109375 Z M -3.625 -6.109375 "/>
</g>
<g id="glyph-2-0-505e00e5">
<path d="M 7.09375 -4.78125 C 7.09375 -1.515625 5.953125 0.203125 3.84375 0.203125 C 1.71875 0.203125 0.609375 -1.515625 0.609375 -4.859375 C 0.609375 -8.1875 1.703125 -9.921875 3.84375 -9.921875 C 6 -9.921875 7.09375 -8.21875 7.09375 -4.78125 Z M 5.84375 -4.890625 C 5.84375 -7.546875 5.1875 -8.828125 3.84375 -8.828125 C 2.515625 -8.828125 1.859375 -7.5625 1.859375 -4.84375 C 1.859375 -2.125 2.515625 -0.8125 3.828125 -0.8125 C 5.1875 -0.8125 5.84375 -2.078125 5.84375 -4.890625 Z M 5.84375 -4.890625 "/>
</g>
<g id="glyph-2-1-505e00e5">
<path d="M 2.671875 0 C 2.671875 0 1.21875 0 1.21875 0 C 1.21875 0 1.21875 -1.453125 1.21875 -1.453125 C 1.21875 -1.453125 2.671875 -1.453125 2.671875 -1.453125 C 2.671875 -1.453125 2.671875 0 2.671875 0 Z M 2.671875 0 "/>
</g>
<g id="glyph-3-0-505e00e5">
<path d="M 7.09375 -4.78125 C 7.09375 -1.515625 5.953125 0.203125 3.84375 0.203125 C 1.71875 0.203125 0.609375 -1.515625 0.609375 -4.859375 C 0.609375 -8.1875 1.703125 -9.921875 3.84375 -9.921875 C 6 -9.921875 7.09375 -8.21875 7.09375 -4.78125 Z M 5.84375 -4.890625 C 5.84375 -7.546875 5.1875 -8.828125 3.84375 -8.828125 C 2.515625 -8.828125 1.859375 -7.5625 1.859375 -4.84375 C 1.859375 -2.125 2.515625 -0.8125 3.828125 -0.8125 C 5.1875 -0.8125 5.84375 -2.078125 5.84375 -4.890625 Z M 5.84375 -4.890625 "/>
</g>
<g id="glyph-4-0-505e00e5">
<path d="M 7.15625 -7.015625 C 7.15625 -5.796875 6.4375 -4.765625 5.046875 -4.015625 C 5.046875 -4.015625 3.65625 -3.265625 3.65625 -3.265625 C 2.4375 -2.546875 1.984375 -2.03125 1.859375 -1.21875 C 1.859375 -1.21875 7.078125 -1.21875 7.078125 -1.21875 C 7.078125 -1.21875 7.078125 0 7.078125 0 C 7.078125 0 0.46875 0 0.46875 0 C 0.59375 -2.1875 1.1875 -3.125 3.265625 -4.296875 C 3.265625 -4.296875 4.546875 -5.03125 4.546875 -5.03125 C 5.4375 -5.53125 5.890625 -6.203125 5.890625 -6.984375 C 5.890625 -8.046875 5.046875 -8.84375 3.9375 -8.84375 C 2.71875 -8.84375 2.03125 -8.140625 1.9375 -6.484375 C 1.9375 -6.484375 0.703125 -6.484375 0.703125 -6.484375 C 0.765625 -8.890625 1.953125 -9.921875 3.96875 -9.921875 C 5.859375 -9.921875 7.15625 -8.6875 7.15625 -7.015625 Z M 7.15625 -7.015625 "/>
</g>
<g id="glyph-5-0-505e00e5">
<path d="M 9.203125 0 C 9.203125 0 7.09375 0 7.09375 0 C 7.09375 0 7.09375 -4.640625 7.09375 -4.640625 C 7.09375 -4.640625 3.046875 -4.640625 3.046875 -4.640625 C 3.046875 -4.640625 3.046875 0 3.046875 0 C 3.046875 0 0.953125 0 0.953125 0 C 0.953125 0 0.953125 -10.203125 0.953125 -10.203125 C 0.953125 -10.203125 3.046875 -10.203125 3.046875 -10.203125 C 3.046875 -10.203125 3.046875 -6.390625 3.046875 -6.390625 C 3.046875 -6.390625 7.09375 -6.390625 7.09375 -6.390625 C 7.09375 -6.390625 7.09375 -10.203125 7.09375 -10.203125 C 7.09375 -10.203125 9.203125 -10.203125 9.203125 -10.203125 C 9.203125 -10.203125 9.203125 0 9.203125 0 Z M 9.203125 0 "/>
</g>
<g id="glyph-5-1-505e00e5">
<path d="M 7.34375 0 C 7.34375 0 5.203125 0 5.203125 0 C 5.03125 -0.21875 4.984375 -0.5625 4.984375 -0.953125 C 4.296875 -0.234375 3.53125 0.125 2.6875 0.125 C 1.421875 0.125 0.390625 -0.578125 0.390625 -2.046875 C 0.390625 -3.421875 1.125 -4.0625 2.625 -4.328125 C 2.625 -4.328125 3.40625 -4.46875 3.40625 -4.46875 C 4.375 -4.640625 4.96875 -4.546875 4.96875 -5.34375 C 4.96875 -5.859375 4.59375 -6.109375 3.84375 -6.109375 C 2.875 -6.109375 2.546875 -5.859375 2.453125 -5.0625 C 2.453125 -5.0625 0.5625 -5.0625 0.5625 -5.0625 C 0.6875 -6.8125 1.75 -7.6875 3.796875 -7.6875 C 5.84375 -7.6875 6.890625 -6.90625 6.890625 -5.359375 C 6.890625 -5.359375 6.890625 -1.15625 6.890625 -1.15625 C 6.890625 -0.765625 6.984375 -0.5625 7.34375 -0.234375 C 7.34375 -0.234375 7.34375 0 7.34375 0 Z M 4.96875 -3.234375 C 4.96875 -3.234375 4.96875 -3.5625 4.96875 -3.5625 C 4.75 -3.453125 4.65625 -3.4375 4.140625 -3.328125 C 4.140625 -3.328125 3.46875 -3.203125 3.46875 -3.203125 C 2.65625 -3.046875 2.359375 -2.84375 2.359375 -2.265625 C 2.359375 -1.703125 2.765625 -1.453125 3.421875 -1.453125 C 4.40625 -1.453125 4.96875 -2.09375 4.96875 -3.234375 Z M 4.96875 -3.234375 "/>
</g>
<g id="glyph-5-2-505e00e5">
<path d="M 5.1875 -5.6875 C 4.90625 -5.71875 4.78125 -5.734375 4.5625 -5.734375 C 3.421875 -5.734375 2.84375 -5.171875 2.84375 -4.015625 C 2.84375 -4.015625 2.84375 0 2.84375 0 C 2.84375 0 0.875 0 0.875 0 C 0.875 0 0.875 -7.5625 0.875 -7.5625 C 0.875 -7.5625 2.84375 -7.5625 2.84375 -7.5625 C 2.84375 -7.5625 2.84375 -6.078125 2.84375 -6.078125 C 3.265625 -7.09375 4.046875 -7.6875 4.9375 -7.6875 C 5 -7.6875 5.0625 -7.6875 5.1875 -7.671875 C 5.1875 -7.671875 5.1875 -5.6875 5.1875 -5.6875 Z M 5.1875 -5.6875 "/>
</g>
<g id="glyph-5-3-505e00e5">
<path d="M 11.53125 0 C 11.53125 0 9.578125 0 9.578125 0 C 9.578125 0 9.578125 -5.046875 9.578125 -5.046875 C 9.578125 -5.640625 9.171875 -6.015625 8.515625 -6.015625 C 7.671875 -6.015625 7.171875 -5.453125 7.171875 -4.53125 C 7.171875 -4.53125 7.171875 0 7.171875 0 C 7.171875 0 5.203125 0 5.203125 0 C 5.203125 0 5.203125 -5.046875 5.203125 -5.046875 C 5.203125 -5.640625 4.796875 -6.015625 4.140625 -6.015625 C 3.296875 -6.015625 2.796875 -5.453125 2.796875 -4.53125 C 2.796875 -4.53125 2.796875 0 2.796875 0 C 2.796875 0 0.84375 0 0.84375 0 C 0.84375 0 0.84375 -7.5625 0.84375 -7.5625 C 0.84375 -7.5625 2.78125 -7.5625 2.78125 -7.5625 C 2.78125 -7.5625 2.78125 -6.625 2.78125 -6.625 C 3.4375 -7.390625 3.984375 -7.6875 4.859375 -7.6875 C 5.796875 -7.6875 6.546875 -7.28125 6.921875 -6.5625 C 7.5 -7.34375 8.171875 -7.6875 9.125 -7.6875 C 10.640625 -7.6875 11.53125 -6.8125 11.53125 -5.34375 C 11.53125 -5.34375 11.53125 0 11.53125 0 Z M 11.53125 0 "/>
</g>
<g id="glyph-5-4-505e00e5">
<path d="M 7.96875 -3.71875 C 7.96875 -1.296875 6.53125 0.125 4.234375 0.125 C 1.90625 0.125 0.484375 -1.28125 0.484375 -3.78125 C 0.484375 -6.265625 1.90625 -7.6875 4.21875 -7.6875 C 6.578125 -7.6875 7.96875 -6.28125 7.96875 -3.71875 Z M 6 -3.75 C 6 -5.234375 5.3125 -6.109375 4.234375 -6.109375 C 3.15625 -6.109375 2.453125 -5.21875 2.453125 -3.78125 C 2.453125 -2.34375 3.15625 -1.453125 4.234375 -1.453125 C 5.28125 -1.453125 6 -2.34375 6 -3.75 Z M 6 -3.75 "/>
</g>
<g id="glyph-5-5-505e00e5">
<path d="M 7.640625 0 C 7.640625 0 5.6875 0 5.6875 0 C 5.6875 0 5.6875 -4.65625 5.6875 -4.65625 C 5.6875 -5.5625 5.265625 -6.015625 4.421875 -6.015625 C 3.46875 -6.015625 2.84375 -5.4375 2.84375 -4.53125 C 2.84375 -4.53125 2.84375 0 2.84375 0 C 2.84375 0 0.875 0 0.875 0 C 0.875 0 0.875 -7.5625 0.875 -7.5625 C 0.875 -7.5625 2.84375 -7.5625 2.84375 -7.5625 C 2.84375 -7.5625 2.84375 -6.46875 2.84375 -6.46875 C 3.40625 -7.3125 4.09375 -7.6875 5.109375 -7.6875 C 6.71875 -7.6875 7.640625 -6.734375 7.640625 -5.0625 C 7.640625 -5.0625 7.640625 0 7.640625 0 Z M 7.640625 0 "/>
</g>
<g id="glyph-5-6-505e00e5">
<path d="M 2.890625 0 C 2.890625 0 0.9375 0 0.9375 0 C 0.9375 0 0.9375 -7.5625 0.9375 -7.5625 C 0.9375 -7.5625 2.890625 -7.5625 2.890625 -7.5625 C 2.890625 -7.5625 2.890625 0 2.890625 0 Z M 2.921875 -8.46875 C 2.921875 -8.46875 0.96875 -8.46875 0.96875 -8.46875 C 0.96875 -8.46875 0.96875 -10.4375 0.96875 -10.4375 C 0.96875 -10.4375 2.921875 -10.4375 2.921875 -10.4375 C 2.921875 -10.4375 2.921875 -8.46875 2.921875 -8.46875 Z M 2.921875 -8.46875 "/>
</g>
<g id="glyph-5-7-505e00e5">
<path d="M 7.3125 -2.625 C 7.125 -1.015625 5.859375 0.125 4.015625 0.125 C 1.78125 0.125 0.46875 -1.234375 0.46875 -3.71875 C 0.46875 -6.296875 1.796875 -7.6875 4.046875 -7.6875 C 5.9375 -7.6875 7.171875 -6.578125 7.3125 -4.734375 C 7.3125 -4.734375 5.4375 -4.734375 5.4375 -4.734375 C 5.203125 -5.71875 4.828125 -6.109375 4.03125 -6.109375 C 2.796875 -6.109375 2.4375 -5.109375 2.4375 -3.71875 C 2.4375 -2.25 3.03125 -1.453125 4.03125 -1.453125 C 4.78125 -1.453125 5.1875 -1.828125 5.4375 -2.625 C 5.4375 -2.625 7.3125 -2.625 7.3125 -2.625 Z M 7.3125 -2.625 "/>
</g>
<g id="glyph-5-8-505e00e5">
</g>
<g id="glyph-5-9-505e00e5">
<path d="M 7.28125 -2.234375 C 7.28125 -0.71875 6.109375 0.125 3.96875 0.125 C 1.6875 0.125 0.46875 -0.734375 0.40625 -2.390625 C 0.40625 -2.390625 2.328125 -2.390625 2.328125 -2.390625 C 2.484375 -1.578125 2.96875 -1.40625 3.859375 -1.40625 C 4.78125 -1.40625 5.3125 -1.59375 5.3125 -2.0625 C 5.3125 -2.265625 5.15625 -2.421875 4.65625 -2.578125 C 4.65625 -2.578125 2.328125 -3.296875 2.328125 -3.296875 C 0.921875 -3.734375 0.671875 -4.234375 0.671875 -5.171875 C 0.671875 -6.71875 1.859375 -7.6875 3.78125 -7.6875 C 5.8125 -7.6875 7.046875 -6.71875 7.0625 -5.125 C 7.0625 -5.125 5.1875 -5.125 5.1875 -5.125 C 5.171875 -5.8125 4.703125 -6.140625 3.765625 -6.140625 C 3.078125 -6.140625 2.625 -5.859375 2.625 -5.453125 C 2.625 -5.140625 2.765625 -5.015625 3.3125 -4.859375 C 3.3125 -4.859375 5.796875 -4.140625 5.796875 -4.140625 C 6.796875 -3.84375 7.28125 -3.203125 7.28125 -2.34375 C 7.28125 -2.34375 7.28125 -2.234375 7.28125 -2.234375 Z M 7.28125 -2.234375 "/>
</g>
<g id="glyph-5-10-505e00e5">
<path d="M 2.890625 0 C 2.890625 0 0.9375 0 0.9375 0 C 0.9375 0 0.9375 -10.203125 0.9375 -10.203125 C 0.9375 -10.203125 2.890625 -10.203125 2.890625 -10.203125 C 2.890625 -10.203125 2.890625 0 2.890625 0 Z M 2.890625 0 "/>
</g>
<g id="glyph-5-11-505e00e5">
<path d="M 4.21875 0 C 3.859375 0.015625 3.515625 0.0625 3.078125 0.0625 C 1.796875 0.0625 1.15625 -0.4375 1.15625 -1.625 C 1.15625 -1.625 1.15625 -6.109375 1.15625 -6.109375 C 1.15625 -6.109375 0.203125 -6.109375 0.203125 -6.109375 C 0.203125 -6.109375 0.203125 -7.40625 0.203125 -7.40625 C 0.203125 -7.40625 1.15625 -7.40625 1.15625 -7.40625 C 1.15625 -7.40625 1.15625 -9.4375 1.15625 -9.4375 C 1.15625 -9.4375 3.125 -9.4375 3.125 -9.4375 C 3.125 -9.4375 3.125 -7.40625 3.125 -7.40625 C 3.125 -7.40625 4.21875 -7.40625 4.21875 -7.40625 C 4.21875 -7.40625 4.21875 -6.109375 4.21875 -6.109375 C 4.21875 -6.109375 3.125 -6.109375 3.125 -6.109375 C 3.125 -6.109375 3.125 -2.15625 3.125 -2.15625 C 3.125 -1.484375 3.25 -1.328125 3.765625 -1.328125 C 3.90625 -1.328125 4.015625 -1.34375 4.21875 -1.375 C 4.21875 -1.375 4.21875 0 4.21875 0 Z M 4.21875 0 "/>
</g>
<g id="glyph-5-12-505e00e5">
<path d="M 2.9375 1.3125 C 2.9375 2.546875 2.4375 3.046875 1.21875 3.046875 C 0.9375 3.046875 0.453125 3.03125 0.0625 2.984375 C 0.0625 2.984375 0.0625 1.40625 0.0625 1.40625 C 0.203125 1.453125 0.28125 1.46875 0.40625 1.46875 C 0.828125 1.46875 0.984375 1.3125 0.984375 0.875 C 0.984375 0.875 0.984375 -7.5625 0.984375 -7.5625 C 0.984375 -7.5625 2.9375 -7.5625 2.9375 -7.5625 C 2.9375 -7.5625 2.9375 1.3125 2.9375 1.3125 Z M 2.9375 -8.46875 C 2.9375 -8.46875 0.984375 -8.46875 0.984375 -8.46875 C 0.984375 -8.46875 0.984375 -10.4375 0.984375 -10.4375 C 0.984375 -10.4375 2.9375 -10.4375 2.9375 -10.4375 C 2.9375 -10.4375 2.9375 -8.46875 2.9375 -8.46875 Z M 2.9375 -8.46875 "/>
</g>
<g id="glyph-5-13-505e00e5">
<path d="M 7.34375 -3.5 C 7.34375 -3.5 7.34375 -3.265625 7.34375 -3.265625 C 7.34375 -3.265625 2.265625 -3.265625 2.265625 -3.265625 C 2.328125 -1.796875 2.90625 -1.375 3.84375 -1.375 C 4.546875 -1.375 5.171875 -1.578125 5.328125 -2.125 C 5.328125 -2.125 7.265625 -2.125 7.265625 -2.125 C 6.828125 -0.640625 5.453125 0.125 3.765625 0.125 C 1.625 0.125 0.3125 -1.265625 0.3125 -3.6875 C 0.3125 -6.21875 1.640625 -7.6875 3.8125 -7.6875 C 6.03125 -7.6875 7.34375 -6.109375 7.34375 -3.5 Z M 5.3125 -4.5625 C 5.203125 -5.640625 4.625 -6.1875 3.78125 -6.1875 C 2.90625 -6.1875 2.421875 -5.609375 2.296875 -4.5625 C 2.296875 -4.5625 5.3125 -4.5625 5.3125 -4.5625 Z M 5.3125 -4.5625 "/>
</g>
<g id="glyph-5-14-505e00e5">
<path d="M 7.53125 -7.5625 C 7.53125 -7.5625 4.421875 1.390625 4.421875 1.390625 C 3.90625 2.828125 3.21875 3.0625 1.90625 3.0625 C 1.671875 3.0625 1.5 3.046875 1.203125 3.015625 C 1.203125 3.015625 1.203125 1.546875 1.203125 1.546875 C 1.453125 1.609375 1.5625 1.625 1.71875 1.625 C 2.40625 1.625 2.9375 1.078125 2.9375 0.359375 C 2.9375 0.359375 2.9375 0.328125 2.9375 0.328125 C 2.9375 0.328125 0.125 -7.5625 0.125 -7.5625 C 0.125 -7.5625 2.28125 -7.5625 2.28125 -7.5625 C 2.28125 -7.5625 3.953125 -2.0625 3.953125 -2.0625 C 3.953125 -2.0625 5.515625 -7.5625 5.515625 -7.5625 C 5.515625 -7.5625 7.53125 -7.5625 7.53125 -7.5625 Z M 7.53125 -7.5625 "/>
</g>
<g id="glyph-6-0-505e00e5">
<path d="M 7.96875 -3.71875 C 7.96875 -1.296875 6.53125 0.125 4.234375 0.125 C 1.90625 0.125 0.484375 -1.28125 0.484375 -3.78125 C 0.484375 -6.265625 1.90625 -7.6875 4.21875 -7.6875 C 6.578125 -7.6875 7.96875 -6.28125 7.96875 -3.71875 Z M 6 -3.75 C 6 -5.234375 5.3125 -6.109375 4.234375 -6.109375 C 3.15625 -6.109375 2.453125 -5.21875 2.453125 -3.78125 C 2.453125 -2.34375 3.15625 -1.453125 4.234375 -1.453125 C 5.28125 -1.453125 6 -2.34375 6 -3.75 Z M 6 -3.75 "/>
</g>
</g>
</defs>
<rect x="-50" y="-50" width="600" height="600" fill="rgb(100%, 100%, 100%)" fill-opacity="1"/>
<path fill-rule="nonzero" fill="rgb(100%, 100%, 100%)" fill-opacity="1" d="M 76 441 L 482 441 L 482 36 L 76 36 Z M 76 441 "/>
<path fill="none" stroke-width="1" stroke-linecap="butt" stroke-linejoin="miter" stroke="rgb(0%, 0%, 0%)" stroke-opacity="0.12" stroke-miterlimit="1.154701" d="M 168.269531 441 L 168.269531 36 "/>
<path fill="none" stroke-width="1" stroke-linecap="butt" stroke-linejoin="miter" stroke="rgb(0%, 0%, 0%)" stroke-opacity="0.12" stroke-miterlimit="1.154701" d="M 279 441 L 279 36 "/>
<path fill="none" stroke-width="1" stroke-linecap="butt" stroke-linejoin="miter" stroke="rgb(0%, 0%, 0%)" stroke-opacity="0.12" stroke-miterlimit="1.154701" d="M 389.726562 441 L 389.726562 36 "/>
<path fill="none" stroke-width="1" stroke-linecap="butt" stroke-linejoin="miter" stroke="rgb(0%, 0%, 0%)" stroke-opacity="0.12" stroke-miterlimit="1.154701" d="M 76 342.652344 L 482 342.652344 "/>
<path fill="none" stroke-width="1" stroke-linecap="butt" stroke-linejoin="miter" stroke="rgb(0%, 0%, 0%)" stroke-opacity="0.12" stroke-miterlimit="1.154701" d="M 76 238.503906 L 482 238.503906 "/>
<path fill="none" stroke-width="1" stroke-linecap="butt" stroke-linejoin="miter" stroke="rgb(0%, 0%, 0%)" stroke-opacity="0.12" stroke-miterlimit="1.154701" d="M 76 134.359375 L 482 134.359375 "/>
<g fill="rgb(0%, 0%, 0%)" fill-opacity="1">
<use xlink:href="#glyph-0-0-505e00e5" x="275.108013" y="481.567999"/>
</g>
<g fill="rgb(0%, 0%, 0%)" fill-opacity="1">
<use xlink:href="#glyph-0-1-505e00e5" x="154.453095" y="462.257999"/>
<use xlink:href="#glyph-0-2-505e00e5" x="162.629095" y="462.257999"/>
<use xlink:href="#glyph-0-3-505e00e5" x="170.413095" y="462.257999"/>
<use xlink:href="#glyph-0-4-505e00e5" x="174.305095" y="462.257999"/>
</g>
<g fill="rgb(0%, 0%, 0%)" fill-opacity="1">
<use xlink:href="#glyph-0-2-505e00e5" x="269.269006" y="462.257999"/>
<use xlink:href="#glyph-0-3-505e00e5" x="277.053006" y="462.257999"/>
<use xlink:href="#glyph-0-2-505e00e5" x="280.945006" y="462.257999"/>
</g>
<g fill="rgb(0%, 0%, 0%)" fill-opacity="1">
<use xlink:href="#glyph-0-2-505e00e5" x="379.996886" y="462.257999"/>
<use xlink:href="#glyph-0-3-505e00e5" x="387.780886" y="462.257999"/>
<use xlink:href="#glyph-0-4-505e00e5" x="391.672886" y="462.257999"/>
</g>
<g fill="rgb(0%, 0%, 0%)" fill-opacity="1">
<use xlink:href="#glyph-1-0-505e00e5" x="30.312" y="242.391987"/>
</g>
<g fill="rgb(0%, 0%, 0%)" fill-opacity="1">
<use xlink:href="#glyph-0-1-505e00e5" x="38.364002" y="347.755199"/>
<use xlink:href="#glyph-0-2-505e00e5" x="46.540003" y="347.755199"/>
<use xlink:href="#glyph-0-3-505e00e5" x="54.324002" y="347.755199"/>
<use xlink:href="#glyph-0-5-505e00e5" x="58.216002" y="347.755199"/>
</g>
<g fill="rgb(0%, 0%, 0%)" fill-opacity="1">
<use xlink:href="#glyph-2-0-505e00e5" x="46.540003" y="243.608603"/>
<use xlink:href="#glyph-2-1-505e00e5" x="54.324004" y="243.608603"/>
</g>
<g fill="rgb(0%, 0%, 0%)" fill-opacity="1">
<use xlink:href="#glyph-3-0-505e00e5" x="58.216003" y="243.608603"/>
</g>
<g fill="rgb(0%, 0%, 0%)" fill-opacity="1">
<use xlink:href="#glyph-0-2-505e00e5" x="46.540003" y="139.462022"/>
<use xlink:href="#glyph-0-3-505e00e5" x="54.324004" y="139.462022"/>
</g>
<g fill="rgb(0%, 0%, 0%)" fill-opacity="1">
<use xlink:href="#glyph-4-0-505e00e5" x="58.216003" y="139.462022"/>
</g>
<g fill="rgb(0%, 0%, 0%)" fill-opacity="1">
<use xlink:href="#glyph-5-0-505e00e5" x="179.803018" y="28.947978"/>
<use xlink:href="#glyph-5-1-505e00e5" x="189.91102" y="28.947978"/>
<use xlink:href="#glyph-5-2-505e00e5" x="197.695017" y="28.947978"/>
<use xlink:href="#glyph-5-3-505e00e5" x="203.141016" y="28.947978"/>
<use xlink:href="#glyph-5-4-505e00e5" x="215.58702" y="28.947978"/>
<use xlink:href="#glyph-5-5-505e00e5" x="224.141021" y="28.947978"/>
<use xlink:href="#glyph-5-6-505e00e5" x="232.695022" y="28.947978"/>
<use xlink:href="#glyph-5-7-505e00e5" x="236.587021" y="28.947978"/>
<use xlink:href="#glyph-5-8-505e00e5" x="244.371021" y="28.947978"/>
</g>
<g fill="rgb(0%, 0%, 0%)" fill-opacity="1">
<use xlink:href="#glyph-6-0-505e00e5" x="248.26302" y="28.947978"/>
</g>
<g fill="rgb(0%, 0%, 0%)" fill-opacity="1">
<use xlink:href="#glyph-5-9-505e00e5" x="256.817021" y="28.947978"/>
<use xlink:href="#glyph-5-7-505e00e5" x="264.601018" y="28.947978"/>
<use xlink:href="#glyph-5-6-505e00e5" x="272.385015" y="28.947978"/>
<use xlink:href="#glyph-5-10-505e00e5" x="276.277014" y="28.947978"/>
<use xlink:href="#glyph-5-10-505e00e5" x="280.169012" y="28.947978"/>
<use xlink:href="#glyph-5-1-505e00e5" x="284.061011" y="28.947978"/>
<use xlink:href="#glyph-5-11-505e00e5" x="291.845007" y="28.947978"/>
<use xlink:href="#glyph-5-4-505e00e5" x="296.50701" y="28.947978"/>
<use xlink:href="#glyph-5-2-505e00e5" x="305.061011" y="28.947978"/>
<use xlink:href="#glyph-5-8-505e00e5" x="310.507019" y="28.947978"/>
<use xlink:href="#glyph-5-11-505e00e5" x="314.399017" y="28.947978"/>
<use xlink:href="#glyph-5-2-505e00e5" x="319.06102" y="28.947978"/>
<use xlink:href="#glyph-5-1-505e00e5" x="324.507019" y="28.947978"/>
<use xlink:href="#glyph-5-12-505e00e5" x="332.291016" y="28.947978"/>
<use xlink:href="#glyph-5-13-505e00e5" x="336.183015" y="28.947978"/>
<use xlink:href="#glyph-5-7-505e00e5" x="343.967012" y="28.947978"/>
<use xlink:href="#glyph-5-11-505e00e5" x="351.751009" y="28.947978"/>
<use xlink:href="#glyph-5-4-505e00e5" x="356.413011" y="28.947978"/>
<use xlink:href="#glyph-5-2-505e00e5" x="364.967013" y="28.947978"/>
<use xlink:href="#glyph-5-14-505e00e5" x="370.413012" y="28.947978"/>
</g>
<path fill="none" stroke-width="1.5" stroke-linecap="butt" stroke-linejoin="miter" stroke="rgb(0%, 44.705883%, 69.803923%)" stroke-opacity="1" stroke-miterlimit="2" d="M 463.546875 238.503906 L 463.429688 245.011719 L 463.085938 251.511719 L 462.507812 257.996094 L 461.703125 264.453125 L 460.671875 270.878906 L 459.410156 277.265625 L 457.921875 283.601562 L 456.214844 289.882812 L 454.285156 296.097656 L 452.132812 302.242188 L 449.765625 308.308594 L 447.1875 314.285156 L 444.398438 320.167969 L 441.402344 325.949219 L 438.203125 331.621094 L 434.804688 337.175781 L 431.210938 342.609375 L 427.425781 347.910156 L 423.457031 353.074219 L 419.308594 358.097656 L 414.984375 362.96875 L 410.488281 367.6875 L 405.832031 372.242188 L 401.011719 376.632812 L 396.042969 380.847656 L 390.925781 384.886719 L 385.671875 388.742188 L 380.28125 392.410156 L 374.765625 395.882812 L 369.128906 399.160156 L 363.382812 402.238281 L 357.527344 405.113281 L 351.578125 407.777344 L 345.535156 410.230469 L 339.410156 412.46875 L 333.207031 414.492188 L 326.9375 416.292969 L 320.609375 417.871094 L 314.230469 419.226562 L 307.804688 420.355469 L 301.34375 421.257812 L 294.855469 421.933594 L 288.347656 422.375 L 281.828125 422.589844 L 275.304688 422.574219 L 268.785156 422.332031 L 262.277344 421.855469 L 255.792969 421.152344 L 249.335938 420.21875 L 242.917969 419.058594 L 236.542969 417.675781 L 230.222656 416.066406 L 223.960938 414.234375 L 217.769531 412.183594 L 211.65625 409.917969 L 205.625 407.433594 L 199.683594 404.742188 L 193.84375 401.839844 L 188.109375 398.738281 L 182.492188 395.433594 L 176.992188 391.929688 L 171.621094 388.238281 L 166.382812 384.359375 L 161.285156 380.296875 L 156.335938 376.058594 L 151.539062 371.648438 L 146.902344 367.070312 L 142.429688 362.332031 L 138.128906 357.4375 L 134 352.398438 L 130.058594 347.210938 L 126.300781 341.894531 L 122.730469 336.445312 L 119.359375 330.875 L 116.1875 325.1875 L 113.21875 319.390625 L 110.457031 313.496094 L 107.902344 307.507812 L 105.566406 301.429688 L 103.445312 295.273438 L 101.542969 289.050781 L 99.863281 282.761719 L 98.40625 276.417969 L 97.175781 270.027344 L 96.175781 263.59375 L 95.398438 257.132812 L 94.855469 250.648438 L 94.539062 244.148438 L 94.453125 237.640625 L 94.601562 231.132812 L 94.976562 224.636719 L 95.582031 218.15625 L 96.417969 211.699219 L 97.484375 205.28125 L 98.773438 198.902344 L 100.289062 192.570312 L 102.027344 186.296875 L 103.988281 180.089844 L 106.167969 173.957031 L 108.5625 167.902344 L 111.167969 161.9375 L 113.988281 156.066406 L 117.011719 150.300781 L 120.238281 144.644531 L 123.664062 139.105469 L 127.28125 133.6875 L 131.089844 128.40625 L 135.082031 123.257812 L 139.253906 118.257812 L 143.601562 113.402344 L 148.121094 108.707031 L 152.800781 104.175781 L 157.636719 99.808594 L 162.628906 95.617188 L 167.761719 91.601562 L 173.035156 87.769531 L 178.445312 84.128906 L 183.976562 80.679688 L 189.625 77.429688 L 195.390625 74.378906 L 201.257812 71.53125 L 207.21875 68.894531 L 213.273438 66.46875 L 219.410156 64.261719 L 225.621094 62.269531 L 231.898438 60.496094 L 238.234375 58.945312 L 244.621094 57.621094 L 251.050781 56.523438 L 257.515625 55.648438 L 264.007812 55.007812 L 270.519531 54.59375 L 277.039062 54.410156 L 283.5625 54.453125 L 290.082031 54.730469 L 296.585938 55.238281 L 303.066406 55.972656 L 309.519531 56.933594 L 315.933594 58.125 L 322.300781 59.539062 L 328.613281 61.175781 L 334.863281 63.039062 L 341.046875 65.117188 L 347.152344 67.414062 L 353.171875 69.921875 L 359.097656 72.644531 L 364.921875 75.570312 L 370.640625 78.703125 L 376.246094 82.035156 L 381.730469 85.558594 L 387.082031 89.277344 L 392.300781 93.183594 L 397.378906 97.269531 L 402.308594 101.53125 L 407.085938 105.964844 L 411.703125 110.5625 L 416.152344 115.324219 L 420.429688 120.234375 L 424.53125 125.296875 L 428.453125 130.5 L 432.183594 135.835938 L 435.726562 141.300781 L 439.074219 146.886719 L 442.21875 152.589844 L 445.160156 158.398438 L 447.894531 164.308594 L 450.417969 170.308594 L 452.726562 176.394531 L 454.820312 182.558594 L 456.691406 188.792969 L 458.339844 195.089844 L 459.765625 201.441406 L 460.96875 207.839844 L 461.941406 214.273438 L 462.683594 220.742188 L 463.199219 227.226562 L 463.484375 233.730469 L 463.539062 240.238281 L 463.359375 246.742188 L 462.953125 253.238281 L 462.316406 259.714844 L 461.449219 266.167969 L 460.355469 272.582031 L 459.035156 278.957031 L 457.492188 285.277344 L 455.722656 291.542969 L 453.730469 297.742188 L 451.523438 303.867188 L 449.101562 309.90625 L 446.464844 315.859375 L 443.621094 321.71875 L 440.570312 327.46875 L 437.316406 333.113281 L 433.867188 338.636719 L 430.222656 344.03125 L 426.386719 349.300781 L 422.371094 354.425781 L 418.175781 359.410156 L 413.804688 364.242188 L 409.265625 368.917969 "/>
<path fill="none" stroke-width="1" stroke-linecap="butt" stroke-linejoin="miter" stroke="rgb(0%, 0%, 0%)" stroke-opacity="1" stroke-miterlimit="1.154701" d="M 168.269531 441.5 L 168.269531 446.5 "/>
<path fill="none" stroke-width="1" stroke-linecap="butt" stroke-linejoin="miter" stroke="rgb(0%, 0%, 0%)" stroke-opacity="1" stroke-miterlimit="1.154701" d="M 279 441.5 L 279 446.5 "/>
<path fill="none" stroke-width="1" stroke-linecap="butt" stroke-linejoin="miter" stroke="rgb(0%, 0%, 0%)" stroke-opacity="1" stroke-miterlimit="1.154701" d="M 389.726562 441.5 L 389.726562 446.5 "/>
<path fill="none" stroke-width="1" stroke-linecap="butt" stroke-linejoin="miter" stroke="rgb(0%, 0%, 0%)" stroke-opacity="1" stroke-miterlimit="1.154701" d="M 75.5 342.652344 L 70.5 342.652344 "/>
<path fill="none" stroke-width="1" stroke-linecap="butt" stroke-linejoin="miter" stroke="rgb(0%, 0%, 0%)" stroke-opacity="1" stroke-miterlimit="1.154701" d="M 75.5 238.503906 L 70.5 238.503906 "/>
<path fill="none" stroke-width="1" stroke-linecap="butt" stroke-linejoin="miter" stroke="rgb(0%, 0%, 0%)" stroke-opacity="1" stroke-miterlimit="1.154701" d="M 75.5 134.359375 L 70.5 134.359375 "/>
<path fill="none" stroke-width="1" stroke-linecap="butt" stroke-linejoin="miter" stroke="rgb(0%, 0%, 0%)" stroke-opacity="1" stroke-miterlimit="1.154701" d="M 75.5 441 L 482.5 441 "/>
<path fill="none" stroke-width="1" stroke-linecap="butt" stroke-linejoin="miter" stroke="rgb(0%, 0%, 0%)" stroke-opacity="1" stroke-miterlimit="1.154701" d="M 76 441.5 L 76 35.5 "/>
<path fill="none" stroke-width="1" stroke-linecap="butt" stroke-linejoin="miter" stroke="rgb(0%, 0%, 0%)" stroke-opacity="1" stroke-miterlimit="1.154701" d="M 75.5 36 L 482.5 36 "/>
<path fill="none" stroke-width="1" stroke-linecap="butt" stroke-linejoin="miter" stroke="rgb(0%, 0%, 0%)" stroke-opacity="1" stroke-miterlimit="1.154701" d="M 482 441.5 L 482 35.5 "/>
</svg>
