<?xml version="1.0" encoding="utf-8"?>
<svg xmlns="http://www.w3.org/2000/svg" xmlns:xlink="http://www.w3.org/1999/xlink" width="600" height="400" viewBox="0 0 2400 1600">
<defs>
  <clipPath id="clip480">
    <rect x="0" y="0" width="2400" height="1600"/>
  </clipPath>
</defs>
<path clip-path="url(#clip480)" d="M0 1600 L2400 1600 L2400 0 L0 0  Z" fill="#ffffff" fill-rule="evenodd" fill-opacity="1"/>
<defs>
  <clipPath id="clip481">
    <rect x="480" y="0" width="1681" height="1600"/>
  </clipPath>
</defs>
<path clip-path="url(#clip480)" d="M186.274 1486.45 L2352.76 1486.45 L2352.76 47.2441 L186.274 47.2441  Z" fill="#ffffff" fill-rule="evenodd" fill-opacity="1"/>
<defs>
  <clipPath id="clip482">
    <rect x="186" y="47" width="2167" height="1440"/>
  </clipPath>
</defs>
<polyline clip-path="url(#clip482)" style="stroke:#000000; stroke-linecap:round; stroke-linejoin:round; stroke-width:2; stroke-opacity:0.1; fill:none" points="237.319,1486.45 237.319,47.2441 "/>
<polyline clip-path="url(#clip482)" style="stroke:#000000; stroke-linecap:round; stroke-linejoin:round; stroke-width:2; stroke-opacity:0.1; fill:none" points="750.849,1486.45 750.849,47.2441 "/>
<polyline clip-path="url(#clip482)" style="stroke:#000000; stroke-linecap:round; stroke-linejoin:round; stroke-width:2; stroke-opacity:0.1; fill:none" points="1264.38,1486.45 1264.38,47.2441 "/>
<polyline clip-path="url(#clip482)" style="stroke:#000000; stroke-linecap:round; stroke-linejoin:round; stroke-width:2; stroke-opacity:0.1; fill:none" points="1777.91,1486.45 1777.91,47.2441 "/>
<polyline clip-path="url(#clip482)" style="stroke:#000000; stroke-linecap:round; stroke-linejoin:round; stroke-width:2; stroke-opacity:0.1; fill:none" points="2291.44,1486.45 2291.44,47.2441 "/>
<polyline clip-path="url(#clip480)" style="stroke:#000000; stroke-linecap:round; stroke-linejoin:round; stroke-width:4; stroke-opacity:1; fill:none" points="186.274,1486.45 2352.76,1486.45 "/>
<polyline clip-path="url(#clip480)" style="stroke:#000000; stroke-linecap:round; stroke-linejoin:round; stroke-width:4; stroke-opacity:1; fill:none" points="237.319,1486.45 237.319,1467.55 "/>
<polyline clip-path="url(#clip480)" style="stroke:#000000; stroke-linecap:round; stroke-linejoin:round; stroke-width:4; stroke-opacity:1; fill:none" points="750.849,1486.45 750.849,1467.55 "/>
<polyline clip-path="url(#clip480)" style="stroke:#000000; stroke-linecap:round; stroke-linejoin:round; stroke-width:4; stroke-opacity:1; fill:none" points="1264.38,1486.45 1264.38,1467.55 "/>
<polyline clip-path="url(#clip480)" style="stroke:#000000; stroke-linecap:round; stroke-linejoin:round; stroke-width:4; stroke-opacity:1; fill:none" points="1777.91,1486.45 1777.91,1467.55 "/>
<polyline clip-path="url(#clip480)" style="stroke:#000000; stroke-linecap:round; stroke-linejoin:round; stroke-width:4; stroke-opacity:1; fill:none" points="2291.44,1486.45 2291.44,1467.55 "/>
<path clip-path="url(#clip480)" d="M237.319 1517.37 Q233.708 1517.37 231.879 1520.93 Q230.074 1524.47 230.074 1531.6 Q230.074 1538.71 231.879 1542.27 Q233.708 1545.82 237.319 1545.82 Q240.953 1545.82 242.759 1542.27 Q244.587 1538.71 244.587 1531.6 Q244.587 1524.47 242.759 1520.93 Q240.953 1517.37 237.319 1517.37 M237.319 1513.66 Q243.129 1513.66 246.185 1518.27 Q249.263 1522.85 249.263 1531.6 Q249.263 1540.33 246.185 1544.94 Q243.129 1549.52 237.319 1549.52 Q231.509 1549.52 228.43 1544.94 Q225.375 1540.33 225.375 1531.6 Q225.375 1522.85 228.43 1518.27 Q231.509 1513.66 237.319 1513.66 Z" fill="#000000" fill-rule="nonzero" fill-opacity="1" /><path clip-path="url(#clip480)" d="M725.548 1514.29 L743.905 1514.29 L743.905 1518.22 L729.831 1518.22 L729.831 1526.7 Q730.849 1526.35 731.868 1526.19 Q732.886 1526 733.905 1526 Q739.692 1526 743.072 1529.17 Q746.451 1532.34 746.451 1537.76 Q746.451 1543.34 742.979 1546.44 Q739.507 1549.52 733.187 1549.52 Q731.011 1549.52 728.743 1549.15 Q726.498 1548.78 724.09 1548.04 L724.09 1543.34 Q726.173 1544.47 728.396 1545.03 Q730.618 1545.58 733.095 1545.58 Q737.099 1545.58 739.437 1543.48 Q741.775 1541.37 741.775 1537.76 Q741.775 1534.15 739.437 1532.04 Q737.099 1529.94 733.095 1529.94 Q731.22 1529.94 729.345 1530.35 Q727.493 1530.77 725.548 1531.65 L725.548 1514.29 Z" fill="#000000" fill-rule="nonzero" fill-opacity="1" /><path clip-path="url(#clip480)" d="M765.664 1517.37 Q762.053 1517.37 760.224 1520.93 Q758.419 1524.47 758.419 1531.6 Q758.419 1538.71 760.224 1542.27 Q762.053 1545.82 765.664 1545.82 Q769.298 1545.82 771.104 1542.27 Q772.932 1538.71 772.932 1531.6 Q772.932 1524.47 771.104 1520.93 Q769.298 1517.37 765.664 1517.37 M765.664 1513.66 Q771.474 1513.66 774.53 1518.27 Q777.608 1522.85 777.608 1531.6 Q777.608 1540.33 774.53 1544.94 Q771.474 1549.52 765.664 1549.52 Q759.854 1549.52 756.775 1544.94 Q753.72 1540.33 753.72 1531.6 Q753.72 1522.85 756.775 1518.27 Q759.854 1513.66 765.664 1513.66 Z" fill="#000000" fill-rule="nonzero" fill-opacity="1" /><path clip-path="url(#clip480)" d="M1223.99 1544.91 L1231.63 1544.91 L1231.63 1518.55 L1223.32 1520.21 L1223.32 1515.95 L1231.58 1514.29 L1236.25 1514.29 L1236.25 1544.91 L1243.89 1544.91 L1243.89 1548.85 L1223.99 1548.85 L1223.99 1544.91 Z" fill="#000000" fill-rule="nonzero" fill-opacity="1" /><path clip-path="url(#clip480)" d="M1263.34 1517.37 Q1259.73 1517.37 1257.9 1520.93 Q1256.09 1524.47 1256.09 1531.6 Q1256.09 1538.71 1257.9 1542.27 Q1259.73 1545.82 1263.34 1545.82 Q1266.97 1545.82 1268.78 1542.27 Q1270.61 1538.71 1270.61 1531.6 Q1270.61 1524.47 1268.78 1520.93 Q1266.97 1517.37 1263.34 1517.37 M1263.34 1513.66 Q1269.15 1513.66 1272.2 1518.27 Q1275.28 1522.85 1275.28 1531.6 Q1275.28 1540.33 1272.2 1544.94 Q1269.15 1549.52 1263.34 1549.52 Q1257.53 1549.52 1254.45 1544.94 Q1251.39 1540.33 1251.39 1531.6 Q1251.39 1522.85 1254.45 1518.27 Q1257.53 1513.66 1263.34 1513.66 Z" fill="#000000" fill-rule="nonzero" fill-opacity="1" /><path clip-path="url(#clip480)" d="M1293.5 1517.37 Q1289.89 1517.37 1288.06 1520.93 Q1286.25 1524.47 1286.25 1531.6 Q1286.25 1538.71 1288.06 1542.27 Q1289.89 1545.82 1293.5 1545.82 Q1297.13 1545.82 1298.94 1542.27 Q1300.77 1538.71 1300.77 1531.6 Q1300.77 1524.47 1298.94 1520.93 Q1297.13 1517.37 1293.5 1517.37 M1293.5 1513.66 Q1299.31 1513.66 1302.37 1518.27 Q1305.44 1522.85 1305.44 1531.6 Q1305.44 1540.33 1302.37 1544.94 Q1299.31 1549.52 1293.5 1549.52 Q1287.69 1549.52 1284.61 1544.94 Q1281.56 1540.33 1281.56 1531.6 Q1281.56 1522.85 1284.61 1518.27 Q1287.69 1513.66 1293.5 1513.66 Z" fill="#000000" fill-rule="nonzero" fill-opacity="1" /><path clip-path="url(#clip480)" d="M1737.52 1544.91 L1745.16 1544.91 L1745.16 1518.55 L1736.85 1520.21 L1736.85 1515.95 L1745.11 1514.29 L1749.79 1514.29 L1749.79 1544.91 L1757.42 1544.91 L1757.42 1548.85 L1737.52 1548.85 L1737.52 1544.91 Z" fill="#000000" fill-rule="nonzero" fill-opacity="1" /><path clip-path="url(#clip480)" d="M1766.91 1514.29 L1785.27 1514.29 L1785.27 1518.22 L1771.2 1518.22 L1771.2 1526.7 Q1772.22 1526.35 1773.23 1526.19 Q1774.25 1526 1775.27 1526 Q1781.06 1526 1784.44 1529.17 Q1787.82 1532.34 1787.82 1537.76 Q1787.82 1543.34 1784.35 1546.44 Q1780.87 1549.52 1774.55 1549.52 Q1772.38 1549.52 1770.11 1549.15 Q1767.86 1548.78 1765.46 1548.04 L1765.46 1543.34 Q1767.54 1544.47 1769.76 1545.03 Q1771.98 1545.58 1774.46 1545.58 Q1778.47 1545.58 1780.8 1543.48 Q1783.14 1541.37 1783.14 1537.76 Q1783.14 1534.15 1780.8 1532.04 Q1778.47 1529.94 1774.46 1529.94 Q1772.59 1529.94 1770.71 1530.35 Q1768.86 1530.77 1766.91 1531.65 L1766.91 1514.29 Z" fill="#000000" fill-rule="nonzero" fill-opacity="1" /><path clip-path="url(#clip480)" d="M1807.03 1517.37 Q1803.42 1517.37 1801.59 1520.93 Q1799.78 1524.47 1799.78 1531.6 Q1799.78 1538.71 1801.59 1542.27 Q1803.42 1545.82 1807.03 1545.82 Q1810.66 1545.82 1812.47 1542.27 Q1814.3 1538.71 1814.3 1531.6 Q1814.3 1524.47 1812.47 1520.93 Q1810.66 1517.37 1807.03 1517.37 M1807.03 1513.66 Q1812.84 1513.66 1815.9 1518.27 Q1818.97 1522.85 1818.97 1531.6 Q1818.97 1540.33 1815.9 1544.94 Q1812.84 1549.52 1807.03 1549.52 Q1801.22 1549.52 1798.14 1544.94 Q1795.09 1540.33 1795.09 1531.6 Q1795.09 1522.85 1798.14 1518.27 Q1801.22 1513.66 1807.03 1513.66 Z" fill="#000000" fill-rule="nonzero" fill-opacity="1" /><path clip-path="url(#clip480)" d="M2255.13 1544.91 L2271.45 1544.91 L2271.45 1548.85 L2249.51 1548.85 L2249.51 1544.91 Q2252.17 1542.16 2256.75 1537.53 Q2261.36 1532.88 2262.54 1531.53 Q2264.79 1529.01 2265.67 1527.27 Q2266.57 1525.51 2266.57 1523.82 Q2266.57 1521.07 2264.62 1519.33 Q2262.7 1517.6 2259.6 1517.6 Q2257.4 1517.6 2254.95 1518.36 Q2252.52 1519.13 2249.74 1520.68 L2249.74 1515.95 Q2252.56 1514.82 2255.02 1514.24 Q2257.47 1513.66 2259.51 1513.66 Q2264.88 1513.66 2268.07 1516.35 Q2271.27 1519.03 2271.27 1523.52 Q2271.27 1525.65 2270.46 1527.57 Q2269.67 1529.47 2267.56 1532.07 Q2266.98 1532.74 2263.88 1535.95 Q2260.78 1539.15 2255.13 1544.91 Z" fill="#000000" fill-rule="nonzero" fill-opacity="1" /><path clip-path="url(#clip480)" d="M2291.27 1517.37 Q2287.66 1517.37 2285.83 1520.93 Q2284.02 1524.47 2284.02 1531.6 Q2284.02 1538.71 2285.83 1542.27 Q2287.66 1545.82 2291.27 1545.82 Q2294.9 1545.82 2296.71 1542.27 Q2298.54 1538.71 2298.54 1531.6 Q2298.54 1524.47 2296.71 1520.93 Q2294.9 1517.37 2291.27 1517.37 M2291.27 1513.66 Q2297.08 1513.66 2300.13 1518.27 Q2303.21 1522.85 2303.21 1531.6 Q2303.21 1540.33 2300.13 1544.94 Q2297.08 1549.52 2291.27 1549.52 Q2285.46 1549.52 2282.38 1544.94 Q2279.32 1540.33 2279.32 1531.6 Q2279.32 1522.85 2282.38 1518.27 Q2285.46 1513.66 2291.27 1513.66 Z" fill="#000000" fill-rule="nonzero" fill-opacity="1" /><path clip-path="url(#clip480)" d="M2321.43 1517.37 Q2317.82 1517.37 2315.99 1520.93 Q2314.18 1524.47 2314.18 1531.6 Q2314.18 1538.71 2315.99 1542.27 Q2317.82 1545.82 2321.43 1545.82 Q2325.06 1545.82 2326.87 1542.27 Q2328.7 1538.71 2328.7 1531.6 Q2328.7 1524.47 2326.87 1520.93 Q2325.06 1517.37 2321.43 1517.37 M2321.43 1513.66 Q2327.24 1513.66 2330.29 1518.27 Q2333.37 1522.85 2333.37 1531.6 Q2333.37 1540.33 2330.29 1544.94 Q2327.24 1549.52 2321.43 1549.52 Q2315.62 1549.52 2312.54 1544.94 Q2309.48 1540.33 2309.48 1531.6 Q2309.48 1522.85 2312.54 1518.27 Q2315.62 1513.66 2321.43 1513.66 Z" fill="#000000" fill-rule="nonzero" fill-opacity="1" /><polyline clip-path="url(#clip482)" style="stroke:#000000; stroke-linecap:round; stroke-linejoin:round; stroke-width:2; stroke-opacity:0.1; fill:none" points="186.274,1445.63 2352.76,1445.63 "/>
<polyline clip-path="url(#clip482)" style="stroke:#000000; stroke-linecap:round; stroke-linejoin:round; stroke-width:2; stroke-opacity:0.1; fill:none" points="186.274,1106.16 2352.76,1106.16 "/>
<polyline clip-path="url(#clip482)" style="stroke:#000000; stroke-linecap:round; stroke-linejoin:round; stroke-width:2; stroke-opacity:0.1; fill:none" points="186.274,766.689 2352.76,766.689 "/>
<polyline clip-path="url(#clip482)" style="stroke:#000000; stroke-linecap:round; stroke-linejoin:round; stroke-width:2; stroke-opacity:0.1; fill:none" points="186.274,427.22 2352.76,427.22 "/>
<polyline clip-path="url(#clip482)" style="stroke:#000000; stroke-linecap:round; stroke-linejoin:round; stroke-width:2; stroke-opacity:0.1; fill:none" points="186.274,87.7507 2352.76,87.7507 "/>
<polyline clip-path="url(#clip480)" style="stroke:#000000; stroke-linecap:round; stroke-linejoin:round; stroke-width:4; stroke-opacity:1; fill:none" points="186.274,1486.45 186.274,47.2441 "/>
<polyline clip-path="url(#clip480)" style="stroke:#000000; stroke-linecap:round; stroke-linejoin:round; stroke-width:4; stroke-opacity:1; fill:none" points="186.274,1445.63 205.172,1445.63 "/>
<polyline clip-path="url(#clip480)" style="stroke:#000000; stroke-linecap:round; stroke-linejoin:round; stroke-width:4; stroke-opacity:1; fill:none" points="186.274,1106.16 205.172,1106.16 "/>
<polyline clip-path="url(#clip480)" style="stroke:#000000; stroke-linecap:round; stroke-linejoin:round; stroke-width:4; stroke-opacity:1; fill:none" points="186.274,766.689 205.172,766.689 "/>
<polyline clip-path="url(#clip480)" style="stroke:#000000; stroke-linecap:round; stroke-linejoin:round; stroke-width:4; stroke-opacity:1; fill:none" points="186.274,427.22 205.172,427.22 "/>
<polyline clip-path="url(#clip480)" style="stroke:#000000; stroke-linecap:round; stroke-linejoin:round; stroke-width:4; stroke-opacity:1; fill:none" points="186.274,87.7507 205.172,87.7507 "/>
<path clip-path="url(#clip480)" d="M62.9365 1431.43 Q59.3254 1431.43 57.4967 1434.99 Q55.6912 1438.53 55.6912 1445.66 Q55.6912 1452.77 57.4967 1456.33 Q59.3254 1459.88 62.9365 1459.88 Q66.5707 1459.88 68.3763 1456.33 Q70.205 1452.77 70.205 1445.66 Q70.205 1438.53 68.3763 1434.99 Q66.5707 1431.43 62.9365 1431.43 M62.9365 1427.72 Q68.7467 1427.72 71.8022 1432.33 Q74.8809 1436.91 74.8809 1445.66 Q74.8809 1454.39 71.8022 1459 Q68.7467 1463.58 62.9365 1463.58 Q57.1264 1463.58 54.0477 1459 Q50.9921 1454.39 50.9921 1445.66 Q50.9921 1436.91 54.0477 1432.33 Q57.1264 1427.72 62.9365 1427.72 Z" fill="#000000" fill-rule="nonzero" fill-opacity="1" /><path clip-path="url(#clip480)" d="M83.0984 1457.03 L87.9827 1457.03 L87.9827 1462.91 L83.0984 1462.91 L83.0984 1457.03 Z" fill="#000000" fill-rule="nonzero" fill-opacity="1" /><path clip-path="url(#clip480)" d="M108.168 1431.43 Q104.557 1431.43 102.728 1434.99 Q100.922 1438.53 100.922 1445.66 Q100.922 1452.77 102.728 1456.33 Q104.557 1459.88 108.168 1459.88 Q111.802 1459.88 113.608 1456.33 Q115.436 1452.77 115.436 1445.66 Q115.436 1438.53 113.608 1434.99 Q111.802 1431.43 108.168 1431.43 M108.168 1427.72 Q113.978 1427.72 117.033 1432.33 Q120.112 1436.91 120.112 1445.66 Q120.112 1454.39 117.033 1459 Q113.978 1463.58 108.168 1463.58 Q102.358 1463.58 99.2789 1459 Q96.2234 1454.39 96.2234 1445.66 Q96.2234 1436.91 99.2789 1432.33 Q102.358 1427.72 108.168 1427.72 Z" fill="#000000" fill-rule="nonzero" fill-opacity="1" /><path clip-path="url(#clip480)" d="M138.33 1431.43 Q134.719 1431.43 132.89 1434.99 Q131.084 1438.53 131.084 1445.66 Q131.084 1452.77 132.89 1456.33 Q134.719 1459.88 138.33 1459.88 Q141.964 1459.88 143.769 1456.33 Q145.598 1452.77 145.598 1445.66 Q145.598 1438.53 143.769 1434.99 Q141.964 1431.43 138.33 1431.43 M138.33 1427.72 Q144.14 1427.72 147.195 1432.33 Q150.274 1436.91 150.274 1445.66 Q150.274 1454.39 147.195 1459 Q144.14 1463.58 138.33 1463.58 Q132.519 1463.58 129.441 1459 Q126.385 1454.39 126.385 1445.66 Q126.385 1436.91 129.441 1432.33 Q132.519 1427.72 138.33 1427.72 Z" fill="#000000" fill-rule="nonzero" fill-opacity="1" /><path clip-path="url(#clip480)" d="M63.9319 1091.96 Q60.3208 1091.96 58.4921 1095.52 Q56.6865 1099.06 56.6865 1106.19 Q56.6865 1113.3 58.4921 1116.86 Q60.3208 1120.41 63.9319 1120.41 Q67.5661 1120.41 69.3717 1116.86 Q71.2004 1113.3 71.2004 1106.19 Q71.2004 1099.06 69.3717 1095.52 Q67.5661 1091.96 63.9319 1091.96 M63.9319 1088.25 Q69.742 1088.25 72.7976 1092.86 Q75.8763 1097.44 75.8763 1106.19 Q75.8763 1114.92 72.7976 1119.53 Q69.742 1124.11 63.9319 1124.11 Q58.1217 1124.11 55.043 1119.53 Q51.9875 1114.92 51.9875 1106.19 Q51.9875 1097.44 55.043 1092.86 Q58.1217 1088.25 63.9319 1088.25 Z" fill="#000000" fill-rule="nonzero" fill-opacity="1" /><path clip-path="url(#clip480)" d="M84.0938 1117.56 L88.978 1117.56 L88.978 1123.44 L84.0938 1123.44 L84.0938 1117.56 Z" fill="#000000" fill-rule="nonzero" fill-opacity="1" /><path clip-path="url(#clip480)" d="M103.191 1119.5 L119.51 1119.5 L119.51 1123.44 L97.566 1123.44 L97.566 1119.5 Q100.228 1116.75 104.811 1112.12 Q109.418 1107.47 110.598 1106.12 Q112.844 1103.6 113.723 1101.86 Q114.626 1100.1 114.626 1098.42 Q114.626 1095.66 112.682 1093.92 Q110.76 1092.19 107.658 1092.19 Q105.459 1092.19 103.006 1092.95 Q100.575 1093.72 97.7974 1095.27 L97.7974 1090.54 Q100.621 1089.41 103.075 1088.83 Q105.529 1088.25 107.566 1088.25 Q112.936 1088.25 116.131 1090.94 Q119.325 1093.62 119.325 1098.11 Q119.325 1100.24 118.515 1102.17 Q117.728 1104.06 115.621 1106.66 Q115.043 1107.33 111.941 1110.54 Q108.839 1113.74 103.191 1119.5 Z" fill="#000000" fill-rule="nonzero" fill-opacity="1" /><path clip-path="url(#clip480)" d="M129.371 1088.88 L147.728 1088.88 L147.728 1092.81 L133.654 1092.81 L133.654 1101.29 Q134.672 1100.94 135.691 1100.78 Q136.709 1100.59 137.728 1100.59 Q143.515 1100.59 146.894 1103.76 Q150.274 1106.93 150.274 1112.35 Q150.274 1117.93 146.802 1121.03 Q143.33 1124.11 137.01 1124.11 Q134.834 1124.11 132.566 1123.74 Q130.32 1123.37 127.913 1122.63 L127.913 1117.93 Q129.996 1119.06 132.219 1119.62 Q134.441 1120.17 136.918 1120.17 Q140.922 1120.17 143.26 1118.07 Q145.598 1115.96 145.598 1112.35 Q145.598 1108.74 143.26 1106.63 Q140.922 1104.53 136.918 1104.53 Q135.043 1104.53 133.168 1104.94 Q131.316 1105.36 129.371 1106.24 L129.371 1088.88 Z" fill="#000000" fill-rule="nonzero" fill-opacity="1" /><path clip-path="url(#clip480)" d="M62.9365 752.488 Q59.3254 752.488 57.4967 756.053 Q55.6912 759.594 55.6912 766.724 Q55.6912 773.83 57.4967 777.395 Q59.3254 780.937 62.9365 780.937 Q66.5707 780.937 68.3763 777.395 Q70.205 773.83 70.205 766.724 Q70.205 759.594 68.3763 756.053 Q66.5707 752.488 62.9365 752.488 M62.9365 748.784 Q68.7467 748.784 71.8022 753.39 Q74.8809 757.974 74.8809 766.724 Q74.8809 775.451 71.8022 780.057 Q68.7467 784.64 62.9365 784.64 Q57.1264 784.64 54.0477 780.057 Q50.9921 775.451 50.9921 766.724 Q50.9921 757.974 54.0477 753.39 Q57.1264 748.784 62.9365 748.784 Z" fill="#000000" fill-rule="nonzero" fill-opacity="1" /><path clip-path="url(#clip480)" d="M83.0984 778.089 L87.9827 778.089 L87.9827 783.969 L83.0984 783.969 L83.0984 778.089 Z" fill="#000000" fill-rule="nonzero" fill-opacity="1" /><path clip-path="url(#clip480)" d="M98.2141 749.409 L116.57 749.409 L116.57 753.344 L102.496 753.344 L102.496 761.816 Q103.515 761.469 104.534 761.307 Q105.552 761.122 106.571 761.122 Q112.358 761.122 115.737 764.293 Q119.117 767.464 119.117 772.881 Q119.117 778.46 115.645 781.562 Q112.172 784.64 105.853 784.64 Q103.677 784.64 101.409 784.27 Q99.1632 783.9 96.7558 783.159 L96.7558 778.46 Q98.8391 779.594 101.061 780.15 Q103.284 780.705 105.76 780.705 Q109.765 780.705 112.103 778.599 Q114.441 776.492 114.441 772.881 Q114.441 769.27 112.103 767.164 Q109.765 765.057 105.76 765.057 Q103.885 765.057 102.01 765.474 Q100.159 765.89 98.2141 766.77 L98.2141 749.409 Z" fill="#000000" fill-rule="nonzero" fill-opacity="1" /><path clip-path="url(#clip480)" d="M138.33 752.488 Q134.719 752.488 132.89 756.053 Q131.084 759.594 131.084 766.724 Q131.084 773.83 132.89 777.395 Q134.719 780.937 138.33 780.937 Q141.964 780.937 143.769 777.395 Q145.598 773.83 145.598 766.724 Q145.598 759.594 143.769 756.053 Q141.964 752.488 138.33 752.488 M138.33 748.784 Q144.14 748.784 147.195 753.39 Q150.274 757.974 150.274 766.724 Q150.274 775.451 147.195 780.057 Q144.14 784.64 138.33 784.64 Q132.519 784.64 129.441 780.057 Q126.385 775.451 126.385 766.724 Q126.385 757.974 129.441 753.39 Q132.519 748.784 138.33 748.784 Z" fill="#000000" fill-rule="nonzero" fill-opacity="1" /><path clip-path="url(#clip480)" d="M63.9319 413.019 Q60.3208 413.019 58.4921 416.583 Q56.6865 420.125 56.6865 427.255 Q56.6865 434.361 58.4921 437.926 Q60.3208 441.467 63.9319 441.467 Q67.5661 441.467 69.3717 437.926 Q71.2004 434.361 71.2004 427.255 Q71.2004 420.125 69.3717 416.583 Q67.5661 413.019 63.9319 413.019 M63.9319 409.315 Q69.742 409.315 72.7976 413.921 Q75.8763 418.505 75.8763 427.255 Q75.8763 435.981 72.7976 440.588 Q69.742 445.171 63.9319 445.171 Q58.1217 445.171 55.043 440.588 Q51.9875 435.981 51.9875 427.255 Q51.9875 418.505 55.043 413.921 Q58.1217 409.315 63.9319 409.315 Z" fill="#000000" fill-rule="nonzero" fill-opacity="1" /><path clip-path="url(#clip480)" d="M84.0938 438.62 L88.978 438.62 L88.978 444.5 L84.0938 444.5 L84.0938 438.62 Z" fill="#000000" fill-rule="nonzero" fill-opacity="1" /><path clip-path="url(#clip480)" d="M97.9826 409.94 L120.205 409.94 L120.205 411.931 L107.658 444.5 L102.774 444.5 L114.58 413.875 L97.9826 413.875 L97.9826 409.94 Z" fill="#000000" fill-rule="nonzero" fill-opacity="1" /><path clip-path="url(#clip480)" d="M129.371 409.94 L147.728 409.94 L147.728 413.875 L133.654 413.875 L133.654 422.347 Q134.672 422 135.691 421.838 Q136.709 421.653 137.728 421.653 Q143.515 421.653 146.894 424.824 Q150.274 427.995 150.274 433.412 Q150.274 438.991 146.802 442.092 Q143.33 445.171 137.01 445.171 Q134.834 445.171 132.566 444.801 Q130.32 444.43 127.913 443.69 L127.913 438.991 Q129.996 440.125 132.219 440.68 Q134.441 441.236 136.918 441.236 Q140.922 441.236 143.26 439.129 Q145.598 437.023 145.598 433.412 Q145.598 429.801 143.26 427.694 Q140.922 425.588 136.918 425.588 Q135.043 425.588 133.168 426.005 Q131.316 426.421 129.371 427.301 L129.371 409.94 Z" fill="#000000" fill-rule="nonzero" fill-opacity="1" /><path clip-path="url(#clip480)" d="M53.7467 101.095 L61.3856 101.095 L61.3856 74.7299 L53.0754 76.3965 L53.0754 72.1373 L61.3393 70.4707 L66.0152 70.4707 L66.0152 101.095 L73.654 101.095 L73.654 105.031 L53.7467 105.031 L53.7467 101.095 Z" fill="#000000" fill-rule="nonzero" fill-opacity="1" /><path clip-path="url(#clip480)" d="M83.0984 99.1511 L87.9827 99.1511 L87.9827 105.031 L83.0984 105.031 L83.0984 99.1511 Z" fill="#000000" fill-rule="nonzero" fill-opacity="1" /><path clip-path="url(#clip480)" d="M108.168 73.5493 Q104.557 73.5493 102.728 77.1141 Q100.922 80.6558 100.922 87.7854 Q100.922 94.8918 102.728 98.4566 Q104.557 101.998 108.168 101.998 Q111.802 101.998 113.608 98.4566 Q115.436 94.8918 115.436 87.7854 Q115.436 80.6558 113.608 77.1141 Q111.802 73.5493 108.168 73.5493 M108.168 69.8457 Q113.978 69.8457 117.033 74.4521 Q120.112 79.0354 120.112 87.7854 Q120.112 96.5122 117.033 101.119 Q113.978 105.702 108.168 105.702 Q102.358 105.702 99.2789 101.119 Q96.2234 96.5122 96.2234 87.7854 Q96.2234 79.0354 99.2789 74.4521 Q102.358 69.8457 108.168 69.8457 Z" fill="#000000" fill-rule="nonzero" fill-opacity="1" /><path clip-path="url(#clip480)" d="M138.33 73.5493 Q134.719 73.5493 132.89 77.1141 Q131.084 80.6558 131.084 87.7854 Q131.084 94.8918 132.89 98.4566 Q134.719 101.998 138.33 101.998 Q141.964 101.998 143.769 98.4566 Q145.598 94.8918 145.598 87.7854 Q145.598 80.6558 143.769 77.1141 Q141.964 73.5493 138.33 73.5493 M138.33 69.8457 Q144.14 69.8457 147.195 74.4521 Q150.274 79.0354 150.274 87.7854 Q150.274 96.5122 147.195 101.119 Q144.14 105.702 138.33 105.702 Q132.519 105.702 129.441 101.119 Q126.385 96.5122 126.385 87.7854 Q126.385 79.0354 129.441 74.4521 Q132.519 69.8457 138.33 69.8457 Z" fill="#000000" fill-rule="nonzero" fill-opacity="1" /><polyline clip-path="url(#clip482)" style="stroke:#009af9; stroke-linecap:round; stroke-linejoin:round; stroke-width:4; stroke-opacity:1; fill:none" points="247.59,1445.63 257.86,1445.63 268.131,1445.63 278.401,1445.63 288.672,1445.62 298.943,1445.58 309.213,1445.45 319.484,1445.16 329.754,1444.67 340.025,1443.92 350.296,1442.85 360.566,1441.41 370.837,1439.54 381.107,1437.18 391.378,1434.28 401.649,1430.79 411.919,1426.64 422.19,1421.79 432.46,1416.17 442.731,1409.73 453.002,1402.42 463.272,1394.18 473.543,1384.95 483.813,1374.67 494.084,1363.3 504.355,1350.77 514.625,1337.03 524.896,1322.03 535.167,1305.7 545.437,1287.99 555.708,1268.85 565.978,1248.23 576.249,1226.05 586.52,1202.28 596.79,1176.84 607.061,1149.7 617.331,1120.78 627.602,1090.05 637.873,1057.56 648.143,1023.46 658.414,987.941 668.684,951.156 678.955,913.276 689.226,874.468 699.496,834.9 709.767,794.739 720.037,754.153 730.308,713.31 740.579,672.376 750.849,631.519 761.12,590.907 771.39,550.707 781.661,511.087 791.932,472.214 802.202,434.256 812.473,397.38 822.744,361.753 833.014,327.544 843.285,294.919 853.555,264.046 863.826,235.093 874.097,208.226 884.367,183.614 894.638,161.424 904.908,141.824 915.179,124.98 925.45,111.061 935.72,100.234 945.991,92.6663 956.261,88.5253 966.532,87.9763 976.803,91.0565 987.073,97.6139 997.344,107.481 1007.61,120.49 1017.89,136.474 1028.16,155.265 1038.43,176.695 1048.7,200.598 1058.97,226.806 1069.24,255.151 1079.51,285.465 1089.78,317.582 1100.05,351.334 1110.32,386.553 1120.59,423.072 1130.86,460.723 1141.13,499.339 1151.4,538.753 1161.67,578.796 1171.94,619.302 1182.21,660.103 1192.49,701.031 1202.76,741.92 1213.03,782.601 1223.3,822.906 1233.57,862.67 1243.84,901.723 1254.11,939.899 1264.38,977.03 1274.65,1012.95 1284.92,1047.49 1295.19,1080.48 1305.46,1111.76 1315.73,1141.21 1326,1168.88 1336.27,1194.82 1346.54,1219.09 1356.82,1241.74 1367.09,1262.83 1377.36,1282.41 1387.63,1300.53 1397.9,1317.27 1408.17,1332.66 1418.44,1346.78 1428.71,1359.66 1438.98,1371.38 1449.25,1381.98 1459.52,1391.51 1469.79,1400.05 1480.06,1407.63 1490.33,1414.33 1500.6,1420.19 1510.87,1425.26 1521.14,1429.62 1531.42,1433.3 1541.69,1436.37 1551.96,1438.88 1562.23,1440.89 1572.5,1442.46 1582.77,1443.63 1593.04,1444.48 1603.31,1445.04 1613.58,1445.38 1623.85,1445.55 1634.12,1445.62 1644.39,1445.63 1654.66,1445.63 1664.93,1445.63 1675.2,1445.63 1685.47,1445.63 1695.75,1445.63 1706.02,1445.63 1716.29,1445.63 1726.56,1445.63 1736.83,1445.63 1747.1,1445.63 1757.37,1445.63 1767.64,1445.63 1777.91,1445.63 1788.18,1445.63 1798.45,1445.63 1808.72,1445.63 1818.99,1445.63 1829.26,1445.63 1839.53,1445.63 1849.8,1445.63 1860.07,1445.63 1870.35,1445.63 1880.62,1445.63 1890.89,1445.63 1901.16,1445.63 1911.43,1445.63 1921.7,1445.63 1931.97,1445.63 1942.24,1445.63 1952.51,1445.63 1962.78,1445.63 1973.05,1445.63 1983.32,1445.63 1993.59,1445.63 2003.86,1445.63 2014.13,1445.63 2024.4,1445.63 2034.68,1445.63 2044.95,1445.63 2055.22,1445.63 2065.49,1445.63 2075.76,1445.63 2086.03,1445.63 2096.3,1445.63 2106.57,1445.63 2116.84,1445.63 2127.11,1445.63 2137.38,1445.63 2147.65,1445.63 2157.92,1445.63 2168.19,1445.63 2178.46,1445.63 2188.73,1445.63 2199,1445.63 2209.28,1445.63 2219.55,1445.63 2229.82,1445.63 2240.09,1445.63 2250.36,1445.63 2260.63,1445.63 2270.9,1445.63 2281.17,1445.63 2291.44,1445.63 "/>
<polyline clip-path="url(#clip482)" style="stroke:#e26f46; stroke-linecap:round; stroke-linejoin:round; stroke-width:4; stroke-opacity:1; fill:none" points="247.59,1436.14 257.86,1433.72 268.131,1430.92 278.401,1427.71 288.672,1424.07 298.943,1419.96 309.213,1415.36 319.484,1410.25 329.754,1404.59 340.025,1398.36 350.296,1391.53 360.566,1384.08 370.837,1375.97 381.107,1367.17 391.378,1357.67 401.649,1347.44 411.919,1336.44 422.19,1324.65 432.46,1312.04 442.731,1298.61 453.002,1284.3 463.272,1269.1 473.543,1252.97 483.813,1235.95 494.084,1218.08 504.355,1199.44 514.625,1180.11 524.896,1160.11 535.167,1139.49 545.437,1118.33 555.708,1096.67 565.978,1074.56 576.249,1052.05 586.52,1029.21 596.79,1006.09 607.061,982.735 617.331,959.207 627.602,935.559 637.873,911.848 648.143,888.128 658.414,864.457 668.684,840.889 678.955,817.481 689.226,794.293 699.496,771.378 709.767,748.797 720.037,726.611 730.308,704.869 740.579,683.637 750.849,662.987 761.12,642.97 771.39,623.62 781.661,604.998 791.932,587.203 802.202,570.357 812.473,554.571 822.744,539.911 833.014,526.375 843.285,513.923 853.555,502.533 863.826,492.224 874.097,483.001 884.367,474.844 894.638,467.75 904.908,461.725 915.179,456.751 925.45,452.83 935.72,449.955 945.991,448.118 956.261,447.315 966.532,447.538 976.803,448.783 987.073,451.041 997.344,454.31 1007.61,458.578 1017.89,463.847 1028.16,470.104 1038.43,477.349 1048.7,485.579 1058.97,494.777 1069.24,504.953 1079.51,516.108 1089.78,528.215 1100.05,541.273 1110.32,555.314 1120.59,570.36 1130.86,586.38 1141.13,603.297 1151.4,621.014 1161.67,639.452 1171.94,658.569 1182.21,678.339 1192.49,698.721 1202.76,719.651 1213.03,741.07 1223.3,762.937 1233.57,785.197 1243.84,807.791 1254.11,830.671 1264.38,853.779 1274.65,877.061 1284.92,900.464 1295.19,923.93 1305.46,947.405 1315.73,970.831 1326,994.154 1336.27,1017.31 1346.54,1040.26 1356.82,1062.92 1367.09,1085.26 1377.36,1107.21 1387.63,1128.7 1397.9,1149.7 1408.17,1170.13 1418.44,1189.93 1428.71,1209.05 1438.98,1227.46 1449.25,1245.05 1459.52,1261.77 1469.79,1277.55 1480.06,1292.41 1490.33,1306.36 1500.6,1319.44 1510.87,1331.68 1521.14,1343.1 1531.42,1353.73 1541.69,1363.59 1551.96,1372.72 1562.23,1381.14 1572.5,1388.89 1582.77,1395.99 1593.04,1402.47 1603.31,1408.35 1613.58,1413.68 1623.85,1418.47 1634.12,1422.75 1644.39,1426.56 1654.66,1429.92 1664.93,1432.86 1675.2,1435.41 1685.47,1437.59 1695.75,1439.43 1706.02,1440.97 1716.29,1442.23 1726.56,1443.24 1736.83,1444.02 1747.1,1444.61 1757.37,1445.03 1767.64,1445.32 1777.91,1445.48 1788.18,1445.57 1798.45,1445.61 1808.72,1445.62 1818.99,1445.63 1829.26,1445.63 1839.53,1445.63 1849.8,1445.63 1860.07,1445.63 1870.35,1445.63 1880.62,1445.63 1890.89,1445.63 1901.16,1445.63 1911.43,1445.63 1921.7,1445.63 1931.97,1445.63 1942.24,1445.63 1952.51,1445.63 1962.78,1445.63 1973.05,1445.63 1983.32,1445.63 1993.59,1445.63 2003.86,1445.63 2014.13,1445.63 2024.4,1445.63 2034.68,1445.63 2044.95,1445.63 2055.22,1445.63 2065.49,1445.63 2075.76,1445.63 2086.03,1445.63 2096.3,1445.63 2106.57,1445.63 2116.84,1445.63 2127.11,1445.63 2137.38,1445.63 2147.65,1445.63 2157.92,1445.63 2168.19,1445.62 2178.46,1445.61 2188.73,1445.58 2199,1445.52 2209.28,1445.38 2219.55,1445.13 2229.82,1444.75 2240.09,1444.22 2250.36,1443.5 2260.63,1442.57 2270.9,1441.39 2281.17,1439.95 2291.44,1438.2 "/>
<polyline clip-path="url(#clip482)" style="stroke:#3da44d; stroke-linecap:round; stroke-linejoin:round; stroke-width:4; stroke-opacity:1; fill:none" points="247.59,1336.8 257.86,1325.07 268.131,1312.52 278.401,1299.15 288.672,1284.92 298.943,1269.83 309.213,1253.88 319.484,1237.1 329.754,1219.57 340.025,1201.37 350.296,1182.62 360.566,1163.41 370.837,1143.81 381.107,1123.88 391.378,1103.71 401.649,1083.39 411.919,1063.01 422.19,1042.64 432.46,1022.36 442.731,1002.26 453.002,982.427 463.272,962.932 473.543,943.869 483.813,925.317 494.084,907.361 504.355,890.09 514.625,873.583 524.896,857.927 535.167,843.213 545.437,829.523 555.708,816.944 565.978,805.557 576.249,795.457 586.52,786.736 596.79,779.487 607.061,773.792 617.331,769.725 627.602,767.345 637.873,766.694 648.143,767.786 658.414,770.59 668.684,775.018 678.955,780.932 689.226,788.174 699.496,796.606 709.767,806.133 720.037,816.661 730.308,828.076 740.579,840.241 750.849,853.041 761.12,866.38 771.39,880.137 781.661,894.186 791.932,908.425 802.202,922.739 812.473,937.004 822.744,951.118 833.014,964.963 843.285,978.416 853.555,991.378 863.826,1003.73 874.097,1015.36 884.367,1026.14 894.638,1035.97 904.908,1044.76 915.179,1052.38 925.45,1058.69 935.72,1063.56 945.991,1066.9 956.261,1068.65 966.532,1068.78 976.803,1067.29 987.073,1064.21 997.344,1059.61 1007.61,1053.58 1017.89,1046.25 1028.16,1037.76 1038.43,1028.23 1048.7,1017.75 1058.97,1006.43 1069.24,994.368 1079.51,981.697 1089.78,968.525 1100.05,954.949 1110.32,941.081 1120.59,927.043 1130.86,912.93 1141.13,898.854 1151.4,884.936 1161.67,871.27 1171.94,857.967 1182.21,845.152 1192.49,832.919 1202.76,821.369 1213.03,810.625 1223.3,800.806 1233.57,792.01 1243.84,784.32 1254.11,777.847 1264.38,772.734 1274.65,769.121 1284.92,767.12 1295.19,766.788 1305.46,768.141 1315.73,771.157 1326,775.796 1336.27,781.997 1346.54,789.69 1356.82,798.795 1367.09,809.224 1377.36,820.896 1387.63,833.73 1397.9,847.652 1408.17,862.579 1418.44,878.43 1428.71,895.12 1438.98,912.569 1449.25,930.699 1459.52,949.418 1469.79,968.649 1480.06,988.312 1490.33,1008.31 1500.6,1028.58 1510.87,1049.02 1521.14,1069.55 1531.42,1090.08 1541.69,1110.54 1551.96,1130.84 1562.23,1150.88 1572.5,1170.58 1582.77,1189.86 1593.04,1208.66 1603.31,1226.86 1613.58,1244.35 1623.85,1261.03 1634.12,1276.85 1644.39,1291.77 1654.66,1305.8 1664.93,1318.95 1675.2,1331.25 1685.47,1342.72 1695.75,1353.4 1706.02,1363.3 1716.29,1372.47 1726.56,1380.93 1736.83,1388.71 1747.1,1395.83 1757.37,1402.33 1767.64,1408.24 1777.91,1413.58 1788.18,1418.39 1798.45,1422.69 1808.72,1426.5 1818.99,1429.87 1829.26,1432.82 1839.53,1435.37 1849.8,1437.56 1860.07,1439.41 1870.35,1440.95 1880.62,1442.21 1890.89,1443.22 1901.16,1444 1911.43,1444.59 1921.7,1445.01 1931.97,1445.29 1942.24,1445.46 1952.51,1445.55 1962.78,1445.59 1973.05,1445.61 1983.32,1445.62 1993.59,1445.62 2003.86,1445.62 2014.13,1445.6 2024.4,1445.57 2034.68,1445.49 2044.95,1445.35 2055.22,1445.11 2065.49,1444.74 2075.76,1444.2 2086.03,1443.48 2096.3,1442.55 2106.57,1441.38 2116.84,1439.93 2127.11,1438.19 2137.38,1436.13 2147.65,1433.72 2157.92,1430.92 2168.19,1427.72 2178.46,1424.09 2188.73,1420 2199,1415.42 2209.28,1410.32 2219.55,1404.68 2229.82,1398.47 2240.09,1391.66 2250.36,1384.24 2260.63,1376.16 2270.9,1367.4 2281.17,1357.94 2291.44,1347.75 "/>
<polyline clip-path="url(#clip482)" style="stroke:#c271d2; stroke-linecap:round; stroke-linejoin:round; stroke-width:4; stroke-opacity:1; fill:none" points="247.59,1064.28 257.86,1043.91 268.131,1023.62 278.401,1003.5 288.672,983.62 298.943,964.085 309.213,944.972 319.484,926.358 329.754,908.335 340.025,890.992 350.296,874.407 360.566,858.669 370.837,843.87 381.107,830.093 391.378,817.426 401.649,805.962 411.919,795.787 422.19,786.99 432.46,779.666 442.731,773.898 453.002,769.777 463.272,767.382 473.543,766.776 483.813,768.003 494.084,771.06 504.355,775.902 514.625,782.427 524.896,790.502 535.167,800 545.437,810.819 555.708,822.893 565.978,836.16 576.249,850.53 586.52,865.892 596.79,882.147 607.061,899.225 617.331,917.046 627.602,935.511 637.873,954.525 648.143,974.011 658.414,993.888 668.684,1014.06 678.955,1034.43 689.226,1054.94 699.496,1075.49 709.767,1095.99 720.037,1116.35 730.308,1136.5 740.579,1156.35 750.849,1175.84 761.12,1194.87 771.39,1213.35 781.661,1231.21 791.932,1248.33 802.202,1264.62 812.473,1280 822.744,1294.4 833.014,1307.76 843.285,1320.06 853.555,1331.32 863.826,1341.56 874.097,1350.8 884.367,1359.05 894.638,1366.28 904.908,1372.49 915.179,1377.67 925.45,1381.84 935.72,1384.99 945.991,1387.12 956.261,1388.23 966.532,1388.31 976.803,1387.38 987.073,1385.41 997.344,1382.41 1007.61,1378.4 1017.89,1373.36 1028.16,1367.28 1038.43,1360.16 1048.7,1352.02 1058.97,1342.86 1069.24,1332.68 1079.51,1321.46 1089.78,1309.17 1100.05,1295.79 1110.32,1281.36 1120.59,1265.93 1130.86,1249.58 1141.13,1232.41 1151.4,1214.52 1161.67,1196.01 1171.94,1176.97 1182.21,1157.51 1192.49,1137.71 1202.76,1117.64 1213.03,1097.38 1223.3,1077.01 1233.57,1056.62 1243.84,1036.29 1254.11,1016.12 1264.38,996.164 1274.65,976.51 1284.92,957.249 1295.19,938.462 1305.46,920.218 1315.73,902.598 1326,885.698 1336.27,869.593 1346.54,854.346 1356.82,840.036 1367.09,826.764 1377.36,814.618 1387.63,803.657 1397.9,793.938 1408.17,785.533 1418.44,778.549 1428.71,773.1 1438.98,769.291 1449.25,767.183 1459.52,766.802 1469.79,768.134 1480.06,771.135 1490.33,775.751 1500.6,781.911 1510.87,789.541 1521.14,798.57 1531.42,808.917 1541.69,820.505 1551.96,833.259 1562.23,847.096 1572.5,861.937 1582.77,877.706 1593.04,894.319 1603.31,911.692 1613.58,929.753 1623.85,948.415 1634.12,967.591 1644.39,987.204 1654.66,1007.18 1664.93,1027.42 1675.2,1047.83 1685.47,1068.35 1695.75,1088.9 1706.02,1109.38 1716.29,1129.69 1726.56,1149.76 1736.83,1169.5 1747.1,1188.86 1757.37,1207.72 1767.64,1225.99 1777.91,1243.54 1788.18,1260.28 1798.45,1276.16 1808.72,1291.14 1818.99,1305.24 1829.26,1318.45 1839.53,1330.8 1849.8,1342.31 1860.07,1352.99 1870.35,1362.86 1880.62,1371.92 1890.89,1380.18 1901.16,1387.61 1911.43,1394.23 1921.7,1400.04 1931.97,1405.03 1942.24,1409.22 1952.51,1412.6 1962.78,1415.18 1973.05,1416.95 1983.32,1417.91 1993.59,1418.08 2003.86,1417.45 2014.13,1416.02 2024.4,1413.79 2034.68,1410.76 2044.95,1406.94 2055.22,1402.34 2065.49,1396.94 2075.76,1390.75 2086.03,1383.76 2096.3,1375.99 2106.57,1367.44 2116.84,1358.11 2127.11,1348.01 2137.38,1337.14 2147.65,1325.47 2157.92,1313 2168.19,1299.69 2178.46,1285.55 2188.73,1270.54 2199,1254.69 2209.28,1238.02 2219.55,1220.57 2229.82,1202.45 2240.09,1183.74 2250.36,1164.56 2260.63,1145 2270.9,1125.11 2281.17,1104.98 2291.44,1084.67 "/>
<polyline clip-path="url(#clip482)" style="stroke:#ac8d18; stroke-linecap:round; stroke-linejoin:round; stroke-width:4; stroke-opacity:1; fill:none" points="247.59,796.093 257.86,787.235 268.131,779.85 278.401,774.028 288.672,769.859 298.943,767.427 309.213,766.794 319.484,768.003 329.754,771.06 340.025,775.919 350.296,782.49 360.566,790.647 370.837,800.246 381.107,811.169 391.378,823.329 401.649,836.664 411.919,851.11 422.19,866.567 432.46,882.924 442.731,900.079 453.002,917.956 463.272,936.485 473.543,955.569 483.813,975.107 494.084,995.011 504.355,1015.21 514.625,1035.62 524.896,1056.13 535.167,1076.67 545.437,1097.16 555.708,1117.51 565.978,1137.63 576.249,1157.45 586.52,1176.88 596.79,1195.83 607.061,1214.24 617.331,1232.01 627.602,1249.08 637.873,1265.37 648.143,1280.83 658.414,1295.42 668.684,1309.1 678.955,1321.9 689.226,1333.83 699.496,1344.95 709.767,1355.32 720.037,1364.96 730.308,1373.92 740.579,1382.19 750.849,1389.79 761.12,1396.75 771.39,1403.1 781.661,1408.9 791.932,1414.14 802.202,1418.86 812.473,1423.08 822.744,1426.84 833.014,1430.16 843.285,1433.06 853.555,1435.58 863.826,1437.74 874.097,1439.57 884.367,1441.09 894.638,1442.33 904.908,1443.33 915.179,1444.12 925.45,1444.73 935.72,1445.17 945.991,1445.47 956.261,1445.62 966.532,1445.64 976.803,1445.53 987.073,1445.27 997.344,1444.87 1007.61,1444.31 1017.89,1443.57 1028.16,1442.63 1038.43,1441.46 1048.7,1440 1058.97,1438.25 1069.24,1436.16 1079.51,1433.71 1089.78,1430.87 1100.05,1427.62 1110.32,1423.93 1120.59,1419.78 1130.86,1415.11 1141.13,1409.91 1151.4,1404.15 1161.67,1397.82 1171.94,1390.87 1182.21,1383.27 1192.49,1374.98 1202.76,1365.99 1213.03,1356.29 1223.3,1345.84 1233.57,1334.62 1243.84,1322.55 1254.11,1309.58 1264.38,1295.69 1274.65,1280.88 1284.92,1265.19 1295.19,1248.68 1305.46,1231.4 1315.73,1213.45 1326,1194.89 1336.27,1175.83 1346.54,1156.33 1356.82,1136.49 1367.09,1116.39 1377.36,1096.11 1387.63,1075.73 1397.9,1055.35 1408.17,1035.04 1418.44,1014.88 1428.71,994.952 1438.98,975.351 1449.25,956.139 1459.52,937.395 1469.79,919.214 1480.06,901.679 1490.33,884.859 1500.6,868.816 1510.87,853.637 1521.14,839.42 1531.42,826.25 1541.69,814.193 1551.96,803.297 1562.23,793.629 1572.5,785.281 1582.77,778.361 1593.04,772.984 1603.31,769.238 1613.58,767.177 1623.85,766.821 1634.12,768.153 1644.39,771.132 1654.66,775.708 1664.93,781.811 1675.2,789.366 1685.47,798.299 1695.75,808.522 1706.02,819.937 1716.29,832.45 1726.56,845.954 1736.83,860.332 1747.1,875.471 1757.37,891.271 1767.64,907.627 1777.91,924.426 1788.18,941.567 1798.45,958.948 1808.72,976.455 1818.99,993.969 1829.26,1011.38 1839.53,1028.59 1849.8,1045.5 1860.07,1061.98 1870.35,1077.91 1880.62,1093.17 1890.89,1107.68 1901.16,1121.32 1911.43,1134 1921.7,1145.58 1931.97,1155.9 1942.24,1164.84 1952.51,1172.29 1962.78,1178.15 1973.05,1182.37 1983.32,1184.93 1993.59,1185.81 2003.86,1185.01 2014.13,1182.54 2024.4,1178.42 2034.68,1172.68 2044.95,1165.36 2055.22,1156.56 2065.49,1146.37 2075.76,1134.91 2086.03,1122.33 2096.3,1108.75 2106.57,1094.28 2116.84,1079.02 2127.11,1063.06 2137.38,1046.51 2147.65,1029.5 2157.92,1012.14 2168.19,994.558 2178.46,976.838 2188.73,959.094 2199,941.453 2209.28,924.037 2219.55,906.952 2229.82,890.303 2240.09,874.211 2250.36,858.796 2260.63,844.176 2270.9,830.474 2281.17,817.818 2291.44,806.323 "/>
<polyline clip-path="url(#clip482)" style="stroke:#00a9ad; stroke-linecap:round; stroke-linejoin:round; stroke-width:4; stroke-opacity:1; fill:none" points="247.59,832.853 257.86,851.72 268.131,871.081 278.401,890.847 288.672,910.948 298.943,931.341 309.213,951.988 319.484,972.824 329.754,993.768 340.025,1014.75 350.296,1035.73 360.566,1056.66 370.837,1077.47 381.107,1098.11 391.378,1118.54 401.649,1138.69 411.919,1158.5 422.19,1177.89 432.46,1196.8 442.731,1215.15 453.002,1232.86 463.272,1249.85 473.543,1266.08 483.813,1281.48 494.084,1296 504.355,1309.63 514.625,1322.37 524.896,1334.25 535.167,1345.32 545.437,1355.63 555.708,1365.23 565.978,1374.14 576.249,1382.38 586.52,1389.96 596.79,1396.9 607.061,1403.24 617.331,1409 627.602,1414.23 637.873,1418.94 648.143,1423.15 658.414,1426.9 668.684,1430.2 678.955,1433.1 689.226,1435.62 699.496,1437.77 709.767,1439.59 720.037,1441.12 730.308,1442.37 740.579,1443.37 750.849,1444.14 761.12,1444.73 771.39,1445.15 781.661,1445.43 791.932,1445.59 802.202,1445.68 812.473,1445.7 822.744,1445.69 833.014,1445.66 843.285,1445.63 853.555,1445.61 863.826,1445.61 874.097,1445.62 884.367,1445.63 894.638,1445.63 904.908,1445.64 915.179,1445.63 925.45,1445.62 935.72,1445.62 945.991,1445.62 956.261,1445.63 966.532,1445.63 976.803,1445.63 987.073,1445.62 997.344,1445.62 1007.61,1445.63 1017.89,1445.63 1028.16,1445.63 1038.43,1445.63 1048.7,1445.62 1058.97,1445.61 1069.24,1445.61 1079.51,1445.63 1089.78,1445.65 1100.05,1445.68 1110.32,1445.7 1120.59,1445.69 1130.86,1445.63 1141.13,1445.49 1151.4,1445.24 1161.67,1444.86 1171.94,1444.33 1182.21,1443.6 1192.49,1442.66 1202.76,1441.47 1213.03,1440.01 1223.3,1438.25 1233.57,1436.16 1243.84,1433.7 1254.11,1430.86 1264.38,1427.61 1274.65,1423.91 1284.92,1419.74 1295.19,1415.05 1305.46,1409.83 1315.73,1404.07 1326,1397.72 1336.27,1390.74 1346.54,1383.09 1356.82,1374.76 1367.09,1365.74 1377.36,1356.02 1387.63,1345.54 1397.9,1334.26 1408.17,1322.11 1418.44,1309.05 1428.71,1295.06 1438.98,1280.16 1449.25,1264.38 1459.52,1247.78 1469.79,1230.43 1480.06,1212.41 1490.33,1193.79 1500.6,1174.66 1510.87,1155.11 1521.14,1135.2 1531.42,1115.02 1541.69,1094.64 1551.96,1074.1 1562.23,1053.47 1572.5,1032.79 1582.77,1012.12 1593.04,991.497 1603.31,970.967 1613.58,950.592 1623.85,930.441 1634.12,910.569 1644.39,891.011 1654.66,871.8 1664.93,852.994 1675.2,834.668 1685.47,816.882 1695.75,799.68 1706.02,783.083 1716.29,767.119 1726.56,751.845 1736.83,737.338 1747.1,723.679 1757.37,710.95 1767.64,699.208 1777.91,688.471 1788.18,678.729 1798.45,669.946 1808.72,662.054 1818.99,654.981 1829.26,648.646 1839.53,642.96 1849.8,637.832 1860.07,633.188 1870.35,628.961 1880.62,625.092 1890.89,621.547 1901.16,618.322 1911.43,615.435 1921.7,612.902 1931.97,610.741 1942.24,608.972 1952.51,607.592 1962.78,606.577 1973.05,605.902 1983.32,605.565 1993.59,605.59 2003.86,605.995 2014.13,606.763 2024.4,607.866 2034.68,609.29 2044.95,611.053 2055.22,613.183 2065.49,615.686 2075.76,618.541 2086.03,621.722 2096.3,625.204 2106.57,628.97 2116.84,633.024 2127.11,637.4 2137.38,642.176 2147.65,647.439 2157.92,653.288 2168.19,659.838 2178.46,667.208 2188.73,675.505 2199,684.82 2209.28,695.231 2219.55,706.778 2229.82,719.449 2240.09,733.191 2250.36,747.912 2260.63,763.496 2270.9,779.844 2281.17,796.88 2291.44,814.557 "/>
<polyline clip-path="url(#clip482)" style="stroke:#ed5d92; stroke-linecap:round; stroke-linejoin:round; stroke-width:4; stroke-opacity:1; fill:none" points="247.59,1004.55 257.86,1038.02 268.131,1070.12 278.401,1100.8 288.672,1130.01 298.943,1157.71 309.213,1183.85 319.484,1208.41 329.754,1231.4 340.025,1252.81 350.296,1272.68 360.566,1291.06 370.837,1308.03 381.107,1323.67 391.378,1338.04 401.649,1351.24 411.919,1363.29 422.19,1374.24 432.46,1384.12 442.731,1393 453.002,1400.93 463.272,1407.99 473.543,1414.24 483.813,1419.72 494.084,1424.47 504.355,1428.55 514.625,1432.02 524.896,1434.94 535.167,1437.38 545.437,1439.38 555.708,1441 565.978,1442.31 576.249,1443.35 586.52,1444.15 596.79,1444.74 607.061,1445.16 617.331,1445.44 627.602,1445.61 637.873,1445.69 648.143,1445.72 658.414,1445.7 668.684,1445.67 678.955,1445.64 689.226,1445.62 699.496,1445.61 709.767,1445.61 720.037,1445.62 730.308,1445.63 740.579,1445.64 750.849,1445.63 761.12,1445.63 771.39,1445.62 781.661,1445.62 791.932,1445.63 802.202,1445.63 812.473,1445.63 822.744,1445.63 833.014,1445.63 843.285,1445.63 853.555,1445.63 863.826,1445.63 874.097,1445.63 884.367,1445.63 894.638,1445.63 904.908,1445.63 915.179,1445.63 925.45,1445.63 935.72,1445.63 945.991,1445.63 956.261,1445.63 966.532,1445.63 976.803,1445.63 987.073,1445.63 997.344,1445.63 1007.61,1445.63 1017.89,1445.63 1028.16,1445.63 1038.43,1445.63 1048.7,1445.63 1058.97,1445.63 1069.24,1445.63 1079.51,1445.63 1089.78,1445.63 1100.05,1445.63 1110.32,1445.63 1120.59,1445.63 1130.86,1445.63 1141.13,1445.62 1151.4,1445.62 1161.67,1445.63 1171.94,1445.63 1182.21,1445.64 1192.49,1445.63 1202.76,1445.62 1213.03,1445.61 1223.3,1445.61 1233.57,1445.61 1243.84,1445.63 1254.11,1445.66 1264.38,1445.69 1274.65,1445.71 1284.92,1445.71 1295.19,1445.65 1305.46,1445.51 1315.73,1445.25 1326,1444.88 1336.27,1444.33 1346.54,1443.59 1356.82,1442.61 1367.09,1441.37 1377.36,1439.82 1387.63,1437.9 1397.9,1435.55 1408.17,1432.73 1418.44,1429.37 1428.71,1425.4 1438.98,1420.75 1449.25,1415.38 1459.52,1409.23 1469.79,1402.28 1480.06,1394.45 1490.33,1385.67 1500.6,1375.87 1510.87,1365 1521.14,1353.03 1531.42,1339.92 1541.69,1325.61 1551.96,1310.02 1562.23,1293.06 1572.5,1274.66 1582.77,1254.75 1593.04,1233.29 1603.31,1210.26 1613.58,1185.7 1623.85,1159.61 1634.12,1132.06 1644.39,1103.1 1654.66,1072.79 1664.93,1041.18 1675.2,1008.35 1685.47,974.363 1695.75,939.299 1706.02,903.235 1716.29,866.278 1726.56,828.558 1736.83,790.225 1747.1,751.433 1757.37,712.353 1767.64,673.188 1777.91,634.131 1788.18,595.344 1798.45,556.962 1808.72,519.116 1818.99,481.959 1829.26,445.68 1839.53,410.471 1849.8,376.492 1860.07,343.883 1870.35,312.771 1880.62,283.3 1890.89,255.657 1901.16,230.051 1911.43,206.677 1921.7,185.707 1931.97,167.302 1942.24,151.598 1952.51,138.694 1962.78,128.662 1973.05,121.554 1983.32,117.416 1993.59,116.28 2003.86,118.17 2014.13,123.107 2024.4,131.095 2034.68,142.121 2044.95,156.148 2055.22,173.109 2065.49,192.892 2075.76,215.325 2086.03,240.201 2096.3,267.307 2106.57,296.431 2116.84,327.37 2127.11,359.95 2137.38,394.036 2147.65,429.49 2157.92,466.149 2168.19,503.817 2178.46,542.281 2188.73,581.356 2199,620.896 2209.28,660.76 2219.55,700.788 2229.82,740.797 2240.09,780.591 2250.36,819.984 2260.63,858.787 2270.9,896.799 2281.17,933.844 2291.44,969.794 "/>
<path clip-path="url(#clip480)" d="M258.49 509.938 L694.882 509.938 L694.882 95.2176 L258.49 95.2176  Z" fill="#ffffff" fill-rule="evenodd" fill-opacity="1"/>
<polyline clip-path="url(#clip480)" style="stroke:#000000; stroke-linecap:round; stroke-linejoin:round; stroke-width:4; stroke-opacity:1; fill:none" points="258.49,509.938 694.882,509.938 694.882,95.2176 258.49,95.2176 258.49,509.938 "/>
<polyline clip-path="url(#clip480)" style="stroke:#009af9; stroke-linecap:round; stroke-linejoin:round; stroke-width:4; stroke-opacity:1; fill:none" points="282.562,147.058 426.994,147.058 "/>
<path clip-path="url(#clip480)" d="M458.474 131.051 L458.474 138.412 L467.247 138.412 L467.247 141.722 L458.474 141.722 L458.474 155.796 Q458.474 158.967 459.33 159.87 Q460.21 160.773 462.872 160.773 L467.247 160.773 L467.247 164.338 L462.872 164.338 Q457.941 164.338 456.066 162.509 Q454.191 160.657 454.191 155.796 L454.191 141.722 L451.066 141.722 L451.066 138.412 L454.191 138.412 L454.191 131.051 L458.474 131.051 Z" fill="#000000" fill-rule="nonzero" fill-opacity="1" /><path clip-path="url(#clip480)" d="M488.473 142.81 L518.149 142.81 L518.149 146.699 L488.473 146.699 L488.473 142.81 M488.473 152.254 L518.149 152.254 L518.149 156.189 L488.473 156.189 L488.473 152.254 Z" fill="#000000" fill-rule="nonzero" fill-opacity="1" /><path clip-path="url(#clip480)" d="M553.311 132.856 Q549.7 132.856 547.871 136.421 Q546.066 139.963 546.066 147.092 Q546.066 154.199 547.871 157.764 Q549.7 161.305 553.311 161.305 Q556.945 161.305 558.751 157.764 Q560.58 154.199 560.58 147.092 Q560.58 139.963 558.751 136.421 Q556.945 132.856 553.311 132.856 M553.311 129.153 Q559.121 129.153 562.177 133.759 Q565.255 138.342 565.255 147.092 Q565.255 155.819 562.177 160.426 Q559.121 165.009 553.311 165.009 Q547.501 165.009 544.422 160.426 Q541.367 155.819 541.367 147.092 Q541.367 138.342 544.422 133.759 Q547.501 129.153 553.311 129.153 Z" fill="#000000" fill-rule="nonzero" fill-opacity="1" /><path clip-path="url(#clip480)" d="M573.473 158.458 L578.357 158.458 L578.357 164.338 L573.473 164.338 L573.473 158.458 Z" fill="#000000" fill-rule="nonzero" fill-opacity="1" /><path clip-path="url(#clip480)" d="M598.542 132.856 Q594.931 132.856 593.103 136.421 Q591.297 139.963 591.297 147.092 Q591.297 154.199 593.103 157.764 Q594.931 161.305 598.542 161.305 Q602.177 161.305 603.982 157.764 Q605.811 154.199 605.811 147.092 Q605.811 139.963 603.982 136.421 Q602.177 132.856 598.542 132.856 M598.542 129.153 Q604.352 129.153 607.408 133.759 Q610.487 138.342 610.487 147.092 Q610.487 155.819 607.408 160.426 Q604.352 165.009 598.542 165.009 Q592.732 165.009 589.653 160.426 Q586.598 155.819 586.598 147.092 Q586.598 138.342 589.653 133.759 Q592.732 129.153 598.542 129.153 Z" fill="#000000" fill-rule="nonzero" fill-opacity="1" /><polyline clip-path="url(#clip480)" style="stroke:#e26f46; stroke-linecap:round; stroke-linejoin:round; stroke-width:4; stroke-opacity:1; fill:none" points="282.562,198.898 426.994,198.898 "/>
<path clip-path="url(#clip480)" d="M458.474 182.891 L458.474 190.252 L467.247 190.252 L467.247 193.562 L458.474 193.562 L458.474 207.636 Q458.474 210.807 459.33 211.71 Q460.21 212.613 462.872 212.613 L467.247 212.613 L467.247 216.178 L462.872 216.178 Q457.941 216.178 456.066 214.349 Q454.191 212.497 454.191 207.636 L454.191 193.562 L451.066 193.562 L451.066 190.252 L454.191 190.252 L454.191 182.891 L458.474 182.891 Z" fill="#000000" fill-rule="nonzero" fill-opacity="1" /><path clip-path="url(#clip480)" d="M488.473 194.65 L518.149 194.65 L518.149 198.539 L488.473 198.539 L488.473 194.65 M488.473 204.094 L518.149 204.094 L518.149 208.029 L488.473 208.029 L488.473 204.094 Z" fill="#000000" fill-rule="nonzero" fill-opacity="1" /><path clip-path="url(#clip480)" d="M547.339 212.242 L563.658 212.242 L563.658 216.178 L541.714 216.178 L541.714 212.242 Q544.376 209.488 548.959 204.858 Q553.566 200.205 554.746 198.863 Q556.992 196.34 557.871 194.604 Q558.774 192.844 558.774 191.155 Q558.774 188.4 556.83 186.664 Q554.908 184.928 551.806 184.928 Q549.607 184.928 547.154 185.692 Q544.723 186.455 541.945 188.006 L541.945 183.284 Q544.769 182.15 547.223 181.571 Q549.677 180.993 551.714 180.993 Q557.084 180.993 560.279 183.678 Q563.473 186.363 563.473 190.854 Q563.473 192.983 562.663 194.905 Q561.876 196.803 559.769 199.395 Q559.191 200.067 556.089 203.284 Q552.987 206.479 547.339 212.242 Z" fill="#000000" fill-rule="nonzero" fill-opacity="1" /><path clip-path="url(#clip480)" d="M583.473 184.696 Q579.862 184.696 578.033 188.261 Q576.228 191.803 576.228 198.932 Q576.228 206.039 578.033 209.604 Q579.862 213.145 583.473 213.145 Q587.107 213.145 588.913 209.604 Q590.741 206.039 590.741 198.932 Q590.741 191.803 588.913 188.261 Q587.107 184.696 583.473 184.696 M583.473 180.993 Q589.283 180.993 592.339 185.599 Q595.417 190.182 595.417 198.932 Q595.417 207.659 592.339 212.266 Q589.283 216.849 583.473 216.849 Q577.663 216.849 574.584 212.266 Q571.529 207.659 571.529 198.932 Q571.529 190.182 574.584 185.599 Q577.663 180.993 583.473 180.993 Z" fill="#000000" fill-rule="nonzero" fill-opacity="1" /><path clip-path="url(#clip480)" d="M603.635 210.298 L608.519 210.298 L608.519 216.178 L603.635 216.178 L603.635 210.298 Z" fill="#000000" fill-rule="nonzero" fill-opacity="1" /><path clip-path="url(#clip480)" d="M628.704 184.696 Q625.093 184.696 623.264 188.261 Q621.459 191.803 621.459 198.932 Q621.459 206.039 623.264 209.604 Q625.093 213.145 628.704 213.145 Q632.338 213.145 634.144 209.604 Q635.973 206.039 635.973 198.932 Q635.973 191.803 634.144 188.261 Q632.338 184.696 628.704 184.696 M628.704 180.993 Q634.514 180.993 637.57 185.599 Q640.649 190.182 640.649 198.932 Q640.649 207.659 637.57 212.266 Q634.514 216.849 628.704 216.849 Q622.894 216.849 619.815 212.266 Q616.76 207.659 616.76 198.932 Q616.76 190.182 619.815 185.599 Q622.894 180.993 628.704 180.993 Z" fill="#000000" fill-rule="nonzero" fill-opacity="1" /><polyline clip-path="url(#clip480)" style="stroke:#3da44d; stroke-linecap:round; stroke-linejoin:round; stroke-width:4; stroke-opacity:1; fill:none" points="282.562,250.738 426.994,250.738 "/>
<path clip-path="url(#clip480)" d="M458.474 234.731 L458.474 242.092 L467.247 242.092 L467.247 245.402 L458.474 245.402 L458.474 259.476 Q458.474 262.647 459.33 263.55 Q460.21 264.453 462.872 264.453 L467.247 264.453 L467.247 268.018 L462.872 268.018 Q457.941 268.018 456.066 266.189 Q454.191 264.337 454.191 259.476 L454.191 245.402 L451.066 245.402 L451.066 242.092 L454.191 242.092 L454.191 234.731 L458.474 234.731 Z" fill="#000000" fill-rule="nonzero" fill-opacity="1" /><path clip-path="url(#clip480)" d="M488.473 246.49 L518.149 246.49 L518.149 250.379 L488.473 250.379 L488.473 246.49 M488.473 255.934 L518.149 255.934 L518.149 259.869 L488.473 259.869 L488.473 255.934 Z" fill="#000000" fill-rule="nonzero" fill-opacity="1" /><path clip-path="url(#clip480)" d="M556.158 237.532 L544.353 255.981 L556.158 255.981 L556.158 237.532 M554.931 233.458 L560.811 233.458 L560.811 255.981 L565.742 255.981 L565.742 259.869 L560.811 259.869 L560.811 268.018 L556.158 268.018 L556.158 259.869 L540.556 259.869 L540.556 255.356 L554.931 233.458 Z" fill="#000000" fill-rule="nonzero" fill-opacity="1" /><path clip-path="url(#clip480)" d="M583.473 236.536 Q579.862 236.536 578.033 240.101 Q576.228 243.643 576.228 250.772 Q576.228 257.879 578.033 261.444 Q579.862 264.985 583.473 264.985 Q587.107 264.985 588.913 261.444 Q590.741 257.879 590.741 250.772 Q590.741 243.643 588.913 240.101 Q587.107 236.536 583.473 236.536 M583.473 232.833 Q589.283 232.833 592.339 237.439 Q595.417 242.022 595.417 250.772 Q595.417 259.499 592.339 264.106 Q589.283 268.689 583.473 268.689 Q577.663 268.689 574.584 264.106 Q571.529 259.499 571.529 250.772 Q571.529 242.022 574.584 237.439 Q577.663 232.833 583.473 232.833 Z" fill="#000000" fill-rule="nonzero" fill-opacity="1" /><path clip-path="url(#clip480)" d="M603.635 262.138 L608.519 262.138 L608.519 268.018 L603.635 268.018 L603.635 262.138 Z" fill="#000000" fill-rule="nonzero" fill-opacity="1" /><path clip-path="url(#clip480)" d="M628.704 236.536 Q625.093 236.536 623.264 240.101 Q621.459 243.643 621.459 250.772 Q621.459 257.879 623.264 261.444 Q625.093 264.985 628.704 264.985 Q632.338 264.985 634.144 261.444 Q635.973 257.879 635.973 250.772 Q635.973 243.643 634.144 240.101 Q632.338 236.536 628.704 236.536 M628.704 232.833 Q634.514 232.833 637.57 237.439 Q640.649 242.022 640.649 250.772 Q640.649 259.499 637.57 264.106 Q634.514 268.689 628.704 268.689 Q622.894 268.689 619.815 264.106 Q616.76 259.499 616.76 250.772 Q616.76 242.022 619.815 237.439 Q622.894 232.833 628.704 232.833 Z" fill="#000000" fill-rule="nonzero" fill-opacity="1" /><polyline clip-path="url(#clip480)" style="stroke:#c271d2; stroke-linecap:round; stroke-linejoin:round; stroke-width:4; stroke-opacity:1; fill:none" points="282.562,302.578 426.994,302.578 "/>
<path clip-path="url(#clip480)" d="M458.474 286.571 L458.474 293.932 L467.247 293.932 L467.247 297.242 L458.474 297.242 L458.474 311.316 Q458.474 314.487 459.33 315.39 Q460.21 316.293 462.872 316.293 L467.247 316.293 L467.247 319.858 L462.872 319.858 Q457.941 319.858 456.066 318.029 Q454.191 316.177 454.191 311.316 L454.191 297.242 L451.066 297.242 L451.066 293.932 L454.191 293.932 L454.191 286.571 L458.474 286.571 Z" fill="#000000" fill-rule="nonzero" fill-opacity="1" /><path clip-path="url(#clip480)" d="M488.473 298.33 L518.149 298.33 L518.149 302.219 L488.473 302.219 L488.473 298.33 M488.473 307.774 L518.149 307.774 L518.149 311.709 L488.473 311.709 L488.473 307.774 Z" fill="#000000" fill-rule="nonzero" fill-opacity="1" /><path clip-path="url(#clip480)" d="M553.89 300.714 Q550.742 300.714 548.89 302.867 Q547.061 305.02 547.061 308.77 Q547.061 312.496 548.89 314.672 Q550.742 316.825 553.89 316.825 Q557.038 316.825 558.867 314.672 Q560.718 312.496 560.718 308.77 Q560.718 305.02 558.867 302.867 Q557.038 300.714 553.89 300.714 M563.172 286.061 L563.172 290.321 Q561.413 289.487 559.607 289.048 Q557.825 288.608 556.066 288.608 Q551.436 288.608 548.982 291.733 Q546.552 294.858 546.205 301.177 Q547.57 299.163 549.631 298.098 Q551.691 297.01 554.168 297.01 Q559.376 297.01 562.385 300.182 Q565.417 303.33 565.417 308.77 Q565.417 314.094 562.269 317.311 Q559.121 320.529 553.89 320.529 Q547.894 320.529 544.723 315.946 Q541.552 311.339 541.552 302.612 Q541.552 294.418 545.441 289.557 Q549.33 284.673 555.88 284.673 Q557.64 284.673 559.422 285.02 Q561.228 285.367 563.172 286.061 Z" fill="#000000" fill-rule="nonzero" fill-opacity="1" /><path clip-path="url(#clip480)" d="M583.473 288.376 Q579.862 288.376 578.033 291.941 Q576.228 295.483 576.228 302.612 Q576.228 309.719 578.033 313.284 Q579.862 316.825 583.473 316.825 Q587.107 316.825 588.913 313.284 Q590.741 309.719 590.741 302.612 Q590.741 295.483 588.913 291.941 Q587.107 288.376 583.473 288.376 M583.473 284.673 Q589.283 284.673 592.339 289.279 Q595.417 293.862 595.417 302.612 Q595.417 311.339 592.339 315.946 Q589.283 320.529 583.473 320.529 Q577.663 320.529 574.584 315.946 Q571.529 311.339 571.529 302.612 Q571.529 293.862 574.584 289.279 Q577.663 284.673 583.473 284.673 Z" fill="#000000" fill-rule="nonzero" fill-opacity="1" /><path clip-path="url(#clip480)" d="M603.635 313.978 L608.519 313.978 L608.519 319.858 L603.635 319.858 L603.635 313.978 Z" fill="#000000" fill-rule="nonzero" fill-opacity="1" /><path clip-path="url(#clip480)" d="M628.704 288.376 Q625.093 288.376 623.264 291.941 Q621.459 295.483 621.459 302.612 Q621.459 309.719 623.264 313.284 Q625.093 316.825 628.704 316.825 Q632.338 316.825 634.144 313.284 Q635.973 309.719 635.973 302.612 Q635.973 295.483 634.144 291.941 Q632.338 288.376 628.704 288.376 M628.704 284.673 Q634.514 284.673 637.57 289.279 Q640.649 293.862 640.649 302.612 Q640.649 311.339 637.57 315.946 Q634.514 320.529 628.704 320.529 Q622.894 320.529 619.815 315.946 Q616.76 311.339 616.76 302.612 Q616.76 293.862 619.815 289.279 Q622.894 284.673 628.704 284.673 Z" fill="#000000" fill-rule="nonzero" fill-opacity="1" /><polyline clip-path="url(#clip480)" style="stroke:#ac8d18; stroke-linecap:round; stroke-linejoin:round; stroke-width:4; stroke-opacity:1; fill:none" points="282.562,354.418 426.994,354.418 "/>
<path clip-path="url(#clip480)" d="M458.474 338.411 L458.474 345.772 L467.247 345.772 L467.247 349.082 L458.474 349.082 L458.474 363.156 Q458.474 366.327 459.33 367.23 Q460.21 368.133 462.872 368.133 L467.247 368.133 L467.247 371.698 L462.872 371.698 Q457.941 371.698 456.066 369.869 Q454.191 368.017 454.191 363.156 L454.191 349.082 L451.066 349.082 L451.066 345.772 L454.191 345.772 L454.191 338.411 L458.474 338.411 Z" fill="#000000" fill-rule="nonzero" fill-opacity="1" /><path clip-path="url(#clip480)" d="M488.473 350.17 L518.149 350.17 L518.149 354.059 L488.473 354.059 L488.473 350.17 M488.473 359.614 L518.149 359.614 L518.149 363.549 L488.473 363.549 L488.473 359.614 Z" fill="#000000" fill-rule="nonzero" fill-opacity="1" /><path clip-path="url(#clip480)" d="M553.311 355.286 Q549.978 355.286 548.056 357.068 Q546.158 358.85 546.158 361.975 Q546.158 365.1 548.056 366.883 Q549.978 368.665 553.311 368.665 Q556.644 368.665 558.566 366.883 Q560.487 365.077 560.487 361.975 Q560.487 358.85 558.566 357.068 Q556.668 355.286 553.311 355.286 M548.635 353.295 Q545.626 352.554 543.936 350.494 Q542.269 348.434 542.269 345.471 Q542.269 341.327 545.209 338.92 Q548.172 336.513 553.311 336.513 Q558.473 336.513 561.413 338.92 Q564.353 341.327 564.353 345.471 Q564.353 348.434 562.663 350.494 Q560.996 352.554 558.01 353.295 Q561.39 354.082 563.265 356.374 Q565.163 358.665 565.163 361.975 Q565.163 366.999 562.084 369.684 Q559.029 372.369 553.311 372.369 Q547.593 372.369 544.515 369.684 Q541.459 366.999 541.459 361.975 Q541.459 358.665 543.357 356.374 Q545.256 354.082 548.635 353.295 M546.922 345.911 Q546.922 348.596 548.589 350.1 Q550.279 351.605 553.311 351.605 Q556.32 351.605 558.01 350.1 Q559.723 348.596 559.723 345.911 Q559.723 343.225 558.01 341.721 Q556.32 340.216 553.311 340.216 Q550.279 340.216 548.589 341.721 Q546.922 343.225 546.922 345.911 Z" fill="#000000" fill-rule="nonzero" fill-opacity="1" /><path clip-path="url(#clip480)" d="M583.473 340.216 Q579.862 340.216 578.033 343.781 Q576.228 347.323 576.228 354.452 Q576.228 361.559 578.033 365.124 Q579.862 368.665 583.473 368.665 Q587.107 368.665 588.913 365.124 Q590.741 361.559 590.741 354.452 Q590.741 347.323 588.913 343.781 Q587.107 340.216 583.473 340.216 M583.473 336.513 Q589.283 336.513 592.339 341.119 Q595.417 345.702 595.417 354.452 Q595.417 363.179 592.339 367.786 Q589.283 372.369 583.473 372.369 Q577.663 372.369 574.584 367.786 Q571.529 363.179 571.529 354.452 Q571.529 345.702 574.584 341.119 Q577.663 336.513 583.473 336.513 Z" fill="#000000" fill-rule="nonzero" fill-opacity="1" /><path clip-path="url(#clip480)" d="M603.635 365.818 L608.519 365.818 L608.519 371.698 L603.635 371.698 L603.635 365.818 Z" fill="#000000" fill-rule="nonzero" fill-opacity="1" /><path clip-path="url(#clip480)" d="M628.704 340.216 Q625.093 340.216 623.264 343.781 Q621.459 347.323 621.459 354.452 Q621.459 361.559 623.264 365.124 Q625.093 368.665 628.704 368.665 Q632.338 368.665 634.144 365.124 Q635.973 361.559 635.973 354.452 Q635.973 347.323 634.144 343.781 Q632.338 340.216 628.704 340.216 M628.704 336.513 Q634.514 336.513 637.57 341.119 Q640.649 345.702 640.649 354.452 Q640.649 363.179 637.57 367.786 Q634.514 372.369 628.704 372.369 Q622.894 372.369 619.815 367.786 Q616.76 363.179 616.76 354.452 Q616.76 345.702 619.815 341.119 Q622.894 336.513 628.704 336.513 Z" fill="#000000" fill-rule="nonzero" fill-opacity="1" /><polyline clip-path="url(#clip480)" style="stroke:#00a9ad; stroke-linecap:round; stroke-linejoin:round; stroke-width:4; stroke-opacity:1; fill:none" points="282.562,406.258 426.994,406.258 "/>
<path clip-path="url(#clip480)" d="M458.474 390.251 L458.474 397.612 L467.247 397.612 L467.247 400.922 L458.474 400.922 L458.474 414.996 Q458.474 418.167 459.33 419.07 Q460.21 419.973 462.872 419.973 L467.247 419.973 L467.247 423.538 L462.872 423.538 Q457.941 423.538 456.066 421.709 Q454.191 419.857 454.191 414.996 L454.191 400.922 L451.066 400.922 L451.066 397.612 L454.191 397.612 L454.191 390.251 L458.474 390.251 Z" fill="#000000" fill-rule="nonzero" fill-opacity="1" /><path clip-path="url(#clip480)" d="M488.473 402.01 L518.149 402.01 L518.149 405.899 L488.473 405.899 L488.473 402.01 M488.473 411.454 L518.149 411.454 L518.149 415.389 L488.473 415.389 L488.473 411.454 Z" fill="#000000" fill-rule="nonzero" fill-opacity="1" /><path clip-path="url(#clip480)" d="M544.121 419.602 L551.76 419.602 L551.76 393.237 L543.45 394.903 L543.45 390.644 L551.714 388.978 L556.39 388.978 L556.39 419.602 L564.029 419.602 L564.029 423.538 L544.121 423.538 L544.121 419.602 Z" fill="#000000" fill-rule="nonzero" fill-opacity="1" /><path clip-path="url(#clip480)" d="M583.473 392.056 Q579.862 392.056 578.033 395.621 Q576.228 399.163 576.228 406.292 Q576.228 413.399 578.033 416.964 Q579.862 420.505 583.473 420.505 Q587.107 420.505 588.913 416.964 Q590.741 413.399 590.741 406.292 Q590.741 399.163 588.913 395.621 Q587.107 392.056 583.473 392.056 M583.473 388.353 Q589.283 388.353 592.339 392.959 Q595.417 397.542 595.417 406.292 Q595.417 415.019 592.339 419.626 Q589.283 424.209 583.473 424.209 Q577.663 424.209 574.584 419.626 Q571.529 415.019 571.529 406.292 Q571.529 397.542 574.584 392.959 Q577.663 388.353 583.473 388.353 Z" fill="#000000" fill-rule="nonzero" fill-opacity="1" /><path clip-path="url(#clip480)" d="M613.635 392.056 Q610.024 392.056 608.195 395.621 Q606.389 399.163 606.389 406.292 Q606.389 413.399 608.195 416.964 Q610.024 420.505 613.635 420.505 Q617.269 420.505 619.075 416.964 Q620.903 413.399 620.903 406.292 Q620.903 399.163 619.075 395.621 Q617.269 392.056 613.635 392.056 M613.635 388.353 Q619.445 388.353 622.501 392.959 Q625.579 397.542 625.579 406.292 Q625.579 415.019 622.501 419.626 Q619.445 424.209 613.635 424.209 Q607.825 424.209 604.746 419.626 Q601.69 415.019 601.69 406.292 Q601.69 397.542 604.746 392.959 Q607.825 388.353 613.635 388.353 Z" fill="#000000" fill-rule="nonzero" fill-opacity="1" /><path clip-path="url(#clip480)" d="M633.797 417.658 L638.681 417.658 L638.681 423.538 L633.797 423.538 L633.797 417.658 Z" fill="#000000" fill-rule="nonzero" fill-opacity="1" /><path clip-path="url(#clip480)" d="M658.866 392.056 Q655.255 392.056 653.426 395.621 Q651.621 399.163 651.621 406.292 Q651.621 413.399 653.426 416.964 Q655.255 420.505 658.866 420.505 Q662.5 420.505 664.306 416.964 Q666.135 413.399 666.135 406.292 Q666.135 399.163 664.306 395.621 Q662.5 392.056 658.866 392.056 M658.866 388.353 Q664.676 388.353 667.732 392.959 Q670.81 397.542 670.81 406.292 Q670.81 415.019 667.732 419.626 Q664.676 424.209 658.866 424.209 Q653.056 424.209 649.977 419.626 Q646.922 415.019 646.922 406.292 Q646.922 397.542 649.977 392.959 Q653.056 388.353 658.866 388.353 Z" fill="#000000" fill-rule="nonzero" fill-opacity="1" /><polyline clip-path="url(#clip480)" style="stroke:#ed5d92; stroke-linecap:round; stroke-linejoin:round; stroke-width:4; stroke-opacity:1; fill:none" points="282.562,458.098 426.994,458.098 "/>
<path clip-path="url(#clip480)" d="M458.474 442.091 L458.474 449.452 L467.247 449.452 L467.247 452.762 L458.474 452.762 L458.474 466.836 Q458.474 470.007 459.33 470.91 Q460.21 471.813 462.872 471.813 L467.247 471.813 L467.247 475.378 L462.872 475.378 Q457.941 475.378 456.066 473.549 Q454.191 471.697 454.191 466.836 L454.191 452.762 L451.066 452.762 L451.066 449.452 L454.191 449.452 L454.191 442.091 L458.474 442.091 Z" fill="#000000" fill-rule="nonzero" fill-opacity="1" /><path clip-path="url(#clip480)" d="M488.473 453.85 L518.149 453.85 L518.149 457.739 L488.473 457.739 L488.473 453.85 M488.473 463.294 L518.149 463.294 L518.149 467.229 L488.473 467.229 L488.473 463.294 Z" fill="#000000" fill-rule="nonzero" fill-opacity="1" /><path clip-path="url(#clip480)" d="M544.121 471.442 L551.76 471.442 L551.76 445.077 L543.45 446.743 L543.45 442.484 L551.714 440.818 L556.39 440.818 L556.39 471.442 L564.029 471.442 L564.029 475.378 L544.121 475.378 L544.121 471.442 Z" fill="#000000" fill-rule="nonzero" fill-opacity="1" /><path clip-path="url(#clip480)" d="M577.501 471.442 L593.82 471.442 L593.82 475.378 L571.876 475.378 L571.876 471.442 Q574.538 468.688 579.121 464.058 Q583.728 459.405 584.908 458.063 Q587.153 455.54 588.033 453.804 Q588.936 452.044 588.936 450.355 Q588.936 447.6 586.991 445.864 Q585.07 444.128 581.968 444.128 Q579.769 444.128 577.316 444.892 Q574.885 445.655 572.107 447.206 L572.107 442.484 Q574.931 441.35 577.385 440.771 Q579.839 440.193 581.876 440.193 Q587.246 440.193 590.44 442.878 Q593.635 445.563 593.635 450.054 Q593.635 452.183 592.825 454.105 Q592.038 456.003 589.931 458.595 Q589.353 459.267 586.251 462.484 Q583.149 465.679 577.501 471.442 Z" fill="#000000" fill-rule="nonzero" fill-opacity="1" /><path clip-path="url(#clip480)" d="M613.635 443.896 Q610.024 443.896 608.195 447.461 Q606.389 451.003 606.389 458.132 Q606.389 465.239 608.195 468.804 Q610.024 472.345 613.635 472.345 Q617.269 472.345 619.075 468.804 Q620.903 465.239 620.903 458.132 Q620.903 451.003 619.075 447.461 Q617.269 443.896 613.635 443.896 M613.635 440.193 Q619.445 440.193 622.501 444.799 Q625.579 449.382 625.579 458.132 Q625.579 466.859 622.501 471.466 Q619.445 476.049 613.635 476.049 Q607.825 476.049 604.746 471.466 Q601.69 466.859 601.69 458.132 Q601.69 449.382 604.746 444.799 Q607.825 440.193 613.635 440.193 Z" fill="#000000" fill-rule="nonzero" fill-opacity="1" /><path clip-path="url(#clip480)" d="M633.797 469.498 L638.681 469.498 L638.681 475.378 L633.797 475.378 L633.797 469.498 Z" fill="#000000" fill-rule="nonzero" fill-opacity="1" /><path clip-path="url(#clip480)" d="M658.866 443.896 Q655.255 443.896 653.426 447.461 Q651.621 451.003 651.621 458.132 Q651.621 465.239 653.426 468.804 Q655.255 472.345 658.866 472.345 Q662.5 472.345 664.306 468.804 Q666.135 465.239 666.135 458.132 Q666.135 451.003 664.306 447.461 Q662.5 443.896 658.866 443.896 M658.866 440.193 Q664.676 440.193 667.732 444.799 Q670.81 449.382 670.81 458.132 Q670.81 466.859 667.732 471.466 Q664.676 476.049 658.866 476.049 Q653.056 476.049 649.977 471.466 Q646.922 466.859 646.922 458.132 Q646.922 449.382 649.977 444.799 Q653.056 440.193 658.866 440.193 Z" fill="#000000" fill-rule="nonzero" fill-opacity="1" /></svg>
