<?xml version="1.0" encoding="utf-8"?>
<svg xmlns="http://www.w3.org/2000/svg" xmlns:xlink="http://www.w3.org/1999/xlink" width="600" height="400" viewBox="0 0 2400 1600">
<defs>
  <clipPath id="clip560">
    <rect x="0" y="0" width="2400" height="1600"/>
  </clipPath>
</defs>
<path clip-path="url(#clip560)" d="M0 1600 L2400 1600 L2400 0 L0 0  Z" fill="#ffffff" fill-rule="evenodd" fill-opacity="1"/>
<defs>
  <clipPath id="clip561">
    <rect x="480" y="0" width="1681" height="1600"/>
  </clipPath>
</defs>
<path clip-path="url(#clip560)" d="M186.274 1486.45 L2352.76 1486.45 L2352.76 47.2441 L186.274 47.2441  Z" fill="#ffffff" fill-rule="evenodd" fill-opacity="1"/>
<defs>
  <clipPath id="clip562">
    <rect x="186" y="47" width="2167" height="1440"/>
  </clipPath>
</defs>
<polyline clip-path="url(#clip562)" style="stroke:#000000; stroke-linecap:round; stroke-linejoin:round; stroke-width:2; stroke-opacity:0.1; fill:none" points="237.319,1486.45 237.319,47.2441 "/>
<polyline clip-path="url(#clip562)" style="stroke:#000000; stroke-linecap:round; stroke-linejoin:round; stroke-width:2; stroke-opacity:0.1; fill:none" points="750.849,1486.45 750.849,47.2441 "/>
<polyline clip-path="url(#clip562)" style="stroke:#000000; stroke-linecap:round; stroke-linejoin:round; stroke-width:2; stroke-opacity:0.1; fill:none" points="1264.38,1486.45 1264.38,47.2441 "/>
<polyline clip-path="url(#clip562)" style="stroke:#000000; stroke-linecap:round; stroke-linejoin:round; stroke-width:2; stroke-opacity:0.1; fill:none" points="1777.91,1486.45 1777.91,47.2441 "/>
<polyline clip-path="url(#clip562)" style="stroke:#000000; stroke-linecap:round; stroke-linejoin:round; stroke-width:2; stroke-opacity:0.1; fill:none" points="2291.44,1486.45 2291.44,47.2441 "/>
<polyline clip-path="url(#clip560)" style="stroke:#000000; stroke-linecap:round; stroke-linejoin:round; stroke-width:4; stroke-opacity:1; fill:none" points="186.274,1486.45 2352.76,1486.45 "/>
<polyline clip-path="url(#clip560)" style="stroke:#000000; stroke-linecap:round; stroke-linejoin:round; stroke-width:4; stroke-opacity:1; fill:none" points="237.319,1486.45 237.319,1467.55 "/>
<polyline clip-path="url(#clip560)" style="stroke:#000000; stroke-linecap:round; stroke-linejoin:round; stroke-width:4; stroke-opacity:1; fill:none" points="750.849,1486.45 750.849,1467.55 "/>
<polyline clip-path="url(#clip560)" style="stroke:#000000; stroke-linecap:round; stroke-linejoin:round; stroke-width:4; stroke-opacity:1; fill:none" points="1264.38,1486.45 1264.38,1467.55 "/>
<polyline clip-path="url(#clip560)" style="stroke:#000000; stroke-linecap:round; stroke-linejoin:round; stroke-width:4; stroke-opacity:1; fill:none" points="1777.91,1486.45 1777.91,1467.55 "/>
<polyline clip-path="url(#clip560)" style="stroke:#000000; stroke-linecap:round; stroke-linejoin:round; stroke-width:4; stroke-opacity:1; fill:none" points="2291.44,1486.45 2291.44,1467.55 "/>
<path clip-path="url(#clip560)" d="M237.319 1517.37 Q233.708 1517.37 231.879 1520.93 Q230.074 1524.47 230.074 1531.6 Q230.074 1538.71 231.879 1542.27 Q233.708 1545.82 237.319 1545.82 Q240.953 1545.82 242.759 1542.27 Q244.587 1538.71 244.587 1531.6 Q244.587 1524.47 242.759 1520.93 Q240.953 1517.37 237.319 1517.37 M237.319 1513.66 Q243.129 1513.66 246.185 1518.27 Q249.263 1522.85 249.263 1531.6 Q249.263 1540.33 246.185 1544.94 Q243.129 1549.52 237.319 1549.52 Q231.509 1549.52 228.43 1544.94 Q225.375 1540.33 225.375 1531.6 Q225.375 1522.85 228.43 1518.27 Q231.509 1513.66 237.319 1513.66 Z" fill="#000000" fill-rule="nonzero" fill-opacity="1" /><path clip-path="url(#clip560)" d="M725.548 1514.29 L743.905 1514.29 L743.905 1518.22 L729.831 1518.22 L729.831 1526.7 Q730.849 1526.35 731.868 1526.19 Q732.886 1526 733.905 1526 Q739.692 1526 743.072 1529.17 Q746.451 1532.34 746.451 1537.76 Q746.451 1543.34 742.979 1546.44 Q739.507 1549.52 733.187 1549.52 Q731.011 1549.52 728.743 1549.15 Q726.498 1548.78 724.09 1548.04 L724.09 1543.34 Q726.173 1544.47 728.396 1545.03 Q730.618 1545.58 733.095 1545.58 Q737.099 1545.58 739.437 1543.48 Q741.775 1541.37 741.775 1537.76 Q741.775 1534.15 739.437 1532.04 Q737.099 1529.94 733.095 1529.94 Q731.22 1529.94 729.345 1530.35 Q727.493 1530.77 725.548 1531.65 L725.548 1514.29 Z" fill="#000000" fill-rule="nonzero" fill-opacity="1" /><path clip-path="url(#clip560)" d="M765.664 1517.37 Q762.053 1517.37 760.224 1520.93 Q758.419 1524.47 758.419 1531.6 Q758.419 1538.71 760.224 1542.27 Q762.053 1545.82 765.664 1545.82 Q769.298 1545.82 771.104 1542.27 Q772.932 1538.71 772.932 1531.6 Q772.932 1524.47 771.104 1520.93 Q769.298 1517.37 765.664 1517.37 M765.664 1513.66 Q771.474 1513.66 774.53 1518.27 Q777.608 1522.85 777.608 1531.6 Q777.608 1540.33 774.53 1544.94 Q771.474 1549.52 765.664 1549.52 Q759.854 1549.52 756.775 1544.94 Q753.72 1540.33 753.72 1531.6 Q753.72 1522.85 756.775 1518.27 Q759.854 1513.66 765.664 1513.66 Z" fill="#000000" fill-rule="nonzero" fill-opacity="1" /><path clip-path="url(#clip560)" d="M1223.99 1544.91 L1231.63 1544.91 L1231.63 1518.55 L1223.32 1520.21 L1223.32 1515.95 L1231.58 1514.29 L1236.25 1514.29 L1236.25 1544.91 L1243.89 1544.91 L1243.89 1548.85 L1223.99 1548.85 L1223.99 1544.91 Z" fill="#000000" fill-rule="nonzero" fill-opacity="1" /><path clip-path="url(#clip560)" d="M1263.34 1517.37 Q1259.73 1517.37 1257.9 1520.93 Q1256.09 1524.47 1256.09 1531.6 Q1256.09 1538.71 1257.9 1542.27 Q1259.73 1545.82 1263.34 1545.82 Q1266.97 1545.82 1268.78 1542.27 Q1270.61 1538.71 1270.61 1531.6 Q1270.61 1524.47 1268.78 1520.93 Q1266.97 1517.37 1263.34 1517.37 M1263.34 1513.66 Q1269.15 1513.66 1272.2 1518.27 Q1275.28 1522.85 1275.28 1531.6 Q1275.28 1540.33 1272.2 1544.94 Q1269.15 1549.52 1263.34 1549.52 Q1257.53 1549.52 1254.45 1544.94 Q1251.39 1540.33 1251.39 1531.6 Q1251.39 1522.85 1254.45 1518.27 Q1257.53 1513.66 1263.34 1513.66 Z" fill="#000000" fill-rule="nonzero" fill-opacity="1" /><path clip-path="url(#clip560)" d="M1293.5 1517.37 Q1289.89 1517.37 1288.06 1520.93 Q1286.25 1524.47 1286.25 1531.6 Q1286.25 1538.71 1288.06 1542.27 Q1289.89 1545.82 1293.5 1545.82 Q1297.13 1545.82 1298.94 1542.27 Q1300.77 1538.71 1300.77 1531.6 Q1300.77 1524.47 1298.94 1520.93 Q1297.13 1517.37 1293.5 1517.37 M1293.5 1513.66 Q1299.31 1513.66 1302.37 1518.27 Q1305.44 1522.85 1305.44 1531.6 Q1305.44 1540.33 1302.37 1544.94 Q1299.31 1549.52 1293.5 1549.52 Q1287.69 1549.52 1284.61 1544.94 Q1281.56 1540.33 1281.56 1531.6 Q1281.56 1522.85 1284.61 1518.27 Q1287.69 1513.66 1293.5 1513.66 Z" fill="#000000" fill-rule="nonzero" fill-opacity="1" /><path clip-path="url(#clip560)" d="M1737.52 1544.91 L1745.16 1544.91 L1745.16 1518.55 L1736.85 1520.21 L1736.85 1515.95 L1745.11 1514.29 L1749.79 1514.29 L1749.79 1544.91 L1757.42 1544.91 L1757.42 1548.85 L1737.52 1548.85 L1737.52 1544.91 Z" fill="#000000" fill-rule="nonzero" fill-opacity="1" /><path clip-path="url(#clip560)" d="M1766.91 1514.29 L1785.27 1514.29 L1785.27 1518.22 L1771.2 1518.22 L1771.2 1526.7 Q1772.22 1526.35 1773.23 1526.19 Q1774.25 1526 1775.27 1526 Q1781.06 1526 1784.44 1529.17 Q1787.82 1532.34 1787.82 1537.76 Q1787.82 1543.34 1784.35 1546.44 Q1780.87 1549.52 1774.55 1549.52 Q1772.38 1549.52 1770.11 1549.15 Q1767.86 1548.78 1765.46 1548.04 L1765.46 1543.34 Q1767.54 1544.47 1769.76 1545.03 Q1771.98 1545.58 1774.46 1545.58 Q1778.47 1545.58 1780.8 1543.48 Q1783.14 1541.37 1783.14 1537.76 Q1783.14 1534.15 1780.8 1532.04 Q1778.47 1529.94 1774.46 1529.94 Q1772.59 1529.94 1770.71 1530.35 Q1768.86 1530.77 1766.91 1531.65 L1766.91 1514.29 Z" fill="#000000" fill-rule="nonzero" fill-opacity="1" /><path clip-path="url(#clip560)" d="M1807.03 1517.37 Q1803.42 1517.37 1801.59 1520.93 Q1799.78 1524.47 1799.78 1531.6 Q1799.78 1538.71 1801.59 1542.27 Q1803.42 1545.82 1807.03 1545.82 Q1810.66 1545.82 1812.47 1542.27 Q1814.3 1538.71 1814.3 1531.6 Q1814.3 1524.47 1812.47 1520.93 Q1810.66 1517.37 1807.03 1517.37 M1807.03 1513.66 Q1812.84 1513.66 1815.9 1518.27 Q1818.97 1522.85 1818.97 1531.6 Q1818.97 1540.33 1815.9 1544.94 Q1812.84 1549.52 1807.03 1549.52 Q1801.22 1549.52 1798.14 1544.94 Q1795.09 1540.33 1795.09 1531.6 Q1795.09 1522.85 1798.14 1518.27 Q1801.22 1513.66 1807.03 1513.66 Z" fill="#000000" fill-rule="nonzero" fill-opacity="1" /><path clip-path="url(#clip560)" d="M2255.13 1544.91 L2271.45 1544.91 L2271.45 1548.85 L2249.51 1548.85 L2249.51 1544.91 Q2252.17 1542.16 2256.75 1537.53 Q2261.36 1532.88 2262.54 1531.53 Q2264.79 1529.01 2265.67 1527.27 Q2266.57 1525.51 2266.57 1523.82 Q2266.57 1521.07 2264.62 1519.33 Q2262.7 1517.6 2259.6 1517.6 Q2257.4 1517.6 2254.95 1518.36 Q2252.52 1519.13 2249.74 1520.68 L2249.74 1515.95 Q2252.56 1514.82 2255.02 1514.24 Q2257.47 1513.66 2259.51 1513.66 Q2264.88 1513.66 2268.07 1516.35 Q2271.27 1519.03 2271.27 1523.52 Q2271.27 1525.65 2270.46 1527.57 Q2269.67 1529.47 2267.56 1532.07 Q2266.98 1532.74 2263.88 1535.95 Q2260.78 1539.15 2255.13 1544.91 Z" fill="#000000" fill-rule="nonzero" fill-opacity="1" /><path clip-path="url(#clip560)" d="M2291.27 1517.37 Q2287.66 1517.37 2285.83 1520.93 Q2284.02 1524.47 2284.02 1531.6 Q2284.02 1538.71 2285.83 1542.27 Q2287.66 1545.82 2291.27 1545.82 Q2294.9 1545.82 2296.71 1542.27 Q2298.54 1538.71 2298.54 1531.6 Q2298.54 1524.47 2296.71 1520.93 Q2294.9 1517.37 2291.27 1517.37 M2291.27 1513.66 Q2297.08 1513.66 2300.13 1518.27 Q2303.21 1522.85 2303.21 1531.6 Q2303.21 1540.33 2300.13 1544.94 Q2297.08 1549.52 2291.27 1549.52 Q2285.46 1549.52 2282.38 1544.94 Q2279.32 1540.33 2279.32 1531.6 Q2279.32 1522.85 2282.38 1518.27 Q2285.46 1513.66 2291.27 1513.66 Z" fill="#000000" fill-rule="nonzero" fill-opacity="1" /><path clip-path="url(#clip560)" d="M2321.43 1517.37 Q2317.82 1517.37 2315.99 1520.93 Q2314.18 1524.47 2314.18 1531.6 Q2314.18 1538.71 2315.99 1542.27 Q2317.82 1545.82 2321.43 1545.82 Q2325.06 1545.82 2326.87 1542.27 Q2328.7 1538.71 2328.7 1531.6 Q2328.7 1524.47 2326.87 1520.93 Q2325.06 1517.37 2321.43 1517.37 M2321.43 1513.66 Q2327.24 1513.66 2330.29 1518.27 Q2333.37 1522.85 2333.37 1531.6 Q2333.37 1540.33 2330.29 1544.94 Q2327.24 1549.52 2321.43 1549.52 Q2315.62 1549.52 2312.54 1544.94 Q2309.48 1540.33 2309.48 1531.6 Q2309.48 1522.85 2312.54 1518.27 Q2315.62 1513.66 2321.43 1513.66 Z" fill="#000000" fill-rule="nonzero" fill-opacity="1" /><polyline clip-path="url(#clip562)" style="stroke:#000000; stroke-linecap:round; stroke-linejoin:round; stroke-width:2; stroke-opacity:0.1; fill:none" points="186.274,1445.47 2352.76,1445.47 "/>
<polyline clip-path="url(#clip562)" style="stroke:#000000; stroke-linecap:round; stroke-linejoin:round; stroke-width:2; stroke-opacity:0.1; fill:none" points="186.274,1105.98 2352.76,1105.98 "/>
<polyline clip-path="url(#clip562)" style="stroke:#000000; stroke-linecap:round; stroke-linejoin:round; stroke-width:2; stroke-opacity:0.1; fill:none" points="186.274,766.501 2352.76,766.501 "/>
<polyline clip-path="url(#clip562)" style="stroke:#000000; stroke-linecap:round; stroke-linejoin:round; stroke-width:2; stroke-opacity:0.1; fill:none" points="186.274,427.018 2352.76,427.018 "/>
<polyline clip-path="url(#clip562)" style="stroke:#000000; stroke-linecap:round; stroke-linejoin:round; stroke-width:2; stroke-opacity:0.1; fill:none" points="186.274,87.535 2352.76,87.535 "/>
<polyline clip-path="url(#clip560)" style="stroke:#000000; stroke-linecap:round; stroke-linejoin:round; stroke-width:4; stroke-opacity:1; fill:none" points="186.274,1486.45 186.274,47.2441 "/>
<polyline clip-path="url(#clip560)" style="stroke:#000000; stroke-linecap:round; stroke-linejoin:round; stroke-width:4; stroke-opacity:1; fill:none" points="186.274,1445.47 205.172,1445.47 "/>
<polyline clip-path="url(#clip560)" style="stroke:#000000; stroke-linecap:round; stroke-linejoin:round; stroke-width:4; stroke-opacity:1; fill:none" points="186.274,1105.98 205.172,1105.98 "/>
<polyline clip-path="url(#clip560)" style="stroke:#000000; stroke-linecap:round; stroke-linejoin:round; stroke-width:4; stroke-opacity:1; fill:none" points="186.274,766.501 205.172,766.501 "/>
<polyline clip-path="url(#clip560)" style="stroke:#000000; stroke-linecap:round; stroke-linejoin:round; stroke-width:4; stroke-opacity:1; fill:none" points="186.274,427.018 205.172,427.018 "/>
<polyline clip-path="url(#clip560)" style="stroke:#000000; stroke-linecap:round; stroke-linejoin:round; stroke-width:4; stroke-opacity:1; fill:none" points="186.274,87.535 205.172,87.535 "/>
<path clip-path="url(#clip560)" d="M62.9365 1431.27 Q59.3254 1431.27 57.4967 1434.83 Q55.6912 1438.37 55.6912 1445.5 Q55.6912 1452.61 57.4967 1456.17 Q59.3254 1459.72 62.9365 1459.72 Q66.5707 1459.72 68.3763 1456.17 Q70.205 1452.61 70.205 1445.5 Q70.205 1438.37 68.3763 1434.83 Q66.5707 1431.27 62.9365 1431.27 M62.9365 1427.56 Q68.7467 1427.56 71.8022 1432.17 Q74.8809 1436.75 74.8809 1445.5 Q74.8809 1454.23 71.8022 1458.84 Q68.7467 1463.42 62.9365 1463.42 Q57.1264 1463.42 54.0477 1458.84 Q50.9921 1454.23 50.9921 1445.5 Q50.9921 1436.75 54.0477 1432.17 Q57.1264 1427.56 62.9365 1427.56 Z" fill="#000000" fill-rule="nonzero" fill-opacity="1" /><path clip-path="url(#clip560)" d="M83.0984 1456.87 L87.9827 1456.87 L87.9827 1462.75 L83.0984 1462.75 L83.0984 1456.87 Z" fill="#000000" fill-rule="nonzero" fill-opacity="1" /><path clip-path="url(#clip560)" d="M108.168 1431.27 Q104.557 1431.27 102.728 1434.83 Q100.922 1438.37 100.922 1445.5 Q100.922 1452.61 102.728 1456.17 Q104.557 1459.72 108.168 1459.72 Q111.802 1459.72 113.608 1456.17 Q115.436 1452.61 115.436 1445.5 Q115.436 1438.37 113.608 1434.83 Q111.802 1431.27 108.168 1431.27 M108.168 1427.56 Q113.978 1427.56 117.033 1432.17 Q120.112 1436.75 120.112 1445.5 Q120.112 1454.23 117.033 1458.84 Q113.978 1463.42 108.168 1463.42 Q102.358 1463.42 99.2789 1458.84 Q96.2234 1454.23 96.2234 1445.5 Q96.2234 1436.75 99.2789 1432.17 Q102.358 1427.56 108.168 1427.56 Z" fill="#000000" fill-rule="nonzero" fill-opacity="1" /><path clip-path="url(#clip560)" d="M138.33 1431.27 Q134.719 1431.27 132.89 1434.83 Q131.084 1438.37 131.084 1445.5 Q131.084 1452.61 132.89 1456.17 Q134.719 1459.72 138.33 1459.72 Q141.964 1459.72 143.769 1456.17 Q145.598 1452.61 145.598 1445.5 Q145.598 1438.37 143.769 1434.83 Q141.964 1431.27 138.33 1431.27 M138.33 1427.56 Q144.14 1427.56 147.195 1432.17 Q150.274 1436.75 150.274 1445.5 Q150.274 1454.23 147.195 1458.84 Q144.14 1463.42 138.33 1463.42 Q132.519 1463.42 129.441 1458.84 Q126.385 1454.23 126.385 1445.5 Q126.385 1436.75 129.441 1432.17 Q132.519 1427.56 138.33 1427.56 Z" fill="#000000" fill-rule="nonzero" fill-opacity="1" /><path clip-path="url(#clip560)" d="M63.9319 1091.78 Q60.3208 1091.78 58.4921 1095.35 Q56.6865 1098.89 56.6865 1106.02 Q56.6865 1113.13 58.4921 1116.69 Q60.3208 1120.23 63.9319 1120.23 Q67.5661 1120.23 69.3717 1116.69 Q71.2004 1113.13 71.2004 1106.02 Q71.2004 1098.89 69.3717 1095.35 Q67.5661 1091.78 63.9319 1091.78 M63.9319 1088.08 Q69.742 1088.08 72.7976 1092.69 Q75.8763 1097.27 75.8763 1106.02 Q75.8763 1114.75 72.7976 1119.35 Q69.742 1123.94 63.9319 1123.94 Q58.1217 1123.94 55.043 1119.35 Q51.9875 1114.75 51.9875 1106.02 Q51.9875 1097.27 55.043 1092.69 Q58.1217 1088.08 63.9319 1088.08 Z" fill="#000000" fill-rule="nonzero" fill-opacity="1" /><path clip-path="url(#clip560)" d="M84.0938 1117.38 L88.978 1117.38 L88.978 1123.26 L84.0938 1123.26 L84.0938 1117.38 Z" fill="#000000" fill-rule="nonzero" fill-opacity="1" /><path clip-path="url(#clip560)" d="M103.191 1119.33 L119.51 1119.33 L119.51 1123.26 L97.566 1123.26 L97.566 1119.33 Q100.228 1116.57 104.811 1111.94 Q109.418 1107.29 110.598 1105.95 Q112.844 1103.43 113.723 1101.69 Q114.626 1099.93 114.626 1098.24 Q114.626 1095.49 112.682 1093.75 Q110.76 1092.01 107.658 1092.01 Q105.459 1092.01 103.006 1092.78 Q100.575 1093.54 97.7974 1095.09 L97.7974 1090.37 Q100.621 1089.24 103.075 1088.66 Q105.529 1088.08 107.566 1088.08 Q112.936 1088.08 116.131 1090.76 Q119.325 1093.45 119.325 1097.94 Q119.325 1100.07 118.515 1101.99 Q117.728 1103.89 115.621 1106.48 Q115.043 1107.15 111.941 1110.37 Q108.839 1113.57 103.191 1119.33 Z" fill="#000000" fill-rule="nonzero" fill-opacity="1" /><path clip-path="url(#clip560)" d="M129.371 1088.7 L147.728 1088.7 L147.728 1092.64 L133.654 1092.64 L133.654 1101.11 Q134.672 1100.76 135.691 1100.6 Q136.709 1100.42 137.728 1100.42 Q143.515 1100.42 146.894 1103.59 Q150.274 1106.76 150.274 1112.18 Q150.274 1117.76 146.802 1120.86 Q143.33 1123.94 137.01 1123.94 Q134.834 1123.94 132.566 1123.57 Q130.32 1123.19 127.913 1122.45 L127.913 1117.76 Q129.996 1118.89 132.219 1119.44 Q134.441 1120 136.918 1120 Q140.922 1120 143.26 1117.89 Q145.598 1115.79 145.598 1112.18 Q145.598 1108.57 143.26 1106.46 Q140.922 1104.35 136.918 1104.35 Q135.043 1104.35 133.168 1104.77 Q131.316 1105.19 129.371 1106.07 L129.371 1088.7 Z" fill="#000000" fill-rule="nonzero" fill-opacity="1" /><path clip-path="url(#clip560)" d="M62.9365 752.3 Q59.3254 752.3 57.4967 755.865 Q55.6912 759.406 55.6912 766.536 Q55.6912 773.642 57.4967 777.207 Q59.3254 780.749 62.9365 780.749 Q66.5707 780.749 68.3763 777.207 Q70.205 773.642 70.205 766.536 Q70.205 759.406 68.3763 755.865 Q66.5707 752.3 62.9365 752.3 M62.9365 748.596 Q68.7467 748.596 71.8022 753.203 Q74.8809 757.786 74.8809 766.536 Q74.8809 775.263 71.8022 779.869 Q68.7467 784.452 62.9365 784.452 Q57.1264 784.452 54.0477 779.869 Q50.9921 775.263 50.9921 766.536 Q50.9921 757.786 54.0477 753.203 Q57.1264 748.596 62.9365 748.596 Z" fill="#000000" fill-rule="nonzero" fill-opacity="1" /><path clip-path="url(#clip560)" d="M83.0984 777.902 L87.9827 777.902 L87.9827 783.781 L83.0984 783.781 L83.0984 777.902 Z" fill="#000000" fill-rule="nonzero" fill-opacity="1" /><path clip-path="url(#clip560)" d="M98.2141 749.221 L116.57 749.221 L116.57 753.156 L102.496 753.156 L102.496 761.629 Q103.515 761.281 104.534 761.119 Q105.552 760.934 106.571 760.934 Q112.358 760.934 115.737 764.105 Q119.117 767.277 119.117 772.693 Q119.117 778.272 115.645 781.374 Q112.172 784.452 105.853 784.452 Q103.677 784.452 101.409 784.082 Q99.1632 783.712 96.7558 782.971 L96.7558 778.272 Q98.8391 779.406 101.061 779.962 Q103.284 780.517 105.76 780.517 Q109.765 780.517 112.103 778.411 Q114.441 776.304 114.441 772.693 Q114.441 769.082 112.103 766.976 Q109.765 764.869 105.76 764.869 Q103.885 764.869 102.01 765.286 Q100.159 765.703 98.2141 766.582 L98.2141 749.221 Z" fill="#000000" fill-rule="nonzero" fill-opacity="1" /><path clip-path="url(#clip560)" d="M138.33 752.3 Q134.719 752.3 132.89 755.865 Q131.084 759.406 131.084 766.536 Q131.084 773.642 132.89 777.207 Q134.719 780.749 138.33 780.749 Q141.964 780.749 143.769 777.207 Q145.598 773.642 145.598 766.536 Q145.598 759.406 143.769 755.865 Q141.964 752.3 138.33 752.3 M138.33 748.596 Q144.14 748.596 147.195 753.203 Q150.274 757.786 150.274 766.536 Q150.274 775.263 147.195 779.869 Q144.14 784.452 138.33 784.452 Q132.519 784.452 129.441 779.869 Q126.385 775.263 126.385 766.536 Q126.385 757.786 129.441 753.203 Q132.519 748.596 138.33 748.596 Z" fill="#000000" fill-rule="nonzero" fill-opacity="1" /><path clip-path="url(#clip560)" d="M63.9319 412.817 Q60.3208 412.817 58.4921 416.382 Q56.6865 419.923 56.6865 427.053 Q56.6865 434.159 58.4921 437.724 Q60.3208 441.266 63.9319 441.266 Q67.5661 441.266 69.3717 437.724 Q71.2004 434.159 71.2004 427.053 Q71.2004 419.923 69.3717 416.382 Q67.5661 412.817 63.9319 412.817 M63.9319 409.113 Q69.742 409.113 72.7976 413.72 Q75.8763 418.303 75.8763 427.053 Q75.8763 435.78 72.7976 440.386 Q69.742 444.969 63.9319 444.969 Q58.1217 444.969 55.043 440.386 Q51.9875 435.78 51.9875 427.053 Q51.9875 418.303 55.043 413.72 Q58.1217 409.113 63.9319 409.113 Z" fill="#000000" fill-rule="nonzero" fill-opacity="1" /><path clip-path="url(#clip560)" d="M84.0938 438.418 L88.978 438.418 L88.978 444.298 L84.0938 444.298 L84.0938 438.418 Z" fill="#000000" fill-rule="nonzero" fill-opacity="1" /><path clip-path="url(#clip560)" d="M97.9826 409.738 L120.205 409.738 L120.205 411.729 L107.658 444.298 L102.774 444.298 L114.58 413.673 L97.9826 413.673 L97.9826 409.738 Z" fill="#000000" fill-rule="nonzero" fill-opacity="1" /><path clip-path="url(#clip560)" d="M129.371 409.738 L147.728 409.738 L147.728 413.673 L133.654 413.673 L133.654 422.145 Q134.672 421.798 135.691 421.636 Q136.709 421.451 137.728 421.451 Q143.515 421.451 146.894 424.622 Q150.274 427.794 150.274 433.21 Q150.274 438.789 146.802 441.891 Q143.33 444.969 137.01 444.969 Q134.834 444.969 132.566 444.599 Q130.32 444.229 127.913 443.488 L127.913 438.789 Q129.996 439.923 132.219 440.479 Q134.441 441.034 136.918 441.034 Q140.922 441.034 143.26 438.928 Q145.598 436.821 145.598 433.21 Q145.598 429.599 143.26 427.493 Q140.922 425.386 136.918 425.386 Q135.043 425.386 133.168 425.803 Q131.316 426.219 129.371 427.099 L129.371 409.738 Z" fill="#000000" fill-rule="nonzero" fill-opacity="1" /><path clip-path="url(#clip560)" d="M53.7467 100.88 L61.3856 100.88 L61.3856 74.5142 L53.0754 76.1809 L53.0754 71.9216 L61.3393 70.255 L66.0152 70.255 L66.0152 100.88 L73.654 100.88 L73.654 104.815 L53.7467 104.815 L53.7467 100.88 Z" fill="#000000" fill-rule="nonzero" fill-opacity="1" /><path clip-path="url(#clip560)" d="M83.0984 98.9354 L87.9827 98.9354 L87.9827 104.815 L83.0984 104.815 L83.0984 98.9354 Z" fill="#000000" fill-rule="nonzero" fill-opacity="1" /><path clip-path="url(#clip560)" d="M108.168 73.3337 Q104.557 73.3337 102.728 76.8985 Q100.922 80.4401 100.922 87.5697 Q100.922 94.6761 102.728 98.2409 Q104.557 101.783 108.168 101.783 Q111.802 101.783 113.608 98.2409 Q115.436 94.6761 115.436 87.5697 Q115.436 80.4401 113.608 76.8985 Q111.802 73.3337 108.168 73.3337 M108.168 69.63 Q113.978 69.63 117.033 74.2364 Q120.112 78.8197 120.112 87.5697 Q120.112 96.2965 117.033 100.903 Q113.978 105.486 108.168 105.486 Q102.358 105.486 99.2789 100.903 Q96.2234 96.2965 96.2234 87.5697 Q96.2234 78.8197 99.2789 74.2364 Q102.358 69.63 108.168 69.63 Z" fill="#000000" fill-rule="nonzero" fill-opacity="1" /><path clip-path="url(#clip560)" d="M138.33 73.3337 Q134.719 73.3337 132.89 76.8985 Q131.084 80.4401 131.084 87.5697 Q131.084 94.6761 132.89 98.2409 Q134.719 101.783 138.33 101.783 Q141.964 101.783 143.769 98.2409 Q145.598 94.6761 145.598 87.5697 Q145.598 80.4401 143.769 76.8985 Q141.964 73.3337 138.33 73.3337 M138.33 69.63 Q144.14 69.63 147.195 74.2364 Q150.274 78.8197 150.274 87.5697 Q150.274 96.2965 147.195 100.903 Q144.14 105.486 138.33 105.486 Q132.519 105.486 129.441 100.903 Q126.385 96.2965 126.385 87.5697 Q126.385 78.8197 129.441 74.2364 Q132.519 69.63 138.33 69.63 Z" fill="#000000" fill-rule="nonzero" fill-opacity="1" /><polyline clip-path="url(#clip562)" style="stroke:#009af9; stroke-linecap:round; stroke-linejoin:round; stroke-width:4; stroke-opacity:1; fill:none" points="247.59,1445.47 257.86,1445.47 268.131,1445.47 278.401,1445.47 288.672,1445.47 298.943,1445.47 309.213,1445.47 319.484,1445.47 329.754,1445.47 340.025,1445.47 350.296,1445.47 360.566,1445.47 370.837,1445.47 381.107,1445.47 391.378,1445.47 401.649,1445.47 411.919,1445.47 422.19,1445.47 432.46,1445.47 442.731,1445.47 453.002,1445.47 463.272,1445.47 473.543,1445.47 483.813,1445.46 494.084,1445.34 504.355,1444.95 514.625,1444.14 524.896,1442.76 535.167,1440.66 545.437,1437.68 555.708,1433.67 565.978,1428.47 576.249,1421.94 586.52,1413.92 596.79,1404.25 607.061,1392.78 617.331,1379.37 627.602,1363.85 637.873,1346.07 648.143,1325.89 658.414,1303.14 668.684,1277.67 678.955,1249.34 689.226,1217.98 699.496,1183.45 709.767,1145.59 720.037,1104.24 730.308,1059.38 740.579,1011.36 750.849,960.652 761.12,907.713 771.39,853.001 781.661,796.976 791.932,740.098 802.202,682.827 812.473,625.621 822.744,568.941 833.014,513.247 843.285,458.997 853.555,406.652 863.826,356.67 874.097,309.512 884.367,265.637 894.638,225.505 904.908,189.576 915.179,158.308 925.45,132.161 935.72,111.596 945.991,97.0716 956.261,89.0473 966.532,87.9763 976.803,93.9609 987.073,106.584 997.344,125.385 1007.61,149.905 1017.89,179.685 1028.16,214.264 1038.43,253.184 1048.7,295.984 1058.97,342.205 1069.24,391.388 1079.51,443.073 1089.78,496.799 1100.05,552.109 1110.32,608.541 1120.59,665.637 1130.86,722.937 1141.13,779.981 1151.4,836.31 1161.67,891.464 1171.94,944.984 1182.21,996.409 1192.49,1045.28 1202.76,1091.14 1213.03,1133.56 1223.3,1172.45 1233.57,1207.96 1243.84,1240.26 1254.11,1269.48 1264.38,1295.79 1274.65,1319.34 1284.92,1340.28 1295.19,1358.76 1305.46,1374.94 1315.73,1388.97 1326,1401 1336.27,1411.2 1346.54,1419.7 1356.82,1426.66 1367.09,1432.24 1377.36,1436.59 1387.63,1439.87 1397.9,1442.22 1408.17,1443.8 1418.44,1444.76 1428.71,1445.25 1438.98,1445.44 1449.25,1445.47 1459.52,1445.47 1469.79,1445.47 1480.06,1445.47 1490.33,1445.47 1500.6,1445.47 1510.87,1445.47 1521.14,1445.47 1531.42,1445.47 1541.69,1445.47 1551.96,1445.47 1562.23,1445.47 1572.5,1445.47 1582.77,1445.47 1593.04,1445.47 1603.31,1445.47 1613.58,1445.47 1623.85,1445.47 1634.12,1445.47 1644.39,1445.47 1654.66,1445.47 1664.93,1445.47 1675.2,1445.47 1685.47,1445.47 1695.75,1445.47 1706.02,1445.47 1716.29,1445.47 1726.56,1445.47 1736.83,1445.47 1747.1,1445.47 1757.37,1445.47 1767.64,1445.47 1777.91,1445.47 1788.18,1445.47 1798.45,1445.47 1808.72,1445.47 1818.99,1445.47 1829.26,1445.47 1839.53,1445.47 1849.8,1445.47 1860.07,1445.47 1870.35,1445.47 1880.62,1445.47 1890.89,1445.47 1901.16,1445.47 1911.43,1445.47 1921.7,1445.47 1931.97,1445.47 1942.24,1445.47 1952.51,1445.47 1962.78,1445.47 1973.05,1445.47 1983.32,1445.47 1993.59,1445.47 2003.86,1445.47 2014.13,1445.47 2024.4,1445.47 2034.68,1445.47 2044.95,1445.47 2055.22,1445.47 2065.49,1445.47 2075.76,1445.47 2086.03,1445.47 2096.3,1445.47 2106.57,1445.47 2116.84,1445.47 2127.11,1445.47 2137.38,1445.47 2147.65,1445.47 2157.92,1445.47 2168.19,1445.47 2178.46,1445.47 2188.73,1445.47 2199,1445.47 2209.28,1445.47 2219.55,1445.47 2229.82,1445.47 2240.09,1445.47 2250.36,1445.47 2260.63,1445.47 2270.9,1445.47 2281.17,1445.47 2291.44,1445.47 "/>
<polyline clip-path="url(#clip562)" style="stroke:#e26f46; stroke-linecap:round; stroke-linejoin:round; stroke-width:4; stroke-opacity:1; fill:none" points="247.59,1445.47 257.86,1445.47 268.131,1445.47 278.401,1445.47 288.672,1445.47 298.943,1445.46 309.213,1445.46 319.484,1445.43 329.754,1445.34 340.025,1445.15 350.296,1444.76 360.566,1444.07 370.837,1443.02 381.107,1441.53 391.378,1439.54 401.649,1436.95 411.919,1433.7 422.19,1429.71 432.46,1424.91 442.731,1419.22 453.002,1412.56 463.272,1404.87 473.543,1396.07 483.813,1386.08 494.084,1374.83 504.355,1362.25 514.625,1348.26 524.896,1332.8 535.167,1315.79 545.437,1297.16 555.708,1276.88 565.978,1254.91 576.249,1231.33 586.52,1206.33 596.79,1180.16 607.061,1153.1 617.331,1125.36 627.602,1097.16 637.873,1068.72 648.143,1040.26 658.414,1011.91 668.684,983.856 678.955,956.244 689.226,929.213 699.496,902.931 709.767,877.538 720.037,853.2 730.308,830.066 740.579,808.306 750.849,788.069 761.12,769.535 771.39,752.855 781.661,738.211 791.932,725.752 802.202,715.595 812.473,707.806 822.744,702.25 833.014,698.611 843.285,696.511 853.555,695.589 863.826,695.522 874.097,695.984 884.367,696.678 894.638,697.471 904.908,698.32 915.179,699.165 925.45,700.001 935.72,700.808 945.991,701.562 956.261,702.254 966.532,702.855 976.803,703.355 987.073,703.727 997.344,703.962 1007.61,704.033 1017.89,703.941 1028.16,703.661 1038.43,703.219 1048.7,702.67 1058.97,702.119 1069.24,701.849 1079.51,702.222 1089.78,703.54 1100.05,706.087 1110.32,710.216 1120.59,716.304 1130.86,724.583 1141.13,735.087 1151.4,747.775 1161.67,762.547 1171.94,779.267 1182.21,797.81 1192.49,818.027 1202.76,839.783 1213.03,862.926 1223.3,887.316 1233.57,912.796 1243.84,939.221 1254.11,966.435 1264.38,994.28 1274.65,1022.61 1284.92,1051.24 1295.19,1080.01 1305.46,1108.73 1315.73,1137.14 1326,1165 1336.27,1192.1 1346.54,1218.19 1356.82,1242.97 1367.09,1266.18 1377.36,1287.66 1387.63,1307.4 1397.9,1325.43 1408.17,1341.81 1418.44,1356.62 1428.71,1369.94 1438.98,1381.85 1449.25,1392.43 1459.52,1401.77 1469.79,1409.93 1480.06,1417.01 1490.33,1423.07 1500.6,1428.2 1510.87,1432.48 1521.14,1435.98 1531.42,1438.78 1541.69,1440.97 1551.96,1442.61 1562.23,1443.79 1572.5,1444.58 1582.77,1445.05 1593.04,1445.3 1603.31,1445.41 1613.58,1445.45 1623.85,1445.46 1634.12,1445.47 1644.39,1445.47 1654.66,1445.47 1664.93,1445.47 1675.2,1445.47 1685.47,1445.47 1695.75,1445.47 1706.02,1445.47 1716.29,1445.47 1726.56,1445.47 1736.83,1445.47 1747.1,1445.47 1757.37,1445.47 1767.64,1445.47 1777.91,1445.47 1788.18,1445.47 1798.45,1445.47 1808.72,1445.47 1818.99,1445.47 1829.26,1445.47 1839.53,1445.47 1849.8,1445.47 1860.07,1445.47 1870.35,1445.47 1880.62,1445.47 1890.89,1445.47 1901.16,1445.47 1911.43,1445.47 1921.7,1445.47 1931.97,1445.47 1942.24,1445.47 1952.51,1445.47 1962.78,1445.47 1973.05,1445.47 1983.32,1445.47 1993.59,1445.47 2003.86,1445.47 2014.13,1445.47 2024.4,1445.47 2034.68,1445.47 2044.95,1445.47 2055.22,1445.47 2065.49,1445.47 2075.76,1445.47 2086.03,1445.47 2096.3,1445.47 2106.57,1445.47 2116.84,1445.47 2127.11,1445.47 2137.38,1445.47 2147.65,1445.47 2157.92,1445.47 2168.19,1445.47 2178.46,1445.47 2188.73,1445.47 2199,1445.47 2209.28,1445.47 2219.55,1445.47 2229.82,1445.47 2240.09,1445.47 2250.36,1445.47 2260.63,1445.47 2270.9,1445.47 2281.17,1445.47 2291.44,1445.47 "/>
<polyline clip-path="url(#clip562)" style="stroke:#3da44d; stroke-linecap:round; stroke-linejoin:round; stroke-width:4; stroke-opacity:1; fill:none" points="247.59,1433.69 257.86,1429.72 268.131,1424.94 278.401,1419.28 288.672,1412.66 298.943,1405.02 309.213,1396.28 319.484,1386.36 329.754,1375.2 340.025,1362.72 350.296,1348.85 360.566,1333.52 370.837,1316.67 381.107,1298.24 391.378,1278.18 401.649,1256.48 411.919,1233.19 422.19,1208.43 432.46,1182.43 442.731,1155.45 453.002,1127.79 463.272,1099.66 473.543,1071.24 483.813,1042.74 494.084,1014.4 504.355,986.482 514.625,959.184 524.896,932.725 535.167,907.36 545.437,883.331 555.708,860.854 565.978,840.181 576.249,821.567 586.52,805.239 596.79,791.459 607.061,780.478 617.331,772.531 627.602,767.866 637.873,766.665 648.143,769.05 658.414,775.015 668.684,784.376 678.955,796.817 689.226,811.959 699.496,829.504 709.767,849.237 720.037,870.992 730.308,894.507 740.579,919.487 750.849,945.674 761.12,972.875 771.39,1000.83 781.661,1029.3 791.932,1058.08 802.202,1086.92 812.473,1115.53 822.744,1143.64 833.014,1170.97 843.285,1197.19 853.555,1222.03 863.826,1245.19 874.097,1266.4 884.367,1285.45 894.638,1302.15 904.908,1316.42 915.179,1328.27 925.45,1337.78 935.72,1344.97 945.991,1349.85 956.261,1352.4 966.532,1352.56 976.803,1350.33 987.073,1345.75 997.344,1338.85 1007.61,1329.6 1017.89,1317.96 1028.16,1303.85 1038.43,1287.26 1048.7,1268.28 1058.97,1247.12 1069.24,1224.01 1079.51,1199.24 1089.78,1173.12 1100.05,1145.94 1110.32,1118.01 1120.59,1089.64 1130.86,1061.1 1141.13,1032.66 1151.4,1004.57 1161.67,977.018 1171.94,950.222 1182.21,924.416 1192.49,899.788 1202.76,876.547 1213.03,854.946 1223.3,835.226 1233.57,817.554 1243.84,802.092 1254.11,789.061 1264.38,778.754 1274.65,771.475 1284.92,767.433 1295.19,766.714 1305.46,769.279 1315.73,775.022 1326,783.779 1336.27,795.354 1346.54,809.561 1356.82,826.182 1367.09,845.005 1377.36,865.829 1387.63,888.428 1397.9,912.577 1408.17,938.074 1418.44,964.69 1428.71,992.176 1438.98,1020.33 1449.25,1048.93 1459.52,1077.73 1469.79,1106.46 1480.06,1134.92 1490.33,1162.92 1500.6,1190.2 1510.87,1216.46 1521.14,1241.39 1531.42,1264.74 1541.69,1286.39 1551.96,1306.3 1562.23,1324.5 1572.5,1341.03 1582.77,1355.98 1593.04,1369.41 1603.31,1381.42 1613.58,1392.09 1623.85,1401.49 1634.12,1409.71 1644.39,1416.83 1654.66,1422.92 1664.93,1428.08 1675.2,1432.38 1685.47,1435.9 1695.75,1438.71 1706.02,1440.9 1716.29,1442.56 1726.56,1443.74 1736.83,1444.52 1747.1,1444.99 1757.37,1445.25 1767.64,1445.37 1777.91,1445.43 1788.18,1445.45 1798.45,1445.46 1808.72,1445.47 1818.99,1445.47 1829.26,1445.47 1839.53,1445.47 1849.8,1445.47 1860.07,1445.47 1870.35,1445.47 1880.62,1445.47 1890.89,1445.47 1901.16,1445.47 1911.43,1445.47 1921.7,1445.47 1931.97,1445.47 1942.24,1445.47 1952.51,1445.47 1962.78,1445.47 1973.05,1445.47 1983.32,1445.47 1993.59,1445.47 2003.86,1445.47 2014.13,1445.47 2024.4,1445.47 2034.68,1445.47 2044.95,1445.47 2055.22,1445.47 2065.49,1445.47 2075.76,1445.47 2086.03,1445.47 2096.3,1445.47 2106.57,1445.47 2116.84,1445.47 2127.11,1445.47 2137.38,1445.47 2147.65,1445.47 2157.92,1445.47 2168.19,1445.47 2178.46,1445.46 2188.73,1445.46 2199,1445.44 2209.28,1445.4 2219.55,1445.3 2229.82,1445.09 2240.09,1444.69 2250.36,1444.02 2260.63,1442.98 2270.9,1441.49 2281.17,1439.5 2291.44,1436.92 "/>
<polyline clip-path="url(#clip562)" style="stroke:#c271d2; stroke-linecap:round; stroke-linejoin:round; stroke-width:4; stroke-opacity:1; fill:none" points="247.59,1234.97 257.86,1210.47 268.131,1184.67 278.401,1157.83 288.672,1130.22 298.943,1102.12 309.213,1073.75 319.484,1045.28 329.754,1016.92 340.025,988.885 350.296,961.458 360.566,934.876 370.837,909.346 381.107,885.098 391.378,862.399 401.649,841.508 411.919,822.653 422.19,806.088 432.46,792.092 442.731,780.918 453.002,772.804 463.272,768.005 473.543,766.718 483.813,769.053 494.084,775.024 504.355,784.487 514.625,797.127 524.896,812.568 535.167,830.423 545.437,850.408 555.708,872.349 565.978,896.053 576.249,921.264 586.52,947.663 596.79,974.981 607.061,1003.03 617.331,1031.58 627.602,1060.37 637.873,1089.13 648.143,1117.67 658.414,1145.76 668.684,1173.15 678.955,1199.63 689.226,1225 699.496,1249.04 709.767,1271.57 720.037,1292.47 730.308,1311.65 740.579,1329.09 750.849,1344.86 761.12,1359.09 771.39,1371.92 781.661,1383.46 791.932,1393.77 802.202,1402.87 812.473,1410.82 822.744,1417.69 833.014,1423.62 843.285,1428.66 853.555,1432.87 863.826,1436.29 874.097,1439.04 884.367,1441.22 894.638,1442.84 904.908,1444.01 915.179,1444.79 925.45,1445.25 935.72,1445.48 945.991,1445.57 956.261,1445.61 966.532,1445.61 976.803,1445.59 987.073,1445.52 997.344,1445.34 1007.61,1444.95 1017.89,1444.27 1028.16,1443.22 1038.43,1441.71 1048.7,1439.67 1058.97,1437.05 1069.24,1433.76 1079.51,1429.69 1089.78,1424.77 1100.05,1418.95 1110.32,1412.16 1120.59,1404.28 1130.86,1395.19 1141.13,1384.87 1151.4,1373.28 1161.67,1360.34 1171.94,1345.93 1182.21,1329.87 1192.49,1312.05 1202.76,1292.41 1213.03,1271.01 1223.3,1247.99 1233.57,1223.5 1243.84,1197.77 1254.11,1171.04 1264.38,1143.52 1274.65,1115.43 1284.92,1087.04 1295.19,1058.56 1305.46,1030.18 1315.73,1002.15 1326,974.713 1336.27,948.074 1346.54,922.41 1356.82,897.936 1367.09,874.925 1377.36,853.595 1387.63,834.108 1397.9,816.612 1408.17,801.3 1418.44,788.452 1428.71,778.367 1438.98,771.293 1449.25,767.407 1459.52,766.763 1469.79,769.318 1480.06,774.981 1490.33,783.606 1500.6,795.003 1510.87,808.998 1521.14,825.405 1531.42,844.004 1541.69,864.584 1551.96,886.964 1562.23,910.928 1572.5,936.234 1582.77,962.666 1593.04,990.036 1603.31,1018.13 1613.58,1046.67 1623.85,1075.42 1634.12,1104.16 1644.39,1132.71 1654.66,1160.85 1664.93,1188.29 1675.2,1214.7 1685.47,1239.77 1695.75,1263.29 1706.02,1285.11 1716.29,1305.2 1726.56,1323.55 1736.83,1340.24 1747.1,1355.32 1757.37,1368.87 1767.64,1380.98 1777.91,1391.73 1788.18,1401.2 1798.45,1409.48 1808.72,1416.64 1818.99,1422.78 1829.26,1427.96 1839.53,1432.28 1849.8,1435.81 1860.07,1438.64 1870.35,1440.85 1880.62,1442.5 1890.89,1443.67 1901.16,1444.45 1911.43,1444.93 1921.7,1445.2 1931.97,1445.34 1942.24,1445.41 1952.51,1445.45 1962.78,1445.46 1973.05,1445.46 1983.32,1445.47 1993.59,1445.47 2003.86,1445.47 2014.13,1445.46 2024.4,1445.45 2034.68,1445.43 2044.95,1445.37 2055.22,1445.26 2065.49,1445.03 2075.76,1444.63 2086.03,1443.96 2096.3,1442.93 2106.57,1441.46 2116.84,1439.47 2127.11,1436.89 2137.38,1433.67 2147.65,1429.73 2157.92,1424.97 2168.19,1419.34 2178.46,1412.76 2188.73,1405.17 2199,1396.48 2209.28,1386.63 2219.55,1375.56 2229.82,1363.18 2240.09,1349.42 2250.36,1334.23 2260.63,1317.55 2270.9,1299.3 2281.17,1279.45 2291.44,1258 "/>
<polyline clip-path="url(#clip562)" style="stroke:#ac8d18; stroke-linecap:round; stroke-linejoin:round; stroke-width:4; stroke-opacity:1; fill:none" points="247.59,823.756 257.86,806.977 268.131,792.755 278.401,781.363 288.672,773.084 298.943,768.16 309.213,766.773 319.484,769.063 329.754,775.059 340.025,784.613 350.296,797.437 360.566,813.152 370.837,831.33 381.107,851.613 391.378,873.78 401.649,897.654 411.919,923.028 422.19,949.632 432.46,977.135 442.731,1005.26 453.002,1033.84 463.272,1062.64 473.543,1091.42 483.813,1119.9 494.084,1147.86 504.355,1175.14 514.625,1201.48 524.896,1226.67 535.167,1250.52 545.437,1272.88 555.708,1293.63 565.978,1312.65 576.249,1329.96 586.52,1345.62 596.79,1359.72 607.061,1372.41 617.331,1383.84 627.602,1394.06 637.873,1403.11 648.143,1411.04 658.414,1417.89 668.684,1423.75 678.955,1428.76 689.226,1432.95 699.496,1436.39 709.767,1439.13 720.037,1441.26 730.308,1442.89 740.579,1444.06 750.849,1444.84 761.12,1445.31 771.39,1445.55 781.661,1445.63 791.932,1445.61 802.202,1445.53 812.473,1445.48 822.744,1445.44 833.014,1445.43 843.285,1445.45 853.555,1445.48 863.826,1445.48 874.097,1445.48 884.367,1445.47 894.638,1445.46 904.908,1445.47 915.179,1445.47 925.45,1445.47 935.72,1445.47 945.991,1445.46 956.261,1445.47 966.532,1445.47 976.803,1445.46 987.073,1445.46 997.344,1445.47 1007.61,1445.47 1017.89,1445.47 1028.16,1445.46 1038.43,1445.46 1048.7,1445.47 1058.97,1445.48 1069.24,1445.48 1079.51,1445.46 1089.78,1445.43 1100.05,1445.43 1110.32,1445.47 1120.59,1445.51 1130.86,1445.59 1141.13,1445.64 1151.4,1445.59 1161.67,1445.4 1171.94,1445.01 1182.21,1444.32 1192.49,1443.25 1202.76,1441.74 1213.03,1439.72 1223.3,1437.1 1233.57,1433.76 1243.84,1429.66 1254.11,1424.74 1264.38,1418.92 1274.65,1412.07 1284.92,1404.09 1295.19,1394.93 1305.46,1384.56 1315.73,1372.92 1326,1359.91 1336.27,1345.34 1346.54,1329.06 1356.82,1310.99 1367.09,1291.09 1377.36,1269.43 1387.63,1246.17 1397.9,1221.49 1408.17,1195.59 1418.44,1168.7 1428.71,1141.07 1438.98,1112.95 1449.25,1084.52 1459.52,1056 1469.79,1027.68 1480.06,999.769 1490.33,972.452 1500.6,945.916 1510.87,920.39 1521.14,896.141 1531.42,873.392 1541.69,852.29 1551.96,832.984 1562.23,815.651 1572.5,800.519 1582.77,787.88 1593.04,778.019 1603.31,771.143 1613.58,767.384 1623.85,766.804 1634.12,769.358 1644.39,774.937 1654.66,783.42 1664.93,794.66 1675.2,808.467 1685.47,824.637 1695.75,843.001 1706.02,863.379 1716.29,885.549 1726.56,909.285 1736.83,934.387 1747.1,960.677 1757.37,987.946 1767.64,1015.94 1777.91,1044.39 1788.18,1073.09 1798.45,1101.86 1808.72,1130.5 1818.99,1158.77 1829.26,1186.35 1839.53,1212.9 1849.8,1238.12 1860.07,1261.79 1870.35,1283.75 1880.62,1303.95 1890.89,1322.35 1901.16,1338.95 1911.43,1353.75 1921.7,1366.75 1931.97,1377.94 1942.24,1387.32 1952.51,1394.87 1962.78,1400.64 1973.05,1404.64 1983.32,1406.88 1993.59,1407.37 2003.86,1406.11 2014.13,1403.13 2024.4,1398.43 2034.68,1392.01 2044.95,1383.89 2055.22,1374.06 2065.49,1362.55 2075.76,1349.4 2086.03,1334.63 2096.3,1318.25 2106.57,1300.26 2116.84,1280.67 2127.11,1259.47 2137.38,1236.7 2147.65,1212.45 2157.92,1186.88 2168.19,1160.2 2178.46,1132.68 2188.73,1104.61 2199,1076.24 2209.28,1047.78 2219.55,1019.42 2229.82,991.341 2240.09,963.785 2250.36,937.03 2260.63,911.332 2270.9,886.914 2281.17,864.001 2291.44,842.852 "/>
<polyline clip-path="url(#clip562)" style="stroke:#00a9ad; stroke-linecap:round; stroke-linejoin:round; stroke-width:4; stroke-opacity:1; fill:none" points="247.59,924.828 257.86,951.589 268.131,979.261 278.401,1007.53 288.672,1036.14 298.943,1064.92 309.213,1093.66 319.484,1122.11 329.754,1150 340.025,1177.11 350.296,1203.28 360.566,1228.32 370.837,1252.01 381.107,1274.18 391.378,1294.74 401.649,1313.63 411.919,1330.82 422.19,1346.34 432.46,1360.33 442.731,1372.92 453.002,1384.23 463.272,1394.34 473.543,1403.35 483.813,1411.25 494.084,1418.08 504.355,1423.91 514.625,1428.87 524.896,1433.02 535.167,1436.45 545.437,1439.21 555.708,1441.34 565.978,1442.93 576.249,1444.1 586.52,1444.89 596.79,1445.37 607.061,1445.6 617.331,1445.66 627.602,1445.64 637.873,1445.57 648.143,1445.48 658.414,1445.43 668.684,1445.43 678.955,1445.44 689.226,1445.46 699.496,1445.48 709.767,1445.49 720.037,1445.47 730.308,1445.46 740.579,1445.46 750.849,1445.47 761.12,1445.47 771.39,1445.47 781.661,1445.47 791.932,1445.46 802.202,1445.47 812.473,1445.47 822.744,1445.47 833.014,1445.47 843.285,1445.47 853.555,1445.47 863.826,1445.47 874.097,1445.47 884.367,1445.47 894.638,1445.47 904.908,1445.47 915.179,1445.47 925.45,1445.47 935.72,1445.47 945.991,1445.47 956.261,1445.47 966.532,1445.47 976.803,1445.47 987.073,1445.47 997.344,1445.47 1007.61,1445.47 1017.89,1445.47 1028.16,1445.47 1038.43,1445.47 1048.7,1445.47 1058.97,1445.47 1069.24,1445.47 1079.51,1445.46 1089.78,1445.47 1100.05,1445.47 1110.32,1445.47 1120.59,1445.47 1130.86,1445.46 1141.13,1445.47 1151.4,1445.47 1161.67,1445.47 1171.94,1445.47 1182.21,1445.46 1192.49,1445.45 1202.76,1445.47 1213.03,1445.49 1223.3,1445.48 1233.57,1445.47 1243.84,1445.45 1254.11,1445.43 1264.38,1445.42 1274.65,1445.47 1284.92,1445.55 1295.19,1445.62 1305.46,1445.66 1315.73,1445.64 1326,1445.47 1336.27,1445.06 1346.54,1444.36 1356.82,1443.29 1367.09,1441.81 1377.36,1439.77 1387.63,1437.1 1397.9,1433.75 1408.17,1429.66 1418.44,1424.74 1428.71,1418.88 1438.98,1411.95 1449.25,1403.88 1459.52,1394.68 1469.79,1384.28 1480.06,1372.58 1490.33,1359.45 1500.6,1344.72 1510.87,1328.23 1521.14,1309.88 1531.42,1289.71 1541.69,1267.82 1551.96,1244.33 1562.23,1219.43 1572.5,1193.36 1582.77,1166.36 1593.04,1138.64 1603.31,1110.43 1613.58,1081.95 1623.85,1053.48 1634.12,1025.25 1644.39,997.408 1654.66,970.162 1664.93,943.753 1675.2,918.427 1685.47,894.406 1695.75,871.865 1706.02,850.919 1716.29,831.693 1726.56,814.378 1736.83,799.19 1747.1,786.327 1757.37,775.958 1767.64,768.203 1777.91,763.078 1788.18,760.511 1798.45,760.407 1808.72,762.638 1818.99,767.019 1829.26,773.314 1839.53,781.276 1849.8,790.679 1860.07,801.288 1870.35,812.828 1880.62,825.019 1890.89,837.61 1901.16,850.359 1911.43,863.008 1921.7,875.263 1931.97,886.807 1942.24,897.353 1952.51,906.682 1962.78,914.612 1973.05,920.949 1983.32,925.481 1993.59,928.002 2003.86,928.358 2014.13,926.491 2024.4,922.452 2034.68,916.373 2044.95,908.427 2055.22,898.809 2065.49,887.741 2075.76,875.496 2086.03,862.395 2096.3,848.798 2106.57,835.069 2116.84,821.543 2127.11,808.532 2137.38,796.377 2147.65,785.469 2157.92,776.193 2168.19,768.905 2178.46,763.944 2188.73,761.649 2199,762.323 2209.28,766.17 2219.55,773.288 2229.82,783.672 2240.09,797.156 2250.36,813.412 2260.63,832.054 2270.9,852.745 2281.17,875.224 2291.44,899.301 "/>
<polyline clip-path="url(#clip562)" style="stroke:#ed5d92; stroke-linecap:round; stroke-linejoin:round; stroke-width:4; stroke-opacity:1; fill:none" points="247.59,1302.48 257.86,1324.09 268.131,1343.19 278.401,1360 288.672,1374.77 298.943,1387.66 309.213,1398.78 319.484,1408.27 329.754,1416.25 340.025,1422.87 350.296,1428.28 360.566,1432.71 370.837,1436.3 381.107,1439.16 391.378,1441.36 401.649,1442.99 411.919,1444.14 422.19,1444.92 432.46,1445.41 442.731,1445.66 453.002,1445.71 463.272,1445.67 473.543,1445.59 483.813,1445.51 494.084,1445.44 504.355,1445.41 514.625,1445.42 524.896,1445.45 535.167,1445.48 545.437,1445.48 555.708,1445.48 565.978,1445.47 576.249,1445.45 586.52,1445.46 596.79,1445.47 607.061,1445.48 617.331,1445.47 627.602,1445.46 637.873,1445.46 648.143,1445.47 658.414,1445.47 668.684,1445.47 678.955,1445.47 689.226,1445.46 699.496,1445.47 709.767,1445.47 720.037,1445.47 730.308,1445.47 740.579,1445.47 750.849,1445.47 761.12,1445.47 771.39,1445.47 781.661,1445.46 791.932,1445.47 802.202,1445.47 812.473,1445.47 822.744,1445.47 833.014,1445.47 843.285,1445.47 853.555,1445.47 863.826,1445.47 874.097,1445.47 884.367,1445.47 894.638,1445.47 904.908,1445.47 915.179,1445.46 925.45,1445.47 935.72,1445.47 945.991,1445.47 956.261,1445.47 966.532,1445.47 976.803,1445.47 987.073,1445.47 997.344,1445.47 1007.61,1445.47 1017.89,1445.47 1028.16,1445.47 1038.43,1445.46 1048.7,1445.47 1058.97,1445.47 1069.24,1445.47 1079.51,1445.47 1089.78,1445.47 1100.05,1445.47 1110.32,1445.47 1120.59,1445.46 1130.86,1445.47 1141.13,1445.47 1151.4,1445.47 1161.67,1445.47 1171.94,1445.47 1182.21,1445.47 1192.49,1445.47 1202.76,1445.47 1213.03,1445.47 1223.3,1445.47 1233.57,1445.46 1243.84,1445.46 1254.11,1445.47 1264.38,1445.47 1274.65,1445.47 1284.92,1445.47 1295.19,1445.46 1305.46,1445.47 1315.73,1445.48 1326,1445.47 1336.27,1445.46 1346.54,1445.45 1356.82,1445.47 1367.09,1445.48 1377.36,1445.48 1387.63,1445.49 1397.9,1445.46 1408.17,1445.43 1418.44,1445.41 1428.71,1445.43 1438.98,1445.49 1449.25,1445.56 1459.52,1445.64 1469.79,1445.72 1480.06,1445.7 1490.33,1445.5 1500.6,1445.09 1510.87,1444.4 1521.14,1443.34 1531.42,1441.82 1541.69,1439.71 1551.96,1436.94 1562.23,1433.44 1572.5,1429.11 1582.77,1423.73 1593.04,1417.1 1603.31,1409.08 1613.58,1399.54 1623.85,1388.33 1634.12,1375.33 1644.39,1360.36 1654.66,1343.16 1664.93,1323.49 1675.2,1301.16 1685.47,1276.05 1695.75,1248.08 1706.02,1217.28 1716.29,1183.75 1726.56,1147.67 1736.83,1109.19 1747.1,1068.42 1757.37,1025.54 1767.64,980.758 1777.91,934.296 1788.18,886.327 1798.45,837.025 1808.72,786.603 1818.99,735.362 1829.26,683.692 1839.53,632.013 1849.8,580.729 1860.07,530.253 1870.35,481.028 1880.62,433.502 1890.89,388.117 1901.16,345.335 1911.43,305.629 1921.7,269.448 1931.97,237.21 1942.24,209.286 1952.51,185.984 1962.78,167.522 1973.05,154.035 1983.32,145.65 1993.59,142.538 2003.86,144.87 2014.13,152.735 2024.4,166.156 2034.68,185.131 2044.95,209.632 2055.22,239.514 2065.49,274.453 2075.76,313.936 2086.03,357.323 2096.3,403.926 2106.57,453.104 2116.84,504.356 2127.11,557.314 2137.38,611.589 2147.65,666.679 2157.92,721.99 2168.19,776.879 2178.46,830.752 2188.73,883.167 2199,933.831 2209.28,982.484 2219.55,1028.86 2229.82,1072.75 2240.09,1114 2250.36,1152.53 2260.63,1188.28 2270.9,1221.17 2281.17,1251.13 2291.44,1278.2 "/>
<path clip-path="url(#clip560)" d="M258.49 509.938 L694.882 509.938 L694.882 95.2176 L258.49 95.2176  Z" fill="#ffffff" fill-rule="evenodd" fill-opacity="1"/>
<polyline clip-path="url(#clip560)" style="stroke:#000000; stroke-linecap:round; stroke-linejoin:round; stroke-width:4; stroke-opacity:1; fill:none" points="258.49,509.938 694.882,509.938 694.882,95.2176 258.49,95.2176 258.49,509.938 "/>
<polyline clip-path="url(#clip560)" style="stroke:#009af9; stroke-linecap:round; stroke-linejoin:round; stroke-width:4; stroke-opacity:1; fill:none" points="282.562,147.058 426.994,147.058 "/>
<path clip-path="url(#clip560)" d="M458.474 131.051 L458.474 138.412 L467.247 138.412 L467.247 141.722 L458.474 141.722 L458.474 155.796 Q458.474 158.967 459.33 159.87 Q460.21 160.773 462.872 160.773 L467.247 160.773 L467.247 164.338 L462.872 164.338 Q457.941 164.338 456.066 162.509 Q454.191 160.657 454.191 155.796 L454.191 141.722 L451.066 141.722 L451.066 138.412 L454.191 138.412 L454.191 131.051 L458.474 131.051 Z" fill="#000000" fill-rule="nonzero" fill-opacity="1" /><path clip-path="url(#clip560)" d="M488.473 142.81 L518.149 142.81 L518.149 146.699 L488.473 146.699 L488.473 142.81 M488.473 152.254 L518.149 152.254 L518.149 156.189 L488.473 156.189 L488.473 152.254 Z" fill="#000000" fill-rule="nonzero" fill-opacity="1" /><path clip-path="url(#clip560)" d="M553.311 132.856 Q549.7 132.856 547.871 136.421 Q546.066 139.963 546.066 147.092 Q546.066 154.199 547.871 157.764 Q549.7 161.305 553.311 161.305 Q556.945 161.305 558.751 157.764 Q560.58 154.199 560.58 147.092 Q560.58 139.963 558.751 136.421 Q556.945 132.856 553.311 132.856 M553.311 129.153 Q559.121 129.153 562.177 133.759 Q565.255 138.342 565.255 147.092 Q565.255 155.819 562.177 160.426 Q559.121 165.009 553.311 165.009 Q547.501 165.009 544.422 160.426 Q541.367 155.819 541.367 147.092 Q541.367 138.342 544.422 133.759 Q547.501 129.153 553.311 129.153 Z" fill="#000000" fill-rule="nonzero" fill-opacity="1" /><path clip-path="url(#clip560)" d="M573.473 158.458 L578.357 158.458 L578.357 164.338 L573.473 164.338 L573.473 158.458 Z" fill="#000000" fill-rule="nonzero" fill-opacity="1" /><path clip-path="url(#clip560)" d="M598.542 132.856 Q594.931 132.856 593.103 136.421 Q591.297 139.963 591.297 147.092 Q591.297 154.199 593.103 157.764 Q594.931 161.305 598.542 161.305 Q602.177 161.305 603.982 157.764 Q605.811 154.199 605.811 147.092 Q605.811 139.963 603.982 136.421 Q602.177 132.856 598.542 132.856 M598.542 129.153 Q604.352 129.153 607.408 133.759 Q610.487 138.342 610.487 147.092 Q610.487 155.819 607.408 160.426 Q604.352 165.009 598.542 165.009 Q592.732 165.009 589.653 160.426 Q586.598 155.819 586.598 147.092 Q586.598 138.342 589.653 133.759 Q592.732 129.153 598.542 129.153 Z" fill="#000000" fill-rule="nonzero" fill-opacity="1" /><polyline clip-path="url(#clip560)" style="stroke:#e26f46; stroke-linecap:round; stroke-linejoin:round; stroke-width:4; stroke-opacity:1; fill:none" points="282.562,198.898 426.994,198.898 "/>
<path clip-path="url(#clip560)" d="M458.474 182.891 L458.474 190.252 L467.247 190.252 L467.247 193.562 L458.474 193.562 L458.474 207.636 Q458.474 210.807 459.33 211.71 Q460.21 212.613 462.872 212.613 L467.247 212.613 L467.247 216.178 L462.872 216.178 Q457.941 216.178 456.066 214.349 Q454.191 212.497 454.191 207.636 L454.191 193.562 L451.066 193.562 L451.066 190.252 L454.191 190.252 L454.191 182.891 L458.474 182.891 Z" fill="#000000" fill-rule="nonzero" fill-opacity="1" /><path clip-path="url(#clip560)" d="M488.473 194.65 L518.149 194.65 L518.149 198.539 L488.473 198.539 L488.473 194.65 M488.473 204.094 L518.149 204.094 L518.149 208.029 L488.473 208.029 L488.473 204.094 Z" fill="#000000" fill-rule="nonzero" fill-opacity="1" /><path clip-path="url(#clip560)" d="M547.339 212.242 L563.658 212.242 L563.658 216.178 L541.714 216.178 L541.714 212.242 Q544.376 209.488 548.959 204.858 Q553.566 200.205 554.746 198.863 Q556.992 196.34 557.871 194.604 Q558.774 192.844 558.774 191.155 Q558.774 188.4 556.83 186.664 Q554.908 184.928 551.806 184.928 Q549.607 184.928 547.154 185.692 Q544.723 186.455 541.945 188.006 L541.945 183.284 Q544.769 182.15 547.223 181.571 Q549.677 180.993 551.714 180.993 Q557.084 180.993 560.279 183.678 Q563.473 186.363 563.473 190.854 Q563.473 192.983 562.663 194.905 Q561.876 196.803 559.769 199.395 Q559.191 200.067 556.089 203.284 Q552.987 206.479 547.339 212.242 Z" fill="#000000" fill-rule="nonzero" fill-opacity="1" /><path clip-path="url(#clip560)" d="M583.473 184.696 Q579.862 184.696 578.033 188.261 Q576.228 191.803 576.228 198.932 Q576.228 206.039 578.033 209.604 Q579.862 213.145 583.473 213.145 Q587.107 213.145 588.913 209.604 Q590.741 206.039 590.741 198.932 Q590.741 191.803 588.913 188.261 Q587.107 184.696 583.473 184.696 M583.473 180.993 Q589.283 180.993 592.339 185.599 Q595.417 190.182 595.417 198.932 Q595.417 207.659 592.339 212.266 Q589.283 216.849 583.473 216.849 Q577.663 216.849 574.584 212.266 Q571.529 207.659 571.529 198.932 Q571.529 190.182 574.584 185.599 Q577.663 180.993 583.473 180.993 Z" fill="#000000" fill-rule="nonzero" fill-opacity="1" /><path clip-path="url(#clip560)" d="M603.635 210.298 L608.519 210.298 L608.519 216.178 L603.635 216.178 L603.635 210.298 Z" fill="#000000" fill-rule="nonzero" fill-opacity="1" /><path clip-path="url(#clip560)" d="M628.704 184.696 Q625.093 184.696 623.264 188.261 Q621.459 191.803 621.459 198.932 Q621.459 206.039 623.264 209.604 Q625.093 213.145 628.704 213.145 Q632.338 213.145 634.144 209.604 Q635.973 206.039 635.973 198.932 Q635.973 191.803 634.144 188.261 Q632.338 184.696 628.704 184.696 M628.704 180.993 Q634.514 180.993 637.57 185.599 Q640.649 190.182 640.649 198.932 Q640.649 207.659 637.57 212.266 Q634.514 216.849 628.704 216.849 Q622.894 216.849 619.815 212.266 Q616.76 207.659 616.76 198.932 Q616.76 190.182 619.815 185.599 Q622.894 180.993 628.704 180.993 Z" fill="#000000" fill-rule="nonzero" fill-opacity="1" /><polyline clip-path="url(#clip560)" style="stroke:#3da44d; stroke-linecap:round; stroke-linejoin:round; stroke-width:4; stroke-opacity:1; fill:none" points="282.562,250.738 426.994,250.738 "/>
<path clip-path="url(#clip560)" d="M458.474 234.731 L458.474 242.092 L467.247 242.092 L467.247 245.402 L458.474 245.402 L458.474 259.476 Q458.474 262.647 459.33 263.55 Q460.21 264.453 462.872 264.453 L467.247 264.453 L467.247 268.018 L462.872 268.018 Q457.941 268.018 456.066 266.189 Q454.191 264.337 454.191 259.476 L454.191 245.402 L451.066 245.402 L451.066 242.092 L454.191 242.092 L454.191 234.731 L458.474 234.731 Z" fill="#000000" fill-rule="nonzero" fill-opacity="1" /><path clip-path="url(#clip560)" d="M488.473 246.49 L518.149 246.49 L518.149 250.379 L488.473 250.379 L488.473 246.49 M488.473 255.934 L518.149 255.934 L518.149 259.869 L488.473 259.869 L488.473 255.934 Z" fill="#000000" fill-rule="nonzero" fill-opacity="1" /><path clip-path="url(#clip560)" d="M556.158 237.532 L544.353 255.981 L556.158 255.981 L556.158 237.532 M554.931 233.458 L560.811 233.458 L560.811 255.981 L565.742 255.981 L565.742 259.869 L560.811 259.869 L560.811 268.018 L556.158 268.018 L556.158 259.869 L540.556 259.869 L540.556 255.356 L554.931 233.458 Z" fill="#000000" fill-rule="nonzero" fill-opacity="1" /><path clip-path="url(#clip560)" d="M583.473 236.536 Q579.862 236.536 578.033 240.101 Q576.228 243.643 576.228 250.772 Q576.228 257.879 578.033 261.444 Q579.862 264.985 583.473 264.985 Q587.107 264.985 588.913 261.444 Q590.741 257.879 590.741 250.772 Q590.741 243.643 588.913 240.101 Q587.107 236.536 583.473 236.536 M583.473 232.833 Q589.283 232.833 592.339 237.439 Q595.417 242.022 595.417 250.772 Q595.417 259.499 592.339 264.106 Q589.283 268.689 583.473 268.689 Q577.663 268.689 574.584 264.106 Q571.529 259.499 571.529 250.772 Q571.529 242.022 574.584 237.439 Q577.663 232.833 583.473 232.833 Z" fill="#000000" fill-rule="nonzero" fill-opacity="1" /><path clip-path="url(#clip560)" d="M603.635 262.138 L608.519 262.138 L608.519 268.018 L603.635 268.018 L603.635 262.138 Z" fill="#000000" fill-rule="nonzero" fill-opacity="1" /><path clip-path="url(#clip560)" d="M628.704 236.536 Q625.093 236.536 623.264 240.101 Q621.459 243.643 621.459 250.772 Q621.459 257.879 623.264 261.444 Q625.093 264.985 628.704 264.985 Q632.338 264.985 634.144 261.444 Q635.973 257.879 635.973 250.772 Q635.973 243.643 634.144 240.101 Q632.338 236.536 628.704 236.536 M628.704 232.833 Q634.514 232.833 637.57 237.439 Q640.649 242.022 640.649 250.772 Q640.649 259.499 637.57 264.106 Q634.514 268.689 628.704 268.689 Q622.894 268.689 619.815 264.106 Q616.76 259.499 616.76 250.772 Q616.76 242.022 619.815 237.439 Q622.894 232.833 628.704 232.833 Z" fill="#000000" fill-rule="nonzero" fill-opacity="1" /><polyline clip-path="url(#clip560)" style="stroke:#c271d2; stroke-linecap:round; stroke-linejoin:round; stroke-width:4; stroke-opacity:1; fill:none" points="282.562,302.578 426.994,302.578 "/>
<path clip-path="url(#clip560)" d="M458.474 286.571 L458.474 293.932 L467.247 293.932 L467.247 297.242 L458.474 297.242 L458.474 311.316 Q458.474 314.487 459.33 315.39 Q460.21 316.293 462.872 316.293 L467.247 316.293 L467.247 319.858 L462.872 319.858 Q457.941 319.858 456.066 318.029 Q454.191 316.177 454.191 311.316 L454.191 297.242 L451.066 297.242 L451.066 293.932 L454.191 293.932 L454.191 286.571 L458.474 286.571 Z" fill="#000000" fill-rule="nonzero" fill-opacity="1" /><path clip-path="url(#clip560)" d="M488.473 298.33 L518.149 298.33 L518.149 302.219 L488.473 302.219 L488.473 298.33 M488.473 307.774 L518.149 307.774 L518.149 311.709 L488.473 311.709 L488.473 307.774 Z" fill="#000000" fill-rule="nonzero" fill-opacity="1" /><path clip-path="url(#clip560)" d="M553.89 300.714 Q550.742 300.714 548.89 302.867 Q547.061 305.02 547.061 308.77 Q547.061 312.496 548.89 314.672 Q550.742 316.825 553.89 316.825 Q557.038 316.825 558.867 314.672 Q560.718 312.496 560.718 308.77 Q560.718 305.02 558.867 302.867 Q557.038 300.714 553.89 300.714 M563.172 286.061 L563.172 290.321 Q561.413 289.487 559.607 289.048 Q557.825 288.608 556.066 288.608 Q551.436 288.608 548.982 291.733 Q546.552 294.858 546.205 301.177 Q547.57 299.163 549.631 298.098 Q551.691 297.01 554.168 297.01 Q559.376 297.01 562.385 300.182 Q565.417 303.33 565.417 308.77 Q565.417 314.094 562.269 317.311 Q559.121 320.529 553.89 320.529 Q547.894 320.529 544.723 315.946 Q541.552 311.339 541.552 302.612 Q541.552 294.418 545.441 289.557 Q549.33 284.673 555.88 284.673 Q557.64 284.673 559.422 285.02 Q561.228 285.367 563.172 286.061 Z" fill="#000000" fill-rule="nonzero" fill-opacity="1" /><path clip-path="url(#clip560)" d="M583.473 288.376 Q579.862 288.376 578.033 291.941 Q576.228 295.483 576.228 302.612 Q576.228 309.719 578.033 313.284 Q579.862 316.825 583.473 316.825 Q587.107 316.825 588.913 313.284 Q590.741 309.719 590.741 302.612 Q590.741 295.483 588.913 291.941 Q587.107 288.376 583.473 288.376 M583.473 284.673 Q589.283 284.673 592.339 289.279 Q595.417 293.862 595.417 302.612 Q595.417 311.339 592.339 315.946 Q589.283 320.529 583.473 320.529 Q577.663 320.529 574.584 315.946 Q571.529 311.339 571.529 302.612 Q571.529 293.862 574.584 289.279 Q577.663 284.673 583.473 284.673 Z" fill="#000000" fill-rule="nonzero" fill-opacity="1" /><path clip-path="url(#clip560)" d="M603.635 313.978 L608.519 313.978 L608.519 319.858 L603.635 319.858 L603.635 313.978 Z" fill="#000000" fill-rule="nonzero" fill-opacity="1" /><path clip-path="url(#clip560)" d="M628.704 288.376 Q625.093 288.376 623.264 291.941 Q621.459 295.483 621.459 302.612 Q621.459 309.719 623.264 313.284 Q625.093 316.825 628.704 316.825 Q632.338 316.825 634.144 313.284 Q635.973 309.719 635.973 302.612 Q635.973 295.483 634.144 291.941 Q632.338 288.376 628.704 288.376 M628.704 284.673 Q634.514 284.673 637.57 289.279 Q640.649 293.862 640.649 302.612 Q640.649 311.339 637.57 315.946 Q634.514 320.529 628.704 320.529 Q622.894 320.529 619.815 315.946 Q616.76 311.339 616.76 302.612 Q616.76 293.862 619.815 289.279 Q622.894 284.673 628.704 284.673 Z" fill="#000000" fill-rule="nonzero" fill-opacity="1" /><polyline clip-path="url(#clip560)" style="stroke:#ac8d18; stroke-linecap:round; stroke-linejoin:round; stroke-width:4; stroke-opacity:1; fill:none" points="282.562,354.418 426.994,354.418 "/>
<path clip-path="url(#clip560)" d="M458.474 338.411 L458.474 345.772 L467.247 345.772 L467.247 349.082 L458.474 349.082 L458.474 363.156 Q458.474 366.327 459.33 367.23 Q460.21 368.133 462.872 368.133 L467.247 368.133 L467.247 371.698 L462.872 371.698 Q457.941 371.698 456.066 369.869 Q454.191 368.017 454.191 363.156 L454.191 349.082 L451.066 349.082 L451.066 345.772 L454.191 345.772 L454.191 338.411 L458.474 338.411 Z" fill="#000000" fill-rule="nonzero" fill-opacity="1" /><path clip-path="url(#clip560)" d="M488.473 350.17 L518.149 350.17 L518.149 354.059 L488.473 354.059 L488.473 350.17 M488.473 359.614 L518.149 359.614 L518.149 363.549 L488.473 363.549 L488.473 359.614 Z" fill="#000000" fill-rule="nonzero" fill-opacity="1" /><path clip-path="url(#clip560)" d="M553.311 355.286 Q549.978 355.286 548.056 357.068 Q546.158 358.85 546.158 361.975 Q546.158 365.1 548.056 366.883 Q549.978 368.665 553.311 368.665 Q556.644 368.665 558.566 366.883 Q560.487 365.077 560.487 361.975 Q560.487 358.85 558.566 357.068 Q556.668 355.286 553.311 355.286 M548.635 353.295 Q545.626 352.554 543.936 350.494 Q542.269 348.434 542.269 345.471 Q542.269 341.327 545.209 338.92 Q548.172 336.513 553.311 336.513 Q558.473 336.513 561.413 338.92 Q564.353 341.327 564.353 345.471 Q564.353 348.434 562.663 350.494 Q560.996 352.554 558.01 353.295 Q561.39 354.082 563.265 356.374 Q565.163 358.665 565.163 361.975 Q565.163 366.999 562.084 369.684 Q559.029 372.369 553.311 372.369 Q547.593 372.369 544.515 369.684 Q541.459 366.999 541.459 361.975 Q541.459 358.665 543.357 356.374 Q545.256 354.082 548.635 353.295 M546.922 345.911 Q546.922 348.596 548.589 350.1 Q550.279 351.605 553.311 351.605 Q556.32 351.605 558.01 350.1 Q559.723 348.596 559.723 345.911 Q559.723 343.225 558.01 341.721 Q556.32 340.216 553.311 340.216 Q550.279 340.216 548.589 341.721 Q546.922 343.225 546.922 345.911 Z" fill="#000000" fill-rule="nonzero" fill-opacity="1" /><path clip-path="url(#clip560)" d="M583.473 340.216 Q579.862 340.216 578.033 343.781 Q576.228 347.323 576.228 354.452 Q576.228 361.559 578.033 365.124 Q579.862 368.665 583.473 368.665 Q587.107 368.665 588.913 365.124 Q590.741 361.559 590.741 354.452 Q590.741 347.323 588.913 343.781 Q587.107 340.216 583.473 340.216 M583.473 336.513 Q589.283 336.513 592.339 341.119 Q595.417 345.702 595.417 354.452 Q595.417 363.179 592.339 367.786 Q589.283 372.369 583.473 372.369 Q577.663 372.369 574.584 367.786 Q571.529 363.179 571.529 354.452 Q571.529 345.702 574.584 341.119 Q577.663 336.513 583.473 336.513 Z" fill="#000000" fill-rule="nonzero" fill-opacity="1" /><path clip-path="url(#clip560)" d="M603.635 365.818 L608.519 365.818 L608.519 371.698 L603.635 371.698 L603.635 365.818 Z" fill="#000000" fill-rule="nonzero" fill-opacity="1" /><path clip-path="url(#clip560)" d="M628.704 340.216 Q625.093 340.216 623.264 343.781 Q621.459 347.323 621.459 354.452 Q621.459 361.559 623.264 365.124 Q625.093 368.665 628.704 368.665 Q632.338 368.665 634.144 365.124 Q635.973 361.559 635.973 354.452 Q635.973 347.323 634.144 343.781 Q632.338 340.216 628.704 340.216 M628.704 336.513 Q634.514 336.513 637.57 341.119 Q640.649 345.702 640.649 354.452 Q640.649 363.179 637.57 367.786 Q634.514 372.369 628.704 372.369 Q622.894 372.369 619.815 367.786 Q616.76 363.179 616.76 354.452 Q616.76 345.702 619.815 341.119 Q622.894 336.513 628.704 336.513 Z" fill="#000000" fill-rule="nonzero" fill-opacity="1" /><polyline clip-path="url(#clip560)" style="stroke:#00a9ad; stroke-linecap:round; stroke-linejoin:round; stroke-width:4; stroke-opacity:1; fill:none" points="282.562,406.258 426.994,406.258 "/>
<path clip-path="url(#clip560)" d="M458.474 390.251 L458.474 397.612 L467.247 397.612 L467.247 400.922 L458.474 400.922 L458.474 414.996 Q458.474 418.167 459.33 419.07 Q460.21 419.973 462.872 419.973 L467.247 419.973 L467.247 423.538 L462.872 423.538 Q457.941 423.538 456.066 421.709 Q454.191 419.857 454.191 414.996 L454.191 400.922 L451.066 400.922 L451.066 397.612 L454.191 397.612 L454.191 390.251 L458.474 390.251 Z" fill="#000000" fill-rule="nonzero" fill-opacity="1" /><path clip-path="url(#clip560)" d="M488.473 402.01 L518.149 402.01 L518.149 405.899 L488.473 405.899 L488.473 402.01 M488.473 411.454 L518.149 411.454 L518.149 415.389 L488.473 415.389 L488.473 411.454 Z" fill="#000000" fill-rule="nonzero" fill-opacity="1" /><path clip-path="url(#clip560)" d="M544.121 419.602 L551.76 419.602 L551.76 393.237 L543.45 394.903 L543.45 390.644 L551.714 388.978 L556.39 388.978 L556.39 419.602 L564.029 419.602 L564.029 423.538 L544.121 423.538 L544.121 419.602 Z" fill="#000000" fill-rule="nonzero" fill-opacity="1" /><path clip-path="url(#clip560)" d="M583.473 392.056 Q579.862 392.056 578.033 395.621 Q576.228 399.163 576.228 406.292 Q576.228 413.399 578.033 416.964 Q579.862 420.505 583.473 420.505 Q587.107 420.505 588.913 416.964 Q590.741 413.399 590.741 406.292 Q590.741 399.163 588.913 395.621 Q587.107 392.056 583.473 392.056 M583.473 388.353 Q589.283 388.353 592.339 392.959 Q595.417 397.542 595.417 406.292 Q595.417 415.019 592.339 419.626 Q589.283 424.209 583.473 424.209 Q577.663 424.209 574.584 419.626 Q571.529 415.019 571.529 406.292 Q571.529 397.542 574.584 392.959 Q577.663 388.353 583.473 388.353 Z" fill="#000000" fill-rule="nonzero" fill-opacity="1" /><path clip-path="url(#clip560)" d="M613.635 392.056 Q610.024 392.056 608.195 395.621 Q606.389 399.163 606.389 406.292 Q606.389 413.399 608.195 416.964 Q610.024 420.505 613.635 420.505 Q617.269 420.505 619.075 416.964 Q620.903 413.399 620.903 406.292 Q620.903 399.163 619.075 395.621 Q617.269 392.056 613.635 392.056 M613.635 388.353 Q619.445 388.353 622.501 392.959 Q625.579 397.542 625.579 406.292 Q625.579 415.019 622.501 419.626 Q619.445 424.209 613.635 424.209 Q607.825 424.209 604.746 419.626 Q601.69 415.019 601.69 406.292 Q601.69 397.542 604.746 392.959 Q607.825 388.353 613.635 388.353 Z" fill="#000000" fill-rule="nonzero" fill-opacity="1" /><path clip-path="url(#clip560)" d="M633.797 417.658 L638.681 417.658 L638.681 423.538 L633.797 423.538 L633.797 417.658 Z" fill="#000000" fill-rule="nonzero" fill-opacity="1" /><path clip-path="url(#clip560)" d="M658.866 392.056 Q655.255 392.056 653.426 395.621 Q651.621 399.163 651.621 406.292 Q651.621 413.399 653.426 416.964 Q655.255 420.505 658.866 420.505 Q662.5 420.505 664.306 416.964 Q666.135 413.399 666.135 406.292 Q666.135 399.163 664.306 395.621 Q662.5 392.056 658.866 392.056 M658.866 388.353 Q664.676 388.353 667.732 392.959 Q670.81 397.542 670.81 406.292 Q670.81 415.019 667.732 419.626 Q664.676 424.209 658.866 424.209 Q653.056 424.209 649.977 419.626 Q646.922 415.019 646.922 406.292 Q646.922 397.542 649.977 392.959 Q653.056 388.353 658.866 388.353 Z" fill="#000000" fill-rule="nonzero" fill-opacity="1" /><polyline clip-path="url(#clip560)" style="stroke:#ed5d92; stroke-linecap:round; stroke-linejoin:round; stroke-width:4; stroke-opacity:1; fill:none" points="282.562,458.098 426.994,458.098 "/>
<path clip-path="url(#clip560)" d="M458.474 442.091 L458.474 449.452 L467.247 449.452 L467.247 452.762 L458.474 452.762 L458.474 466.836 Q458.474 470.007 459.33 470.91 Q460.21 471.813 462.872 471.813 L467.247 471.813 L467.247 475.378 L462.872 475.378 Q457.941 475.378 456.066 473.549 Q454.191 471.697 454.191 466.836 L454.191 452.762 L451.066 452.762 L451.066 449.452 L454.191 449.452 L454.191 442.091 L458.474 442.091 Z" fill="#000000" fill-rule="nonzero" fill-opacity="1" /><path clip-path="url(#clip560)" d="M488.473 453.85 L518.149 453.85 L518.149 457.739 L488.473 457.739 L488.473 453.85 M488.473 463.294 L518.149 463.294 L518.149 467.229 L488.473 467.229 L488.473 463.294 Z" fill="#000000" fill-rule="nonzero" fill-opacity="1" /><path clip-path="url(#clip560)" d="M544.121 471.442 L551.76 471.442 L551.76 445.077 L543.45 446.743 L543.45 442.484 L551.714 440.818 L556.39 440.818 L556.39 471.442 L564.029 471.442 L564.029 475.378 L544.121 475.378 L544.121 471.442 Z" fill="#000000" fill-rule="nonzero" fill-opacity="1" /><path clip-path="url(#clip560)" d="M577.501 471.442 L593.82 471.442 L593.82 475.378 L571.876 475.378 L571.876 471.442 Q574.538 468.688 579.121 464.058 Q583.728 459.405 584.908 458.063 Q587.153 455.54 588.033 453.804 Q588.936 452.044 588.936 450.355 Q588.936 447.6 586.991 445.864 Q585.07 444.128 581.968 444.128 Q579.769 444.128 577.316 444.892 Q574.885 445.655 572.107 447.206 L572.107 442.484 Q574.931 441.35 577.385 440.771 Q579.839 440.193 581.876 440.193 Q587.246 440.193 590.44 442.878 Q593.635 445.563 593.635 450.054 Q593.635 452.183 592.825 454.105 Q592.038 456.003 589.931 458.595 Q589.353 459.267 586.251 462.484 Q583.149 465.679 577.501 471.442 Z" fill="#000000" fill-rule="nonzero" fill-opacity="1" /><path clip-path="url(#clip560)" d="M613.635 443.896 Q610.024 443.896 608.195 447.461 Q606.389 451.003 606.389 458.132 Q606.389 465.239 608.195 468.804 Q610.024 472.345 613.635 472.345 Q617.269 472.345 619.075 468.804 Q620.903 465.239 620.903 458.132 Q620.903 451.003 619.075 447.461 Q617.269 443.896 613.635 443.896 M613.635 440.193 Q619.445 440.193 622.501 444.799 Q625.579 449.382 625.579 458.132 Q625.579 466.859 622.501 471.466 Q619.445 476.049 613.635 476.049 Q607.825 476.049 604.746 471.466 Q601.69 466.859 601.69 458.132 Q601.69 449.382 604.746 444.799 Q607.825 440.193 613.635 440.193 Z" fill="#000000" fill-rule="nonzero" fill-opacity="1" /><path clip-path="url(#clip560)" d="M633.797 469.498 L638.681 469.498 L638.681 475.378 L633.797 475.378 L633.797 469.498 Z" fill="#000000" fill-rule="nonzero" fill-opacity="1" /><path clip-path="url(#clip560)" d="M658.866 443.896 Q655.255 443.896 653.426 447.461 Q651.621 451.003 651.621 458.132 Q651.621 465.239 653.426 468.804 Q655.255 472.345 658.866 472.345 Q662.5 472.345 664.306 468.804 Q666.135 465.239 666.135 458.132 Q666.135 451.003 664.306 447.461 Q662.5 443.896 658.866 443.896 M658.866 440.193 Q664.676 440.193 667.732 444.799 Q670.81 449.382 670.81 458.132 Q670.81 466.859 667.732 471.466 Q664.676 476.049 658.866 476.049 Q653.056 476.049 649.977 471.466 Q646.922 466.859 646.922 458.132 Q646.922 449.382 649.977 444.799 Q653.056 440.193 658.866 440.193 Z" fill="#000000" fill-rule="nonzero" fill-opacity="1" /></svg>
