<?xml version="1.0" encoding="utf-8"?>
<svg xmlns="http://www.w3.org/2000/svg" xmlns:xlink="http://www.w3.org/1999/xlink" width="600" height="400" viewBox="0 0 2400 1600">
<defs>
  <clipPath id="clip100">
    <rect x="0" y="0" width="2400" height="1600"/>
  </clipPath>
</defs>
<path clip-path="url(#clip100)" d="M0 1600 L2400 1600 L2400 0 L0 0  Z" fill="#ffffff" fill-rule="evenodd" fill-opacity="1"/>
<defs>
  <clipPath id="clip101">
    <rect x="480" y="0" width="1681" height="1600"/>
  </clipPath>
</defs>
<path clip-path="url(#clip100)" d="M186.274 1486.45 L2352.76 1486.45 L2352.76 47.2441 L186.274 47.2441  Z" fill="#ffffff" fill-rule="evenodd" fill-opacity="1"/>
<defs>
  <clipPath id="clip102">
    <rect x="186" y="47" width="2167" height="1440"/>
  </clipPath>
</defs>
<polyline clip-path="url(#clip102)" style="stroke:#000000; stroke-linecap:round; stroke-linejoin:round; stroke-width:2; stroke-opacity:0.1; fill:none" points="451.975,1486.45 451.975,47.2441 "/>
<polyline clip-path="url(#clip102)" style="stroke:#000000; stroke-linecap:round; stroke-linejoin:round; stroke-width:2; stroke-opacity:0.1; fill:none" points="860.745,1486.45 860.745,47.2441 "/>
<polyline clip-path="url(#clip102)" style="stroke:#000000; stroke-linecap:round; stroke-linejoin:round; stroke-width:2; stroke-opacity:0.1; fill:none" points="1269.51,1486.45 1269.51,47.2441 "/>
<polyline clip-path="url(#clip102)" style="stroke:#000000; stroke-linecap:round; stroke-linejoin:round; stroke-width:2; stroke-opacity:0.1; fill:none" points="1678.29,1486.45 1678.29,47.2441 "/>
<polyline clip-path="url(#clip102)" style="stroke:#000000; stroke-linecap:round; stroke-linejoin:round; stroke-width:2; stroke-opacity:0.1; fill:none" points="2087.06,1486.45 2087.06,47.2441 "/>
<polyline clip-path="url(#clip100)" style="stroke:#000000; stroke-linecap:round; stroke-linejoin:round; stroke-width:4; stroke-opacity:1; fill:none" points="186.274,1486.45 2352.76,1486.45 "/>
<polyline clip-path="url(#clip100)" style="stroke:#000000; stroke-linecap:round; stroke-linejoin:round; stroke-width:4; stroke-opacity:1; fill:none" points="451.975,1486.45 451.975,1467.55 "/>
<polyline clip-path="url(#clip100)" style="stroke:#000000; stroke-linecap:round; stroke-linejoin:round; stroke-width:4; stroke-opacity:1; fill:none" points="860.745,1486.45 860.745,1467.55 "/>
<polyline clip-path="url(#clip100)" style="stroke:#000000; stroke-linecap:round; stroke-linejoin:round; stroke-width:4; stroke-opacity:1; fill:none" points="1269.51,1486.45 1269.51,1467.55 "/>
<polyline clip-path="url(#clip100)" style="stroke:#000000; stroke-linecap:round; stroke-linejoin:round; stroke-width:4; stroke-opacity:1; fill:none" points="1678.29,1486.45 1678.29,1467.55 "/>
<polyline clip-path="url(#clip100)" style="stroke:#000000; stroke-linecap:round; stroke-linejoin:round; stroke-width:4; stroke-opacity:1; fill:none" points="2087.06,1486.45 2087.06,1467.55 "/>
<path clip-path="url(#clip100)" d="M398.26 1532.02 L427.935 1532.02 L427.935 1535.95 L398.26 1535.95 L398.26 1532.02 Z" fill="#000000" fill-rule="nonzero" fill-opacity="1" /><path clip-path="url(#clip100)" d="M448.028 1517.37 Q444.417 1517.37 442.588 1520.93 Q440.783 1524.47 440.783 1531.6 Q440.783 1538.71 442.588 1542.27 Q444.417 1545.82 448.028 1545.82 Q451.662 1545.82 453.468 1542.27 Q455.296 1538.71 455.296 1531.6 Q455.296 1524.47 453.468 1520.93 Q451.662 1517.37 448.028 1517.37 M448.028 1513.66 Q453.838 1513.66 456.894 1518.27 Q459.972 1522.85 459.972 1531.6 Q459.972 1540.33 456.894 1544.94 Q453.838 1549.52 448.028 1549.52 Q442.218 1549.52 439.139 1544.94 Q436.083 1540.33 436.083 1531.6 Q436.083 1522.85 439.139 1518.27 Q442.218 1513.66 448.028 1513.66 Z" fill="#000000" fill-rule="nonzero" fill-opacity="1" /><path clip-path="url(#clip100)" d="M468.19 1542.97 L473.074 1542.97 L473.074 1548.85 L468.19 1548.85 L468.19 1542.97 Z" fill="#000000" fill-rule="nonzero" fill-opacity="1" /><path clip-path="url(#clip100)" d="M496.106 1518.36 L484.301 1536.81 L496.106 1536.81 L496.106 1518.36 M494.879 1514.29 L500.759 1514.29 L500.759 1536.81 L505.69 1536.81 L505.69 1540.7 L500.759 1540.7 L500.759 1548.85 L496.106 1548.85 L496.106 1540.7 L480.505 1540.7 L480.505 1536.19 L494.879 1514.29 Z" fill="#000000" fill-rule="nonzero" fill-opacity="1" /><path clip-path="url(#clip100)" d="M808.071 1532.02 L837.747 1532.02 L837.747 1535.95 L808.071 1535.95 L808.071 1532.02 Z" fill="#000000" fill-rule="nonzero" fill-opacity="1" /><path clip-path="url(#clip100)" d="M857.84 1517.37 Q854.229 1517.37 852.4 1520.93 Q850.594 1524.47 850.594 1531.6 Q850.594 1538.71 852.4 1542.27 Q854.229 1545.82 857.84 1545.82 Q861.474 1545.82 863.279 1542.27 Q865.108 1538.71 865.108 1531.6 Q865.108 1524.47 863.279 1520.93 Q861.474 1517.37 857.84 1517.37 M857.84 1513.66 Q863.65 1513.66 866.705 1518.27 Q869.784 1522.85 869.784 1531.6 Q869.784 1540.33 866.705 1544.94 Q863.65 1549.52 857.84 1549.52 Q852.03 1549.52 848.951 1544.94 Q845.895 1540.33 845.895 1531.6 Q845.895 1522.85 848.951 1518.27 Q852.03 1513.66 857.84 1513.66 Z" fill="#000000" fill-rule="nonzero" fill-opacity="1" /><path clip-path="url(#clip100)" d="M878.002 1542.97 L882.886 1542.97 L882.886 1548.85 L878.002 1548.85 L878.002 1542.97 Z" fill="#000000" fill-rule="nonzero" fill-opacity="1" /><path clip-path="url(#clip100)" d="M897.099 1544.91 L913.418 1544.91 L913.418 1548.85 L891.474 1548.85 L891.474 1544.91 Q894.136 1542.16 898.719 1537.53 Q903.326 1532.88 904.506 1531.53 Q906.751 1529.01 907.631 1527.27 Q908.534 1525.51 908.534 1523.82 Q908.534 1521.07 906.589 1519.33 Q904.668 1517.6 901.566 1517.6 Q899.367 1517.6 896.914 1518.36 Q894.483 1519.13 891.705 1520.68 L891.705 1515.95 Q894.529 1514.82 896.983 1514.24 Q899.437 1513.66 901.474 1513.66 Q906.844 1513.66 910.039 1516.35 Q913.233 1519.03 913.233 1523.52 Q913.233 1525.65 912.423 1527.57 Q911.636 1529.47 909.529 1532.07 Q908.951 1532.74 905.849 1535.95 Q902.747 1539.15 897.099 1544.91 Z" fill="#000000" fill-rule="nonzero" fill-opacity="1" /><path clip-path="url(#clip100)" d="M1246.9 1517.37 Q1243.29 1517.37 1241.46 1520.93 Q1239.65 1524.47 1239.65 1531.6 Q1239.65 1538.71 1241.46 1542.27 Q1243.29 1545.82 1246.9 1545.82 Q1250.53 1545.82 1252.34 1542.27 Q1254.17 1538.71 1254.17 1531.6 Q1254.17 1524.47 1252.34 1520.93 Q1250.53 1517.37 1246.9 1517.37 M1246.9 1513.66 Q1252.71 1513.66 1255.77 1518.27 Q1258.84 1522.85 1258.84 1531.6 Q1258.84 1540.33 1255.77 1544.94 Q1252.71 1549.52 1246.9 1549.52 Q1241.09 1549.52 1238.01 1544.94 Q1234.95 1540.33 1234.95 1531.6 Q1234.95 1522.85 1238.01 1518.27 Q1241.09 1513.66 1246.9 1513.66 Z" fill="#000000" fill-rule="nonzero" fill-opacity="1" /><path clip-path="url(#clip100)" d="M1267.06 1542.97 L1271.95 1542.97 L1271.95 1548.85 L1267.06 1548.85 L1267.06 1542.97 Z" fill="#000000" fill-rule="nonzero" fill-opacity="1" /><path clip-path="url(#clip100)" d="M1292.13 1517.37 Q1288.52 1517.37 1286.69 1520.93 Q1284.89 1524.47 1284.89 1531.6 Q1284.89 1538.71 1286.69 1542.27 Q1288.52 1545.82 1292.13 1545.82 Q1295.76 1545.82 1297.57 1542.27 Q1299.4 1538.71 1299.4 1531.6 Q1299.4 1524.47 1297.57 1520.93 Q1295.76 1517.37 1292.13 1517.37 M1292.13 1513.66 Q1297.94 1513.66 1301 1518.27 Q1304.07 1522.85 1304.07 1531.6 Q1304.07 1540.33 1301 1544.94 Q1297.94 1549.52 1292.13 1549.52 Q1286.32 1549.52 1283.24 1544.94 Q1280.19 1540.33 1280.19 1531.6 Q1280.19 1522.85 1283.24 1518.27 Q1286.32 1513.66 1292.13 1513.66 Z" fill="#000000" fill-rule="nonzero" fill-opacity="1" /><path clip-path="url(#clip100)" d="M1656.47 1517.37 Q1652.86 1517.37 1651.03 1520.93 Q1649.22 1524.47 1649.22 1531.6 Q1649.22 1538.71 1651.03 1542.27 Q1652.86 1545.82 1656.47 1545.82 Q1660.1 1545.82 1661.91 1542.27 Q1663.74 1538.71 1663.74 1531.6 Q1663.74 1524.47 1661.91 1520.93 Q1660.1 1517.37 1656.47 1517.37 M1656.47 1513.66 Q1662.28 1513.66 1665.33 1518.27 Q1668.41 1522.85 1668.41 1531.6 Q1668.41 1540.33 1665.33 1544.94 Q1662.28 1549.52 1656.47 1549.52 Q1650.66 1549.52 1647.58 1544.94 Q1644.52 1540.33 1644.52 1531.6 Q1644.52 1522.85 1647.58 1518.27 Q1650.66 1513.66 1656.47 1513.66 Z" fill="#000000" fill-rule="nonzero" fill-opacity="1" /><path clip-path="url(#clip100)" d="M1676.63 1542.97 L1681.51 1542.97 L1681.51 1548.85 L1676.63 1548.85 L1676.63 1542.97 Z" fill="#000000" fill-rule="nonzero" fill-opacity="1" /><path clip-path="url(#clip100)" d="M1695.73 1544.91 L1712.05 1544.91 L1712.05 1548.85 L1690.1 1548.85 L1690.1 1544.91 Q1692.76 1542.16 1697.35 1537.53 Q1701.95 1532.88 1703.13 1531.53 Q1705.38 1529.01 1706.26 1527.27 Q1707.16 1525.51 1707.16 1523.82 Q1707.16 1521.07 1705.22 1519.33 Q1703.3 1517.6 1700.19 1517.6 Q1698 1517.6 1695.54 1518.36 Q1693.11 1519.13 1690.33 1520.68 L1690.33 1515.95 Q1693.16 1514.82 1695.61 1514.24 Q1698.07 1513.66 1700.1 1513.66 Q1705.47 1513.66 1708.67 1516.35 Q1711.86 1519.03 1711.86 1523.52 Q1711.86 1525.65 1711.05 1527.57 Q1710.26 1529.47 1708.16 1532.07 Q1707.58 1532.74 1704.48 1535.95 Q1701.38 1539.15 1695.73 1544.91 Z" fill="#000000" fill-rule="nonzero" fill-opacity="1" /><path clip-path="url(#clip100)" d="M2064.2 1517.37 Q2060.59 1517.37 2058.76 1520.93 Q2056.95 1524.47 2056.95 1531.6 Q2056.95 1538.71 2058.76 1542.27 Q2060.59 1545.82 2064.2 1545.82 Q2067.83 1545.82 2069.64 1542.27 Q2071.47 1538.71 2071.47 1531.6 Q2071.47 1524.47 2069.64 1520.93 Q2067.83 1517.37 2064.2 1517.37 M2064.2 1513.66 Q2070.01 1513.66 2073.06 1518.27 Q2076.14 1522.85 2076.14 1531.6 Q2076.14 1540.33 2073.06 1544.94 Q2070.01 1549.52 2064.2 1549.52 Q2058.39 1549.52 2055.31 1544.94 Q2052.25 1540.33 2052.25 1531.6 Q2052.25 1522.85 2055.31 1518.27 Q2058.39 1513.66 2064.2 1513.66 Z" fill="#000000" fill-rule="nonzero" fill-opacity="1" /><path clip-path="url(#clip100)" d="M2084.36 1542.97 L2089.24 1542.97 L2089.24 1548.85 L2084.36 1548.85 L2084.36 1542.97 Z" fill="#000000" fill-rule="nonzero" fill-opacity="1" /><path clip-path="url(#clip100)" d="M2112.28 1518.36 L2100.47 1536.81 L2112.28 1536.81 L2112.28 1518.36 M2111.05 1514.29 L2116.93 1514.29 L2116.93 1536.81 L2121.86 1536.81 L2121.86 1540.7 L2116.93 1540.7 L2116.93 1548.85 L2112.28 1548.85 L2112.28 1540.7 L2096.67 1540.7 L2096.67 1536.19 L2111.05 1514.29 Z" fill="#000000" fill-rule="nonzero" fill-opacity="1" /><polyline clip-path="url(#clip102)" style="stroke:#000000; stroke-linecap:round; stroke-linejoin:round; stroke-width:2; stroke-opacity:0.1; fill:none" points="186.274,1443.46 2352.76,1443.46 "/>
<polyline clip-path="url(#clip102)" style="stroke:#000000; stroke-linecap:round; stroke-linejoin:round; stroke-width:2; stroke-opacity:0.1; fill:none" points="186.274,1104.41 2352.76,1104.41 "/>
<polyline clip-path="url(#clip102)" style="stroke:#000000; stroke-linecap:round; stroke-linejoin:round; stroke-width:2; stroke-opacity:0.1; fill:none" points="186.274,765.367 2352.76,765.367 "/>
<polyline clip-path="url(#clip102)" style="stroke:#000000; stroke-linecap:round; stroke-linejoin:round; stroke-width:2; stroke-opacity:0.1; fill:none" points="186.274,426.32 2352.76,426.32 "/>
<polyline clip-path="url(#clip102)" style="stroke:#000000; stroke-linecap:round; stroke-linejoin:round; stroke-width:2; stroke-opacity:0.1; fill:none" points="186.274,87.2733 2352.76,87.2733 "/>
<polyline clip-path="url(#clip100)" style="stroke:#000000; stroke-linecap:round; stroke-linejoin:round; stroke-width:4; stroke-opacity:1; fill:none" points="186.274,1486.45 186.274,47.2441 "/>
<polyline clip-path="url(#clip100)" style="stroke:#000000; stroke-linecap:round; stroke-linejoin:round; stroke-width:4; stroke-opacity:1; fill:none" points="186.274,1443.46 205.172,1443.46 "/>
<polyline clip-path="url(#clip100)" style="stroke:#000000; stroke-linecap:round; stroke-linejoin:round; stroke-width:4; stroke-opacity:1; fill:none" points="186.274,1104.41 205.172,1104.41 "/>
<polyline clip-path="url(#clip100)" style="stroke:#000000; stroke-linecap:round; stroke-linejoin:round; stroke-width:4; stroke-opacity:1; fill:none" points="186.274,765.367 205.172,765.367 "/>
<polyline clip-path="url(#clip100)" style="stroke:#000000; stroke-linecap:round; stroke-linejoin:round; stroke-width:4; stroke-opacity:1; fill:none" points="186.274,426.32 205.172,426.32 "/>
<polyline clip-path="url(#clip100)" style="stroke:#000000; stroke-linecap:round; stroke-linejoin:round; stroke-width:4; stroke-opacity:1; fill:none" points="186.274,87.2733 205.172,87.2733 "/>
<path clip-path="url(#clip100)" d="M62.9365 1429.26 Q59.3254 1429.26 57.4967 1432.82 Q55.6912 1436.37 55.6912 1443.49 Q55.6912 1450.6 57.4967 1454.17 Q59.3254 1457.71 62.9365 1457.71 Q66.5707 1457.71 68.3763 1454.17 Q70.205 1450.6 70.205 1443.49 Q70.205 1436.37 68.3763 1432.82 Q66.5707 1429.26 62.9365 1429.26 M62.9365 1425.56 Q68.7467 1425.56 71.8022 1430.16 Q74.8809 1434.74 74.8809 1443.49 Q74.8809 1452.22 71.8022 1456.83 Q68.7467 1461.41 62.9365 1461.41 Q57.1264 1461.41 54.0477 1456.83 Q50.9921 1452.22 50.9921 1443.49 Q50.9921 1434.74 54.0477 1430.16 Q57.1264 1425.56 62.9365 1425.56 Z" fill="#000000" fill-rule="nonzero" fill-opacity="1" /><path clip-path="url(#clip100)" d="M83.0984 1454.86 L87.9827 1454.86 L87.9827 1460.74 L83.0984 1460.74 L83.0984 1454.86 Z" fill="#000000" fill-rule="nonzero" fill-opacity="1" /><path clip-path="url(#clip100)" d="M108.168 1429.26 Q104.557 1429.26 102.728 1432.82 Q100.922 1436.37 100.922 1443.49 Q100.922 1450.6 102.728 1454.17 Q104.557 1457.71 108.168 1457.71 Q111.802 1457.71 113.608 1454.17 Q115.436 1450.6 115.436 1443.49 Q115.436 1436.37 113.608 1432.82 Q111.802 1429.26 108.168 1429.26 M108.168 1425.56 Q113.978 1425.56 117.033 1430.16 Q120.112 1434.74 120.112 1443.49 Q120.112 1452.22 117.033 1456.83 Q113.978 1461.41 108.168 1461.41 Q102.358 1461.41 99.2789 1456.83 Q96.2234 1452.22 96.2234 1443.49 Q96.2234 1434.74 99.2789 1430.16 Q102.358 1425.56 108.168 1425.56 Z" fill="#000000" fill-rule="nonzero" fill-opacity="1" /><path clip-path="url(#clip100)" d="M138.33 1429.26 Q134.719 1429.26 132.89 1432.82 Q131.084 1436.37 131.084 1443.49 Q131.084 1450.6 132.89 1454.17 Q134.719 1457.71 138.33 1457.71 Q141.964 1457.71 143.769 1454.17 Q145.598 1450.6 145.598 1443.49 Q145.598 1436.37 143.769 1432.82 Q141.964 1429.26 138.33 1429.26 M138.33 1425.56 Q144.14 1425.56 147.195 1430.16 Q150.274 1434.74 150.274 1443.49 Q150.274 1452.22 147.195 1456.83 Q144.14 1461.41 138.33 1461.41 Q132.519 1461.41 129.441 1456.83 Q126.385 1452.22 126.385 1443.49 Q126.385 1434.74 129.441 1430.16 Q132.519 1425.56 138.33 1425.56 Z" fill="#000000" fill-rule="nonzero" fill-opacity="1" /><path clip-path="url(#clip100)" d="M63.9319 1090.21 Q60.3208 1090.21 58.4921 1093.78 Q56.6865 1097.32 56.6865 1104.45 Q56.6865 1111.55 58.4921 1115.12 Q60.3208 1118.66 63.9319 1118.66 Q67.5661 1118.66 69.3717 1115.12 Q71.2004 1111.55 71.2004 1104.45 Q71.2004 1097.32 69.3717 1093.78 Q67.5661 1090.21 63.9319 1090.21 M63.9319 1086.51 Q69.742 1086.51 72.7976 1091.11 Q75.8763 1095.7 75.8763 1104.45 Q75.8763 1113.17 72.7976 1117.78 Q69.742 1122.36 63.9319 1122.36 Q58.1217 1122.36 55.043 1117.78 Q51.9875 1113.17 51.9875 1104.45 Q51.9875 1095.7 55.043 1091.11 Q58.1217 1086.51 63.9319 1086.51 Z" fill="#000000" fill-rule="nonzero" fill-opacity="1" /><path clip-path="url(#clip100)" d="M84.0938 1115.81 L88.978 1115.81 L88.978 1121.69 L84.0938 1121.69 L84.0938 1115.81 Z" fill="#000000" fill-rule="nonzero" fill-opacity="1" /><path clip-path="url(#clip100)" d="M103.191 1117.76 L119.51 1117.76 L119.51 1121.69 L97.566 1121.69 L97.566 1117.76 Q100.228 1115 104.811 1110.37 Q109.418 1105.72 110.598 1104.38 Q112.844 1101.86 113.723 1100.12 Q114.626 1098.36 114.626 1096.67 Q114.626 1093.92 112.682 1092.18 Q110.76 1090.44 107.658 1090.44 Q105.459 1090.44 103.006 1091.21 Q100.575 1091.97 97.7974 1093.52 L97.7974 1088.8 Q100.621 1087.67 103.075 1087.09 Q105.529 1086.51 107.566 1086.51 Q112.936 1086.51 116.131 1089.19 Q119.325 1091.88 119.325 1096.37 Q119.325 1098.5 118.515 1100.42 Q117.728 1102.32 115.621 1104.91 Q115.043 1105.58 111.941 1108.8 Q108.839 1111.99 103.191 1117.76 Z" fill="#000000" fill-rule="nonzero" fill-opacity="1" /><path clip-path="url(#clip100)" d="M129.371 1087.13 L147.728 1087.13 L147.728 1091.07 L133.654 1091.07 L133.654 1099.54 Q134.672 1099.19 135.691 1099.03 Q136.709 1098.85 137.728 1098.85 Q143.515 1098.85 146.894 1102.02 Q150.274 1105.19 150.274 1110.61 Q150.274 1116.18 146.802 1119.29 Q143.33 1122.36 137.01 1122.36 Q134.834 1122.36 132.566 1121.99 Q130.32 1121.62 127.913 1120.88 L127.913 1116.18 Q129.996 1117.32 132.219 1117.87 Q134.441 1118.43 136.918 1118.43 Q140.922 1118.43 143.26 1116.32 Q145.598 1114.22 145.598 1110.61 Q145.598 1106.99 143.26 1104.89 Q140.922 1102.78 136.918 1102.78 Q135.043 1102.78 133.168 1103.2 Q131.316 1103.61 129.371 1104.49 L129.371 1087.13 Z" fill="#000000" fill-rule="nonzero" fill-opacity="1" /><path clip-path="url(#clip100)" d="M62.9365 751.165 Q59.3254 751.165 57.4967 754.73 Q55.6912 758.272 55.6912 765.401 Q55.6912 772.508 57.4967 776.073 Q59.3254 779.614 62.9365 779.614 Q66.5707 779.614 68.3763 776.073 Q70.205 772.508 70.205 765.401 Q70.205 758.272 68.3763 754.73 Q66.5707 751.165 62.9365 751.165 M62.9365 747.462 Q68.7467 747.462 71.8022 752.068 Q74.8809 756.651 74.8809 765.401 Q74.8809 774.128 71.8022 778.735 Q68.7467 783.318 62.9365 783.318 Q57.1264 783.318 54.0477 778.735 Q50.9921 774.128 50.9921 765.401 Q50.9921 756.651 54.0477 752.068 Q57.1264 747.462 62.9365 747.462 Z" fill="#000000" fill-rule="nonzero" fill-opacity="1" /><path clip-path="url(#clip100)" d="M83.0984 776.767 L87.9827 776.767 L87.9827 782.647 L83.0984 782.647 L83.0984 776.767 Z" fill="#000000" fill-rule="nonzero" fill-opacity="1" /><path clip-path="url(#clip100)" d="M98.2141 748.087 L116.57 748.087 L116.57 752.022 L102.496 752.022 L102.496 760.494 Q103.515 760.147 104.534 759.985 Q105.552 759.8 106.571 759.8 Q112.358 759.8 115.737 762.971 Q119.117 766.142 119.117 771.559 Q119.117 777.137 115.645 780.239 Q112.172 783.318 105.853 783.318 Q103.677 783.318 101.409 782.948 Q99.1632 782.577 96.7558 781.837 L96.7558 777.137 Q98.8391 778.272 101.061 778.827 Q103.284 779.383 105.76 779.383 Q109.765 779.383 112.103 777.276 Q114.441 775.17 114.441 771.559 Q114.441 767.948 112.103 765.841 Q109.765 763.735 105.76 763.735 Q103.885 763.735 102.01 764.151 Q100.159 764.568 98.2141 765.448 L98.2141 748.087 Z" fill="#000000" fill-rule="nonzero" fill-opacity="1" /><path clip-path="url(#clip100)" d="M138.33 751.165 Q134.719 751.165 132.89 754.73 Q131.084 758.272 131.084 765.401 Q131.084 772.508 132.89 776.073 Q134.719 779.614 138.33 779.614 Q141.964 779.614 143.769 776.073 Q145.598 772.508 145.598 765.401 Q145.598 758.272 143.769 754.73 Q141.964 751.165 138.33 751.165 M138.33 747.462 Q144.14 747.462 147.195 752.068 Q150.274 756.651 150.274 765.401 Q150.274 774.128 147.195 778.735 Q144.14 783.318 138.33 783.318 Q132.519 783.318 129.441 778.735 Q126.385 774.128 126.385 765.401 Q126.385 756.651 129.441 752.068 Q132.519 747.462 138.33 747.462 Z" fill="#000000" fill-rule="nonzero" fill-opacity="1" /><path clip-path="url(#clip100)" d="M63.9319 412.119 Q60.3208 412.119 58.4921 415.683 Q56.6865 419.225 56.6865 426.355 Q56.6865 433.461 58.4921 437.026 Q60.3208 440.568 63.9319 440.568 Q67.5661 440.568 69.3717 437.026 Q71.2004 433.461 71.2004 426.355 Q71.2004 419.225 69.3717 415.683 Q67.5661 412.119 63.9319 412.119 M63.9319 408.415 Q69.742 408.415 72.7976 413.021 Q75.8763 417.605 75.8763 426.355 Q75.8763 435.082 72.7976 439.688 Q69.742 444.271 63.9319 444.271 Q58.1217 444.271 55.043 439.688 Q51.9875 435.082 51.9875 426.355 Q51.9875 417.605 55.043 413.021 Q58.1217 408.415 63.9319 408.415 Z" fill="#000000" fill-rule="nonzero" fill-opacity="1" /><path clip-path="url(#clip100)" d="M84.0938 437.72 L88.978 437.72 L88.978 443.6 L84.0938 443.6 L84.0938 437.72 Z" fill="#000000" fill-rule="nonzero" fill-opacity="1" /><path clip-path="url(#clip100)" d="M97.9826 409.04 L120.205 409.04 L120.205 411.031 L107.658 443.6 L102.774 443.6 L114.58 412.975 L97.9826 412.975 L97.9826 409.04 Z" fill="#000000" fill-rule="nonzero" fill-opacity="1" /><path clip-path="url(#clip100)" d="M129.371 409.04 L147.728 409.04 L147.728 412.975 L133.654 412.975 L133.654 421.447 Q134.672 421.1 135.691 420.938 Q136.709 420.753 137.728 420.753 Q143.515 420.753 146.894 423.924 Q150.274 427.095 150.274 432.512 Q150.274 438.091 146.802 441.193 Q143.33 444.271 137.01 444.271 Q134.834 444.271 132.566 443.901 Q130.32 443.531 127.913 442.79 L127.913 438.091 Q129.996 439.225 132.219 439.781 Q134.441 440.336 136.918 440.336 Q140.922 440.336 143.26 438.23 Q145.598 436.123 145.598 432.512 Q145.598 428.901 143.26 426.795 Q140.922 424.688 136.918 424.688 Q135.043 424.688 133.168 425.105 Q131.316 425.521 129.371 426.401 L129.371 409.04 Z" fill="#000000" fill-rule="nonzero" fill-opacity="1" /><path clip-path="url(#clip100)" d="M53.7467 100.618 L61.3856 100.618 L61.3856 74.2525 L53.0754 75.9192 L53.0754 71.6599 L61.3393 69.9933 L66.0152 69.9933 L66.0152 100.618 L73.654 100.618 L73.654 104.553 L53.7467 104.553 L53.7467 100.618 Z" fill="#000000" fill-rule="nonzero" fill-opacity="1" /><path clip-path="url(#clip100)" d="M83.0984 98.6737 L87.9827 98.6737 L87.9827 104.553 L83.0984 104.553 L83.0984 98.6737 Z" fill="#000000" fill-rule="nonzero" fill-opacity="1" /><path clip-path="url(#clip100)" d="M108.168 73.072 Q104.557 73.072 102.728 76.6368 Q100.922 80.1784 100.922 87.308 Q100.922 94.4144 102.728 97.9792 Q104.557 101.521 108.168 101.521 Q111.802 101.521 113.608 97.9792 Q115.436 94.4144 115.436 87.308 Q115.436 80.1784 113.608 76.6368 Q111.802 73.072 108.168 73.072 M108.168 69.3683 Q113.978 69.3683 117.033 73.9747 Q120.112 78.5581 120.112 87.308 Q120.112 96.0348 117.033 100.641 Q113.978 105.225 108.168 105.225 Q102.358 105.225 99.2789 100.641 Q96.2234 96.0348 96.2234 87.308 Q96.2234 78.5581 99.2789 73.9747 Q102.358 69.3683 108.168 69.3683 Z" fill="#000000" fill-rule="nonzero" fill-opacity="1" /><path clip-path="url(#clip100)" d="M138.33 73.072 Q134.719 73.072 132.89 76.6368 Q131.084 80.1784 131.084 87.308 Q131.084 94.4144 132.89 97.9792 Q134.719 101.521 138.33 101.521 Q141.964 101.521 143.769 97.9792 Q145.598 94.4144 145.598 87.308 Q145.598 80.1784 143.769 76.6368 Q141.964 73.072 138.33 73.072 M138.33 69.3683 Q144.14 69.3683 147.195 73.9747 Q150.274 78.5581 150.274 87.308 Q150.274 96.0348 147.195 100.641 Q144.14 105.225 138.33 105.225 Q132.519 105.225 129.441 100.641 Q126.385 96.0348 126.385 87.308 Q126.385 78.5581 129.441 73.9747 Q132.519 69.3683 138.33 69.3683 Z" fill="#000000" fill-rule="nonzero" fill-opacity="1" /><polyline clip-path="url(#clip102)" style="stroke:#009af9; stroke-linecap:round; stroke-linejoin:round; stroke-width:4; stroke-opacity:1; fill:none" points="247.59,1443.46 255.542,1443.46 263.495,1443.46 271.448,1443.46 279.4,1443.46 287.353,1443.46 295.306,1443.46 303.259,1443.46 311.211,1443.46 319.164,1443.46 327.117,1443.36 335.07,1442.96 343.022,1442.06 350.975,1440.45 358.928,1437.92 366.88,1434.27 374.833,1429.28 382.786,1422.76 390.739,1414.49 398.691,1404.26 406.644,1391.88 414.597,1377.12 422.55,1359.79 430.502,1339.68 438.455,1316.58 446.408,1290.29 454.36,1260.59 462.313,1227.28 470.266,1190.15 478.219,1149 486.171,1103.62 494.124,1053.95 502.077,1000.47 510.03,943.805 517.982,884.583 525.935,823.421 533.888,760.94 541.84,697.762 549.793,634.509 557.746,571.8 565.699,510.259 573.651,450.505 581.604,393.16 589.557,338.846 597.51,288.183 605.462,241.793 613.415,200.297 621.368,164.317 629.32,134.474 637.273,111.388 645.226,95.682 653.179,87.9763 661.131,88.8476 669.084,98.2031 677.037,115.435 684.99,139.922 692.942,171.042 700.895,208.175 708.848,250.699 716.8,297.993 724.753,349.436 732.706,404.406 740.659,462.283 748.611,522.444 756.564,584.269 764.517,647.136 772.47,710.424 780.422,773.512 788.375,835.778 796.328,896.602 804.28,955.362 812.233,1011.44 820.186,1064.2 828.139,1113.05 836.091,1157.57 844.044,1197.89 851.997,1234.24 859.95,1266.81 867.902,1295.81 875.855,1321.45 883.808,1343.94 891.76,1363.47 899.713,1380.27 907.666,1394.54 915.619,1406.47 923.571,1416.29 931.524,1424.2 939.477,1430.4 947.43,1435.1 955.382,1438.51 963.335,1440.84 971.288,1442.29 979.24,1443.08 987.193,1443.4 995.146,1443.46 1003.1,1443.46 1011.05,1443.46 1019,1443.46 1026.96,1443.46 1034.91,1443.46 1042.86,1443.46 1050.81,1443.46 1058.77,1443.46 1066.72,1443.46 1074.67,1443.46 1082.63,1443.46 1090.58,1443.46 1098.53,1443.46 1106.48,1443.46 1114.44,1443.46 1122.39,1443.46 1130.34,1443.46 1138.29,1443.46 1146.25,1443.46 1154.2,1443.46 1162.15,1443.46 1170.11,1443.46 1178.06,1443.46 1186.01,1443.46 1193.96,1443.46 1201.92,1443.46 1209.87,1443.46 1217.82,1443.46 1225.77,1443.46 1233.73,1443.46 1241.68,1443.46 1249.63,1443.46 1257.59,1443.46 1265.54,1443.46 1273.49,1443.46 1281.44,1443.46 1289.4,1443.46 1297.35,1443.46 1305.3,1443.46 1313.25,1443.46 1321.21,1443.46 1329.16,1443.46 1337.11,1443.46 1345.07,1443.46 1353.02,1443.46 1360.97,1443.46 1368.92,1443.46 1376.88,1443.46 1384.83,1443.46 1392.78,1443.46 1400.73,1443.46 1408.69,1443.46 1416.64,1443.46 1424.59,1443.46 1432.55,1443.46 1440.5,1443.46 1448.45,1443.46 1456.4,1443.46 1464.36,1443.46 1472.31,1443.46 1480.26,1443.46 1488.21,1443.46 1496.17,1443.46 1504.12,1443.46 1512.07,1443.46 1520.03,1443.46 1527.98,1443.46 1535.93,1443.46 1543.88,1443.46 1551.84,1443.46 1559.79,1443.46 1567.74,1443.46 1575.69,1443.46 1583.65,1443.46 1591.6,1443.46 1599.55,1443.46 1607.51,1443.46 1615.46,1443.46 1623.41,1443.46 1631.36,1443.46 1639.32,1443.46 1647.27,1443.46 1655.22,1443.46 1663.17,1443.46 1671.13,1443.46 1679.08,1443.46 1687.03,1443.46 1694.99,1443.46 1702.94,1443.46 1710.89,1443.46 1718.84,1443.46 1726.8,1443.46 1734.75,1443.46 1742.7,1443.46 1750.65,1443.46 1758.61,1443.46 1766.56,1443.46 1774.51,1443.46 1782.47,1443.46 1790.42,1443.46 1798.37,1443.46 1806.32,1443.46 1814.28,1443.46 1822.23,1443.46 1830.18,1443.46 1838.13,1443.46 1846.09,1443.46 1854.04,1443.46 1861.99,1443.46 1869.95,1443.46 1877.9,1443.46 1885.85,1443.46 1893.8,1443.46 1901.76,1443.46 1909.71,1443.46 1917.66,1443.46 1925.61,1443.46 1933.57,1443.46 1941.52,1443.46 1949.47,1443.46 1957.43,1443.46 1965.38,1443.46 1973.33,1443.46 1981.28,1443.46 1989.24,1443.46 1997.19,1443.46 2005.14,1443.46 2013.09,1443.46 2021.05,1443.46 2029,1443.46 2036.95,1443.46 2044.91,1443.46 2052.86,1443.46 2060.81,1443.46 2068.76,1443.46 2076.72,1443.46 2084.67,1443.46 2092.62,1443.46 2100.57,1443.46 2108.53,1443.46 2116.48,1443.46 2124.43,1443.46 2132.39,1443.46 2140.34,1443.46 2148.29,1443.46 2156.24,1443.46 2164.2,1443.46 2172.15,1443.46 2180.1,1443.46 2188.05,1443.46 2196.01,1443.46 2203.96,1443.46 2211.91,1443.46 2219.87,1443.46 2227.82,1443.46 2235.77,1443.46 2243.72,1443.46 2251.68,1443.46 2259.63,1443.46 2267.58,1443.46 2275.53,1443.46 2283.49,1443.46 2291.44,1443.46 "/>
<polyline clip-path="url(#clip102)" style="stroke:#e26f46; stroke-linecap:round; stroke-linejoin:round; stroke-width:4; stroke-opacity:1; fill:none" points="247.59,1443.29 255.542,1443.3 263.495,1443.31 271.448,1443.33 279.4,1443.35 287.353,1443.37 295.306,1443.39 303.259,1443.4 311.211,1443.42 319.164,1443.44 327.117,1443.45 335.07,1443.47 343.022,1443.49 350.975,1443.5 358.928,1443.52 366.88,1443.54 374.833,1443.56 382.786,1443.58 390.739,1443.59 398.691,1443.61 406.644,1443.62 414.597,1443.63 422.55,1443.63 430.502,1443.64 438.455,1443.62 446.408,1443.6 454.36,1443.59 462.313,1443.58 470.266,1443.55 478.219,1443.52 486.171,1443.53 494.124,1443.54 502.077,1443.55 510.03,1443.5 517.982,1443.43 525.935,1443.38 533.888,1443.39 541.84,1443.5 549.793,1443.66 557.746,1443.83 565.699,1443.85 573.651,1443.56 581.604,1442.82 589.557,1441.39 597.51,1439.06 605.462,1435.69 613.415,1431.06 621.368,1424.89 629.32,1416.98 637.273,1407.23 645.226,1395.42 653.179,1381.22 661.131,1364.39 669.084,1344.82 677.037,1322.43 684.99,1297.07 692.942,1268.36 700.895,1235.92 708.848,1199.33 716.8,1158.44 724.753,1113.26 732.706,1063.98 740.659,1011.07 748.611,954.937 756.564,896.138 764.517,835.349 772.47,773.113 780.422,709.968 788.375,646.643 796.328,583.823 804.28,521.983 812.233,461.681 820.186,403.653 828.139,348.691 836.091,297.335 844.044,250.005 851.997,207.154 859.95,169.541 867.902,138.061 875.855,113.666 883.808,97.072 891.76,88.6725 899.713,88.5984 907.666,96.6246 915.619,112.395 923.571,135.47 931.524,165.235 939.477,201.098 947.43,242.526 955.382,288.871 963.335,339.439 971.288,393.654 979.24,450.99 987.193,510.788 995.146,572.308 1003.1,634.904 1011.05,698.073 1019,761.334 1026.96,824.065 1034.91,885.483 1042.86,944.748 1050.81,1001.09 1058.77,1053.96 1066.72,1102.98 1074.67,1148.01 1082.63,1189.04 1090.58,1226.14 1098.53,1259.48 1106.48,1289.23 1114.44,1315.59 1122.39,1338.73 1130.34,1358.9 1138.29,1376.29 1146.25,1391.09 1154.2,1403.5 1162.15,1413.75 1170.11,1422.07 1178.06,1428.66 1186.01,1433.67 1193.96,1437.3 1201.92,1439.79 1209.87,1441.39 1217.82,1442.35 1225.77,1442.9 1233.73,1443.19 1241.68,1443.33 1249.63,1443.4 1257.59,1443.44 1265.54,1443.45 1273.49,1443.46 1281.44,1443.46 1289.4,1443.46 1297.35,1443.46 1305.3,1443.46 1313.25,1443.46 1321.21,1443.46 1329.16,1443.46 1337.11,1443.46 1345.07,1443.46 1353.02,1443.46 1360.97,1443.46 1368.92,1443.46 1376.88,1443.46 1384.83,1443.46 1392.78,1443.46 1400.73,1443.46 1408.69,1443.46 1416.64,1443.46 1424.59,1443.46 1432.55,1443.46 1440.5,1443.46 1448.45,1443.46 1456.4,1443.46 1464.36,1443.46 1472.31,1443.46 1480.26,1443.46 1488.21,1443.46 1496.17,1443.46 1504.12,1443.46 1512.07,1443.46 1520.03,1443.46 1527.98,1443.46 1535.93,1443.46 1543.88,1443.46 1551.84,1443.46 1559.79,1443.46 1567.74,1443.46 1575.69,1443.46 1583.65,1443.46 1591.6,1443.46 1599.55,1443.46 1607.51,1443.46 1615.46,1443.46 1623.41,1443.46 1631.36,1443.46 1639.32,1443.46 1647.27,1443.46 1655.22,1443.46 1663.17,1443.46 1671.13,1443.46 1679.08,1443.46 1687.03,1443.46 1694.99,1443.46 1702.94,1443.46 1710.89,1443.46 1718.84,1443.46 1726.8,1443.46 1734.75,1443.46 1742.7,1443.46 1750.65,1443.46 1758.61,1443.46 1766.56,1443.46 1774.51,1443.46 1782.47,1443.46 1790.42,1443.46 1798.37,1443.46 1806.32,1443.46 1814.28,1443.46 1822.23,1443.46 1830.18,1443.46 1838.13,1443.46 1846.09,1443.46 1854.04,1443.46 1861.99,1443.46 1869.95,1443.46 1877.9,1443.46 1885.85,1443.46 1893.8,1443.46 1901.76,1443.46 1909.71,1443.46 1917.66,1443.46 1925.61,1443.46 1933.57,1443.46 1941.52,1443.46 1949.47,1443.46 1957.43,1443.46 1965.38,1443.46 1973.33,1443.46 1981.28,1443.46 1989.24,1443.46 1997.19,1443.46 2005.14,1443.46 2013.09,1443.46 2021.05,1443.46 2029,1443.46 2036.95,1443.46 2044.91,1443.46 2052.86,1443.46 2060.81,1443.46 2068.76,1443.46 2076.72,1443.46 2084.67,1443.46 2092.62,1443.46 2100.57,1443.46 2108.53,1443.46 2116.48,1443.46 2124.43,1443.46 2132.39,1443.46 2140.34,1443.46 2148.29,1443.46 2156.24,1443.46 2164.2,1443.46 2172.15,1443.46 2180.1,1443.46 2188.05,1443.46 2196.01,1443.46 2203.96,1443.46 2211.91,1443.46 2219.87,1443.46 2227.82,1443.46 2235.77,1443.46 2243.72,1443.46 2251.68,1443.46 2259.63,1443.46 2267.58,1443.46 2275.53,1443.46 2283.49,1443.46 2291.44,1443.46 "/>
<polyline clip-path="url(#clip102)" style="stroke:#3da44d; stroke-linecap:round; stroke-linejoin:round; stroke-width:4; stroke-opacity:1; fill:none" points="247.59,1443.59 255.542,1443.61 263.495,1443.63 271.448,1443.64 279.4,1443.64 287.353,1443.63 295.306,1443.62 303.259,1443.61 311.211,1443.6 319.164,1443.58 327.117,1443.56 335.07,1443.53 343.022,1443.52 350.975,1443.5 358.928,1443.49 366.88,1443.47 374.833,1443.46 382.786,1443.45 390.739,1443.45 398.691,1443.45 406.644,1443.44 414.597,1443.44 422.55,1443.42 430.502,1443.41 438.455,1443.39 446.408,1443.38 454.36,1443.38 462.313,1443.37 470.266,1443.37 478.219,1443.37 486.171,1443.37 494.124,1443.37 502.077,1443.38 510.03,1443.39 517.982,1443.39 525.935,1443.4 533.888,1443.4 541.84,1443.42 549.793,1443.41 557.746,1443.42 565.699,1443.42 573.651,1443.42 581.604,1443.42 589.557,1443.43 597.51,1443.45 605.462,1443.44 613.415,1443.44 621.368,1443.46 629.32,1443.46 637.273,1443.47 645.226,1443.45 653.179,1443.44 661.131,1443.46 669.084,1443.49 677.037,1443.48 684.99,1443.47 692.942,1443.44 700.895,1443.43 708.848,1443.44 716.8,1443.52 724.753,1443.55 732.706,1443.51 740.659,1443.46 748.611,1443.37 756.564,1443.3 764.517,1443.26 772.47,1443.39 780.422,1443.67 788.375,1443.96 796.328,1444.21 804.28,1444.34 812.233,1444.24 820.186,1443.72 828.139,1442.46 836.091,1440.27 844.044,1437.11 851.997,1432.8 859.95,1427.08 867.902,1419.7 875.855,1410.34 883.808,1398.73 891.76,1384.84 899.713,1368.69 907.666,1350.03 915.619,1328.61 923.571,1304.1 931.524,1276.12 939.477,1244.18 947.43,1207.95 955.382,1167.44 963.335,1122.79 971.288,1074.1 979.24,1021.67 987.193,965.944 995.146,907.573 1003.1,847.214 1011.05,785.313 1019,722.319 1026.96,658.86 1034.91,595.649 1042.86,533.47 1050.81,473.049 1058.77,414.88 1066.72,359.295 1074.67,306.765 1082.63,257.957 1090.58,213.649 1098.53,174.74 1106.48,142.201 1114.44,116.902 1122.39,99.385 1130.34,89.8947 1138.29,88.5248 1146.25,95.2068 1154.2,109.656 1162.15,131.377 1170.11,159.779 1178.06,194.335 1186.01,234.571 1193.96,279.939 1201.92,329.776 1209.87,383.353 1217.82,439.963 1225.77,499.011 1233.73,560.024 1241.68,622.533 1249.63,685.958 1257.59,749.599 1265.54,812.661 1273.49,874.298 1281.44,933.705 1289.4,990.218 1297.35,1043.36 1305.3,1092.82 1313.25,1138.42 1321.21,1180.09 1329.16,1217.89 1337.11,1251.96 1345.07,1282.46 1353.02,1309.54 1360.97,1333.36 1368.92,1354.13 1376.88,1372.07 1384.83,1387.43 1392.78,1400.4 1400.73,1411.17 1408.69,1419.91 1416.64,1426.79 1424.59,1432.04 1432.55,1435.9 1440.5,1438.62 1448.45,1440.46 1456.4,1441.67 1464.36,1442.42 1472.31,1442.88 1480.26,1443.15 1488.21,1443.3 1496.17,1443.38 1504.12,1443.42 1512.07,1443.44 1520.03,1443.45 1527.98,1443.46 1535.93,1443.46 1543.88,1443.46 1551.84,1443.46 1559.79,1443.46 1567.74,1443.46 1575.69,1443.46 1583.65,1443.46 1591.6,1443.46 1599.55,1443.46 1607.51,1443.46 1615.46,1443.46 1623.41,1443.46 1631.36,1443.46 1639.32,1443.46 1647.27,1443.46 1655.22,1443.46 1663.17,1443.46 1671.13,1443.46 1679.08,1443.46 1687.03,1443.46 1694.99,1443.46 1702.94,1443.46 1710.89,1443.46 1718.84,1443.46 1726.8,1443.46 1734.75,1443.46 1742.7,1443.46 1750.65,1443.46 1758.61,1443.46 1766.56,1443.46 1774.51,1443.46 1782.47,1443.46 1790.42,1443.46 1798.37,1443.46 1806.32,1443.46 1814.28,1443.46 1822.23,1443.46 1830.18,1443.46 1838.13,1443.46 1846.09,1443.46 1854.04,1443.46 1861.99,1443.46 1869.95,1443.46 1877.9,1443.46 1885.85,1443.46 1893.8,1443.46 1901.76,1443.46 1909.71,1443.46 1917.66,1443.46 1925.61,1443.46 1933.57,1443.46 1941.52,1443.46 1949.47,1443.46 1957.43,1443.46 1965.38,1443.46 1973.33,1443.46 1981.28,1443.46 1989.24,1443.46 1997.19,1443.46 2005.14,1443.46 2013.09,1443.46 2021.05,1443.46 2029,1443.46 2036.95,1443.46 2044.91,1443.46 2052.86,1443.46 2060.81,1443.46 2068.76,1443.46 2076.72,1443.46 2084.67,1443.46 2092.62,1443.46 2100.57,1443.46 2108.53,1443.46 2116.48,1443.46 2124.43,1443.46 2132.39,1443.46 2140.34,1443.46 2148.29,1443.46 2156.24,1443.46 2164.2,1443.46 2172.15,1443.46 2180.1,1443.46 2188.05,1443.46 2196.01,1443.46 2203.96,1443.46 2211.91,1443.46 2219.87,1443.46 2227.82,1443.46 2235.77,1443.46 2243.72,1443.46 2251.68,1443.46 2259.63,1443.46 2267.58,1443.46 2275.53,1443.46 2283.49,1443.46 2291.44,1443.46 "/>
<polyline clip-path="url(#clip102)" style="stroke:#c271d2; stroke-linecap:round; stroke-linejoin:round; stroke-width:4; stroke-opacity:1; fill:none" points="247.59,1443.44 255.542,1443.44 263.495,1443.43 271.448,1443.43 279.4,1443.43 287.353,1443.44 295.306,1443.44 303.259,1443.43 311.211,1443.42 319.164,1443.42 327.117,1443.41 335.07,1443.4 343.022,1443.39 350.975,1443.38 358.928,1443.38 366.88,1443.39 374.833,1443.4 382.786,1443.39 390.739,1443.4 398.691,1443.41 406.644,1443.42 414.597,1443.43 422.55,1443.45 430.502,1443.46 438.455,1443.48 446.408,1443.49 454.36,1443.49 462.313,1443.5 470.266,1443.51 478.219,1443.53 486.171,1443.55 494.124,1443.57 502.077,1443.58 510.03,1443.61 517.982,1443.62 525.935,1443.63 533.888,1443.63 541.84,1443.63 549.793,1443.63 557.746,1443.63 565.699,1443.63 573.651,1443.61 581.604,1443.6 589.557,1443.58 597.51,1443.58 605.462,1443.56 613.415,1443.55 621.368,1443.54 629.32,1443.53 637.273,1443.53 645.226,1443.5 653.179,1443.49 661.131,1443.47 669.084,1443.46 677.037,1443.44 684.99,1443.42 692.942,1443.41 700.895,1443.41 708.848,1443.39 716.8,1443.39 724.753,1443.4 732.706,1443.38 740.659,1443.39 748.611,1443.38 756.564,1443.39 764.517,1443.4 772.47,1443.42 780.422,1443.39 788.375,1443.4 796.328,1443.43 804.28,1443.42 812.233,1443.42 820.186,1443.42 828.139,1443.42 836.091,1443.44 844.044,1443.45 851.997,1443.47 859.95,1443.45 867.902,1443.41 875.855,1443.44 883.808,1443.5 891.76,1443.49 899.713,1443.48 907.666,1443.47 915.619,1443.44 923.571,1443.42 931.524,1443.41 939.477,1443.45 947.43,1443.56 955.382,1443.64 963.335,1443.55 971.288,1443.42 979.24,1443.33 987.193,1443.25 995.146,1443.22 1003.1,1443.25 1011.05,1443.39 1019,1443.67 1026.96,1444.12 1034.91,1444.64 1042.86,1444.92 1050.81,1444.78 1058.77,1444.23 1066.72,1443.16 1074.67,1441.37 1082.63,1438.63 1090.58,1434.68 1098.53,1429.24 1106.48,1422.02 1114.44,1412.81 1122.39,1401.59 1130.34,1388.44 1138.29,1373.18 1146.25,1355.41 1154.2,1334.76 1162.15,1310.88 1170.11,1283.43 1178.06,1252.07 1186.01,1216.49 1193.96,1176.49 1201.92,1132.16 1209.87,1083.86 1217.82,1032.08 1225.77,977.155 1233.73,919.379 1241.68,859.208 1249.63,797.241 1257.59,734.174 1265.54,670.754 1273.49,607.715 1281.44,545.685 1289.4,485.093 1297.35,426.252 1305.3,369.596 1313.25,315.817 1321.21,265.769 1329.16,220.348 1337.11,180.439 1345.07,146.903 1353.02,120.514 1360.97,101.873 1368.92,91.2987 1376.88,88.792 1384.83,94.1359 1392.78,107.048 1400.73,127.234 1408.69,154.329 1416.64,187.835 1424.59,227.132 1432.55,271.523 1440.5,320.307 1448.45,372.848 1456.4,428.616 1464.36,487.159 1472.31,548.005 1480.26,610.574 1488.21,674.156 1496.17,737.949 1504.12,801.127 1512.07,862.878 1520.03,922.456 1527.98,979.224 1535.93,1032.7 1543.88,1082.59 1551.84,1128.73 1559.79,1171.06 1567.74,1209.6 1575.69,1244.41 1583.65,1275.59 1591.6,1303.31 1599.55,1327.77 1607.51,1349.19 1615.46,1367.8 1623.41,1383.76 1631.36,1397.27 1639.32,1408.47 1647.27,1417.57 1655.22,1424.76 1663.17,1430.3 1671.13,1434.43 1679.08,1437.43 1687.03,1439.53 1694.99,1440.97 1702.94,1441.92 1710.89,1442.53 1718.84,1442.92 1726.8,1443.15 1734.75,1443.29 1742.7,1443.36 1750.65,1443.41 1758.61,1443.43 1766.56,1443.45 1774.51,1443.45 1782.47,1443.46 1790.42,1443.46 1798.37,1443.46 1806.32,1443.46 1814.28,1443.46 1822.23,1443.46 1830.18,1443.46 1838.13,1443.46 1846.09,1443.46 1854.04,1443.46 1861.99,1443.46 1869.95,1443.46 1877.9,1443.46 1885.85,1443.46 1893.8,1443.46 1901.76,1443.46 1909.71,1443.46 1917.66,1443.46 1925.61,1443.46 1933.57,1443.46 1941.52,1443.46 1949.47,1443.46 1957.43,1443.46 1965.38,1443.46 1973.33,1443.46 1981.28,1443.46 1989.24,1443.46 1997.19,1443.46 2005.14,1443.46 2013.09,1443.46 2021.05,1443.46 2029,1443.46 2036.95,1443.46 2044.91,1443.46 2052.86,1443.46 2060.81,1443.46 2068.76,1443.46 2076.72,1443.46 2084.67,1443.46 2092.62,1443.46 2100.57,1443.46 2108.53,1443.46 2116.48,1443.46 2124.43,1443.46 2132.39,1443.46 2140.34,1443.46 2148.29,1443.46 2156.24,1443.46 2164.2,1443.46 2172.15,1443.46 2180.1,1443.46 2188.05,1443.46 2196.01,1443.46 2203.96,1443.46 2211.91,1443.46 2219.87,1443.46 2227.82,1443.46 2235.77,1443.46 2243.72,1443.46 2251.68,1443.46 2259.63,1443.46 2267.58,1443.46 2275.53,1443.46 2283.49,1443.46 2291.44,1443.46 "/>
<polyline clip-path="url(#clip102)" style="stroke:#ac8d18; stroke-linecap:round; stroke-linejoin:round; stroke-width:4; stroke-opacity:1; fill:none" points="247.59,1443.47 255.542,1443.47 263.495,1443.48 271.448,1443.48 279.4,1443.47 287.353,1443.47 295.306,1443.47 303.259,1443.47 311.211,1443.47 319.164,1443.48 327.117,1443.47 335.07,1443.47 343.022,1443.47 350.975,1443.47 358.928,1443.47 366.88,1443.47 374.833,1443.47 382.786,1443.47 390.739,1443.48 398.691,1443.48 406.644,1443.48 414.597,1443.48 422.55,1443.48 430.502,1443.47 438.455,1443.47 446.408,1443.47 454.36,1443.47 462.313,1443.47 470.266,1443.46 478.219,1443.45 486.171,1443.45 494.124,1443.45 502.077,1443.44 510.03,1443.44 517.982,1443.43 525.935,1443.44 533.888,1443.44 541.84,1443.43 549.793,1443.42 557.746,1443.41 565.699,1443.4 573.651,1443.39 581.604,1443.39 589.557,1443.38 597.51,1443.39 605.462,1443.38 613.415,1443.39 621.368,1443.39 629.32,1443.39 637.273,1443.41 645.226,1443.42 653.179,1443.44 661.131,1443.45 669.084,1443.46 677.037,1443.47 684.99,1443.47 692.942,1443.49 700.895,1443.49 708.848,1443.51 716.8,1443.53 724.753,1443.55 732.706,1443.57 740.659,1443.59 748.611,1443.6 756.564,1443.62 764.517,1443.62 772.47,1443.63 780.422,1443.64 788.375,1443.63 796.328,1443.64 804.28,1443.63 812.233,1443.61 820.186,1443.6 828.139,1443.59 836.091,1443.58 844.044,1443.56 851.997,1443.56 859.95,1443.54 867.902,1443.54 875.855,1443.53 883.808,1443.49 891.76,1443.49 899.713,1443.49 907.666,1443.45 915.619,1443.43 923.571,1443.42 931.524,1443.43 939.477,1443.41 947.43,1443.38 955.382,1443.4 963.335,1443.39 971.288,1443.38 979.24,1443.4 987.193,1443.41 995.146,1443.38 1003.1,1443.38 1011.05,1443.42 1019,1443.43 1026.96,1443.41 1034.91,1443.39 1042.86,1443.38 1050.81,1443.43 1058.77,1443.46 1066.72,1443.43 1074.67,1443.43 1082.63,1443.45 1090.58,1443.44 1098.53,1443.4 1106.48,1443.42 1114.44,1443.51 1122.39,1443.54 1130.34,1443.5 1138.29,1443.44 1146.25,1443.37 1154.2,1443.35 1162.15,1443.45 1170.11,1443.56 1178.06,1443.57 1186.01,1443.54 1193.96,1443.55 1201.92,1443.56 1209.87,1443.48 1217.82,1443.26 1225.77,1443.04 1233.73,1442.99 1241.68,1443.15 1249.63,1443.46 1257.59,1443.92 1265.54,1444.46 1273.49,1444.9 1281.44,1445.09 1289.4,1445.05 1297.35,1444.79 1305.3,1444.11 1313.25,1442.72 1321.21,1440.22 1329.16,1436.31 1337.11,1430.86 1345.07,1423.86 1353.02,1415.22 1360.97,1404.73 1368.92,1392.21 1376.88,1377.53 1384.83,1360.52 1392.78,1340.75 1400.73,1317.68 1408.69,1290.8 1416.64,1259.79 1424.59,1224.53 1432.55,1185.03 1440.5,1141.45 1448.45,1094.03 1456.4,1042.94 1464.36,988.39 1472.31,930.748 1480.26,870.639 1488.21,808.851 1496.17,746.158 1504.12,683.182 1512.07,620.38 1520.03,558.159 1527.98,496.97 1535.93,437.326 1543.88,379.788 1551.84,325.014 1559.79,273.839 1567.74,227.261 1575.69,186.303 1583.65,151.859 1591.6,124.594 1599.55,104.923 1607.51,93.0571 1615.46,89.0589 1623.41,92.8998 1631.36,104.456 1639.32,123.46 1647.27,149.458 1655.22,181.836 1663.17,219.911 1671.13,263.038 1679.08,310.657 1687.03,362.276 1694.99,417.427 1702.94,475.617 1710.89,536.289 1718.84,598.797 1726.8,662.398 1734.75,726.263 1742.7,789.529 1750.65,851.373 1758.61,911.078 1766.56,968.07 1774.51,1021.92 1782.47,1072.32 1790.42,1119.06 1798.37,1162.04 1806.32,1201.22 1814.28,1236.67 1822.23,1268.51 1830.18,1296.92 1838.13,1322.09 1846.09,1344.21 1854.04,1363.46 1861.99,1380.01 1869.95,1394 1877.9,1405.63 1885.85,1415.09 1893.8,1422.62 1901.76,1428.48 1909.71,1432.92 1917.66,1436.2 1925.61,1438.57 1933.57,1440.24 1941.52,1441.38 1949.47,1442.15 1957.43,1442.65 1965.38,1442.97 1973.33,1443.17 1981.28,1443.29 1989.24,1443.36 1997.19,1443.41 2005.14,1443.43 2013.09,1443.44 2021.05,1443.45 2029,1443.46 2036.95,1443.46 2044.91,1443.46 2052.86,1443.46 2060.81,1443.46 2068.76,1443.46 2076.72,1443.46 2084.67,1443.46 2092.62,1443.46 2100.57,1443.46 2108.53,1443.46 2116.48,1443.46 2124.43,1443.46 2132.39,1443.46 2140.34,1443.46 2148.29,1443.46 2156.24,1443.46 2164.2,1443.46 2172.15,1443.46 2180.1,1443.46 2188.05,1443.46 2196.01,1443.46 2203.96,1443.46 2211.91,1443.46 2219.87,1443.46 2227.82,1443.46 2235.77,1443.46 2243.72,1443.46 2251.68,1443.46 2259.63,1443.46 2267.58,1443.46 2275.53,1443.46 2283.49,1443.46 2291.44,1443.46 "/>
<polyline clip-path="url(#clip102)" style="stroke:#00a9ad; stroke-linecap:round; stroke-linejoin:round; stroke-width:4; stroke-opacity:1; fill:none" points="247.59,1443.47 255.542,1443.47 263.495,1443.48 271.448,1443.47 279.4,1443.47 287.353,1443.48 295.306,1443.47 303.259,1443.47 311.211,1443.47 319.164,1443.47 327.117,1443.47 335.07,1443.48 343.022,1443.47 350.975,1443.47 358.928,1443.47 366.88,1443.48 374.833,1443.48 382.786,1443.47 390.739,1443.48 398.691,1443.47 406.644,1443.47 414.597,1443.47 422.55,1443.47 430.502,1443.47 438.455,1443.47 446.408,1443.47 454.36,1443.48 462.313,1443.47 470.266,1443.47 478.219,1443.48 486.171,1443.48 494.124,1443.47 502.077,1443.47 510.03,1443.47 517.982,1443.47 525.935,1443.48 533.888,1443.47 541.84,1443.47 549.793,1443.48 557.746,1443.47 565.699,1443.48 573.651,1443.47 581.604,1443.48 589.557,1443.47 597.51,1443.47 605.462,1443.47 613.415,1443.48 621.368,1443.48 629.32,1443.48 637.273,1443.48 645.226,1443.47 653.179,1443.47 661.131,1443.48 669.084,1443.48 677.037,1443.48 684.99,1443.47 692.942,1443.47 700.895,1443.46 708.848,1443.47 716.8,1443.45 724.753,1443.45 732.706,1443.44 740.659,1443.44 748.611,1443.45 756.564,1443.44 764.517,1443.44 772.47,1443.44 780.422,1443.43 788.375,1443.42 796.328,1443.41 804.28,1443.4 812.233,1443.4 820.186,1443.4 828.139,1443.39 836.091,1443.39 844.044,1443.37 851.997,1443.39 859.95,1443.39 867.902,1443.4 875.855,1443.41 883.808,1443.42 891.76,1443.43 899.713,1443.45 907.666,1443.47 915.619,1443.46 923.571,1443.47 931.524,1443.49 939.477,1443.49 947.43,1443.5 955.382,1443.54 963.335,1443.54 971.288,1443.57 979.24,1443.59 987.193,1443.59 995.146,1443.62 1003.1,1443.63 1011.05,1443.63 1019,1443.63 1026.96,1443.63 1034.91,1443.65 1042.86,1443.62 1050.81,1443.59 1058.77,1443.61 1066.72,1443.61 1074.67,1443.56 1082.63,1443.56 1090.58,1443.57 1098.53,1443.54 1106.48,1443.54 1114.44,1443.54 1122.39,1443.5 1130.34,1443.48 1138.29,1443.47 1146.25,1443.46 1154.2,1443.46 1162.15,1443.43 1170.11,1443.39 1178.06,1443.4 1186.01,1443.43 1193.96,1443.42 1201.92,1443.36 1209.87,1443.36 1217.82,1443.41 1225.77,1443.41 1233.73,1443.38 1241.68,1443.4 1249.63,1443.42 1257.59,1443.39 1265.54,1443.38 1273.49,1443.4 1281.44,1443.42 1289.4,1443.45 1297.35,1443.47 1305.3,1443.44 1313.25,1443.37 1321.21,1443.35 1329.16,1443.43 1337.11,1443.55 1345.07,1443.57 1353.02,1443.47 1360.97,1443.39 1368.92,1443.42 1376.88,1443.45 1384.83,1443.41 1392.78,1443.38 1400.73,1443.44 1408.69,1443.54 1416.64,1443.63 1424.59,1443.69 1432.55,1443.68 1440.5,1443.53 1448.45,1443.26 1456.4,1442.98 1464.36,1442.84 1472.31,1442.94 1480.26,1443.29 1488.21,1443.71 1496.17,1444.07 1504.12,1444.37 1512.07,1444.76 1520.03,1445.26 1527.98,1445.68 1535.93,1445.72 1543.88,1445.13 1551.84,1443.75 1559.79,1441.37 1567.74,1437.7 1575.69,1432.54 1583.65,1425.82 1591.6,1417.5 1599.55,1407.53 1607.51,1395.81 1615.46,1382.09 1623.41,1365.93 1631.36,1346.77 1639.32,1324.09 1647.27,1297.54 1655.22,1267.01 1663.17,1232.48 1671.13,1193.91 1679.08,1151.18 1687.03,1104.27 1694.99,1053.4 1702.94,999.015 1710.89,941.708 1718.84,882.106 1726.8,820.843 1734.75,758.541 1742.7,695.769 1750.65,632.994 1758.61,570.598 1766.56,508.95 1774.51,448.513 1782.47,389.932 1790.42,334.06 1798.37,281.904 1806.32,234.496 1814.28,192.753 1822.23,157.406 1830.18,129.008 1838.13,107.994 1846.09,94.7036 1854.04,89.3529 1861.99,91.9743 1869.95,102.383 1877.9,120.198 1885.85,144.9 1893.8,175.909 1901.76,212.639 1909.71,254.54 1917.66,301.112 1925.61,351.9 1933.57,406.452 1941.52,464.27 1949.47,524.753 1957.43,587.182 1965.38,650.738 1973.33,714.558 1981.28,777.801 1989.24,839.697 1997.19,899.575 2005.14,956.875 2013.09,1011.14 2021.05,1062.04 2029,1109.32 2036.95,1152.87 2044.91,1192.67 2052.86,1228.77 2060.81,1261.32 2068.76,1290.46 2076.72,1316.35 2084.67,1339.15 2092.62,1359.02 2100.57,1376.11 2108.53,1390.59 2116.48,1402.64 2124.43,1412.5 2132.39,1420.4 2140.34,1426.59 2148.29,1431.35 2156.24,1434.93 2164.2,1437.57 2172.15,1439.46 2180.1,1440.8 2188.05,1441.72 2196.01,1442.34 2203.96,1442.76 2211.91,1443.02 2219.87,1443.19 2227.82,1443.3 2235.77,1443.37 2243.72,1443.41 2251.68,1443.43 2259.63,1443.44 2267.58,1443.45 2275.53,1443.45 2283.49,1443.46 2291.44,1443.46 "/>
<path clip-path="url(#clip100)" d="M1874.4 458.098 L2280.54 458.098 L2280.54 95.2176 L1874.4 95.2176  Z" fill="#ffffff" fill-rule="evenodd" fill-opacity="1"/>
<polyline clip-path="url(#clip100)" style="stroke:#000000; stroke-linecap:round; stroke-linejoin:round; stroke-width:4; stroke-opacity:1; fill:none" points="1874.4,458.098 2280.54,458.098 2280.54,95.2176 1874.4,95.2176 1874.4,458.098 "/>
<polyline clip-path="url(#clip100)" style="stroke:#009af9; stroke-linecap:round; stroke-linejoin:round; stroke-width:4; stroke-opacity:1; fill:none" points="1898.47,147.058 2042.91,147.058 "/>
<path clip-path="url(#clip100)" d="M2074.39 131.051 L2074.39 138.412 L2083.16 138.412 L2083.16 141.722 L2074.39 141.722 L2074.39 155.796 Q2074.39 158.967 2075.24 159.87 Q2076.12 160.773 2078.78 160.773 L2083.16 160.773 L2083.16 164.338 L2078.78 164.338 Q2073.85 164.338 2071.98 162.509 Q2070.1 160.657 2070.1 155.796 L2070.1 141.722 L2066.98 141.722 L2066.98 138.412 L2070.1 138.412 L2070.1 131.051 L2074.39 131.051 Z" fill="#000000" fill-rule="nonzero" fill-opacity="1" /><path clip-path="url(#clip100)" d="M2104.39 142.81 L2134.06 142.81 L2134.06 146.699 L2104.39 146.699 L2104.39 142.81 M2104.39 152.254 L2134.06 152.254 L2134.06 156.189 L2104.39 156.189 L2104.39 152.254 Z" fill="#000000" fill-rule="nonzero" fill-opacity="1" /><path clip-path="url(#clip100)" d="M2169.22 132.856 Q2165.61 132.856 2163.78 136.421 Q2161.98 139.963 2161.98 147.092 Q2161.98 154.199 2163.78 157.764 Q2165.61 161.305 2169.22 161.305 Q2172.86 161.305 2174.66 157.764 Q2176.49 154.199 2176.49 147.092 Q2176.49 139.963 2174.66 136.421 Q2172.86 132.856 2169.22 132.856 M2169.22 129.153 Q2175.03 129.153 2178.09 133.759 Q2181.17 138.342 2181.17 147.092 Q2181.17 155.819 2178.09 160.426 Q2175.03 165.009 2169.22 165.009 Q2163.41 165.009 2160.33 160.426 Q2157.28 155.819 2157.28 147.092 Q2157.28 138.342 2160.33 133.759 Q2163.41 129.153 2169.22 129.153 Z" fill="#000000" fill-rule="nonzero" fill-opacity="1" /><path clip-path="url(#clip100)" d="M2189.38 158.458 L2194.27 158.458 L2194.27 164.338 L2189.38 164.338 L2189.38 158.458 Z" fill="#000000" fill-rule="nonzero" fill-opacity="1" /><path clip-path="url(#clip100)" d="M2214.45 132.856 Q2210.84 132.856 2209.01 136.421 Q2207.21 139.963 2207.21 147.092 Q2207.21 154.199 2209.01 157.764 Q2210.84 161.305 2214.45 161.305 Q2218.09 161.305 2219.89 157.764 Q2221.72 154.199 2221.72 147.092 Q2221.72 139.963 2219.89 136.421 Q2218.09 132.856 2214.45 132.856 M2214.45 129.153 Q2220.26 129.153 2223.32 133.759 Q2226.4 138.342 2226.4 147.092 Q2226.4 155.819 2223.32 160.426 Q2220.26 165.009 2214.45 165.009 Q2208.64 165.009 2205.57 160.426 Q2202.51 155.819 2202.51 147.092 Q2202.51 138.342 2205.57 133.759 Q2208.64 129.153 2214.45 129.153 Z" fill="#000000" fill-rule="nonzero" fill-opacity="1" /><polyline clip-path="url(#clip100)" style="stroke:#e26f46; stroke-linecap:round; stroke-linejoin:round; stroke-width:4; stroke-opacity:1; fill:none" points="1898.47,198.898 2042.91,198.898 "/>
<path clip-path="url(#clip100)" d="M2074.39 182.891 L2074.39 190.252 L2083.16 190.252 L2083.16 193.562 L2074.39 193.562 L2074.39 207.636 Q2074.39 210.807 2075.24 211.71 Q2076.12 212.613 2078.78 212.613 L2083.16 212.613 L2083.16 216.178 L2078.78 216.178 Q2073.85 216.178 2071.98 214.349 Q2070.1 212.497 2070.1 207.636 L2070.1 193.562 L2066.98 193.562 L2066.98 190.252 L2070.1 190.252 L2070.1 182.891 L2074.39 182.891 Z" fill="#000000" fill-rule="nonzero" fill-opacity="1" /><path clip-path="url(#clip100)" d="M2104.39 194.65 L2134.06 194.65 L2134.06 198.539 L2104.39 198.539 L2104.39 194.65 M2104.39 204.094 L2134.06 204.094 L2134.06 208.029 L2104.39 208.029 L2104.39 204.094 Z" fill="#000000" fill-rule="nonzero" fill-opacity="1" /><path clip-path="url(#clip100)" d="M2169.22 184.696 Q2165.61 184.696 2163.78 188.261 Q2161.98 191.803 2161.98 198.932 Q2161.98 206.039 2163.78 209.604 Q2165.61 213.145 2169.22 213.145 Q2172.86 213.145 2174.66 209.604 Q2176.49 206.039 2176.49 198.932 Q2176.49 191.803 2174.66 188.261 Q2172.86 184.696 2169.22 184.696 M2169.22 180.993 Q2175.03 180.993 2178.09 185.599 Q2181.17 190.182 2181.17 198.932 Q2181.17 207.659 2178.09 212.266 Q2175.03 216.849 2169.22 216.849 Q2163.41 216.849 2160.33 212.266 Q2157.28 207.659 2157.28 198.932 Q2157.28 190.182 2160.33 185.599 Q2163.41 180.993 2169.22 180.993 Z" fill="#000000" fill-rule="nonzero" fill-opacity="1" /><path clip-path="url(#clip100)" d="M2189.38 210.298 L2194.27 210.298 L2194.27 216.178 L2189.38 216.178 L2189.38 210.298 Z" fill="#000000" fill-rule="nonzero" fill-opacity="1" /><path clip-path="url(#clip100)" d="M2208.48 212.242 L2224.8 212.242 L2224.8 216.178 L2202.86 216.178 L2202.86 212.242 Q2205.52 209.488 2210.1 204.858 Q2214.71 200.205 2215.89 198.863 Q2218.13 196.34 2219.01 194.604 Q2219.92 192.844 2219.92 191.155 Q2219.92 188.4 2217.97 186.664 Q2216.05 184.928 2212.95 184.928 Q2210.75 184.928 2208.3 185.692 Q2205.87 186.455 2203.09 188.006 L2203.09 183.284 Q2205.91 182.15 2208.37 181.571 Q2210.82 180.993 2212.86 180.993 Q2218.23 180.993 2221.42 183.678 Q2224.62 186.363 2224.62 190.854 Q2224.62 192.983 2223.81 194.905 Q2223.02 196.803 2220.91 199.395 Q2220.33 200.067 2217.23 203.284 Q2214.13 206.479 2208.48 212.242 Z" fill="#000000" fill-rule="nonzero" fill-opacity="1" /><polyline clip-path="url(#clip100)" style="stroke:#3da44d; stroke-linecap:round; stroke-linejoin:round; stroke-width:4; stroke-opacity:1; fill:none" points="1898.47,250.738 2042.91,250.738 "/>
<path clip-path="url(#clip100)" d="M2074.39 234.731 L2074.39 242.092 L2083.16 242.092 L2083.16 245.402 L2074.39 245.402 L2074.39 259.476 Q2074.39 262.647 2075.24 263.55 Q2076.12 264.453 2078.78 264.453 L2083.16 264.453 L2083.16 268.018 L2078.78 268.018 Q2073.85 268.018 2071.98 266.189 Q2070.1 264.337 2070.1 259.476 L2070.1 245.402 L2066.98 245.402 L2066.98 242.092 L2070.1 242.092 L2070.1 234.731 L2074.39 234.731 Z" fill="#000000" fill-rule="nonzero" fill-opacity="1" /><path clip-path="url(#clip100)" d="M2104.39 246.49 L2134.06 246.49 L2134.06 250.379 L2104.39 250.379 L2104.39 246.49 M2104.39 255.934 L2134.06 255.934 L2134.06 259.869 L2104.39 259.869 L2104.39 255.934 Z" fill="#000000" fill-rule="nonzero" fill-opacity="1" /><path clip-path="url(#clip100)" d="M2169.22 236.536 Q2165.61 236.536 2163.78 240.101 Q2161.98 243.643 2161.98 250.772 Q2161.98 257.879 2163.78 261.444 Q2165.61 264.985 2169.22 264.985 Q2172.86 264.985 2174.66 261.444 Q2176.49 257.879 2176.49 250.772 Q2176.49 243.643 2174.66 240.101 Q2172.86 236.536 2169.22 236.536 M2169.22 232.833 Q2175.03 232.833 2178.09 237.439 Q2181.17 242.022 2181.17 250.772 Q2181.17 259.499 2178.09 264.106 Q2175.03 268.689 2169.22 268.689 Q2163.41 268.689 2160.33 264.106 Q2157.28 259.499 2157.28 250.772 Q2157.28 242.022 2160.33 237.439 Q2163.41 232.833 2169.22 232.833 Z" fill="#000000" fill-rule="nonzero" fill-opacity="1" /><path clip-path="url(#clip100)" d="M2189.38 262.138 L2194.27 262.138 L2194.27 268.018 L2189.38 268.018 L2189.38 262.138 Z" fill="#000000" fill-rule="nonzero" fill-opacity="1" /><path clip-path="url(#clip100)" d="M2218.62 249.383 Q2221.98 250.101 2223.85 252.369 Q2225.75 254.638 2225.75 257.971 Q2225.75 263.087 2222.23 265.888 Q2218.71 268.689 2212.23 268.689 Q2210.06 268.689 2207.74 268.249 Q2205.45 267.832 2203 266.976 L2203 262.462 Q2204.94 263.596 2207.26 264.175 Q2209.57 264.754 2212.09 264.754 Q2216.49 264.754 2218.78 263.018 Q2221.1 261.281 2221.1 257.971 Q2221.1 254.916 2218.94 253.203 Q2216.82 251.467 2213 251.467 L2208.97 251.467 L2208.97 247.624 L2213.18 247.624 Q2216.63 247.624 2218.46 246.258 Q2220.29 244.87 2220.29 242.277 Q2220.29 239.615 2218.39 238.203 Q2216.51 236.768 2213 236.768 Q2211.07 236.768 2208.88 237.184 Q2206.68 237.601 2204.04 238.481 L2204.04 234.314 Q2206.7 233.573 2209.01 233.203 Q2211.35 232.833 2213.41 232.833 Q2218.74 232.833 2221.84 235.263 Q2224.94 237.67 2224.94 241.791 Q2224.94 244.661 2223.3 246.652 Q2221.65 248.62 2218.62 249.383 Z" fill="#000000" fill-rule="nonzero" fill-opacity="1" /><path clip-path="url(#clip100)" d="M2234.75 267.3 L2234.75 263.041 Q2236.51 263.874 2238.32 264.314 Q2240.13 264.754 2241.86 264.754 Q2246.49 264.754 2248.92 261.652 Q2251.38 258.527 2251.72 252.184 Q2250.38 254.175 2248.32 255.24 Q2246.26 256.305 2243.76 256.305 Q2238.57 256.305 2235.54 253.18 Q2232.53 250.032 2232.53 244.592 Q2232.53 239.268 2235.68 236.05 Q2238.83 232.833 2244.06 232.833 Q2250.06 232.833 2253.2 237.439 Q2256.38 242.022 2256.38 250.772 Q2256.38 258.944 2252.49 263.828 Q2248.62 268.689 2242.07 268.689 Q2240.31 268.689 2238.5 268.342 Q2236.7 267.994 2234.75 267.3 M2244.06 252.647 Q2247.21 252.647 2249.04 250.494 Q2250.89 248.342 2250.89 244.592 Q2250.89 240.865 2249.04 238.712 Q2247.21 236.536 2244.06 236.536 Q2240.91 236.536 2239.06 238.712 Q2237.23 240.865 2237.23 244.592 Q2237.23 248.342 2239.06 250.494 Q2240.91 252.647 2244.06 252.647 Z" fill="#000000" fill-rule="nonzero" fill-opacity="1" /><polyline clip-path="url(#clip100)" style="stroke:#c271d2; stroke-linecap:round; stroke-linejoin:round; stroke-width:4; stroke-opacity:1; fill:none" points="1898.47,302.578 2042.91,302.578 "/>
<path clip-path="url(#clip100)" d="M2074.39 286.571 L2074.39 293.932 L2083.16 293.932 L2083.16 297.242 L2074.39 297.242 L2074.39 311.316 Q2074.39 314.487 2075.24 315.39 Q2076.12 316.293 2078.78 316.293 L2083.16 316.293 L2083.16 319.858 L2078.78 319.858 Q2073.85 319.858 2071.98 318.029 Q2070.1 316.177 2070.1 311.316 L2070.1 297.242 L2066.98 297.242 L2066.98 293.932 L2070.1 293.932 L2070.1 286.571 L2074.39 286.571 Z" fill="#000000" fill-rule="nonzero" fill-opacity="1" /><path clip-path="url(#clip100)" d="M2104.39 298.33 L2134.06 298.33 L2134.06 302.219 L2104.39 302.219 L2104.39 298.33 M2104.39 307.774 L2134.06 307.774 L2134.06 311.709 L2104.39 311.709 L2104.39 307.774 Z" fill="#000000" fill-rule="nonzero" fill-opacity="1" /><path clip-path="url(#clip100)" d="M2169.22 288.376 Q2165.61 288.376 2163.78 291.941 Q2161.98 295.483 2161.98 302.612 Q2161.98 309.719 2163.78 313.284 Q2165.61 316.825 2169.22 316.825 Q2172.86 316.825 2174.66 313.284 Q2176.49 309.719 2176.49 302.612 Q2176.49 295.483 2174.66 291.941 Q2172.86 288.376 2169.22 288.376 M2169.22 284.673 Q2175.03 284.673 2178.09 289.279 Q2181.17 293.862 2181.17 302.612 Q2181.17 311.339 2178.09 315.946 Q2175.03 320.529 2169.22 320.529 Q2163.41 320.529 2160.33 315.946 Q2157.28 311.339 2157.28 302.612 Q2157.28 293.862 2160.33 289.279 Q2163.41 284.673 2169.22 284.673 Z" fill="#000000" fill-rule="nonzero" fill-opacity="1" /><path clip-path="url(#clip100)" d="M2189.38 313.978 L2194.27 313.978 L2194.27 319.858 L2189.38 319.858 L2189.38 313.978 Z" fill="#000000" fill-rule="nonzero" fill-opacity="1" /><path clip-path="url(#clip100)" d="M2204.5 285.298 L2222.86 285.298 L2222.86 289.233 L2208.78 289.233 L2208.78 297.705 Q2209.8 297.358 2210.82 297.196 Q2211.84 297.01 2212.86 297.01 Q2218.64 297.01 2222.02 300.182 Q2225.4 303.353 2225.4 308.77 Q2225.4 314.348 2221.93 317.45 Q2218.46 320.529 2212.14 320.529 Q2209.96 320.529 2207.69 320.158 Q2205.45 319.788 2203.04 319.047 L2203.04 314.348 Q2205.13 315.483 2207.35 316.038 Q2209.57 316.594 2212.05 316.594 Q2216.05 316.594 2218.39 314.487 Q2220.73 312.381 2220.73 308.77 Q2220.73 305.159 2218.39 303.052 Q2216.05 300.946 2212.05 300.946 Q2210.17 300.946 2208.3 301.362 Q2206.44 301.779 2204.5 302.659 L2204.5 285.298 Z" fill="#000000" fill-rule="nonzero" fill-opacity="1" /><path clip-path="url(#clip100)" d="M2234.75 319.14 L2234.75 314.881 Q2236.51 315.714 2238.32 316.154 Q2240.13 316.594 2241.86 316.594 Q2246.49 316.594 2248.92 313.492 Q2251.38 310.367 2251.72 304.024 Q2250.38 306.015 2248.32 307.08 Q2246.26 308.145 2243.76 308.145 Q2238.57 308.145 2235.54 305.02 Q2232.53 301.872 2232.53 296.432 Q2232.53 291.108 2235.68 287.89 Q2238.83 284.673 2244.06 284.673 Q2250.06 284.673 2253.2 289.279 Q2256.38 293.862 2256.38 302.612 Q2256.38 310.784 2252.49 315.668 Q2248.62 320.529 2242.07 320.529 Q2240.31 320.529 2238.5 320.182 Q2236.7 319.834 2234.75 319.14 M2244.06 304.487 Q2247.21 304.487 2249.04 302.334 Q2250.89 300.182 2250.89 296.432 Q2250.89 292.705 2249.04 290.552 Q2247.21 288.376 2244.06 288.376 Q2240.91 288.376 2239.06 290.552 Q2237.23 292.705 2237.23 296.432 Q2237.23 300.182 2239.06 302.334 Q2240.91 304.487 2244.06 304.487 Z" fill="#000000" fill-rule="nonzero" fill-opacity="1" /><polyline clip-path="url(#clip100)" style="stroke:#ac8d18; stroke-linecap:round; stroke-linejoin:round; stroke-width:4; stroke-opacity:1; fill:none" points="1898.47,354.418 2042.91,354.418 "/>
<path clip-path="url(#clip100)" d="M2074.39 338.411 L2074.39 345.772 L2083.16 345.772 L2083.16 349.082 L2074.39 349.082 L2074.39 363.156 Q2074.39 366.327 2075.24 367.23 Q2076.12 368.133 2078.78 368.133 L2083.16 368.133 L2083.16 371.698 L2078.78 371.698 Q2073.85 371.698 2071.98 369.869 Q2070.1 368.017 2070.1 363.156 L2070.1 349.082 L2066.98 349.082 L2066.98 345.772 L2070.1 345.772 L2070.1 338.411 L2074.39 338.411 Z" fill="#000000" fill-rule="nonzero" fill-opacity="1" /><path clip-path="url(#clip100)" d="M2104.39 350.17 L2134.06 350.17 L2134.06 354.059 L2104.39 354.059 L2104.39 350.17 M2104.39 359.614 L2134.06 359.614 L2134.06 363.549 L2104.39 363.549 L2104.39 359.614 Z" fill="#000000" fill-rule="nonzero" fill-opacity="1" /><path clip-path="url(#clip100)" d="M2169.22 340.216 Q2165.61 340.216 2163.78 343.781 Q2161.98 347.323 2161.98 354.452 Q2161.98 361.559 2163.78 365.124 Q2165.61 368.665 2169.22 368.665 Q2172.86 368.665 2174.66 365.124 Q2176.49 361.559 2176.49 354.452 Q2176.49 347.323 2174.66 343.781 Q2172.86 340.216 2169.22 340.216 M2169.22 336.513 Q2175.03 336.513 2178.09 341.119 Q2181.17 345.702 2181.17 354.452 Q2181.17 363.179 2178.09 367.786 Q2175.03 372.369 2169.22 372.369 Q2163.41 372.369 2160.33 367.786 Q2157.28 363.179 2157.28 354.452 Q2157.28 345.702 2160.33 341.119 Q2163.41 336.513 2169.22 336.513 Z" fill="#000000" fill-rule="nonzero" fill-opacity="1" /><path clip-path="url(#clip100)" d="M2189.38 365.818 L2194.27 365.818 L2194.27 371.698 L2189.38 371.698 L2189.38 365.818 Z" fill="#000000" fill-rule="nonzero" fill-opacity="1" /><path clip-path="url(#clip100)" d="M2203.27 337.138 L2225.5 337.138 L2225.5 339.128 L2212.95 371.698 L2208.07 371.698 L2219.87 341.073 L2203.27 341.073 L2203.27 337.138 Z" fill="#000000" fill-rule="nonzero" fill-opacity="1" /><path clip-path="url(#clip100)" d="M2244.62 355.286 Q2241.28 355.286 2239.36 357.068 Q2237.46 358.85 2237.46 361.975 Q2237.46 365.1 2239.36 366.883 Q2241.28 368.665 2244.62 368.665 Q2247.95 368.665 2249.87 366.883 Q2251.79 365.077 2251.79 361.975 Q2251.79 358.85 2249.87 357.068 Q2247.97 355.286 2244.62 355.286 M2239.94 353.295 Q2236.93 352.554 2235.24 350.494 Q2233.57 348.434 2233.57 345.471 Q2233.57 341.327 2236.51 338.92 Q2239.48 336.513 2244.62 336.513 Q2249.78 336.513 2252.72 338.92 Q2255.66 341.327 2255.66 345.471 Q2255.66 348.434 2253.97 350.494 Q2252.3 352.554 2249.32 353.295 Q2252.69 354.082 2254.57 356.374 Q2256.47 358.665 2256.47 361.975 Q2256.47 366.999 2253.39 369.684 Q2250.33 372.369 2244.62 372.369 Q2238.9 372.369 2235.82 369.684 Q2232.76 366.999 2232.76 361.975 Q2232.76 358.665 2234.66 356.374 Q2236.56 354.082 2239.94 353.295 M2238.23 345.911 Q2238.23 348.596 2239.89 350.1 Q2241.58 351.605 2244.62 351.605 Q2247.63 351.605 2249.32 350.1 Q2251.03 348.596 2251.03 345.911 Q2251.03 343.225 2249.32 341.721 Q2247.63 340.216 2244.62 340.216 Q2241.58 340.216 2239.89 341.721 Q2238.23 343.225 2238.23 345.911 Z" fill="#000000" fill-rule="nonzero" fill-opacity="1" /><polyline clip-path="url(#clip100)" style="stroke:#00a9ad; stroke-linecap:round; stroke-linejoin:round; stroke-width:4; stroke-opacity:1; fill:none" points="1898.47,406.258 2042.91,406.258 "/>
<path clip-path="url(#clip100)" d="M2074.39 390.251 L2074.39 397.612 L2083.16 397.612 L2083.16 400.922 L2074.39 400.922 L2074.39 414.996 Q2074.39 418.167 2075.24 419.07 Q2076.12 419.973 2078.78 419.973 L2083.16 419.973 L2083.16 423.538 L2078.78 423.538 Q2073.85 423.538 2071.98 421.709 Q2070.1 419.857 2070.1 414.996 L2070.1 400.922 L2066.98 400.922 L2066.98 397.612 L2070.1 397.612 L2070.1 390.251 L2074.39 390.251 Z" fill="#000000" fill-rule="nonzero" fill-opacity="1" /><path clip-path="url(#clip100)" d="M2104.39 402.01 L2134.06 402.01 L2134.06 405.899 L2104.39 405.899 L2104.39 402.01 M2104.39 411.454 L2134.06 411.454 L2134.06 415.389 L2104.39 415.389 L2104.39 411.454 Z" fill="#000000" fill-rule="nonzero" fill-opacity="1" /><path clip-path="url(#clip100)" d="M2169.22 392.056 Q2165.61 392.056 2163.78 395.621 Q2161.98 399.163 2161.98 406.292 Q2161.98 413.399 2163.78 416.964 Q2165.61 420.505 2169.22 420.505 Q2172.86 420.505 2174.66 416.964 Q2176.49 413.399 2176.49 406.292 Q2176.49 399.163 2174.66 395.621 Q2172.86 392.056 2169.22 392.056 M2169.22 388.353 Q2175.03 388.353 2178.09 392.959 Q2181.17 397.542 2181.17 406.292 Q2181.17 415.019 2178.09 419.626 Q2175.03 424.209 2169.22 424.209 Q2163.41 424.209 2160.33 419.626 Q2157.28 415.019 2157.28 406.292 Q2157.28 397.542 2160.33 392.959 Q2163.41 388.353 2169.22 388.353 Z" fill="#000000" fill-rule="nonzero" fill-opacity="1" /><path clip-path="url(#clip100)" d="M2189.38 417.658 L2194.27 417.658 L2194.27 423.538 L2189.38 423.538 L2189.38 417.658 Z" fill="#000000" fill-rule="nonzero" fill-opacity="1" /><path clip-path="url(#clip100)" d="M2204.59 422.82 L2204.59 418.561 Q2206.35 419.394 2208.16 419.834 Q2209.96 420.274 2211.7 420.274 Q2216.33 420.274 2218.76 417.172 Q2221.21 414.047 2221.56 407.704 Q2220.22 409.695 2218.16 410.76 Q2216.1 411.825 2213.6 411.825 Q2208.41 411.825 2205.38 408.7 Q2202.37 405.552 2202.37 400.112 Q2202.37 394.788 2205.52 391.57 Q2208.67 388.353 2213.9 388.353 Q2219.89 388.353 2223.04 392.959 Q2226.21 397.542 2226.21 406.292 Q2226.21 414.464 2222.32 419.348 Q2218.46 424.209 2211.91 424.209 Q2210.15 424.209 2208.34 423.862 Q2206.54 423.514 2204.59 422.82 M2213.9 408.167 Q2217.05 408.167 2218.88 406.014 Q2220.73 403.862 2220.73 400.112 Q2220.73 396.385 2218.88 394.232 Q2217.05 392.056 2213.9 392.056 Q2210.75 392.056 2208.9 394.232 Q2207.07 396.385 2207.07 400.112 Q2207.07 403.862 2208.9 406.014 Q2210.75 408.167 2213.9 408.167 Z" fill="#000000" fill-rule="nonzero" fill-opacity="1" /><path clip-path="url(#clip100)" d="M2244.62 407.126 Q2241.28 407.126 2239.36 408.908 Q2237.46 410.69 2237.46 413.815 Q2237.46 416.94 2239.36 418.723 Q2241.28 420.505 2244.62 420.505 Q2247.95 420.505 2249.87 418.723 Q2251.79 416.917 2251.79 413.815 Q2251.79 410.69 2249.87 408.908 Q2247.97 407.126 2244.62 407.126 M2239.94 405.135 Q2236.93 404.394 2235.24 402.334 Q2233.57 400.274 2233.57 397.311 Q2233.57 393.167 2236.51 390.76 Q2239.48 388.353 2244.62 388.353 Q2249.78 388.353 2252.72 390.76 Q2255.66 393.167 2255.66 397.311 Q2255.66 400.274 2253.97 402.334 Q2252.3 404.394 2249.32 405.135 Q2252.69 405.922 2254.57 408.214 Q2256.47 410.505 2256.47 413.815 Q2256.47 418.839 2253.39 421.524 Q2250.33 424.209 2244.62 424.209 Q2238.9 424.209 2235.82 421.524 Q2232.76 418.839 2232.76 413.815 Q2232.76 410.505 2234.66 408.214 Q2236.56 405.922 2239.94 405.135 M2238.23 397.751 Q2238.23 400.436 2239.89 401.94 Q2241.58 403.445 2244.62 403.445 Q2247.63 403.445 2249.32 401.94 Q2251.03 400.436 2251.03 397.751 Q2251.03 395.065 2249.32 393.561 Q2247.63 392.056 2244.62 392.056 Q2241.58 392.056 2239.89 393.561 Q2238.23 395.065 2238.23 397.751 Z" fill="#000000" fill-rule="nonzero" fill-opacity="1" /></svg>
