<?xml version="1.0" encoding="utf-8"?>
<svg xmlns="http://www.w3.org/2000/svg" xmlns:xlink="http://www.w3.org/1999/xlink" width="600" height="400" viewBox="0 0 2400 1600">
<defs>
  <clipPath id="clip010">
    <rect x="0" y="0" width="2400" height="1600"/>
  </clipPath>
</defs>
<path clip-path="url(#clip010)" d="M0 1600 L2400 1600 L2400 0 L0 0  Z" fill="#ffffff" fill-rule="evenodd" fill-opacity="1"/>
<defs>
  <clipPath id="clip011">
    <rect x="480" y="0" width="1681" height="1600"/>
  </clipPath>
</defs>
<defs>
  <clipPath id="clip012">
    <rect x="177" y="47" width="2176" height="1440"/>
  </clipPath>
</defs>
<path clip-path="url(#clip012)" d="M406.78 1445.96 L406.78 1378.19 L445.379 1344.3 L512.234 1363.87 L512.234 1431.64 L473.635 1465.52 L406.78 1445.96  Z" fill="#ffffff" fill-rule="evenodd" fill-opacity="1"/>
<polyline clip-path="url(#clip012)" style="stroke:#000000; stroke-linecap:round; stroke-linejoin:round; stroke-width:2; stroke-opacity:0.1; fill:none" points="790.966,1229.58 1206.43,869.781 1206.43,150.179 "/>
<polyline clip-path="url(#clip012)" style="stroke:#000000; stroke-linecap:round; stroke-linejoin:round; stroke-width:2; stroke-opacity:0.1; fill:none" points="958.103,1277.83 1373.57,918.029 1373.57,198.427 "/>
<polyline clip-path="url(#clip012)" style="stroke:#000000; stroke-linecap:round; stroke-linejoin:round; stroke-width:2; stroke-opacity:0.1; fill:none" points="1125.24,1326.08 1540.7,966.277 1540.7,246.675 "/>
<polyline clip-path="url(#clip012)" style="stroke:#000000; stroke-linecap:round; stroke-linejoin:round; stroke-width:2; stroke-opacity:0.1; fill:none" points="1292.38,1374.33 1707.84,1014.53 1707.84,294.924 "/>
<polyline clip-path="url(#clip010)" style="stroke:#000000; stroke-linecap:round; stroke-linejoin:round; stroke-width:4; stroke-opacity:1; fill:none" points="697.781,1202.68 1417.38,1410.41 "/>
<polyline clip-path="url(#clip010)" style="stroke:#000000; stroke-linecap:round; stroke-linejoin:round; stroke-width:4; stroke-opacity:1; fill:none" points="790.966,1229.58 795.952,1225.26 "/>
<polyline clip-path="url(#clip010)" style="stroke:#000000; stroke-linecap:round; stroke-linejoin:round; stroke-width:4; stroke-opacity:1; fill:none" points="958.103,1277.83 963.088,1273.51 "/>
<polyline clip-path="url(#clip010)" style="stroke:#000000; stroke-linecap:round; stroke-linejoin:round; stroke-width:4; stroke-opacity:1; fill:none" points="1125.24,1326.08 1130.23,1321.76 "/>
<polyline clip-path="url(#clip010)" style="stroke:#000000; stroke-linecap:round; stroke-linejoin:round; stroke-width:4; stroke-opacity:1; fill:none" points="1292.38,1374.33 1297.36,1370.01 "/>
<path clip-path="url(#clip010)" d="M770.933 1243.02 Q767.322 1243.02 765.493 1246.59 Q763.688 1250.13 763.688 1257.26 Q763.688 1264.36 765.493 1267.93 Q767.322 1271.47 770.933 1271.47 Q774.567 1271.47 776.373 1267.93 Q778.202 1264.36 778.202 1257.26 Q778.202 1250.13 776.373 1246.59 Q774.567 1243.02 770.933 1243.02 M770.933 1239.32 Q776.743 1239.32 779.799 1243.92 Q782.877 1248.51 782.877 1257.26 Q782.877 1265.98 779.799 1270.59 Q776.743 1275.17 770.933 1275.17 Q765.123 1275.17 762.044 1270.59 Q758.989 1265.98 758.989 1257.26 Q758.989 1248.51 762.044 1243.92 Q765.123 1239.32 770.933 1239.32 Z" fill="#000000" fill-rule="nonzero" fill-opacity="1" /><path clip-path="url(#clip010)" d="M929.112 1288.19 L947.468 1288.19 L947.468 1292.13 L933.394 1292.13 L933.394 1300.6 Q934.412 1300.25 935.431 1300.09 Q936.449 1299.9 937.468 1299.9 Q943.255 1299.9 946.635 1303.08 Q950.014 1306.25 950.014 1311.66 Q950.014 1317.24 946.542 1320.34 Q943.07 1323.42 936.75 1323.42 Q934.574 1323.42 932.306 1323.05 Q930.061 1322.68 927.653 1321.94 L927.653 1317.24 Q929.737 1318.38 931.959 1318.93 Q934.181 1319.49 936.658 1319.49 Q940.662 1319.49 943 1317.38 Q945.338 1315.27 945.338 1311.66 Q945.338 1308.05 943 1305.95 Q940.662 1303.84 936.658 1303.84 Q934.783 1303.84 932.908 1304.26 Q931.056 1304.67 929.112 1305.55 L929.112 1288.19 Z" fill="#000000" fill-rule="nonzero" fill-opacity="1" /><path clip-path="url(#clip010)" d="M1065.85 1367.06 L1073.49 1367.06 L1073.49 1340.7 L1065.18 1342.37 L1065.18 1338.11 L1073.45 1336.44 L1078.12 1336.44 L1078.12 1367.06 L1085.76 1367.06 L1085.76 1371 L1065.85 1371 L1065.85 1367.06 Z" fill="#000000" fill-rule="nonzero" fill-opacity="1" /><path clip-path="url(#clip010)" d="M1105.21 1339.52 Q1101.6 1339.52 1099.77 1343.08 Q1097.96 1346.62 1097.96 1353.75 Q1097.96 1360.86 1099.77 1364.43 Q1101.6 1367.97 1105.21 1367.97 Q1108.84 1367.97 1110.65 1364.43 Q1112.48 1360.86 1112.48 1353.75 Q1112.48 1346.62 1110.65 1343.08 Q1108.84 1339.52 1105.21 1339.52 M1105.21 1335.81 Q1111.02 1335.81 1114.07 1340.42 Q1117.15 1345 1117.15 1353.75 Q1117.15 1362.48 1114.07 1367.09 Q1111.02 1371.67 1105.21 1371.67 Q1099.4 1371.67 1096.32 1367.09 Q1093.26 1362.48 1093.26 1353.75 Q1093.26 1345 1096.32 1340.42 Q1099.4 1335.81 1105.21 1335.81 Z" fill="#000000" fill-rule="nonzero" fill-opacity="1" /><path clip-path="url(#clip010)" d="M1233.99 1415.31 L1241.63 1415.31 L1241.63 1388.95 L1233.32 1390.61 L1233.32 1386.35 L1241.58 1384.69 L1246.26 1384.69 L1246.26 1415.31 L1253.89 1415.31 L1253.89 1419.25 L1233.99 1419.25 L1233.99 1415.31 Z" fill="#000000" fill-rule="nonzero" fill-opacity="1" /><path clip-path="url(#clip010)" d="M1263.39 1384.69 L1281.74 1384.69 L1281.74 1388.62 L1267.67 1388.62 L1267.67 1397.09 Q1268.69 1396.75 1269.7 1396.59 Q1270.72 1396.4 1271.74 1396.4 Q1277.53 1396.4 1280.91 1399.57 Q1284.29 1402.74 1284.29 1408.16 Q1284.29 1413.74 1280.82 1416.84 Q1277.34 1419.92 1271.02 1419.92 Q1268.85 1419.92 1266.58 1419.55 Q1264.33 1419.18 1261.93 1418.44 L1261.93 1413.74 Q1264.01 1414.87 1266.23 1415.43 Q1268.45 1415.98 1270.93 1415.98 Q1274.94 1415.98 1277.27 1413.88 Q1279.61 1411.77 1279.61 1408.16 Q1279.61 1404.55 1277.27 1402.44 Q1274.94 1400.34 1270.93 1400.34 Q1269.06 1400.34 1267.18 1400.75 Q1265.33 1401.17 1263.39 1402.05 L1263.39 1384.69 Z" fill="#000000" fill-rule="nonzero" fill-opacity="1" /><polyline clip-path="url(#clip012)" style="stroke:#000000; stroke-linecap:round; stroke-linejoin:round; stroke-width:2; stroke-opacity:0.1; fill:none" points="1440.92,1390.03 721.318,1182.3 721.318,462.696 "/>
<polyline clip-path="url(#clip012)" style="stroke:#000000; stroke-linecap:round; stroke-linejoin:round; stroke-width:2; stroke-opacity:0.1; fill:none" points="1538.74,1305.32 819.138,1097.58 819.138,377.982 "/>
<polyline clip-path="url(#clip012)" style="stroke:#000000; stroke-linecap:round; stroke-linejoin:round; stroke-width:2; stroke-opacity:0.1; fill:none" points="1636.56,1220.6 916.957,1012.87 916.957,293.268 "/>
<polyline clip-path="url(#clip012)" style="stroke:#000000; stroke-linecap:round; stroke-linejoin:round; stroke-width:2; stroke-opacity:0.1; fill:none" points="1734.38,1135.89 1014.78,928.156 1014.78,208.554 "/>
<polyline clip-path="url(#clip012)" style="stroke:#000000; stroke-linecap:round; stroke-linejoin:round; stroke-width:2; stroke-opacity:0.1; fill:none" points="1832.2,1051.17 1112.6,843.442 1112.6,123.84 "/>
<polyline clip-path="url(#clip010)" style="stroke:#000000; stroke-linecap:round; stroke-linejoin:round; stroke-width:4; stroke-opacity:1; fill:none" points="1417.38,1410.41 1832.85,1050.61 "/>
<polyline clip-path="url(#clip010)" style="stroke:#000000; stroke-linecap:round; stroke-linejoin:round; stroke-width:4; stroke-opacity:1; fill:none" points="1440.92,1390.03 1432.29,1387.54 "/>
<polyline clip-path="url(#clip010)" style="stroke:#000000; stroke-linecap:round; stroke-linejoin:round; stroke-width:4; stroke-opacity:1; fill:none" points="1538.74,1305.32 1530.1,1302.82 "/>
<polyline clip-path="url(#clip010)" style="stroke:#000000; stroke-linecap:round; stroke-linejoin:round; stroke-width:4; stroke-opacity:1; fill:none" points="1636.56,1220.6 1627.92,1218.11 "/>
<polyline clip-path="url(#clip010)" style="stroke:#000000; stroke-linecap:round; stroke-linejoin:round; stroke-width:4; stroke-opacity:1; fill:none" points="1734.38,1135.89 1725.74,1133.39 "/>
<polyline clip-path="url(#clip010)" style="stroke:#000000; stroke-linecap:round; stroke-linejoin:round; stroke-width:4; stroke-opacity:1; fill:none" points="1832.2,1051.17 1823.56,1048.68 "/>
<path clip-path="url(#clip010)" d="M1471.87 1397.47 Q1468.25 1397.47 1466.43 1401.04 Q1464.62 1404.58 1464.62 1411.71 Q1464.62 1418.81 1466.43 1422.38 Q1468.25 1425.92 1471.87 1425.92 Q1475.5 1425.92 1477.3 1422.38 Q1479.13 1418.81 1479.13 1411.71 Q1479.13 1404.58 1477.3 1401.04 Q1475.5 1397.47 1471.87 1397.47 M1471.87 1393.77 Q1477.68 1393.77 1480.73 1398.37 Q1483.81 1402.96 1483.81 1411.71 Q1483.81 1420.43 1480.73 1425.04 Q1477.68 1429.62 1471.87 1429.62 Q1466.06 1429.62 1462.98 1425.04 Q1459.92 1420.43 1459.92 1411.71 Q1459.92 1402.96 1462.98 1398.37 Q1466.06 1393.77 1471.87 1393.77 Z" fill="#000000" fill-rule="nonzero" fill-opacity="1" /><path clip-path="url(#clip010)" d="M1559.2 1309.68 L1577.55 1309.68 L1577.55 1313.61 L1563.48 1313.61 L1563.48 1322.09 Q1564.5 1321.74 1565.52 1321.58 Q1566.54 1321.39 1567.55 1321.39 Q1573.34 1321.39 1576.72 1324.56 Q1580.1 1327.73 1580.1 1333.15 Q1580.1 1338.73 1576.63 1341.83 Q1573.16 1344.91 1566.84 1344.91 Q1564.66 1344.91 1562.39 1344.54 Q1560.15 1344.17 1557.74 1343.43 L1557.74 1338.73 Q1559.82 1339.86 1562.05 1340.42 Q1564.27 1340.97 1566.74 1340.97 Q1570.75 1340.97 1573.09 1338.87 Q1575.43 1336.76 1575.43 1333.15 Q1575.43 1329.54 1573.09 1327.43 Q1570.75 1325.33 1566.74 1325.33 Q1564.87 1325.33 1562.99 1325.74 Q1561.14 1326.16 1559.2 1327.04 L1559.2 1309.68 Z" fill="#000000" fill-rule="nonzero" fill-opacity="1" /><path clip-path="url(#clip010)" d="M1656.23 1255.59 L1663.87 1255.59 L1663.87 1229.22 L1655.56 1230.89 L1655.56 1226.63 L1663.82 1224.96 L1668.5 1224.96 L1668.5 1255.59 L1676.14 1255.59 L1676.14 1259.52 L1656.23 1259.52 L1656.23 1255.59 Z" fill="#000000" fill-rule="nonzero" fill-opacity="1" /><path clip-path="url(#clip010)" d="M1695.58 1228.04 Q1691.97 1228.04 1690.14 1231.61 Q1688.34 1235.15 1688.34 1242.28 Q1688.34 1249.39 1690.14 1252.95 Q1691.97 1256.49 1695.58 1256.49 Q1699.22 1256.49 1701.02 1252.95 Q1702.85 1249.39 1702.85 1242.28 Q1702.85 1235.15 1701.02 1231.61 Q1699.22 1228.04 1695.58 1228.04 M1695.58 1224.34 Q1701.39 1224.34 1704.45 1228.95 Q1707.53 1233.53 1707.53 1242.28 Q1707.53 1251.01 1704.45 1255.61 Q1701.39 1260.2 1695.58 1260.2 Q1689.77 1260.2 1686.69 1255.61 Q1683.64 1251.01 1683.64 1242.28 Q1683.64 1233.53 1686.69 1228.95 Q1689.77 1224.34 1695.58 1224.34 Z" fill="#000000" fill-rule="nonzero" fill-opacity="1" /><path clip-path="url(#clip010)" d="M1754.05 1170.88 L1761.69 1170.88 L1761.69 1144.51 L1753.38 1146.18 L1753.38 1141.92 L1761.64 1140.25 L1766.32 1140.25 L1766.32 1170.88 L1773.96 1170.88 L1773.96 1174.81 L1754.05 1174.81 L1754.05 1170.88 Z" fill="#000000" fill-rule="nonzero" fill-opacity="1" /><path clip-path="url(#clip010)" d="M1783.45 1140.25 L1801.8 1140.25 L1801.8 1144.19 L1787.73 1144.19 L1787.73 1152.66 Q1788.75 1152.31 1789.77 1152.15 Q1790.79 1151.96 1791.8 1151.96 Q1797.59 1151.96 1800.97 1155.13 Q1804.35 1158.31 1804.35 1163.72 Q1804.35 1169.3 1800.88 1172.4 Q1797.41 1175.48 1791.09 1175.48 Q1788.91 1175.48 1786.64 1175.11 Q1784.4 1174.74 1781.99 1174 L1781.99 1169.3 Q1784.07 1170.44 1786.3 1170.99 Q1788.52 1171.55 1790.99 1171.55 Q1795 1171.55 1797.34 1169.44 Q1799.68 1167.33 1799.68 1163.72 Q1799.68 1160.11 1797.34 1158 Q1795 1155.9 1790.99 1155.9 Q1789.12 1155.9 1787.24 1156.31 Q1785.39 1156.73 1783.45 1157.61 L1783.45 1140.25 Z" fill="#000000" fill-rule="nonzero" fill-opacity="1" /><path clip-path="url(#clip010)" d="M1856.82 1086.16 L1873.14 1086.16 L1873.14 1090.1 L1851.2 1090.1 L1851.2 1086.16 Q1853.86 1083.41 1858.44 1078.78 Q1863.05 1074.12 1864.23 1072.78 Q1866.48 1070.26 1867.36 1068.52 Q1868.26 1066.76 1868.26 1065.07 Q1868.26 1062.32 1866.31 1060.58 Q1864.39 1058.85 1861.29 1058.85 Q1859.09 1058.85 1856.64 1059.61 Q1854.21 1060.37 1851.43 1061.92 L1851.43 1057.2 Q1854.25 1056.07 1856.71 1055.49 Q1859.16 1054.91 1861.2 1054.91 Q1866.57 1054.91 1869.76 1057.6 Q1872.96 1060.28 1872.96 1064.77 Q1872.96 1066.9 1872.15 1068.82 Q1871.36 1070.72 1869.25 1073.31 Q1868.68 1073.99 1865.57 1077.2 Q1862.47 1080.4 1856.82 1086.16 Z" fill="#000000" fill-rule="nonzero" fill-opacity="1" /><path clip-path="url(#clip010)" d="M1892.96 1058.61 Q1889.35 1058.61 1887.52 1062.18 Q1885.71 1065.72 1885.71 1072.85 Q1885.71 1079.96 1887.52 1083.52 Q1889.35 1087.06 1892.96 1087.06 Q1896.59 1087.06 1898.4 1083.52 Q1900.23 1079.96 1900.23 1072.85 Q1900.23 1065.72 1898.4 1062.18 Q1896.59 1058.61 1892.96 1058.61 M1892.96 1054.91 Q1898.77 1054.91 1901.82 1059.52 Q1904.9 1064.1 1904.9 1072.85 Q1904.9 1081.58 1901.82 1086.18 Q1898.77 1090.77 1892.96 1090.77 Q1887.15 1090.77 1884.07 1086.18 Q1881.01 1081.58 1881.01 1072.85 Q1881.01 1064.1 1884.07 1059.52 Q1887.15 1054.91 1892.96 1054.91 Z" fill="#000000" fill-rule="nonzero" fill-opacity="1" /><polyline clip-path="url(#clip012)" style="stroke:#000000; stroke-linecap:round; stroke-linejoin:round; stroke-width:2; stroke-opacity:0.1; fill:none" points="697.781,1183.88 1113.24,824.083 1832.85,1031.81 "/>
<polyline clip-path="url(#clip012)" style="stroke:#000000; stroke-linecap:round; stroke-linejoin:round; stroke-width:2; stroke-opacity:0.1; fill:none" points="697.781,1038.5 1113.24,678.704 1832.85,886.435 "/>
<polyline clip-path="url(#clip012)" style="stroke:#000000; stroke-linecap:round; stroke-linejoin:round; stroke-width:2; stroke-opacity:0.1; fill:none" points="697.781,893.125 1113.24,533.324 1832.85,741.056 "/>
<polyline clip-path="url(#clip012)" style="stroke:#000000; stroke-linecap:round; stroke-linejoin:round; stroke-width:2; stroke-opacity:0.1; fill:none" points="697.781,747.746 1113.24,387.945 1832.85,595.676 "/>
<polyline clip-path="url(#clip012)" style="stroke:#000000; stroke-linecap:round; stroke-linejoin:round; stroke-width:2; stroke-opacity:0.1; fill:none" points="697.781,602.367 1113.24,242.566 1832.85,450.297 "/>
<polyline clip-path="url(#clip010)" style="stroke:#000000; stroke-linecap:round; stroke-linejoin:round; stroke-width:4; stroke-opacity:1; fill:none" points="697.781,1202.68 697.781,483.08 "/>
<polyline clip-path="url(#clip010)" style="stroke:#000000; stroke-linecap:round; stroke-linejoin:round; stroke-width:4; stroke-opacity:1; fill:none" points="697.781,1183.88 702.767,1179.57 "/>
<polyline clip-path="url(#clip010)" style="stroke:#000000; stroke-linecap:round; stroke-linejoin:round; stroke-width:4; stroke-opacity:1; fill:none" points="697.781,1038.5 702.767,1034.19 "/>
<polyline clip-path="url(#clip010)" style="stroke:#000000; stroke-linecap:round; stroke-linejoin:round; stroke-width:4; stroke-opacity:1; fill:none" points="697.781,893.125 702.767,888.808 "/>
<polyline clip-path="url(#clip010)" style="stroke:#000000; stroke-linecap:round; stroke-linejoin:round; stroke-width:4; stroke-opacity:1; fill:none" points="697.781,747.746 702.767,743.429 "/>
<polyline clip-path="url(#clip010)" style="stroke:#000000; stroke-linecap:round; stroke-linejoin:round; stroke-width:4; stroke-opacity:1; fill:none" points="697.781,602.367 702.767,598.049 "/>
<path clip-path="url(#clip010)" d="M578.102 1184.34 L607.778 1184.34 L607.778 1188.27 L578.102 1188.27 L578.102 1184.34 Z" fill="#000000" fill-rule="nonzero" fill-opacity="1" /><path clip-path="url(#clip010)" d="M621.898 1197.23 L638.218 1197.23 L638.218 1201.16 L616.273 1201.16 L616.273 1197.23 Q618.935 1194.47 623.519 1189.84 Q628.125 1185.19 629.306 1183.85 Q631.551 1181.33 632.431 1179.59 Q633.334 1177.83 633.334 1176.14 Q633.334 1173.39 631.389 1171.65 Q629.468 1169.91 626.366 1169.91 Q624.167 1169.91 621.713 1170.68 Q619.283 1171.44 616.505 1172.99 L616.505 1168.27 Q619.329 1167.14 621.783 1166.56 Q624.236 1165.98 626.273 1165.98 Q631.644 1165.98 634.838 1168.66 Q638.033 1171.35 638.033 1175.84 Q638.033 1177.97 637.222 1179.89 Q636.435 1181.79 634.329 1184.38 Q633.75 1185.05 630.648 1188.27 Q627.547 1191.46 621.898 1197.23 Z" fill="#000000" fill-rule="nonzero" fill-opacity="1" /><path clip-path="url(#clip010)" d="M648.079 1166.6 L666.435 1166.6 L666.435 1170.54 L652.361 1170.54 L652.361 1179.01 Q653.38 1178.66 654.398 1178.5 Q655.417 1178.32 656.435 1178.32 Q662.222 1178.32 665.602 1181.49 Q668.981 1184.66 668.981 1190.08 Q668.981 1195.65 665.509 1198.76 Q662.037 1201.83 655.718 1201.83 Q653.542 1201.83 651.273 1201.46 Q649.028 1201.09 646.62 1200.35 L646.62 1195.65 Q648.704 1196.79 650.926 1197.34 Q653.148 1197.9 655.625 1197.9 Q659.63 1197.9 661.968 1195.79 Q664.306 1193.69 664.306 1190.08 Q664.306 1186.46 661.968 1184.36 Q659.63 1182.25 655.625 1182.25 Q653.75 1182.25 651.875 1182.67 Q650.023 1183.09 648.079 1183.96 L648.079 1166.6 Z" fill="#000000" fill-rule="nonzero" fill-opacity="1" /><path clip-path="url(#clip010)" d="M657.037 1024.3 Q653.426 1024.3 651.597 1027.87 Q649.792 1031.41 649.792 1038.54 Q649.792 1045.65 651.597 1049.21 Q653.426 1052.75 657.037 1052.75 Q660.671 1052.75 662.477 1049.21 Q664.306 1045.65 664.306 1038.54 Q664.306 1031.41 662.477 1027.87 Q660.671 1024.3 657.037 1024.3 M657.037 1020.6 Q662.847 1020.6 665.903 1025.21 Q668.981 1029.79 668.981 1038.54 Q668.981 1047.27 665.903 1051.87 Q662.847 1056.46 657.037 1056.46 Q651.227 1056.46 648.148 1051.87 Q645.093 1047.27 645.093 1038.54 Q645.093 1029.79 648.148 1025.21 Q651.227 1020.6 657.037 1020.6 Z" fill="#000000" fill-rule="nonzero" fill-opacity="1" /><path clip-path="url(#clip010)" d="M621.898 906.47 L638.218 906.47 L638.218 910.405 L616.273 910.405 L616.273 906.47 Q618.935 903.716 623.519 899.086 Q628.125 894.433 629.306 893.091 Q631.551 890.567 632.431 888.831 Q633.334 887.072 633.334 885.382 Q633.334 882.628 631.389 880.892 Q629.468 879.155 626.366 879.155 Q624.167 879.155 621.713 879.919 Q619.283 880.683 616.505 882.234 L616.505 877.512 Q619.329 876.378 621.783 875.799 Q624.236 875.22 626.273 875.22 Q631.644 875.22 634.838 877.905 Q638.033 880.591 638.033 885.081 Q638.033 887.211 637.222 889.132 Q636.435 891.03 634.329 893.623 Q633.75 894.294 630.648 897.512 Q627.547 900.706 621.898 906.47 Z" fill="#000000" fill-rule="nonzero" fill-opacity="1" /><path clip-path="url(#clip010)" d="M648.079 875.845 L666.435 875.845 L666.435 879.78 L652.361 879.78 L652.361 888.253 Q653.38 887.905 654.398 887.743 Q655.417 887.558 656.435 887.558 Q662.222 887.558 665.602 890.729 Q668.981 893.901 668.981 899.317 Q668.981 904.896 665.509 907.998 Q662.037 911.077 655.718 911.077 Q653.542 911.077 651.273 910.706 Q649.028 910.336 646.62 909.595 L646.62 904.896 Q648.704 906.03 650.926 906.586 Q653.148 907.141 655.625 907.141 Q659.63 907.141 661.968 905.035 Q664.306 902.928 664.306 899.317 Q664.306 895.706 661.968 893.6 Q659.63 891.493 655.625 891.493 Q653.75 891.493 651.875 891.91 Q650.023 892.327 648.079 893.206 L648.079 875.845 Z" fill="#000000" fill-rule="nonzero" fill-opacity="1" /><path clip-path="url(#clip010)" d="M616.922 730.466 L635.278 730.466 L635.278 734.401 L621.204 734.401 L621.204 742.873 Q622.222 742.526 623.241 742.364 Q624.259 742.179 625.278 742.179 Q631.065 742.179 634.445 745.35 Q637.824 748.522 637.824 753.938 Q637.824 759.517 634.352 762.619 Q630.88 765.697 624.56 765.697 Q622.384 765.697 620.116 765.327 Q617.871 764.957 615.463 764.216 L615.463 759.517 Q617.547 760.651 619.769 761.207 Q621.991 761.762 624.468 761.762 Q628.472 761.762 630.81 759.656 Q633.148 757.549 633.148 753.938 Q633.148 750.327 630.81 748.221 Q628.472 746.114 624.468 746.114 Q622.593 746.114 620.718 746.531 Q618.866 746.948 616.922 747.827 L616.922 730.466 Z" fill="#000000" fill-rule="nonzero" fill-opacity="1" /><path clip-path="url(#clip010)" d="M657.037 733.545 Q653.426 733.545 651.597 737.11 Q649.792 740.651 649.792 747.781 Q649.792 754.887 651.597 758.452 Q653.426 761.994 657.037 761.994 Q660.671 761.994 662.477 758.452 Q664.306 754.887 664.306 747.781 Q664.306 740.651 662.477 737.11 Q660.671 733.545 657.037 733.545 M657.037 729.841 Q662.847 729.841 665.903 734.448 Q668.981 739.031 668.981 747.781 Q668.981 756.508 665.903 761.114 Q662.847 765.697 657.037 765.697 Q651.227 765.697 648.148 761.114 Q645.093 756.508 645.093 747.781 Q645.093 739.031 648.148 734.448 Q651.227 729.841 657.037 729.841 Z" fill="#000000" fill-rule="nonzero" fill-opacity="1" /><path clip-path="url(#clip010)" d="M616.69 585.087 L638.912 585.087 L638.912 587.078 L626.366 619.647 L621.482 619.647 L633.287 589.022 L616.69 589.022 L616.69 585.087 Z" fill="#000000" fill-rule="nonzero" fill-opacity="1" /><path clip-path="url(#clip010)" d="M648.079 585.087 L666.435 585.087 L666.435 589.022 L652.361 589.022 L652.361 597.494 Q653.38 597.147 654.398 596.985 Q655.417 596.8 656.435 596.8 Q662.222 596.8 665.602 599.971 Q668.981 603.142 668.981 608.559 Q668.981 614.138 665.509 617.24 Q662.037 620.318 655.718 620.318 Q653.542 620.318 651.273 619.948 Q649.028 619.578 646.62 618.837 L646.62 614.138 Q648.704 615.272 650.926 615.828 Q653.148 616.383 655.625 616.383 Q659.63 616.383 661.968 614.277 Q664.306 612.17 664.306 608.559 Q664.306 604.948 661.968 602.842 Q659.63 600.735 655.625 600.735 Q653.75 600.735 651.875 601.152 Q650.023 601.568 648.079 602.448 L648.079 585.087 Z" fill="#000000" fill-rule="nonzero" fill-opacity="1" /><polyline clip-path="url(#clip012)" style="stroke:#009af9; stroke-linecap:round; stroke-linejoin:round; stroke-width:4; stroke-opacity:1; fill:none" points="814.503,1045.02 819.007,1044.48 823.868,1043.79 829.067,1042.96 834.571,1041.98 840.331,1040.88 846.283,1039.66 852.349,1038.34 858.443,1036.94 864.475,1035.48 870.357,1033.97 876.007,1032.43 881.358,1030.89 886.356,1029.35 890.962,1027.81 895.153,1026.29 898.918,1024.79 902.259,1023.31 905.182,1021.84 907.703,1020.37 909.838,1018.91 911.607,1017.44 913.03,1015.96 914.124,1014.45 914.909,1012.92 915.4,1011.35 915.61,1009.73 915.552,1008.07 915.235,1006.36 914.664,1004.6 913.845,1002.77 912.779,1000.89 911.466,998.953 909.902,996.964 908.083,994.928 906.002,992.851 903.65,990.741 901.017,988.608 898.095,986.464 894.873,984.32 891.346,982.191 887.509,980.091 883.364,978.035 878.919,976.04 874.193,974.12 869.21,972.292 864.007,970.569 858.628,968.963 853.128,967.484 847.564,966.137 841.997,964.927 836.49,963.852 831.1,962.909 825.88,962.091 820.875,961.389 816.123,960.795 811.651,960.299 807.48,959.893 803.62,959.567 800.077,959.315 796.851,959.13 793.936,959.01 791.325,958.951 789.008,958.951 786.974,959.012 785.212,959.133 783.71,959.318 782.458,959.57 781.446,959.893 780.667,960.293 780.114,960.776 779.781,961.346 779.666,962.013 779.768,962.781 780.085,963.658 780.619,964.649 781.373,965.759 782.35,966.991 783.555,968.344 784.99,969.817 786.658,971.403 788.559,973.089 790.692,974.859 793.051,976.693 795.627,978.564 798.406,980.441 801.371,982.294 804.5,984.09 807.77,985.798 811.158,987.392 814.639,988.849 818.193,990.151 821.8,991.288 825.443,992.253 829.109,993.046 832.787,993.67 836.468,994.131 840.144,994.435 843.805,994.593 847.444,994.613 851.05,994.504 854.614,994.274 858.121,993.933 861.56,993.484 864.917,992.934 868.175,992.285 871.321,991.539 874.339,990.695 877.215,989.751 879.936,988.702 882.489,987.544 884.863,986.268 887.047,984.864 889.033,983.322 890.811,981.629 892.375,979.774 893.718,977.743 894.835,975.525 895.721,973.108 896.374,970.485 896.79,967.652 896.971,964.611 896.919,961.372 896.639,957.952 896.141,954.378 895.438,950.684 894.547,946.914 893.49,943.117 892.288,939.344 890.966,935.647 889.547,932.072 888.052,928.661 886.498,925.446 884.899,922.45 883.265,919.689 881.6,917.168 879.905,914.89 878.178,912.848 876.414,911.035 874.605,909.44 872.742,908.05 870.816,906.855 868.817,905.84 866.734,904.994 864.558,904.306 862.282,903.766 859.897,903.364 857.398,903.093 854.782,902.945 852.048,902.916 849.198,903 846.238,903.194 843.175,903.495 840.023,903.903 836.796,904.417 833.514,905.038 830.2,905.767 826.88,906.606 823.58,907.559 820.332,908.626 817.165,909.812 814.111,911.115 811.2,912.538 808.46,914.076 805.917,915.723 803.592,917.472 801.502,919.309 799.658,921.22 798.066,923.184 796.723,925.181 795.623,927.188 794.752,929.183 794.095,931.142 793.634,933.045 793.349,934.873 793.221,936.609 793.234,938.242 793.371,939.76 793.623,941.157 793.979,942.427 794.434,943.569 794.985,944.581 795.635,945.463 796.386,946.217 797.244,946.845 798.218,947.349 799.32,947.73 800.562,947.991 801.958,948.131 803.527,948.152 805.285,948.054 807.251,947.834 809.446,947.492 811.89,947.025 814.6,946.429 817.596,945.7 820.89,944.834 824.494,943.827 828.41,942.674 832.634,941.373 837.15,939.921 841.933,938.32 846.941,936.573 852.123,934.686 857.414,932.669 862.74,930.536 868.022,928.304 873.182,925.99 878.145,923.615 882.843,921.197 887.222,918.755 891.24,916.304 894.869,913.857 898.095,911.424 900.914,909.013 903.333,906.627 905.364,904.271 907.024,901.946 908.335,899.654 909.32,897.396 909.999,895.174 910.396,892.988 910.528,890.844 910.414,888.742 910.068,886.688 909.502,884.686 908.723,882.74 907.735,880.854 906.541,879.033 905.135,877.282 903.513,875.604 901.664,874.002 899.574,872.48 897.227,871.039 894.605,869.682 891.689,868.41 888.458,867.225 884.893,866.129 880.981,865.122 876.71,864.206 872.078,863.381 867.095,862.649 861.783,862.01 856.176,861.465 850.329,861.012 844.307,860.65 838.189,860.375 832.062,860.182 826.013,860.067 820.13,860.023 814.488,860.044 809.152,860.123 804.171,860.255 799.579,860.436 795.398,860.661 791.635,860.929 788.288,861.238 785.347,861.588 782.799,861.98 780.626,862.416 778.809,862.897 777.329,863.426 776.168,864.006 775.308,864.638 774.735,865.325 774.434,866.069 774.397,866.87 774.613,867.73 775.078,868.647 775.786,869.62 776.736,870.644 777.93,871.716 779.369,872.827 781.058,873.97 783.004,875.133 785.213,876.304 787.693,877.469 790.454,878.613 793.501,879.72 796.841,880.772 800.475,881.754 804.402,882.651 808.612,883.449 813.091,884.136 817.814,884.705 822.751,885.149 827.862,885.467 833.101,885.661 838.419,885.735 843.76,885.696 849.073,885.555 854.305,885.321 859.408,885.007 864.341,884.625 869.067,884.184 873.557,883.693 877.789,883.161 881.747,882.593 885.421,881.993 888.808,881.363 891.906,880.703 894.719,880.01 897.253,879.282 899.514,878.513 901.512,877.699 903.254,876.83 904.749,875.899 906.005,874.897 907.029,873.811 907.827,872.632 908.404,871.347 908.762,869.943 908.904,868.406 908.829,866.724 908.537,864.885 908.026,862.875 907.293,860.687 906.335,858.311 905.149,855.746 903.733,852.993 902.088,850.06 900.216,846.964 898.123,843.727 895.819,840.382 893.319,836.967 890.641,833.525 887.805,830.105 884.835,826.753 881.754,823.515 878.585,820.43 875.347,817.531 872.056,814.842 868.727,812.379 865.37,810.151 861.99,808.161 858.594,806.405 855.186,804.874 851.769,803.559 848.347,802.447 844.925,801.524 841.512,800.776 838.115,800.191 834.746,799.755 831.417,799.457 828.142,799.287 824.936,799.234 821.816,799.293 818.798,799.459 815.898,799.726 813.131,800.095 810.515,800.564 808.061,801.137 805.784,801.816 803.695,802.607 801.805,803.516 800.124,804.55 798.66,805.717 797.419,807.025 796.408,808.478 795.629,810.081 795.085,811.834 794.776,813.733 794.697,815.768 794.841,817.923 795.196,820.176 795.747,822.499 796.476,824.857 797.36,827.214 798.377,829.533 799.502,831.779 800.714,833.918 801.995,835.926 803.327,837.78 804.701,839.467 806.109,840.979 807.548,842.311 809.019,843.464 810.526,844.441 812.075,845.247 813.675,845.888 815.334,846.371 817.063,846.702 818.874,846.888 820.778,846.932 822.784,846.841 824.905,846.616 827.149,846.261 829.524,845.775 832.036,845.159 834.689,844.411 837.485,843.529 840.422,842.509 843.493,841.346 846.691,840.035 850,838.57 853.404,836.945 856.879,835.153 860.4,833.189 863.935,831.049 867.453,828.73 870.916,826.232 874.289,823.559 877.535,820.721 880.619,817.728 883.509,814.601 886.177,811.36 888.601,808.034 890.765,804.652 892.661,801.246 894.287,797.847 895.648,794.488 896.756,791.196 897.626,787.998 898.276,784.916 898.726,781.966 898.996,779.162 899.103,776.515 899.063,774.03 898.891,771.709 898.595,769.553 898.183,767.56 897.659,765.725 897.023,764.043 896.272,762.509 895.4,761.116 894.4,759.857 893.261,758.725 891.97,757.715 890.512,756.82 888.869,756.034 887.024,755.354 884.955,754.774 882.644,754.291 880.069,753.902 877.209,753.605 874.049,753.397 870.572,753.279 866.77,753.248 862.64,753.304 858.191,753.446 853.44,753.674 848.421,753.986 843.177,754.379 837.77,754.851 832.269,755.398 826.755,756.015 821.31,756.698 816.016,757.442 810.95,758.241 806.176,759.092 801.746,759.989 797.699,760.931 794.056,761.915 790.83,762.94 788.02,764.003 785.616,765.104 783.605,766.241 781.966,767.412 780.679,768.613 779.721,769.841 779.07,771.09 778.706,772.353 778.609,773.623 778.763,774.889 779.154,776.144 779.772,777.375 780.609,778.571 781.66,779.72 782.926,780.811 784.41,781.832 786.117,782.772 788.059,783.619 790.249,784.363 792.702,784.994 795.437,785.504 798.472,785.885 801.826,786.13 805.517,786.233 809.557,786.19 813.955,786 818.708,785.66 823.805,785.175 829.218,784.549 834.908,783.79 840.819,782.91 846.88,781.923 853.013,780.846 859.13,779.698 865.147,778.496 870.979,777.26 876.557,776.004 881.82,774.743 886.724,773.487 891.239,772.242 895.348,771.012 899.047,769.797 902.339,768.597 905.235,767.405 907.75,766.218 909.901,765.028 911.707,763.827 913.186,762.606 914.357,761.358 915.235,760.073 915.836,758.742 916.171,757.357 916.251,755.909 916.083,754.391 915.673,752.796 915.025,751.117 914.14,749.351 913.017,747.493 911.652,745.542 910.043,743.5 908.182,741.368 906.064,739.152 903.68,736.86 901.023,734.504 898.089,732.096 894.871,729.655 891.369,727.199 887.587,724.75 883.533,722.33 879.223,719.964 874.678,717.675 869.929,715.485 865.012,713.415 859.967,711.482 854.841,709.7 849.681,708.077 844.535,706.616 839.448,705.319 834.465,704.179 829.624,703.191 824.959,702.344 820.498,701.628 816.265,701.031 812.277,700.544 808.545,700.155 805.078,699.857 801.879,699.642 798.948,699.505 796.283,699.442 793.88,699.45 791.733,699.528 789.836,699.679 788.182,699.902 786.765,700.203 785.579,700.585 784.62,701.054 783.883,701.616 783.366,702.279 783.068,703.05 782.987,703.936 783.125,704.945 783.483,706.083 784.065,707.356 784.872,708.765 785.907,710.311 787.172,711.989 788.664,713.79 790.381,715.698 792.315,717.692 794.455,719.746 796.786,721.829 799.289,723.904 801.943,725.938 804.724,727.894 807.609,729.741 810.576,731.452 813.608,733.007 816.689,734.391 819.807,735.595 822.955,736.616 826.129,737.455 829.324,738.118 832.541,738.61 835.778,738.94 839.034,739.117 842.306,739.15 845.589,739.046 848.878,738.814 852.164,738.461 855.435,737.99 858.679,737.407 861.882,736.714 865.027,735.911 868.098,734.998 871.077,733.972 873.946,732.828 876.689,731.561 879.289,730.162 881.731,728.623 884,726.932 886.083,725.079 887.968,723.051 889.645,720.837 891.105,718.428 892.341,715.816 893.348,712.996 894.121,709.971 894.661,706.748 894.97,703.344 895.055,699.782 894.925,696.096 894.595,692.326 894.083,688.519 893.409,684.724 892.598,680.991 891.671,677.367 890.651,673.892 889.557,670.6 888.405,667.516 887.207,664.656 885.972,662.028 884.704,659.635 883.402,657.473 882.063,655.536 880.683,653.813 879.254,652.293 877.766,650.965 876.208,649.814 874.571,648.831 872.84,648.004 871.006,647.323 869.056,646.777 866.978,646.361 864.763,646.065 862.401,645.885 859.885,645.815 857.21,645.853 854.373,645.994 851.376,646.237 848.223,646.581 844.924,647.026 841.492,647.572 837.948,648.219 834.315,648.97 830.622,649.825 826.904,650.785 823.198,651.853 819.545,653.027 815.984,654.307 812.559,655.689 809.307,657.169 806.265,658.739 803.461,660.39 800.919,662.11 798.655,663.885 796.676,665.698 794.981,667.533 793.564,669.373 792.413,671.2 791.509,672.996 790.836,674.747 790.371,676.436 790.096,678.051 789.992,679.581 790.044,681.016 790.239,682.349 790.566,683.574 791.021,684.687 791.599,685.684 792.301,686.565 793.131,687.327 794.094,687.971 795.201,688.496 796.462,688.902 797.891,689.189 799.506,689.355 801.324,689.4 803.365,689.321 805.649,689.117 808.198,688.785 811.033,688.321 814.173,687.722 817.633,686.983 821.426,686.101 825.555,685.073 830.017,683.898 834.794,682.575 839.858,681.106 845.165,679.498 850.658,677.758 856.265,675.9 861.906,673.939 867.497,671.892 872.952,669.779 878.193,667.618 883.149,665.428 887.767,663.225 892.003,661.02 895.831,658.824 899.239,656.643 902.225,654.481 904.796,652.339 906.966,650.216 908.754,648.111 910.179,646.022 911.265,643.947 912.033,641.886 912.504,639.837 912.697,637.801 912.629,635.779 912.314,633.775 911.764,631.792 910.988,629.835 909.99,627.907 908.773,626.016 907.334,624.167 905.668,622.365 903.767,620.617 901.619,618.927 899.21,617.301 896.522,615.742 893.537,614.257 890.238,612.847 886.608,611.517 882.632,610.271 878.303,609.111 873.621,608.041 868.596,607.063 863.251,606.181 857.624,605.396 851.767,604.708 845.745,604.117 839.636,603.621 833.522,603.216 827.49,602.898 821.621,602.66 815.986,602.494 810.649,602.396 805.655,602.356 801.036,602.371 796.814,602.434 792.994,602.543 789.575,602.694 786.55,602.888 783.903,603.123 781.618,603.402 779.678,603.725 778.064,604.094 776.757,604.513 775.743,604.985 775.006,605.513 774.533,606.1 774.313,606.75 774.339,607.465 774.604,608.248 775.103,609.1 775.837,610.022 776.803,611.012 778.006,612.069 779.448,613.187 781.134,614.361 783.072,615.581 785.267,616.836 787.726,618.113 790.455,619.396 793.458,620.667 796.738,621.909 800.291,623.1 804.109,624.223 808.182,625.26 812.488,626.195 817.002,627.016 821.693,627.711 826.524,628.277 831.454,628.712 836.442,629.016 841.442,629.195 846.414,629.256 851.317,629.208 856.114,629.062 860.771,628.829 865.26,628.518 869.556,628.138 873.638,627.698 877.493,627.203 881.107,626.659 884.474,626.067 887.589,625.43 890.451,624.745 893.061,624.01 895.421,623.222 897.536,622.373 899.409,621.458 901.045,620.467 902.449,619.391 903.624,618.219 904.575,616.938 905.303,615.537 905.811,614.001 906.098,612.317 906.165,610.472 906.009,608.452 905.629,606.247 905.022,603.848 904.187,601.25 903.122,598.453 901.829,595.465 900.312,592.299 898.576,588.978 896.633,585.533 894.498,582.005 892.19,578.437 889.73,574.881 887.141,571.385 884.447,567.998 881.669,564.761 878.826,561.71 875.933,558.872 873.001,556.265 870.039,553.898 867.048,551.774 864.032,549.89 860.989,548.24 857.919,546.812 854.821,545.595 851.694,544.575 848.541,543.739 845.365,543.074 842.173,542.566 838.971,542.204 835.772,541.977 832.587,541.876 829.432,541.893 826.323,542.022 823.278,542.258 820.314,542.598 817.451,543.042 814.706,543.59 812.097,544.244 809.641,545.008 807.353,545.888 805.247,546.89 803.337,548.02 801.634,549.285 800.146,550.692 798.882,552.245 797.847,553.944 797.043,555.787 796.471,557.766 796.125,559.869 795.999,562.075 796.079,564.359 796.351,566.691 796.793,569.035 797.385,571.356 798.104,573.621 798.928,575.796 799.836,577.854 800.812,579.773 801.841,581.538 802.914,583.137 804.024,584.566 805.171,585.822 806.356,586.908 807.582,587.827 808.856,588.585 810.187,589.187 811.585,589.64 813.061,589.95 814.626,590.121 816.294,590.159 818.077,590.066 819.987,589.845 822.037,589.498 824.239,589.025 826.602,588.424 829.136,587.694 831.846,586.832 834.736,585.833 837.807,584.693 841.053,583.405 844.465,581.965 848.028,580.367 851.723,578.605 855.521,576.674 859.391,574.572 863.294,572.299 867.19,569.857 871.031,567.253 874.773,564.497 878.37,561.603 881.778,558.592 884.961,555.485 887.887,552.308 890.532,549.089 892.882,545.854 894.931,542.63 896.68,539.444 898.138,536.317 899.319,533.271 900.241,530.323 900.925,527.486 901.389,524.772 901.655,522.189 901.74,519.745 901.659,517.441 901.426,515.28 901.049,513.262 900.533,511.385 899.882,509.647 899.095,508.043 898.166,506.57 897.089,505.222 895.854,503.996 894.448,502.887 892.855,501.888 891.057,500.998 889.037,500.211 886.772,499.523 884.241,498.933 881.424,498.437 878.3,498.033 874.851,497.72 871.065,497.497 866.935,497.363 862.464,497.316 857.665,497.355 852.565,497.48 847.207,497.687 841.646,497.975 835.953,498.339 830.208,498.774 824.497,499.276 818.908,499.84 813.522,500.46 808.413,501.131 803.638,501.849 799.242,502.612 795.254,503.418 791.69,504.264 788.553,505.151 785.836,506.079 783.527,507.048 781.609,508.057 780.06,509.105 778.86,510.19 777.987,511.311 777.42,512.463 777.141,513.641 777.131,514.838 777.377,516.046 777.867,517.257 778.592,518.459 779.545,519.642 780.726,520.793 782.133,521.901 783.772,522.952 785.65,523.933 787.778,524.833 790.168,525.638 792.837,526.339 795.8,526.924 799.076,527.384 802.681,527.712 806.626,527.902 810.92,527.948 815.563,527.85 820.546,527.607 825.844,527.224 831.423,526.707 837.233,526.066 843.209,525.313 849.278,524.464 855.358,523.536 861.368,522.546 867.226,521.513 872.861,520.451 878.212,519.376 883.233,518.298 887.89,517.225 892.163,516.162 896.042,515.11 899.527,514.07 902.627,513.038 905.354,512.01 907.723,510.98 909.752,509.94 911.458,508.884 912.86,507.801 913.972,506.683 914.811,505.52 915.387,504.304 915.714,503.023 915.797,501.67 915.646,500.234 915.262,498.707 914.649,497.081 913.806,495.348 912.731,493.503 911.422,491.541 909.874,489.461 908.08,487.264 906.035,484.954 903.733,482.537 901.168,480.026 898.337,477.436 895.238,474.786 "/>
<polyline clip-path="url(#clip012)" style="stroke:#e26f46; stroke-linecap:round; stroke-linejoin:round; stroke-width:4; stroke-opacity:1; fill:none" points="831.217,1049.85 836.632,1048.57 842.324,1047.17 848.234,1045.64 854.293,1044 860.417,1042.26 866.517,1040.43 872.503,1038.54 878.288,1036.6 883.798,1034.63 888.971,1032.64 893.762,1030.65 898.14,1028.66 902.09,1026.68 905.61,1024.71 908.707,1022.75 911.395,1020.81 913.696,1018.87 915.633,1016.93 917.23,1015 918.515,1013.06 919.513,1011.12 920.249,1009.17 920.747,1007.21 921.029,1005.24 921.119,1003.27 921.034,1001.29 920.792,999.325 920.412,997.366 919.905,995.425 919.287,993.509 918.565,991.626 917.75,989.784 916.847,987.992 915.859,986.257 914.789,984.584 913.634,982.98 912.391,981.449 911.053,979.995 909.611,978.62 908.054,977.326 906.368,976.115 904.537,974.987 902.541,973.941 900.36,972.979 897.971,972.099 895.349,971.3 892.469,970.584 889.307,969.949 885.836,969.396 882.034,968.926 877.883,968.539 873.371,968.235 868.495,968.017 863.261,967.884 857.692,967.837 851.827,967.874 845.718,967.995 839.437,968.195 833.066,968.471 826.694,968.816 820.416,969.225 814.319,969.691 808.483,970.207 802.973,970.768 797.839,971.37 793.112,972.01 788.81,972.686 784.939,973.397 781.491,974.146 778.454,974.933 775.809,975.762 773.532,976.635 771.6,977.557 769.989,978.528 768.675,979.554 767.633,980.635 766.843,981.773 766.284,982.969 765.937,984.223 765.784,985.531 765.809,986.893 765.998,988.301 766.336,989.752 766.813,991.237 767.417,992.747 768.138,994.272 768.97,995.801 769.905,997.322 770.94,998.823 772.071,1000.29 773.298,1001.72 774.623,1003.08 776.05,1004.38 777.586,1005.61 779.241,1006.74 781.026,1007.78 782.957,1008.72 785.05,1009.54 787.326,1010.25 789.806,1010.83 792.516,1011.29 795.479,1011.61 798.722,1011.8 802.269,1011.85 806.144,1011.75 810.365,1011.51 814.946,1011.12 819.89,1010.58 825.191,1009.9 830.826,1009.08 836.759,1008.12 842.936,1007.04 849.289,1005.85 855.736,1004.56 862.187,1003.21 868.55,1001.79 874.737,1000.34 880.671,998.879 886.286,997.41 891.533,995.951 896.38,994.512 900.809,993.096 904.815,991.706 908.404,990.343 911.59,989.002 914.389,987.68 916.825,986.371 918.919,985.068 920.697,983.764 922.179,982.452 923.389,981.125 924.346,979.776 925.069,978.398 925.575,976.987 925.879,975.537 925.995,974.043 925.935,972.505 925.709,970.918 925.326,969.285 924.795,967.604 924.121,965.88 923.31,964.117 922.367,962.319 921.292,960.494 920.087,958.65 918.752,956.795 917.282,954.94 915.675,953.094 913.921,951.267 912.011,949.47 909.932,947.711 907.67,946 905.207,944.345 902.523,942.752 899.595,941.229 896.401,939.782 892.919,938.415 889.125,937.133 885.002,935.94 880.536,934.842 875.719,933.841 870.557,932.941 865.064,932.144 859.271,931.452 853.223,930.865 846.981,930.382 840.616,930 834.211,929.713 827.851,929.515 821.62,929.396 815.597,929.348 809.848,929.361 804.424,929.426 799.364,929.535 794.691,929.681 790.415,929.859 786.536,930.065 783.046,930.295 779.929,930.55 777.167,930.828 774.739,931.13 772.625,931.457 770.801,931.812 769.248,932.197 767.946,932.615 766.878,933.069 766.026,933.562 765.379,934.098 764.922,934.681 764.646,935.314 764.543,935.999 764.605,936.741 764.828,937.542 765.207,938.404 765.742,939.328 766.431,940.315 767.275,941.364 768.278,942.474 769.442,943.641 770.773,944.86 772.278,946.123 773.964,947.423 775.84,948.749 777.918,950.087 780.209,951.423 782.726,952.742 785.483,954.026 788.493,955.259 791.771,956.423 795.327,957.502 799.171,958.479 803.308,959.341 807.738,960.078 812.452,960.681 817.433,961.145 822.657,961.469 828.089,961.656 833.683,961.71 839.389,961.643 845.149,961.465 850.906,961.19 856.598,960.836 862.17,960.416 867.572,959.948 872.758,959.444 877.695,958.918 882.355,958.381 886.72,957.842 890.781,957.306 894.535,956.779 897.985,956.264 901.138,955.761 904.004,955.27 906.597,954.79 908.931,954.32 911.021,953.856 912.883,953.394 914.531,952.931 915.98,952.463 917.242,951.983 918.331,951.488 919.255,950.971 920.027,950.427 920.653,949.848 921.141,949.229 921.496,948.561 921.723,947.838 921.825,947.05 921.804,946.188 921.659,945.244 921.39,944.207 920.994,943.066 920.469,941.812 919.808,940.433 919.005,938.918 918.054,937.256 916.946,935.438 915.672,933.456 914.222,931.304 912.587,928.978 910.756,926.479 908.723,923.813 906.48,920.992 904.024,918.034 901.352,914.962 898.469,911.809 895.381,908.609 892.097,905.403 888.634,902.232 885.009,899.139 881.24,896.162 877.348,893.335 873.354,890.686 869.277,888.237 865.136,886.001 860.946,883.986 856.724,882.191 852.484,880.613 848.24,879.242 844.007,878.068 839.8,877.074 835.634,876.248 831.525,875.571 827.492,875.029 823.55,874.605 819.716,874.287 816.007,874.06 812.436,873.913 809.017,873.835 805.761,873.818 802.676,873.854 799.77,873.938 797.047,874.065 794.509,874.234 792.158,874.442 789.993,874.689 788.014,874.976 786.217,875.306 784.601,875.682 783.163,876.107 781.899,876.588 780.809,877.129 779.89,877.738 779.14,878.424 778.561,879.194 778.152,880.057 777.916,881.024 777.855,882.103 777.973,883.305 778.274,884.639 778.765,886.112 779.45,887.73 780.334,889.496 781.421,891.408 782.715,893.46 784.214,895.639 785.916,897.927 787.812,900.297 789.891,902.718 792.137,905.153 794.532,907.563 797.055,909.909 799.686,912.156 802.403,914.272 805.191,916.232 808.035,918.019 810.925,919.621 813.857,921.035 816.828,922.259 819.839,923.3 822.893,924.166 825.993,924.865 829.145,925.41 832.352,925.812 835.616,926.083 838.939,926.234 842.317,926.277 845.748,926.221 849.223,926.078 852.732,925.856 856.263,925.563 859.8,925.207 863.327,924.795 866.824,924.332 870.273,923.824 873.655,923.274 876.951,922.684 880.143,922.058 883.214,921.394 886.151,920.692 888.941,919.95 891.573,919.164 894.039,918.331 896.332,917.444 898.446,916.497 900.378,915.48 902.125,914.385 903.684,913.2 905.054,911.914 906.233,910.514 907.218,908.987 908.008,907.317 908.6,905.49 908.991,903.492 909.177,901.308 909.154,898.929 908.919,896.343 908.469,893.547 907.802,890.542 906.919,887.336 905.823,883.945 904.523,880.395 903.029,876.72 901.357,872.965 899.527,869.177 897.562,865.41 895.485,861.716 893.318,858.142 891.083,854.732 888.798,851.519 886.475,848.526 884.123,845.771 881.748,843.259 879.347,840.992 876.92,838.964 874.459,837.167 871.958,835.589 869.408,834.217 866.8,833.037 864.125,832.035 861.378,831.198 858.55,830.511 855.639,829.963 852.642,829.541 849.56,829.234 846.397,829.031 843.159,828.922 839.856,828.898 836.499,828.951 833.104,829.073 829.689,829.255 826.272,829.493 822.873,829.779 819.514,830.11 816.216,830.481 812.999,830.889 809.881,831.333 806.882,831.811 804.017,832.324 801.299,832.873 798.741,833.461 796.353,834.093 794.143,834.774 792.117,835.509 790.282,836.308 788.642,837.177 787.2,838.128 785.96,839.171 784.926,840.316 784.101,841.576 783.488,842.962 783.092,844.483 782.916,846.15 782.962,847.968 783.232,849.941 783.726,852.067 784.442,854.338 785.374,856.739 786.512,859.249 787.841,861.838 789.343,864.471 790.996,867.11 792.775,869.715 794.656,872.244 796.615,874.665 798.631,876.946 800.686,879.066 802.769,881.01 804.87,882.768 806.987,884.339 809.12,885.724 811.273,886.931 813.453,887.965 815.666,888.838 817.923,889.56 820.233,890.14 822.607,890.59 825.053,890.919 827.579,891.137 830.194,891.252 832.901,891.271 835.704,891.203 838.603,891.053 841.598,890.827 844.682,890.53 847.848,890.168 851.086,889.744 854.382,889.262 857.719,888.725 861.08,888.136 864.444,887.496 867.79,886.807 871.096,886.067 874.341,885.278 877.502,884.436 880.559,883.539 883.494,882.582 886.29,881.561 888.932,880.467 891.406,879.293 893.702,878.028 895.809,876.663 897.72,875.184 899.428,873.578 900.926,871.832 902.209,869.931 903.272,867.86 904.111,865.606 904.722,863.157 905.101,860.504 905.247,857.642 905.159,854.572 904.839,851.301 904.292,847.847 903.527,844.234 902.558,840.496 901.402,836.677 900.082,832.824 898.621,828.99 897.046,825.227 895.383,821.583 893.654,818.1 891.881,814.81 890.08,811.738 888.262,808.899 886.434,806.301 884.597,803.943 882.752,801.821 880.893,799.925 879.014,798.245 877.106,796.766 875.16,795.477 873.166,794.363 871.114,793.411 868.992,792.608 866.793,791.943 864.507,791.405 862.127,790.984 859.646,790.671 857.061,790.457 854.371,790.335 851.574,790.299 848.676,790.342 845.68,790.459 842.597,790.645 839.439,790.896 836.219,791.207 832.956,791.577 829.669,792.001 826.38,792.479 823.111,793.011 819.886,793.595 816.729,794.234 813.664,794.93 810.711,795.688 807.893,796.512 805.228,797.408 802.735,798.386 800.428,799.453 798.322,800.621 796.429,801.898 794.759,803.297 793.321,804.826 792.122,806.495 791.167,808.31 790.459,810.273 789.997,812.383 789.778,814.631 789.794,817.003 790.033,819.478 790.478,822.029 791.108,824.622 791.898,827.221 792.822,829.788 793.852,832.289 794.963,834.69 796.129,836.964 797.332,839.091 798.556,841.057 799.789,842.853 801.025,844.477 802.26,845.93 803.494,847.217 804.73,848.343 805.973,849.318 807.23,850.149 808.51,850.846 809.82,851.417 811.17,851.87 812.571,852.213 814.033,852.452 815.566,852.592 817.181,852.639 818.887,852.596 820.695,852.466 822.613,852.252 824.65,851.955 826.813,851.576 829.107,851.113 831.538,850.566 834.107,849.933 836.814,849.212 839.656,848.398 842.627,847.488 845.718,846.477 848.915,845.359 852.202,844.127 855.56,842.775 858.964,841.294 862.39,839.676 865.808,837.911 869.189,835.992 872.503,833.909 875.718,831.654 878.804,829.222 881.733,826.608 884.479,823.812 887.017,820.839 889.328,817.697 891.396,814.401 893.211,810.972 894.767,807.438 896.067,803.829 897.116,800.183 897.93,796.536 898.525,792.926 898.925,789.39 899.154,785.961 899.237,782.667 899.201,779.531 899.069,776.568 898.863,773.792 898.599,771.207 898.293,768.814 897.956,766.611 897.597,764.593 897.221,762.751 896.832,761.076 896.43,759.559 896.014,758.189 895.583,756.955 895.133,755.848 894.659,754.858 894.155,753.975 893.616,753.191 893.032,752.499 892.397,751.891 891.702,751.361 890.935,750.904 890.088,750.514 889.148,750.189 888.103,749.924 886.941,749.716 885.645,749.564 884.203,749.465 882.598,749.42 880.814,749.426 878.834,749.486 876.642,749.598 874.221,749.764 871.557,749.987 868.635,750.266 865.446,750.606 861.983,751.009 858.246,751.477 854.24,752.012 849.981,752.619 845.492,753.299 840.808,754.053 835.973,754.885 831.042,755.793 826.077,756.779 821.144,757.841 816.312,758.978 811.648,760.188 807.212,761.466 803.057,762.811 799.223,764.218 795.74,765.683 792.626,767.202 789.886,768.768 787.516,770.378 785.502,772.023 783.827,773.698 782.466,775.393 781.393,777.1 780.58,778.809 779.997,780.51 779.619,782.192 779.418,783.843 779.373,785.455 779.46,787.016 779.663,788.518 779.966,789.953 780.357,791.314 780.826,792.595 781.367,793.793 781.977,794.904 782.654,795.926 783.4,796.857 784.217,797.696 785.112,798.442 786.092,799.097 787.167,799.659 788.349,800.129 789.651,800.507 791.088,800.792 792.677,800.983 794.438,801.079 796.39,801.078 798.556,800.978 800.958,800.775 803.619,800.466 806.562,800.047 809.811,799.513 813.384,798.858 817.297,798.079 821.56,797.17 826.174,796.128 831.128,794.951 836.401,793.639 841.954,792.193 847.734,790.621 853.674,788.931 859.695,787.135 865.709,785.248 871.626,783.287 877.363,781.269 882.84,779.211 887.995,777.129 892.778,775.035 897.156,772.939 901.11,770.849 904.636,768.768 907.739,766.698 910.432,764.639 912.735,762.588 914.671,760.544 916.265,758.503 917.544,756.464 918.536,754.424 919.265,752.383 919.757,750.341 920.036,748.302 920.125,746.268 920.044,744.244 919.813,742.236 919.448,740.25 918.964,738.294 918.376,736.377 917.693,734.505 916.924,732.685 916.076,730.926 915.152,729.232 914.153,727.61 913.079,726.063 911.926,724.595 910.688,723.207 909.357,721.902 907.921,720.68 906.367,719.541 904.68,718.485 902.843,717.511 900.835,716.619 898.635,715.806 896.219,715.073 893.563,714.418 890.641,713.842 887.428,713.344 883.9,712.924 880.036,712.583 875.819,712.322 871.239,712.141 866.296,712.043 861.002,712.026 855.383,712.092 849.481,712.24 843.355,712.467 837.079,712.769 830.738,713.144 824.423,713.584 818.227,714.085 812.236,714.64 806.526,715.243 801.158,715.89 796.177,716.577 791.611,717.303 787.474,718.066 783.768,718.868 780.485,719.71 777.608,720.595 775.117,721.524 772.99,722.502 771.201,723.532 769.726,724.615 768.539,725.755 767.617,726.952 766.938,728.207 766.479,729.519 766.222,730.886 766.147,732.305 766.238,733.769 766.478,735.274 766.854,736.811 767.351,738.371 767.958,739.944 768.664,741.519 769.46,743.083 770.339,744.627 771.296,746.137 772.326,747.602 773.429,749.012 774.606,750.357 775.858,751.628 777.192,752.816 778.616,753.916 780.139,754.92 781.774,755.824 783.537,756.623 785.445,757.313 787.517,757.89 789.775,758.351 792.242,758.692 794.945,758.911 797.907,759.004 801.157,758.968 804.717,758.799 808.611,758.493 812.857,758.049 817.466,757.465 822.44,756.739 827.77,755.873 833.431,754.87 839.382,753.738 845.568,752.485 851.916,751.125 858.341,749.673 864.753,748.148 871.059,746.568 877.17,744.952 883.01,743.316 888.515,741.676 893.64,740.043 898.355,738.425 902.643,736.826 906.502,735.25 909.94,733.693 912.971,732.155 915.616,730.628 917.897,729.109 919.838,727.591 921.464,726.066 922.8,724.529 923.867,722.973 924.689,721.394 925.285,719.786 925.675,718.147 925.875,716.474 925.903,714.766 925.774,713.025 925.5,711.253 925.095,709.453 924.571,707.631 923.938,705.794 923.206,703.949 922.382,702.105 921.473,700.272 920.485,698.458 919.42,696.674 918.281,694.928 917.068,693.228 915.776,691.584 914.402,690 912.939,688.483 911.375,687.038 909.7,685.668 907.899,684.376 905.954,683.164 903.846,682.033 901.553,680.984 899.053,680.018 896.319,679.134 893.326,678.333 890.048,677.616 886.46,676.983 882.538,676.434 878.266,675.972 873.631,675.596 868.631,675.308 863.275,675.109 857.588,674.998 851.61,674.975 845.396,675.038 839.02,675.182 832.564,675.403 826.122,675.695 819.784,676.051 813.639,676.463 807.764,676.925 802.221,677.43 797.057,677.973 792.302,678.551 787.971,679.163 784.068,679.806 780.583,680.483 777.503,681.195 774.809,681.944 772.477,682.734 770.483,683.568 768.803,684.449 767.414,685.382 766.293,686.368 765.418,687.411 764.77,688.513 764.33,689.674 764.081,690.896 764.009,692.176 764.099,693.513 764.338,694.902 764.714,696.339 765.216,697.817 765.835,699.327 766.563,700.862 767.391,702.408 768.314,703.957 769.326,705.495 770.425,707.009 771.609,708.489 772.879,709.921 774.238,711.294 775.69,712.596 777.244,713.819 778.909,714.953 780.697,715.989 782.625,716.921 784.709,717.742 786.97,718.446 789.43,719.028 792.114,719.483 795.046,719.807 798.254,719.996 801.761,720.046 805.593,719.954 809.768,719.717 814.302,719.333 819.199,718.803 824.456,718.128 830.053,717.311 835.956,716.36 842.114,715.284 848.461,714.096 854.916,712.813 861.392,711.452 867.795,710.032 874.036,708.574 880.035,707.096 885.724,705.613 891.052,704.138 895.983,702.68 900.497,701.246 904.588,699.838 908.26,698.457 911.525,697.099 914.401,695.76 916.909,694.436 919.072,693.119 920.915,691.803 922.461,690.48 923.731,689.144 924.747,687.788 925.528,686.404 926.092,684.988 926.455,683.535 926.631,682.041 926.633,680.503 926.474,678.918 926.162,677.288 925.708,675.614 925.118,673.897 924.401,672.142 923.561,670.356 922.602,668.543 921.529,666.714 920.342,664.876 919.04,663.04 917.623,661.214 916.085,659.411 914.419,657.638 912.617,655.905 910.667,654.221 908.554,652.594 906.26,651.031 903.767,649.536 901.053,648.117 898.092,646.776 894.863,645.518 891.339,644.347 887.499,643.264 883.322,642.274 878.796,641.379 873.913,640.581 868.679,639.882 863.11,639.284 857.24,638.788 851.116,638.392 844.802,638.093 838.374,637.889 831.918,637.773 825.522,637.736 819.272,637.772 813.248,637.871 807.515,638.023 802.124,638.222 797.113,638.459 792.502,638.73 788.299,639.03 784.503,639.357 781.101,639.709 778.079,640.087 775.416,640.49 773.09,640.921 771.08,641.382 769.362,641.875 767.916,642.404 766.722,642.972 765.763,643.582 765.021,644.238 764.484,644.943 764.138,645.699 763.972,646.511 "/>
<polyline clip-path="url(#clip012)" style="stroke:#3da44d; stroke-linecap:round; stroke-linejoin:round; stroke-width:4; stroke-opacity:1; fill:none" points="834.559,1050.81 840.131,1049.43 845.952,1047.92 851.96,1046.29 858.076,1044.56 864.216,1042.73 870.289,1040.82 876.206,1038.86 881.887,1036.84 887.263,1034.8 892.28,1032.74 896.899,1030.67 901.097,1028.61 904.866,1026.55 908.209,1024.49 911.136,1022.45 913.667,1020.41 915.824,1018.38 917.633,1016.34 919.123,1014.31 920.32,1012.27 921.253,1010.22 921.95,1008.17 922.438,1006.11 922.742,1004.06 922.887,1002 922.896,999.957 922.794,997.928 922.599,995.922 922.334,993.947 922.015,992.013 921.661,990.126 921.288,988.294 920.909,986.525 920.538,984.824 920.187,983.196 919.868,981.644 919.588,980.17 919.359,978.775 919.188,977.46 919.083,976.223 919.051,975.062 919.102,973.975 919.242,972.958 919.479,972.008 919.823,971.12 920.284,970.291 920.872,969.516 921.598,968.791 922.475,968.11 923.519,967.47 924.745,966.866 926.17,966.294 927.815,965.749 929.699,965.227 931.846,964.726 934.28,964.241 937.025,963.769 940.105,963.309 943.545,962.858 947.364,962.415 951.581,961.982 956.204,961.56 961.234,961.151 966.661,960.761 972.458,960.396 978.583,960.064 984.98,959.775 991.575,959.54 998.285,959.368 1005.02,959.271 1011.69,959.257 1018.21,959.334 1024.51,959.507 1030.53,959.779 1036.22,960.152 1041.57,960.627 1046.56,961.202 1051.19,961.876 1055.47,962.646 1059.43,963.511 1063.08,964.468 1066.46,965.516 1069.58,966.652 1072.49,967.873 1075.21,969.175 1077.77,970.556 1080.19,972.01 1082.49,973.531 1084.7,975.112 1086.84,976.744 1088.93,978.417 1090.98,980.119 1093.02,981.837 1095.05,983.557 1097.09,985.264 1099.15,986.943 1101.26,988.578 1103.42,990.154 1105.66,991.657 1108,993.073 1110.44,994.389 1113.02,995.595 1115.76,996.679 1118.69,997.635 1121.83,998.453 1125.21,999.128 1128.86,999.654 1132.8,1000.03 1137.06,1000.25 1141.66,1000.31 1146.6,1000.22 1151.9,999.972 1157.54,999.576 1163.49,999.039 1169.72,998.37 1176.17,997.584 1182.78,996.696 1189.45,995.727 1196.11,994.696 1202.67,993.624 1209.05,992.533 1215.17,991.44 1220.98,990.362 1226.44,989.311 1231.51,988.298 1236.19,987.328 1240.47,986.406 1244.37,985.532 1247.89,984.706 1251.07,983.926 1253.91,983.188 1256.45,982.487 1258.7,981.821 1260.7,981.182 1262.47,980.566 1264.02,979.969 1265.37,979.384 1266.55,978.806 1267.57,978.231 1268.44,977.652 1269.18,977.066 1269.79,976.467 1270.29,975.85 1270.69,975.211 1270.99,974.544 1271.2,973.846 1271.33,973.11 1271.38,972.334 1271.36,971.512 1271.26,970.64 1271.1,969.715 1270.87,968.733 1270.58,967.69 1270.23,966.584 1269.82,965.414 1269.36,964.176 1268.85,962.873 1268.29,961.504 1267.68,960.07 1267.04,958.576 1266.36,957.026 1265.64,955.426 1264.91,953.782 1264.15,952.104 1263.39,950.401 1262.62,948.682 1261.86,946.959 1261.12,945.242 1260.39,943.543 1259.7,941.87 1259.05,940.235 1258.45,938.645 1257.91,937.107 1257.43,935.628 1257.02,934.212 1256.7,932.862 1256.46,931.58 1256.32,930.367 1256.29,929.222 1256.37,928.145 1256.57,927.133 1256.9,926.184 1257.38,925.294 1258.02,924.46 1258.83,923.678 1259.82,922.944 1261.02,922.253 1262.43,921.602 1264.09,920.985 1266.02,920.4 1268.22,919.843 1270.74,919.309 1273.6,918.797 1276.81,918.303 1280.4,917.826 1284.39,917.366 1288.79,916.924 1293.61,916.501 1298.82,916.101 1304.42,915.73 1310.37,915.395 1316.61,915.103 1323.07,914.864 1329.67,914.688 1336.32,914.585 1342.94,914.563 1349.43,914.629 1355.72,914.788 1361.75,915.045 1367.46,915.4 1372.83,915.854 1377.84,916.406 1382.49,917.055 1386.79,917.8 1390.75,918.637 1394.4,919.565 1397.76,920.582 1400.87,921.685 1403.73,922.873 1406.4,924.143 1408.88,925.491 1411.21,926.913 1413.41,928.404 1415.5,929.958 1417.49,931.566 1419.41,933.221 1421.27,934.913 1423.08,936.629 1424.85,938.357 1426.6,940.085 1428.33,941.799 1430.05,943.485 1431.79,945.131 1433.53,946.722 1435.3,948.247 1437.11,949.695 1438.97,951.055 1440.9,952.32 1442.91,953.481 1445.03,954.532 1447.27,955.467 1449.66,956.282 1452.21,956.972 1454.97,957.533 1457.96,957.963 1461.19,958.258 1464.71,958.416 1468.54,958.434 1472.7,958.309 1477.22,958.041 1482.09,957.629 1487.33,957.074 1492.92,956.379 1498.85,955.55 1505.06,954.595 1511.5,953.525 1518.09,952.357 1524.76,951.106 1531.4,949.791 1537.93,948.434 1544.26,947.052 1550.31,945.662 1556.04,944.281 1561.38,942.918 1566.32,941.583 1570.84,940.279 1574.94,939.01 1578.64,937.773 1581.94,936.567 1584.87,935.386 1587.45,934.226 1589.71,933.08 1591.67,931.941 1593.36,930.802 1594.79,929.656 1595.99,928.495 1596.99,927.313 1597.79,926.104 1598.41,924.861 1598.88,923.579 1599.2,922.254 1599.39,920.881 1599.46,919.459 1599.42,917.986 1599.29,916.461 1599.08,914.885 1598.79,913.262 1598.45,911.595 1598.06,909.891 1597.64,908.155 1597.2,906.396 1596.75,904.624 1596.32,902.847 1595.91,901.078 1595.55,899.324 1595.24,897.598 1595.01,895.906 1594.86,894.259 1594.83,892.663 1594.93,891.124 1595.17,889.646 1595.58,888.231 1596.17,886.882 1596.97,885.598 1598,884.379 1599.28,883.222 1600.84,882.125 1602.7,881.084 1604.89,880.095 1607.43,879.155 1610.35,878.259 1613.67,877.403 1617.41,876.585 1621.58,875.802 1626.17,875.053 1631.19,874.339 1636.6,873.661 1642.37,873.023 1648.43,872.428 1654.72,871.883 1661.15,871.395 1667.63,870.969 1674.06,870.612 1680.36,870.328 1686.45,870.122 1692.26,869.996 1697.76,869.95 1702.9,869.986 1707.68,870.101 1712.1,870.296 1716.15,870.568 1719.86,870.916 1723.26,871.339 1726.35,871.837 1729.17,872.409 1731.75,873.055 1734.11,873.775 1736.28,874.57 1738.28,875.44 1740.13,876.387 1741.85,877.41 1743.47,878.51 1744.99,879.687 1746.43,880.939 1747.81,882.267 1749.13,883.666 1750.41,885.133 1751.64,886.664 1752.85,888.252 1754.02,889.891 1755.17,891.573 1756.28,893.287 1757.37,895.025 1758.43,896.774 1759.46,898.525 1760.45,900.267 1761.4,901.988 1762.31,903.679 1763.17,905.332 1763.98,906.938 1764.74,908.491 1765.44,909.986 1766.08,911.419 1766.65,912.787 1767.16,914.09 1767.61,915.328 1767.97,916.5 1768.27,917.611 1768.49,918.661 1768.62,919.654 1768.67,920.595 1768.63,921.486 1768.5,922.333 1768.27,923.14 1767.92,923.913 1767.47,924.655 1766.89,925.374 1766.17,926.073 1765.31,926.759 1764.29,927.437 1763.09,928.112 1761.7,928.791 1760.1,929.478 1758.27,930.181 1756.19,930.904 1753.83,931.653 1751.17,932.433 1748.2,933.25 1744.87,934.107 1741.18,935.007 1737.11,935.953 1732.64,936.943 1727.77,937.977 1722.51,939.048 1716.88,940.15 1710.91,941.27 1704.66,942.394 1698.2,943.504 1691.6,944.582 1684.94,945.606 1678.33,946.555 1671.83,947.41 1665.52,948.153 1659.47,948.77 1653.73,949.249 1648.32,949.582 1643.25,949.763 1638.54,949.789 1634.18,949.66 1630.14,949.376 1626.4,948.939 1622.95,948.354 1619.76,947.625 1616.79,946.757 1614.02,945.758 1611.42,944.636 1608.98,943.4 1606.66,942.061 1604.45,940.631 1602.33,939.121 1600.28,937.547 1598.29,935.923 1596.34,934.263 1594.42,932.584 1592.52,930.899 1590.62,929.223 1588.71,927.569 1586.78,925.949 1584.8,924.373 1582.78,922.852 1580.67,921.392 1578.47,920.001 1576.16,918.682 1573.71,917.44 1571.09,916.278 1568.28,915.198 1565.25,914.201 1561.96,913.291 1558.41,912.467 1554.54,911.732 1550.35,911.088 1545.81,910.534 1540.91,910.075 1535.65,909.71 1530.03,909.441 1524.08,909.268 1517.83,909.188 1511.36,909.201 1504.72,909.299 1498.01,909.478 1491.31,909.728 1484.72,910.04 1478.32,910.404 1472.18,910.812 1466.37,911.254 1460.94,911.723 1455.91,912.214 1451.29,912.723 1447.08,913.247 1443.28,913.787 1439.87,914.342 1436.83,914.915 1434.14,915.508 1431.76,916.124 1429.68,916.768 1427.88,917.444 1426.32,918.155 1424.99,918.907 1423.87,919.705 1422.94,920.554 1422.18,921.457 1421.57,922.42 1421.11,923.448 1420.78,924.543 1420.57,925.71 1420.47,926.951 1420.46,928.268 1420.53,929.663 1420.68,931.137 1420.89,932.687 1421.15,934.311 1421.44,936.007 1421.76,937.77 1422.09,939.593 1422.42,941.47 1422.72,943.393 1422.97,945.354 1423.17,947.344 1423.29,949.354 1423.31,951.377 1423.21,953.406 1422.96,955.435 1422.54,957.459 1421.92,959.475 1421.08,961.482 1419.99,963.479 1418.63,965.468 1416.96,967.452 1414.95,969.432 1412.59,971.414 1409.84,973.4 1406.69,975.393 1403.12,977.395 1399.11,979.405 1394.68,981.42 1389.83,983.435 1384.6,985.442 1379.03,987.429 1373.18,989.381 1367.12,991.284 1360.94,993.119 1354.74,994.872 1348.6,996.527 1342.6,998.072 1336.82,999.496 1331.32,1000.8 1326.13,1001.97 1321.29,1003.01 1316.8,1003.92 1312.67,1004.71 1308.89,1005.38 1305.44,1005.93 1302.31,1006.38 1299.47,1006.72 1296.9,1006.97 1294.58,1007.11 1292.47,1007.17 1290.57,1007.14 1288.83,1007.02 1287.26,1006.81 1285.82,1006.52 1284.49,1006.15 1283.28,1005.7 1282.15,1005.16 1281.1,1004.54 1280.11,1003.84 1279.18,1003.05 1278.3,1002.18 1277.46,1001.22 1276.66,1000.18 1275.89,999.061 1275.16,997.86 1274.46,996.583 1273.79,995.234 1273.16,993.818 1272.57,992.34 1272.04,990.81 1271.57,989.236 1271.17,987.626 1270.87,985.993 1270.67,984.345 1270.6,982.694 1270.67,981.051 1270.92,979.424 1271.35,977.824 1272.01,976.257 1272.92,974.73 1274.1,973.248 1275.58,971.815 1277.39,970.432 1279.57,969.101 1282.12,967.821 1285.08,966.593 1288.45,965.414 1292.25,964.284 1296.46,963.203 1301.08,962.17 1306.07,961.186 1311.38,960.254 1316.96,959.375 1322.72,958.554 1328.59,957.792 1334.48,957.095 1340.3,956.465 1345.97,955.904 1351.44,955.413 1356.64,954.994 1361.54,954.645 1366.1,954.366 1370.33,954.154 1374.21,954.008 1377.76,953.926 1380.99,953.905 1383.91,953.945 1386.55,954.044 1388.94,954.201 1391.08,954.415 1393.01,954.689 1394.74,955.021 1396.3,955.413 1397.7,955.866 1398.96,956.384 1400.1,956.969 1401.13,957.624 1402.07,958.351 1402.92,959.156 1403.7,960.043 1404.42,961.015 1405.07,962.078 1405.68,963.236 1406.23,964.494 1406.74,965.856 1407.21,967.327 1407.62,968.909 1407.99,970.608 1408.3,972.423 1408.54,974.358 1408.71,976.412 1408.78,978.583 1408.74,980.87 1408.58,983.268 1408.26,985.773 1407.76,988.377 1407.06,991.072 1406.13,993.851 1404.93,996.701 1403.44,999.612 1401.64,1002.57 1399.51,1005.56 1397.03,1008.58 1394.2,1011.59 1391.01,1014.58 1387.49,1017.54 1383.66,1020.44 1379.56,1023.26 1375.23,1025.98 1370.72,1028.59 1366.1,1031.08 1361.42,1033.43 1356.75,1035.63 1352.15,1037.68 1347.66,1039.58 1343.33,1041.33 1339.2,1042.94 1335.28,1044.42 1331.6,1045.76 1328.17,1046.97 1324.99,1048.07 1322.06,1049.07 1319.37,1049.96 1316.91,1050.76 1314.67,1051.48 1312.63,1052.11 1310.79,1052.68 1309.12,1053.17 1307.62,1053.59 1306.26,1053.96 1305.04,1054.26 1303.94,1054.51 1302.95,1054.69 1302.05,1054.82 1301.24,1054.9 1300.51,1054.92 1299.84,1054.88 1299.22,1054.77 1298.66,1054.61 1298.13,1054.38 1297.63,1054.07 1297.16,1053.7 1296.71,1053.24 1296.28,1052.69 1295.85,1052.05 1295.42,1051.31 1294.99,1050.47 1294.57,1049.51 1294.13,1048.43 1293.7,1047.23 1293.26,1045.89 1292.83,1044.41 1292.4,1042.79 1291.99,1041.03 1291.62,1039.14 1291.3,1037.11 1291.04,1034.97 1290.88,1032.73 1290.83,1030.42 1290.93,1028.04 1291.2,1025.64 1291.67,1023.25 1292.36,1020.88 1293.28,1018.58 1294.45,1016.35 1295.88,1014.23 1297.56,1012.22 1299.5,1010.33 1301.67,1008.57 1304.08,1006.94 1306.69,1005.44 1309.49,1004.05 1312.46,1002.77 1315.57,1001.6 1318.79,1000.53 1322.09,999.544 1325.44,998.642 1328.82,997.816 1332.2,997.062 1335.55,996.375 1338.84,995.753 1342.06,995.191 1345.18,994.689 1348.19,994.246 1351.09,993.86 1353.85,993.531 1356.48,993.259 1358.98,993.046 1361.33,992.891 1363.55,992.797 1365.65,992.764 1367.61,992.797 1369.46,992.897 1371.2,993.069 1372.84,993.316 1374.38,993.644 1375.84,994.058 1377.23,994.566 1378.56,995.174 1379.83,995.892 1381.05,996.73 1382.25,997.697 1383.41,998.805 1384.57,1000.07 1385.71,1001.5 1386.85,1003.1 1388,1004.91 1389.15,1006.91 1390.32,1009.14 1391.5,1011.59 1392.68,1014.27 1393.87,1017.18 1395.04,1020.31 1396.18,1023.65 1397.27,1027.17 1398.29,1030.85 1399.21,1034.63 1400,1038.49 1400.63,1042.36 1401.08,1046.2 1401.32,1049.96 1401.34,1053.6 1401.12,1057.09 1400.66,1060.4 1399.95,1063.52 1398.99,1066.44 1397.78,1069.16 1396.33,1071.68 1394.64,1074.01 1392.72,1076.16 1390.59,1078.15 1388.25,1079.98 1385.73,1081.67 1383.02,1083.24 1380.16,1084.69 1377.17,1086.03 1374.06,1087.28 1370.86,1088.45 1367.59,1089.54 1364.28,1090.56 1360.95,1091.51 1357.64,1092.4 1354.36,1093.22 1351.13,1094 1347.98,1094.72 1344.92,1095.39 1341.96,1096.01 1339.12,1096.59 1336.41,1097.11 1333.83,1097.6 1331.38,1098.03 1329.07,1098.43 1326.89,1098.78 1324.84,1099.09 1322.92,1099.36 1321.12,1099.59 1319.43,1099.78 1317.86,1099.93 1316.38,1100.03 1315,1100.09 1313.7,1100.11 1312.48,1100.08 1311.33,1100 1310.24,1099.87 1309.2,1099.68 1308.21,1099.44 1307.25,1099.12 1306.32,1098.74 1305.41,1098.29 1304.51,1097.75 1303.62,1097.12 1302.72,1096.4 1301.82,1095.56 1300.9,1094.61 1299.95,1093.54 1298.98,1092.33 1297.98,1090.97 1296.95,1089.45 1295.88,1087.78 1294.79,1085.93 1293.67,1083.92 1292.54,1081.75 1291.41,1079.41 1290.3,1076.94 1289.24,1074.35 1288.25,1071.66 1287.36,1068.92 1286.6,1066.16 1286.01,1063.42 1285.6,1060.72 1285.41,1058.12 1285.44,1055.62 1285.72,1053.25 1286.25,1051.03 1287.03,1048.95 1288.07,1047.02 1289.36,1045.24 1290.9,1043.59 1292.68,1042.06 1294.7,1040.65 1296.94,1039.33 1299.38,1038.11 1302.03,1036.96 1304.85,1035.87 1307.84,1034.83 1310.96,1033.84 1314.19,1032.88 1317.52,1031.95 1320.9,1031.03 1324.32,1030.13 1327.74,1029.24 1331.14,1028.35 1334.49,1027.46 1337.76,1026.55 1340.93,1025.63 1343.98,1024.7 1346.89,1023.73 1349.65,1022.73 1352.24,1021.68 1354.66,1020.59 1356.89,1019.43 1358.93,1018.19 1360.78,1016.87 1362.44,1015.45 1363.89,1013.91 1365.14,1012.25 1366.18,1010.45 1367.02,1008.48 1367.65,1006.34 1368.07,1004.02 1368.27,1001.49 1368.25,998.765 1368.01,995.827 1367.56,992.682 1366.88,989.341 1366,985.822 1364.92,982.155 1363.65,978.376 1362.22,974.531 1360.64,970.669 1358.95,966.843 1357.17,963.103 1355.32,959.497 1353.44,956.062 1351.53,952.828 1349.61,949.816 1347.69,947.039 1345.78,944.5 1343.88,942.198 1341.98,940.125 1340.07,938.271 1338.16,936.625 1336.23,935.172 1334.26,933.9 1332.25,932.794 1330.19,931.842 1328.06,931.03 1325.85,930.348 1323.55,929.783 1321.15,929.327 1318.64,928.97 1316.01,928.702 1313.26,928.515 1310.38,928.403 1307.36,928.355 1304.22,928.367 1300.95,928.428 1297.56,928.532 1294.05,928.671 1290.45,928.836 1286.76,929.018 1282.99,929.208 1279.18,929.396 1275.33,929.571 1271.46,929.724 1267.6,929.842 1263.76,929.914 1259.94,929.927 1256.18,929.868 1252.46,929.726 1248.81,929.485 1245.22,929.132 1241.69,928.654 1238.22,928.036 1234.82,927.266 1231.47,926.33 1228.17,925.218 1224.92,923.921 1221.73,922.435 1218.59,920.759 1215.51,918.898 1212.5,916.865 1209.57,914.678 1206.74,912.363 1204.03,909.953 1201.45,907.484 1199.02,904.996 1196.76,902.526 1194.68,900.111 1192.79,897.782 1191.08,895.563 1189.56,893.473 1188.23,891.524 1187.08,889.72 1186.09,888.064 1185.27,886.551 1184.6,885.177 1184.08,883.934 1183.7,882.813 1183.45,881.803 1183.33,880.896 1183.33,880.082 1183.45,879.352 1183.68,878.696 1184.03,878.106 1184.49,877.576 1185.07,877.097 1185.76,876.664 1186.58,876.271 1187.51,875.911 1188.57,875.582 1189.76,875.278 1191.09,874.996 1192.55,874.732 1194.16,874.485 1195.92,874.251 1197.84,874.03 1199.91,873.821 1202.14,873.623 1204.54,873.437 1207.1,873.264 1209.83,873.107 1212.72,872.967 1215.77,872.851 1218.97,872.761 1222.32,872.706 1225.79,872.692 1229.38,872.729 1233.07,872.826 1236.85,872.995 1240.69,873.248 1244.59,873.599 1248.52,874.064 1252.47,874.657 1256.42,875.395 1260.36,876.293 1264.29,877.369 1268.19,878.638 1272.05,880.114 1275.88,881.809 1279.67,883.734 1283.41,885.892 1287.09,888.285 1290.71,890.904 1294.26,893.738 1297.72,896.763 1301.07,899.95 1304.31,903.262 1307.4,906.656 1310.35,910.087 1313.11,913.507 1315.7,916.871 1318.09,920.14 1320.29,923.278 1322.28,926.259 1324.08,929.064 1325.69,931.682 1327.11,934.107 1328.36,936.34 1329.44,938.386 1330.37,940.253 1331.14,941.951 1331.78,943.492 1332.29,944.887 1332.68,946.149 1332.94,947.29 1333.09,948.322 1333.12,949.257 1333.05,950.104 1332.86,950.874 1332.57,951.576 1332.16,952.218 1331.64,952.808 "/>
<path clip-path="url(#clip010)" d="M2009.76 1438.47 L2280.26 1438.47 L2280.26 1231.11 L2009.76 1231.11  Z" fill="#ffffff" fill-rule="evenodd" fill-opacity="1"/>
<polyline clip-path="url(#clip010)" style="stroke:#000000; stroke-linecap:round; stroke-linejoin:round; stroke-width:4; stroke-opacity:1; fill:none" points="2009.76,1438.47 2280.26,1438.47 2280.26,1231.11 2009.76,1231.11 2009.76,1438.47 "/>
<polyline clip-path="url(#clip010)" style="stroke:#009af9; stroke-linecap:round; stroke-linejoin:round; stroke-width:4; stroke-opacity:1; fill:none" points="2033.93,1282.95 2178.92,1282.95 "/>
<path clip-path="url(#clip010)" d="M2216.93 1302.64 Q2215.12 1307.27 2213.41 1308.68 Q2211.7 1310.1 2208.83 1310.1 L2205.42 1310.1 L2205.42 1306.53 L2207.92 1306.53 Q2209.68 1306.53 2210.65 1305.7 Q2211.63 1304.86 2212.81 1301.76 L2213.57 1299.82 L2203.09 1274.31 L2207.6 1274.31 L2215.7 1294.59 L2223.8 1274.31 L2228.32 1274.31 L2216.93 1302.64 Z" fill="#000000" fill-rule="nonzero" fill-opacity="1" /><path clip-path="url(#clip010)" d="M2235.61 1296.3 L2243.25 1296.3 L2243.25 1269.93 L2234.94 1271.6 L2234.94 1267.34 L2243.2 1265.67 L2247.88 1265.67 L2247.88 1296.3 L2255.52 1296.3 L2255.52 1300.23 L2235.61 1300.23 L2235.61 1296.3 Z" fill="#000000" fill-rule="nonzero" fill-opacity="1" /><polyline clip-path="url(#clip010)" style="stroke:#e26f46; stroke-linecap:round; stroke-linejoin:round; stroke-width:4; stroke-opacity:1; fill:none" points="2033.93,1334.79 2178.92,1334.79 "/>
<path clip-path="url(#clip010)" d="M2216.93 1354.48 Q2215.12 1359.11 2213.41 1360.52 Q2211.7 1361.94 2208.83 1361.94 L2205.42 1361.94 L2205.42 1358.37 L2207.92 1358.37 Q2209.68 1358.37 2210.65 1357.54 Q2211.63 1356.7 2212.81 1353.6 L2213.57 1351.66 L2203.09 1326.15 L2207.6 1326.15 L2215.7 1346.43 L2223.8 1326.15 L2228.32 1326.15 L2216.93 1354.48 Z" fill="#000000" fill-rule="nonzero" fill-opacity="1" /><path clip-path="url(#clip010)" d="M2238.83 1348.14 L2255.15 1348.14 L2255.15 1352.07 L2233.2 1352.07 L2233.2 1348.14 Q2235.86 1345.38 2240.45 1340.76 Q2245.05 1336.1 2246.23 1334.76 Q2248.48 1332.24 2249.36 1330.5 Q2250.26 1328.74 2250.26 1327.05 Q2250.26 1324.3 2248.32 1322.56 Q2246.4 1320.82 2243.29 1320.82 Q2241.09 1320.82 2238.64 1321.59 Q2236.21 1322.35 2233.43 1323.9 L2233.43 1319.18 Q2236.26 1318.05 2238.71 1317.47 Q2241.16 1316.89 2243.2 1316.89 Q2248.57 1316.89 2251.77 1319.57 Q2254.96 1322.26 2254.96 1326.75 Q2254.96 1328.88 2254.15 1330.8 Q2253.36 1332.7 2251.26 1335.29 Q2250.68 1335.96 2247.58 1339.18 Q2244.47 1342.38 2238.83 1348.14 Z" fill="#000000" fill-rule="nonzero" fill-opacity="1" /><polyline clip-path="url(#clip010)" style="stroke:#3da44d; stroke-linecap:round; stroke-linejoin:round; stroke-width:4; stroke-opacity:1; fill:none" points="2033.93,1386.63 2178.92,1386.63 "/>
<path clip-path="url(#clip010)" d="M2216.93 1406.32 Q2215.12 1410.95 2213.41 1412.36 Q2211.7 1413.78 2208.83 1413.78 L2205.42 1413.78 L2205.42 1410.21 L2207.92 1410.21 Q2209.68 1410.21 2210.65 1409.38 Q2211.63 1408.54 2212.81 1405.44 L2213.57 1403.5 L2203.09 1377.99 L2207.6 1377.99 L2215.7 1398.27 L2223.8 1377.99 L2228.32 1377.99 L2216.93 1406.32 Z" fill="#000000" fill-rule="nonzero" fill-opacity="1" /><path clip-path="url(#clip010)" d="M2248.96 1385.28 Q2252.32 1386 2254.2 1388.27 Q2256.09 1390.53 2256.09 1393.87 Q2256.09 1398.98 2252.58 1401.78 Q2249.06 1404.59 2242.58 1404.59 Q2240.4 1404.59 2238.09 1404.15 Q2235.79 1403.73 2233.34 1402.87 L2233.34 1398.36 Q2235.28 1399.49 2237.6 1400.07 Q2239.91 1400.65 2242.44 1400.65 Q2246.84 1400.65 2249.13 1398.91 Q2251.44 1397.18 2251.44 1393.87 Q2251.44 1390.81 2249.29 1389.1 Q2247.16 1387.36 2243.34 1387.36 L2239.31 1387.36 L2239.31 1383.52 L2243.52 1383.52 Q2246.97 1383.52 2248.8 1382.16 Q2250.63 1380.77 2250.63 1378.17 Q2250.63 1375.51 2248.73 1374.1 Q2246.86 1372.66 2243.34 1372.66 Q2241.42 1372.66 2239.22 1373.08 Q2237.02 1373.5 2234.38 1374.38 L2234.38 1370.21 Q2237.04 1369.47 2239.36 1369.1 Q2241.7 1368.73 2243.76 1368.73 Q2249.08 1368.73 2252.18 1371.16 Q2255.28 1373.57 2255.28 1377.69 Q2255.28 1380.56 2253.64 1382.55 Q2252 1384.52 2248.96 1385.28 Z" fill="#000000" fill-rule="nonzero" fill-opacity="1" /></svg>
